<svg width="40" height="39" viewBox="0 0 40 39" fill="none" xmlns="http://www.w3.org/2000/svg">
<g clip-path="url(#clip0_320_32136)">
<path d="M34.84 38.82H4.97998C3.79262 38.8174 2.65465 38.3445 1.81506 37.5049C0.975472 36.6654 0.502642 35.5274 0.5 34.34V4.48001C0.502642 3.29265 0.975472 2.15469 1.81506 1.31509C2.65465 0.475503 3.79262 0.00264152 4.97998 0H34.84C36.0274 0.00264152 37.1654 0.475503 38.0049 1.31509C38.8445 2.15469 39.3174 3.29265 39.32 4.48001V34.34C39.3174 35.5274 38.8445 36.6654 38.0049 37.5049C37.1654 38.3445 36.0274 38.8174 34.84 38.82ZM4.97998 2.98001C4.58389 2.98265 4.20493 3.14186 3.92578 3.42288C3.64664 3.7039 3.48998 4.08391 3.48999 4.48001V34.34C3.48999 34.7352 3.64696 35.1142 3.92639 35.3936C4.20582 35.673 4.58481 35.83 4.97998 35.83H34.84C35.2361 35.83 35.6161 35.6734 35.8972 35.3942C36.1782 35.1151 36.3374 34.7361 36.34 34.34V4.48001C36.34 4.08219 36.1819 3.70065 35.9006 3.41934C35.6193 3.13804 35.2379 2.98001 34.84 2.98001H4.97998Z" fill="white"/>
<path d="M36.3396 37.32C36.1432 37.3222 35.9483 37.2854 35.7664 37.2116C35.5844 37.1378 35.4189 37.0284 35.2796 36.89L14.9996 16.64C14.717 16.3615 14.3363 16.2054 13.9396 16.2054C13.5429 16.2054 13.1621 16.3615 12.8796 16.64L3.04956 26.47C2.91183 26.61 2.74766 26.7212 2.56653 26.7971C2.3854 26.873 2.19095 26.912 1.99457 26.912C1.79818 26.912 1.6038 26.873 1.42267 26.7971C1.24154 26.7212 1.0773 26.61 0.939575 26.47C0.661717 26.1892 0.505859 25.8101 0.505859 25.415C0.505859 25.0199 0.661717 24.6408 0.939575 24.36L10.7696 14.53C11.1857 14.1134 11.6798 13.7828 12.2238 13.5573C12.7677 13.3318 13.3507 13.2157 13.9396 13.2157C14.5284 13.2157 15.1115 13.3318 15.6554 13.5573C16.1993 13.7828 16.6935 14.1134 17.1096 14.53L37.3896 34.81C37.6681 35.0926 37.8242 35.4733 37.8242 35.87C37.8242 36.2667 37.6681 36.6475 37.3896 36.93C37.1042 37.1926 36.7272 37.3326 36.3396 37.32Z" fill="white"/>
<path d="M37.8305 25.38C37.433 25.3786 37.0522 25.2205 36.7705 24.94L31.4205 19.64C31.1396 19.3622 30.7605 19.2063 30.3655 19.2063C29.9704 19.2063 29.5913 19.3622 29.3105 19.64L25.4505 23.5C25.1697 23.7779 24.7906 23.9337 24.3955 23.9337C24.0004 23.9337 23.6213 23.7779 23.3405 23.5C23.2005 23.3623 23.0893 23.1981 23.0134 23.0169C22.9375 22.8358 22.8984 22.6414 22.8984 22.445C22.8984 22.2486 22.9375 22.0542 23.0134 21.8731C23.0893 21.6919 23.2005 21.5277 23.3405 21.39L27.2005 17.53C27.6157 17.1137 28.109 16.7833 28.6521 16.558C29.1952 16.3326 29.7775 16.2166 30.3655 16.2166C30.9535 16.2166 31.5358 16.3326 32.0789 16.558C32.622 16.7833 33.1153 17.1137 33.5305 17.53L38.8805 22.88C39.0836 23.0866 39.2225 23.3475 39.2805 23.6313C39.3385 23.9151 39.3131 24.2096 39.2073 24.4792C39.1016 24.7489 38.92 24.9822 38.6846 25.1509C38.4491 25.3196 38.1698 25.4166 37.8805 25.43L37.8305 25.38Z" fill="white"/>
</g>
<defs>
<clipPath id="clip0_320_32136">
<rect width="38.82" height="38.82" fill="white" transform="translate(0.5)"/>
</clipPath>
</defs>
</svg>
