<svg width="52" height="56" viewBox="0 0 52 56" fill="none" xmlns="http://www.w3.org/2000/svg">
<path d="M47.13 43.6953H3.88C2.85097 43.6953 1.86407 43.2865 1.13643 42.5589C0.408788 41.8312 0 40.8443 0 39.8153V13.3053C0.00263988 12.2771 0.412274 11.2917 1.13934 10.5646C1.86641 9.83757 2.85178 9.42793 3.88 9.42529C4.10618 9.44897 4.31558 9.55558 4.46779 9.72455C4.61999 9.89352 4.70422 10.1129 4.70422 10.3403C4.70422 10.5677 4.61999 10.7871 4.46779 10.956C4.31558 11.125 4.10618 11.2316 3.88 11.2553C3.60828 11.2513 3.33848 11.3014 3.08629 11.4026C2.8341 11.5039 2.60454 11.6543 2.411 11.845C2.21745 12.0358 2.06376 12.2631 1.95886 12.5138C1.85397 12.7645 1.79997 13.0335 1.8 13.3053V39.8153C1.8 40.0858 1.85329 40.3537 1.95682 40.6036C2.06034 40.8536 2.21208 41.0806 2.40337 41.2719C2.59465 41.4632 2.82174 41.615 3.07167 41.7185C3.3216 41.822 3.58948 41.8753 3.86 41.8753H47.11C47.3805 41.8753 47.6484 41.822 47.8983 41.7185C48.1483 41.615 48.3754 41.4632 48.5667 41.2719C48.7579 41.0806 48.9097 40.8536 49.0132 40.6036C49.1167 40.3537 49.17 40.0858 49.17 39.8153V13.3053C49.17 13.0352 49.1166 12.7678 49.013 12.5185C48.9094 12.2691 48.7575 12.0427 48.566 11.8522C48.3746 11.6617 48.1474 11.5109 47.8976 11.4085C47.6477 11.306 47.3801 11.254 47.11 11.2553C46.8838 11.2316 46.6744 11.125 46.5222 10.956C46.37 10.7871 46.2858 10.5677 46.2858 10.3403C46.2858 10.1129 46.37 9.89352 46.5222 9.72455C46.6744 9.55558 46.8838 9.44897 47.11 9.42529C48.1382 9.42793 49.1236 9.83757 49.8507 10.5646C50.5777 11.2917 50.9874 12.2771 50.99 13.3053V39.8153C50.99 40.8409 50.584 41.8247 49.8607 42.5518C49.1373 43.2789 48.1556 43.69 47.13 43.6953Z" fill="#00A3FF"/>
<path d="M50.1 39.2053H0.910004C0.668657 39.2053 0.437199 39.1094 0.266541 38.9387C0.0958824 38.7681 0 38.5366 0 38.2953C0 38.0539 0.0958824 37.8224 0.266541 37.6518C0.437199 37.4811 0.668657 37.3853 0.910004 37.3853H50.1C50.3414 37.3853 50.5728 37.4811 50.7435 37.6518C50.9141 37.8224 51.01 38.0539 51.01 38.2953C51.01 38.5366 50.9141 38.7681 50.7435 38.9387C50.5728 39.1094 50.3414 39.2053 50.1 39.2053Z" fill="#00A3FF"/>
<path d="M28.5703 48.5955H22.4403C22.1989 48.5955 21.9675 48.4996 21.7968 48.329C21.6262 48.1583 21.5303 47.9268 21.5303 47.6855V42.7855C21.5303 42.5441 21.6262 42.3127 21.7968 42.142C21.9675 41.9714 22.1989 41.8755 22.4403 41.8755H28.5703C28.8116 41.8755 29.0431 41.9714 29.2137 42.142C29.3844 42.3127 29.4803 42.5441 29.4803 42.7855V47.6855C29.4803 47.9268 29.3844 48.1583 29.2137 48.329C29.0431 48.4996 28.8116 48.5955 28.5703 48.5955ZM23.3503 46.7755H27.6603V43.6955H23.3503V46.7755Z" fill="#00A3FF"/>
<path d="M33.5998 55.5057H17.4098C17.2019 55.505 17.0005 55.4331 16.8391 55.3019C16.6777 55.1708 16.5661 54.9883 16.5228 54.7849C16.4796 54.5815 16.5073 54.3695 16.6014 54.184C16.6954 53.9986 16.8502 53.8509 17.0398 53.7657C20.5098 52.1957 20.3198 47.7657 20.3198 47.7657C20.3153 47.5157 20.4044 47.2731 20.5698 47.0857C20.6552 46.9967 20.7576 46.9261 20.8711 46.8779C20.9846 46.8298 21.1066 46.8052 21.2298 46.8057H29.7998C29.9231 46.8052 30.0451 46.8298 30.1586 46.8779C30.272 46.9261 30.3745 46.9967 30.4598 47.0857C30.6252 47.2731 30.7144 47.5157 30.7098 47.7657C30.7098 47.9457 30.5498 52.2357 33.9898 53.7657C34.1795 53.8509 34.3343 53.9986 34.4283 54.184C34.5224 54.3695 34.5501 54.5815 34.5069 54.7849C34.4636 54.9883 34.352 55.1708 34.1906 55.3019C34.0292 55.4331 33.8278 55.505 33.6199 55.5057H33.5998ZM20.1398 53.6857H30.8699C29.6819 52.2431 28.9817 50.4611 28.8699 48.5957H22.0798C21.9851 50.4542 21.3062 52.2355 20.1398 53.6857Z" fill="#00A3FF"/>
<path d="M38.06 55.5055H12.95C12.8305 55.5055 12.7122 55.482 12.6018 55.4363C12.4914 55.3905 12.3911 55.3235 12.3066 55.239C12.2221 55.1545 12.155 55.0542 12.1093 54.9438C12.0636 54.8334 12.04 54.715 12.04 54.5955C12.04 54.476 12.0636 54.3577 12.1093 54.2473C12.155 54.1369 12.2221 54.0366 12.3066 53.9521C12.3911 53.8676 12.4914 53.8005 12.6018 53.7548C12.7122 53.7091 12.8305 53.6855 12.95 53.6855H38.06C38.3014 53.6855 38.5328 53.7814 38.7035 53.9521C38.8742 54.1227 38.97 54.3542 38.97 54.5955C38.97 54.8369 38.8742 55.0684 38.7035 55.239C38.5328 55.4097 38.3014 55.5055 38.06 55.5055Z" fill="#00A3FF"/>
<path d="M29.1101 39.2053H21.9001C21.6588 39.2053 21.4273 39.1094 21.2567 38.9387C21.086 38.7681 20.9901 38.5366 20.9901 38.2953V24.0353C20.7667 24.1041 20.5339 24.1378 20.3001 24.1353H20.1501C19.4853 24.1326 18.8484 23.8673 18.3782 23.3972C17.9081 22.927 17.6428 22.2901 17.6401 21.6253V13.7053C17.6401 12.6258 18.0689 11.5906 18.8322 10.8273C19.5955 10.0641 20.6307 9.63525 21.7101 9.63525H29.3001C30.3796 9.63525 31.4148 10.0641 32.1781 10.8273C32.9413 11.5906 33.3701 12.6258 33.3701 13.7053V21.6253C33.3675 22.2901 33.1022 22.927 32.6321 23.3972C32.1619 23.8673 31.525 24.1326 30.8601 24.1353H30.7101C30.4764 24.1378 30.2436 24.1041 30.0201 24.0353V38.2053C30.0328 38.3321 30.0186 38.4602 29.9785 38.5812C29.9385 38.7022 29.8734 38.8135 29.7876 38.9077C29.7019 39.002 29.5972 39.0772 29.4805 39.1285C29.3638 39.1797 29.2376 39.2059 29.1101 39.2053ZM22.8001 37.3353H28.1901V21.6253C28.1901 21.3839 28.286 21.1524 28.4567 20.9818C28.6273 20.8111 28.8588 20.7153 29.1001 20.7153C29.3415 20.7153 29.5729 20.8111 29.7436 20.9818C29.9143 21.1524 30.0101 21.3839 30.0101 21.6253C30.0101 21.8083 30.0828 21.9838 30.2122 22.1132C30.3416 22.2426 30.5171 22.3153 30.7001 22.3153H30.8501C31.0331 22.3153 31.2086 22.2426 31.338 22.1132C31.4674 21.9838 31.5401 21.8083 31.5401 21.6253V13.7053C31.5401 13.1085 31.3031 12.5362 30.8811 12.1143C30.4592 11.6923 29.8869 11.4553 29.2901 11.4553H21.7001C21.1034 11.4553 20.5311 11.6923 20.1091 12.1143C19.6872 12.5362 19.4501 13.1085 19.4501 13.7053V21.6253C19.4501 21.8083 19.5228 21.9838 19.6522 22.1132C19.7816 22.2426 19.9571 22.3153 20.1401 22.3153H20.2901C20.4731 22.3153 20.6486 22.2426 20.778 22.1132C20.9074 21.9838 20.9801 21.8083 20.9801 21.6253C20.9801 21.3839 21.076 21.1524 21.2467 20.9818C21.4173 20.8111 21.6488 20.7153 21.8901 20.7153C22.1315 20.7153 22.363 20.8111 22.5336 20.9818C22.7043 21.1524 22.8001 21.3839 22.8001 21.6253V37.3353Z" fill="#00A3FF"/>
<path d="M21.9002 22.5354C21.6589 22.5354 21.4274 22.4395 21.2568 22.2688C21.0861 22.0982 20.9902 21.8667 20.9902 21.6254V16.2054C21.0138 15.9817 21.1193 15.7748 21.2864 15.6243C21.4535 15.4739 21.6704 15.3906 21.8952 15.3906C22.1201 15.3906 22.337 15.4739 22.5041 15.6243C22.6712 15.7748 22.7767 15.9817 22.8002 16.2054V21.5854C22.8056 21.7074 22.7864 21.8292 22.7437 21.9436C22.701 22.058 22.6357 22.1626 22.5517 22.2513C22.4677 22.3399 22.3668 22.4107 22.2549 22.4595C22.1429 22.5084 22.0223 22.5341 21.9002 22.5354Z" fill="#00A3FF"/>
<path d="M29.1102 22.5354C28.8689 22.5354 28.6374 22.4395 28.4667 22.2689C28.2961 22.0982 28.2002 21.8668 28.2002 21.6254V16.2054C28.2002 15.9641 28.2961 15.7326 28.4667 15.5619C28.6374 15.3913 28.8689 15.2954 29.1102 15.2954C29.3515 15.2954 29.583 15.3913 29.7537 15.5619C29.9243 15.7326 30.0202 15.9641 30.0202 16.2054V21.5854C30.0256 21.7082 30.0061 21.8309 29.9628 21.9459C29.9194 22.061 29.8533 22.1661 29.7682 22.2549C29.6832 22.3437 29.581 22.4143 29.4679 22.4625C29.3548 22.5107 29.2331 22.5355 29.1102 22.5354Z" fill="#00A3FF"/>
<path d="M25.5101 8.83547C24.6281 8.87543 23.7543 8.65029 23.0014 8.18909C22.2485 7.72789 21.6509 7.05175 21.2858 6.24784C20.9207 5.44393 20.8047 4.54909 20.9528 3.67865C21.1008 2.80821 21.5063 2.00207 22.1167 1.36414C22.7271 0.72621 23.5146 0.285728 24.3777 0.0994682C25.2408 -0.0867921 26.1399 -0.0102931 26.9591 0.319105C27.7783 0.648503 28.4801 1.2157 28.974 1.9476C29.4679 2.67949 29.7312 3.54253 29.7301 4.42547C29.7516 5.56883 29.3199 6.67427 28.5293 7.50049C27.7387 8.32671 26.6533 8.80662 25.5101 8.83547ZM25.5101 1.83547C24.9893 1.79529 24.4684 1.91296 24.0153 2.17313C23.5623 2.43331 23.1981 2.82393 22.9703 3.29409C22.7425 3.76424 22.6617 4.29211 22.7382 4.8089C22.8148 5.32568 23.0453 5.80742 23.3997 6.1913C23.754 6.57518 24.2158 6.84341 24.7248 6.96103C25.2338 7.07864 25.7665 7.04018 26.2533 6.85067C26.7402 6.66115 27.1586 6.32936 27.4542 5.89856C27.7497 5.46775 27.9086 4.9579 27.9101 4.43547C27.9372 3.7713 27.6998 3.12351 27.2498 2.6342C26.7999 2.1449 26.1743 1.85405 25.5101 1.82548V1.83547Z" fill="#00A3FF"/>
<path d="M25.5099 39.2056C25.2676 39.2056 25.0351 39.1101 24.8628 38.9397C24.6906 38.7693 24.5925 38.5379 24.5898 38.2956V26.0156C24.6135 25.7894 24.7201 25.58 24.8891 25.4278C25.0581 25.2756 25.2774 25.1914 25.5049 25.1914C25.7323 25.1914 25.9516 25.2756 26.1206 25.4278C26.2896 25.58 26.3962 25.7894 26.4198 26.0156V38.2056C26.4325 38.3325 26.4183 38.4605 26.3782 38.5816C26.3382 38.7026 26.2731 38.8138 26.1873 38.9081C26.1016 39.0024 25.9969 39.0776 25.8802 39.1288C25.7635 39.1801 25.6373 39.2062 25.5099 39.2056Z" fill="#00A3FF"/>
<path d="M39.9199 36.3356C38.873 36.3447 37.8425 36.0751 36.9342 35.5545C36.0259 35.0338 35.2725 34.2809 34.7513 33.3729C34.2301 32.4649 33.9599 31.4345 33.9685 30.3876C33.977 29.3407 34.264 28.3149 34.7999 27.4156C34.8566 27.3047 34.9354 27.2067 35.0315 27.1276C35.1275 27.0484 35.2388 26.9898 35.3584 26.9554C35.478 26.921 35.6034 26.9115 35.7269 26.9274C35.8503 26.9434 35.9692 26.9845 36.0761 27.0483C36.183 27.112 36.2757 27.197 36.3484 27.298C36.4212 27.399 36.4725 27.5138 36.4991 27.6354C36.5257 27.757 36.527 27.8828 36.5031 28.0049C36.4792 28.1271 36.4304 28.243 36.3599 28.3456C36.0394 28.8872 35.8483 29.4954 35.8013 30.123C35.7543 30.7505 35.8528 31.3805 36.0891 31.9638C36.3253 32.547 36.693 33.0679 37.1635 33.4859C37.6339 33.9039 38.1945 34.2076 38.8016 34.3736C39.4086 34.5395 40.0458 34.5631 40.6634 34.4425C41.2811 34.322 41.8626 34.0605 42.3627 33.6785C42.8628 33.2965 43.268 32.8042 43.5468 32.24C43.8255 31.6758 43.9703 31.0549 43.9699 30.4256C43.9699 30.3061 43.9935 30.1877 44.0392 30.0773C44.0849 29.9669 44.1519 29.8666 44.2364 29.7821C44.3209 29.6976 44.4213 29.6306 44.5317 29.5848C44.6421 29.5391 44.7604 29.5156 44.8799 29.5156C44.9994 29.5156 45.1177 29.5391 45.2281 29.5848C45.3386 29.6306 45.4389 29.6976 45.5234 29.7821C45.6079 29.8666 45.6749 29.9669 45.7206 30.0773C45.7664 30.1877 45.7899 30.3061 45.7899 30.4256C45.7873 31.9853 45.1693 33.481 44.0702 34.5876C42.971 35.6942 41.4796 36.3224 39.9199 36.3356Z" fill="#00A3FF"/>
<path d="M43.2298 27.5957C43.0087 27.5936 42.7957 27.512 42.6298 27.3657C42.0309 26.8451 41.2952 26.5072 40.51 26.392C39.7248 26.2768 38.9231 26.3891 38.1998 26.7157C38.0917 26.7677 37.9743 26.7975 37.8545 26.8035C37.7347 26.8094 37.6149 26.7914 37.5022 26.7504C37.3895 26.7094 37.2861 26.6463 37.1981 26.5648C37.1101 26.4832 37.0393 26.3849 36.9898 26.2757C36.9392 26.1673 36.9105 26.0501 36.9052 25.9306C36.8999 25.8112 36.9182 25.6919 36.9591 25.5795C36.9999 25.4671 37.0626 25.3639 37.1433 25.2757C37.2241 25.1876 37.3215 25.1162 37.4298 25.0657C38.475 24.5946 39.6332 24.4327 40.7674 24.5993C41.9016 24.7659 42.9643 25.254 43.8298 26.0057C43.9199 26.0839 43.9936 26.1794 44.0464 26.2864C44.0993 26.3934 44.1304 26.5098 44.1378 26.6289C44.1452 26.748 44.1289 26.8674 44.0898 26.9802C44.0507 27.0929 43.9895 27.1968 43.9098 27.2857C43.8245 27.382 43.7199 27.4594 43.6027 27.5128C43.4856 27.5662 43.3586 27.5944 43.2298 27.5957Z" fill="#00A3FF"/>
<path d="M41.7401 21.0755C40.7836 21.0775 39.8481 20.796 39.0515 20.2667C38.2549 19.7374 37.633 18.984 37.2643 18.1015C36.8956 17.219 36.7966 16.2471 36.9798 15.3084C37.163 14.3697 37.6202 13.5063 38.2937 12.8273C38.9671 12.1482 39.8267 11.6839 40.7639 11.4929C41.701 11.302 42.6737 11.393 43.5592 11.7544C44.4447 12.1159 45.2033 12.7315 45.7391 13.5237C46.275 14.3159 46.5641 15.2491 46.5701 16.2055C46.6021 16.3392 46.6033 16.4785 46.5738 16.6128C46.5443 16.7471 46.4847 16.873 46.3995 16.981C46.3143 17.0889 46.2058 17.1762 46.082 17.2362C45.9583 17.2962 45.8226 17.3273 45.685 17.3273C45.5475 17.3273 45.4118 17.2962 45.2881 17.2362C45.1643 17.1762 45.0558 17.0889 44.9706 16.981C44.8854 16.873 44.8258 16.7471 44.7963 16.6128C44.7668 16.4785 44.768 16.3392 44.8 16.2055C44.8 15.6122 44.6241 15.0321 44.2945 14.5388C43.9648 14.0454 43.4963 13.6609 42.9481 13.4339C42.3999 13.2068 41.7967 13.1474 41.2148 13.2631C40.6328 13.3789 40.0983 13.6646 39.6787 14.0842C39.2592 14.5037 38.9735 15.0383 38.8577 15.6202C38.7419 16.2022 38.8013 16.8054 39.0284 17.3535C39.2555 17.9017 39.64 18.3703 40.1333 18.6999C40.6267 19.0296 41.2067 19.2055 41.8 19.2055C42.4836 19.2061 43.1469 18.9733 43.6801 18.5455C43.7766 18.472 43.8866 18.4181 44.004 18.3871C44.1213 18.3561 44.2435 18.3485 44.3638 18.3648C44.4841 18.381 44.5999 18.4208 44.7048 18.4819C44.8097 18.5429 44.9015 18.624 44.9751 18.7205C45.0486 18.817 45.1024 18.9271 45.1334 19.0444C45.1644 19.1617 45.172 19.284 45.1557 19.4042C45.1395 19.5245 45.0997 19.6404 45.0387 19.7452C44.9777 19.8501 44.8966 19.942 44.8 20.0155C43.93 20.7061 42.8508 21.08 41.7401 21.0755Z" fill="#00A3FF"/>
<path d="M37.7999 17.2053H36.3099C36.1904 17.2053 36.0721 17.1817 35.9617 17.136C35.8512 17.0903 35.7509 17.0232 35.6664 16.9387C35.5819 16.8542 35.5149 16.7539 35.4692 16.6435C35.4234 16.5331 35.3999 16.4148 35.3999 16.2953C35.3999 16.1758 35.4234 16.0574 35.4692 15.947C35.5149 15.8366 35.5819 15.7363 35.6664 15.6518C35.7509 15.5673 35.8512 15.5003 35.9617 15.4545C36.0721 15.4088 36.1904 15.3853 36.3099 15.3853H37.7999C38.0412 15.3853 38.2727 15.4811 38.4434 15.6518C38.614 15.8224 38.7099 16.0539 38.7099 16.2953C38.7099 16.5366 38.614 16.7681 38.4434 16.9387C38.2727 17.1094 38.0412 17.2053 37.7999 17.2053Z" fill="#00A3FF"/>
<path d="M40.5802 26.3856H40.4602C40.2256 26.3532 40.0129 26.2306 39.8673 26.0439C39.7216 25.8571 39.6545 25.621 39.6802 25.3856L40.4002 20.0456C40.4083 19.9212 40.442 19.7999 40.499 19.6891C40.556 19.5782 40.6351 19.4803 40.7316 19.4013C40.828 19.3224 40.9396 19.264 41.0595 19.23C41.1793 19.1959 41.3049 19.1868 41.4285 19.2033C41.552 19.2198 41.6708 19.2614 41.7776 19.3257C41.8844 19.39 41.9768 19.4755 42.0492 19.577C42.1215 19.6785 42.1722 19.7937 42.1982 19.9156C42.2242 20.0375 42.2248 20.1635 42.2002 20.2856L41.4902 25.6256C41.4524 25.8392 41.3404 26.0327 41.1739 26.1717C41.0074 26.3108 40.7971 26.3866 40.5802 26.3856Z" fill="#00A3FF"/>
<path d="M34.9198 31.3356H32.4598C32.3403 31.3356 32.222 31.3121 32.1116 31.2664C32.0012 31.2206 31.9008 31.1536 31.8163 31.0691C31.7318 30.9846 31.6648 30.8843 31.6191 30.7739C31.5733 30.6635 31.5498 30.5451 31.5498 30.4256C31.5498 30.3061 31.5733 30.1878 31.6191 30.0774C31.6648 29.967 31.7318 29.8667 31.8163 29.7822C31.9008 29.6977 32.0012 29.6306 32.1116 29.5849C32.222 29.5392 32.3403 29.5156 32.4598 29.5156H34.9198C35.1611 29.5156 35.3926 29.6115 35.5633 29.7822C35.7339 29.9528 35.8298 30.1843 35.8298 30.4256C35.8298 30.667 35.7339 30.8984 35.5633 31.0691C35.3926 31.2397 35.1611 31.3356 34.9198 31.3356Z" fill="#00A3FF"/>
<path d="M11.0902 36.3356C9.52355 36.3329 8.02186 35.7094 6.91409 34.6016C5.80633 33.4939 5.18282 31.9922 5.18018 30.4256C5.18018 30.1842 5.27604 29.9527 5.4467 29.7821C5.61736 29.6114 5.84882 29.5156 6.09016 29.5156C6.33151 29.5156 6.56298 29.6114 6.73364 29.7821C6.9043 29.9527 7.00017 30.1842 7.00017 30.4256C6.99975 31.0549 7.14456 31.6758 7.42332 32.24C7.70209 32.8042 8.10729 33.2965 8.60739 33.6785C9.10749 34.0605 9.689 34.322 10.3067 34.4425C10.9243 34.5631 11.5615 34.5395 12.1685 34.3736C12.7756 34.2076 13.3361 33.9039 13.8066 33.4859C14.2771 33.0679 14.6447 32.547 14.881 31.9638C15.1173 31.3805 15.2157 30.7505 15.1688 30.123C15.1218 29.4954 14.9306 28.8872 14.6102 28.3456C14.5396 28.243 14.4909 28.1271 14.467 28.0049C14.443 27.8828 14.4444 27.757 14.471 27.6354C14.4976 27.5138 14.5489 27.399 14.6216 27.298C14.6944 27.197 14.7871 27.112 14.894 27.0483C15.0009 26.9845 15.1198 26.9434 15.2432 26.9274C15.3666 26.9115 15.4921 26.921 15.6117 26.9554C15.7313 26.9898 15.8426 27.0484 15.9386 27.1276C16.0347 27.2067 16.1135 27.3047 16.1702 27.4156C16.7043 28.312 16.9911 29.3341 17.0014 30.3776C17.0117 31.421 16.745 32.4486 16.2286 33.3554C15.7121 34.2621 14.9645 35.0157 14.0618 35.5393C13.1591 36.0628 12.1337 36.3376 11.0902 36.3356Z" fill="#00A3FF"/>
<path d="M7.79986 27.5957C7.67114 27.5944 7.5441 27.5662 7.42697 27.5128C7.30984 27.4594 7.20522 27.382 7.11987 27.2857C7.04022 27.1968 6.97905 27.0929 6.93991 26.9802C6.90077 26.8674 6.88444 26.748 6.89189 26.6289C6.89933 26.5098 6.9304 26.3934 6.98327 26.2864C7.03615 26.1794 7.10976 26.0839 7.19986 26.0057C8.06537 25.254 9.12813 24.7659 10.2623 24.5993C11.3966 24.4327 12.5548 24.5946 13.5999 25.0657C13.8187 25.1678 13.9879 25.3526 14.0705 25.5795C14.153 25.8065 14.142 26.0569 14.0399 26.2757C13.9378 26.4945 13.7529 26.6638 13.526 26.7463C13.2991 26.8288 13.0487 26.8178 12.8299 26.7157C12.1063 26.3903 11.3049 26.2787 10.52 26.3938C9.73505 26.509 8.99945 26.8462 8.39987 27.3657C8.23401 27.512 8.02101 27.5936 7.79986 27.5957Z" fill="#00A3FF"/>
<path d="M9.27023 21.0758C8.18002 21.0667 7.1241 20.6936 6.27023 20.0158C6.08407 19.8631 5.96515 19.6436 5.93898 19.4043C5.9128 19.165 5.98147 18.925 6.13023 18.7358C6.20423 18.6413 6.29636 18.5627 6.40121 18.5043C6.50606 18.446 6.62149 18.4093 6.74075 18.3962C6.86 18.3832 6.98067 18.3941 7.09564 18.4284C7.21061 18.4627 7.31757 18.5196 7.41023 18.5958C7.9434 19.0235 8.60668 19.2564 9.29023 19.2558C9.88358 19.2558 10.4636 19.0798 10.9569 18.7502C11.4503 18.4205 11.8348 17.952 12.0619 17.4038C12.2889 16.8556 12.3483 16.2524 12.2326 15.6705C12.1168 15.0885 11.8311 14.554 11.4115 14.1344C10.992 13.7149 10.4574 13.4292 9.8755 13.3134C9.29356 13.1976 8.69035 13.2571 8.14218 13.4841C7.594 13.7112 7.12546 14.0957 6.79582 14.589C6.46617 15.0824 6.29023 15.6624 6.29023 16.2558C6.29023 16.3753 6.26669 16.4936 6.22096 16.604C6.17523 16.7144 6.10819 16.8147 6.02369 16.8992C5.93919 16.9837 5.83887 17.0508 5.72846 17.0965C5.61806 17.1422 5.49973 17.1658 5.38023 17.1658C5.26073 17.1658 5.14238 17.1422 5.03198 17.0965C4.92157 17.0508 4.82127 16.9837 4.73677 16.8992C4.65226 16.8147 4.58523 16.7144 4.5395 16.604C4.49377 16.4936 4.47023 16.3753 4.47023 16.2558C4.46825 15.2976 4.75068 14.3605 5.28175 13.563C5.81281 12.7656 6.56861 12.1437 7.45341 11.7761C8.33821 11.4085 9.31221 11.3118 10.252 11.4983C11.1918 11.6847 12.0551 12.1459 12.7326 12.8234C13.4101 13.5009 13.8713 14.3642 14.0577 15.304C14.2441 16.2438 14.1475 17.2178 13.7799 18.1026C13.4123 18.9874 12.7904 19.7432 11.9929 20.2742C11.1955 20.8053 10.2583 21.0877 9.30023 21.0858L9.27023 21.0758Z" fill="#00A3FF"/>
<path d="M14.69 17.2053H13.2C13.0805 17.2053 12.9622 17.1817 12.8518 17.136C12.7414 17.0903 12.6411 17.0232 12.5566 16.9387C12.4721 16.8542 12.405 16.7539 12.3593 16.6435C12.3136 16.5331 12.29 16.4148 12.29 16.2953C12.29 16.1758 12.3136 16.0574 12.3593 15.947C12.405 15.8366 12.4721 15.7363 12.5566 15.6518C12.6411 15.5673 12.7414 15.5003 12.8518 15.4545C12.9622 15.4088 13.0805 15.3853 13.2 15.3853H14.69C14.9314 15.3853 15.1628 15.4811 15.3335 15.6518C15.5042 15.8224 15.6 16.0539 15.6 16.2953C15.6 16.5366 15.5042 16.7681 15.3335 16.9387C15.1628 17.1094 14.9314 17.2053 14.69 17.2053Z" fill="#00A3FF"/>
<path d="M10.4303 26.3858C10.2089 26.3856 9.99506 26.3057 9.82791 26.1606C9.66077 26.0154 9.55154 25.8149 9.52026 25.5958L8.80026 20.2558C8.77557 20.1337 8.77624 20.0077 8.80222 19.8858C8.82819 19.764 8.87893 19.6487 8.95128 19.5472C9.02363 19.4458 9.11606 19.3602 9.22283 19.2959C9.32959 19.2316 9.44843 19.19 9.57196 19.1735C9.6955 19.157 9.82108 19.1661 9.94096 19.2002C10.0608 19.2342 10.1724 19.2926 10.2689 19.3716C10.3653 19.4505 10.4444 19.5485 10.5015 19.6593C10.5585 19.7701 10.5921 19.8915 10.6003 20.0158L11.3203 25.3558C11.3459 25.5912 11.2788 25.8274 11.1331 26.0141C10.9875 26.2008 10.7748 26.3234 10.5403 26.3558L10.4303 26.3858Z" fill="#00A3FF"/>
<path d="M18.5502 31.3356H16.0902C15.9707 31.3356 15.8523 31.3121 15.7419 31.2664C15.6315 31.2206 15.5312 31.1536 15.4467 31.0691C15.3622 30.9846 15.2952 30.8843 15.2494 30.7739C15.2037 30.6635 15.1802 30.5451 15.1802 30.4256C15.1802 30.3061 15.2037 30.1878 15.2494 30.0774C15.2952 29.967 15.3622 29.8667 15.4467 29.7822C15.5312 29.6977 15.6315 29.6306 15.7419 29.5849C15.8523 29.5392 15.9707 29.5156 16.0902 29.5156H18.5502C18.7915 29.5156 19.023 29.6115 19.1936 29.7822C19.3643 29.9528 19.4602 30.1843 19.4602 30.4256C19.4602 30.667 19.3643 30.8984 19.1936 31.0691C19.023 31.2397 18.7915 31.3356 18.5502 31.3356Z" fill="#00A3FF"/>
</svg>
