<svg width="34" height="46" viewBox="0 0 34 46" fill="none" xmlns="http://www.w3.org/2000/svg">
<path d="M19.5688 28.5529H19.52C19.4205 28.5469 19.3233 28.5208 19.2342 28.4762C19.1451 28.4317 19.0659 28.3696 19.0013 28.2936C18.9368 28.2177 18.8883 28.1295 18.8586 28.0344C18.829 27.9392 18.8189 27.8391 18.829 27.7399C18.9003 26.7262 19.295 25.7621 19.955 24.9894C20.615 24.2167 21.5055 23.6762 22.4956 23.4473V16.9432C22.4956 16.747 22.5736 16.5588 22.7123 16.4201C22.8511 16.2813 23.0392 16.2034 23.2355 16.2034C23.4317 16.2034 23.6199 16.2813 23.7586 16.4201C23.8973 16.5588 23.9753 16.747 23.9753 16.9432V24.0651C23.9749 24.2442 23.9096 24.417 23.7915 24.5515C23.6734 24.6861 23.5105 24.7732 23.333 24.7968C23.2192 24.7968 20.4631 25.2277 20.3086 27.8456C20.2983 28.0355 20.2161 28.2143 20.0786 28.3457C19.9412 28.477 19.7589 28.5512 19.5688 28.5529Z" fill="#00A3FF"/>
<path d="M23.2361 37.5936H10.1304C9.93422 37.5936 9.74604 37.5157 9.60729 37.3769C9.46855 37.2382 9.3906 37.05 9.3906 36.8538V34.2359C9.385 32.4676 9.11087 30.7105 8.57759 29.0245L7.82963 26.5855C7.82176 26.5125 7.82176 26.4389 7.82963 26.366V24.5042C7.82963 24.308 7.90757 24.1198 8.04632 23.981C8.18507 23.8423 8.37325 23.7644 8.56947 23.7644C8.76568 23.7644 8.95386 23.8423 9.09261 23.981C9.23135 24.1198 9.3093 24.308 9.3093 24.5042V26.2522L10.0247 28.5611C10.5952 30.3904 10.8857 32.2954 10.8865 34.2115V36.0895H22.5125V31.431C22.5131 31.2431 22.5858 31.0626 22.7158 30.9269L25.9678 27.4798C26.809 26.5769 27.2768 25.3887 27.2768 24.1546V17.0489C27.2888 16.6286 27.1453 16.2186 26.8737 15.8976C26.6022 15.5765 26.2217 15.367 25.8052 15.3091C25.5799 15.2891 25.3529 15.3164 25.1387 15.3892C24.9245 15.462 24.7278 15.5787 24.5613 15.7318C24.3954 15.8837 24.2627 16.0683 24.1717 16.274C24.0808 16.4797 24.0335 16.702 24.0329 16.927C24.0329 17.1232 23.9549 17.3114 23.8162 17.4501C23.6774 17.5889 23.4892 17.6668 23.293 17.6668C23.0968 17.6668 22.9086 17.5889 22.7699 17.4501C22.6311 17.3114 22.5532 17.1232 22.5532 16.927C22.5538 16.4969 22.6438 16.0717 22.8174 15.6782C22.9909 15.2847 23.2443 14.9315 23.5615 14.6411C23.8787 14.3507 24.2528 14.1293 24.66 13.991C25.0672 13.8526 25.4987 13.8004 25.9272 13.8375C26.7203 13.9268 27.4511 14.3105 27.975 14.9127C28.4989 15.5149 28.7777 16.2917 28.7564 17.0896V24.1953C28.7568 25.8038 28.1466 27.3525 27.0491 28.5286L24.0329 31.7806V36.8863C24.0288 36.9857 24.0047 37.0832 23.9621 37.173C23.9195 37.2629 23.8592 37.3433 23.7848 37.4093C23.7104 37.4753 23.6235 37.5257 23.5292 37.5573C23.435 37.589 23.3353 37.6013 23.2361 37.5936Z" fill="#00A3FF"/>
<path d="M24.1218 41.3987H9.24374C9.04752 41.3987 8.85935 41.3207 8.7206 41.182C8.58185 41.0432 8.50391 40.8551 8.50391 40.6588V36.854C8.50391 36.6577 8.58185 36.4696 8.7206 36.3308C8.85935 36.1921 9.04752 36.1141 9.24374 36.1141H24.1218C24.318 36.1141 24.5062 36.1921 24.6449 36.3308C24.7837 36.4696 24.8616 36.6577 24.8616 36.854V40.6588C24.8616 40.8551 24.7837 41.0432 24.6449 41.182C24.5062 41.3207 24.318 41.3987 24.1218 41.3987ZM9.98358 39.919H23.3819V37.5938H9.98358V39.919Z" fill="#00A3FF"/>
<path d="M26.7398 45.9431H6.60978C6.41281 45.9431 6.22378 45.8654 6.08374 45.7269C5.94371 45.5884 5.86396 45.4002 5.86182 45.2032V40.6585C5.86396 40.4616 5.94371 40.2734 6.08374 40.1349C6.22378 39.9964 6.41281 39.9187 6.60978 39.9187H26.7236C26.9198 39.9187 27.108 39.9967 27.2467 40.1354C27.3855 40.2741 27.4634 40.4623 27.4634 40.6585V45.2032C27.4635 45.3967 27.3878 45.5824 27.2525 45.7207C27.1173 45.859 26.9332 45.9388 26.7398 45.9431ZM7.36588 44.4634H26V41.3984H7.36588V44.4634Z" fill="#00A3FF"/>
<path d="M33.2276 25.2683H27.9593C27.7631 25.2683 27.5749 25.1904 27.4362 25.0516C27.2974 24.9129 27.2195 24.7247 27.2195 24.5285V16.9269C27.2195 16.4956 27.0482 16.082 26.7432 15.7771C26.4383 15.4722 26.0247 15.3008 25.5935 15.3008C25.1622 15.3008 24.7486 15.4722 24.4437 15.7771C24.1388 16.082 23.9674 16.4956 23.9674 16.9269V24.5041C23.9674 24.7003 23.8895 24.8885 23.7507 25.0272C23.612 25.166 23.4238 25.2439 23.2276 25.2439H0.739833C0.543616 25.2439 0.355439 25.166 0.216693 25.0272C0.0779469 24.8885 0 24.7003 0 24.5041V0.739885C0 0.543668 0.0779469 0.355491 0.216693 0.216745C0.355439 0.0779987 0.543616 4.56764e-05 0.739833 4.56764e-05H33.2601C33.3576 -0.00104335 33.4543 0.0173515 33.5445 0.0541461C33.6348 0.0909407 33.7168 0.145395 33.7857 0.214314C33.8546 0.283232 33.9091 0.365223 33.9459 0.455476C33.9826 0.545729 34.001 0.642426 34 0.739885V3.10574C34 3.30196 33.922 3.49013 33.7833 3.62888C33.6445 3.76762 33.4563 3.84558 33.2601 3.84558C33.0639 3.84558 32.8757 3.76762 32.737 3.62888C32.5982 3.49013 32.5203 3.30196 32.5203 3.10574V1.47972H1.47967V23.7886H22.4959V16.9269C22.4744 16.5062 22.5386 16.0855 22.6848 15.6905C22.8309 15.2954 23.0559 14.9342 23.346 14.6288C23.6361 14.3235 23.9854 14.0803 24.3724 13.9142C24.7595 13.748 25.1763 13.6623 25.5975 13.6623C26.0187 13.6623 26.4356 13.748 26.8226 13.9142C27.2097 14.0803 27.5589 14.3235 27.849 14.6288C28.1392 14.9342 28.3642 15.2954 28.5103 15.6905C28.6564 16.0855 28.7207 16.5062 28.6991 16.9269V23.7642H32.4878V7.08947C32.4878 6.89325 32.5657 6.70507 32.7044 6.56633C32.8432 6.42758 33.0314 6.34964 33.2276 6.34964C33.4238 6.34964 33.612 6.42758 33.7507 6.56633C33.8895 6.70507 33.9674 6.89325 33.9674 7.08947V24.5285C33.9674 24.7247 33.8895 24.9129 33.7507 25.0516C33.612 25.1904 33.4238 25.2683 33.2276 25.2683Z" fill="#00A3FF"/>
<path d="M20.9675 5.38227H13.6505C13.4543 5.38227 13.2661 5.30431 13.1273 5.16557C12.9886 5.02682 12.9106 4.83864 12.9106 4.64243C12.9106 4.44621 12.9886 4.25803 13.1273 4.11929C13.2661 3.98054 13.4543 3.90259 13.6505 3.90259H20.9675C21.1638 3.90259 21.3519 3.98054 21.4907 4.11929C21.6294 4.25803 21.7074 4.44621 21.7074 4.64243C21.7074 4.83864 21.6294 5.02682 21.4907 5.16557C21.3519 5.30431 21.1638 5.38227 20.9675 5.38227Z" fill="#00A3FF"/>
<path d="M28.7725 8.72382H5.79697C5.60075 8.72382 5.41257 8.64587 5.27382 8.50712C5.13508 8.36837 5.05713 8.1802 5.05713 7.98398C5.05713 7.78776 5.13508 7.59959 5.27382 7.46084C5.41257 7.32209 5.60075 7.24414 5.79697 7.24414H28.7563C28.9525 7.24414 29.1407 7.32209 29.2794 7.46084C29.4182 7.59959 29.4961 7.78776 29.4961 7.98398C29.4961 8.1802 29.4182 8.36837 29.2794 8.50712C29.1407 8.64587 28.9525 8.72382 28.7563 8.72382H28.7725Z" fill="#00A3FF"/>
<path d="M28.7725 12.0488H5.79697C5.60075 12.0488 5.41257 11.9708 5.27382 11.8321C5.13508 11.6933 5.05713 11.5051 5.05713 11.3089C5.05713 11.1127 5.13508 10.9245 5.27382 10.7858C5.41257 10.647 5.60075 10.5691 5.79697 10.5691H28.7563C28.9525 10.5691 29.1407 10.647 29.2794 10.7858C29.4182 10.9245 29.4961 11.1127 29.4961 11.3089C29.4961 11.5051 29.4182 11.6933 29.2794 11.8321C29.1407 11.9708 28.9525 12.0488 28.7563 12.0488H28.7725Z" fill="#00A3FF"/>
<path d="M24.4961 15.4147H5.79697C5.60075 15.4147 5.41257 15.3368 5.27382 15.198C5.13508 15.0593 5.05713 14.8711 5.05713 14.6749C5.05713 14.4787 5.13508 14.2905 5.27382 14.1517C5.41257 14.013 5.60075 13.9351 5.79697 13.9351H24.4961C24.6923 13.9351 24.8805 14.013 25.0193 14.1517C25.158 14.2905 25.236 14.4787 25.236 14.6749C25.236 14.8711 25.158 15.0593 25.0193 15.198C24.8805 15.3368 24.6923 15.4147 24.4961 15.4147Z" fill="#00A3FF"/>
<path d="M23.236 18.7643H5.79697C5.60075 18.7643 5.41257 18.6864 5.27382 18.5476C5.13508 18.4089 5.05713 18.2207 5.05713 18.0245C5.05713 17.8283 5.13508 17.6401 5.27382 17.5014C5.41257 17.3626 5.60075 17.2847 5.79697 17.2847H23.2197C23.4159 17.2847 23.6041 17.3626 23.7428 17.5014C23.8816 17.6401 23.9595 17.8283 23.9595 18.0245C23.9595 18.2207 23.8816 18.4089 23.7428 18.5476C23.6041 18.6864 23.4159 18.7643 23.2197 18.7643H23.236Z" fill="#00A3FF"/>
</svg>
