<svg width="28" height="35" viewBox="0 0 28 35" fill="none" xmlns="http://www.w3.org/2000/svg">
<path d="M13.8586 17.2174C15.5461 17.2162 17.1953 16.7142 18.5979 15.7747C20.0004 14.8352 21.0933 13.5005 21.7383 11.9393C22.3833 10.3781 22.5514 8.66045 22.2215 7.00356C21.8916 5.34666 21.0784 3.82491 19.8848 2.63066C18.6911 1.43641 17.1706 0.623295 15.5154 0.294112C13.8603 -0.0350702 12.1448 0.134456 10.5858 0.781264C9.02688 1.42807 7.69449 2.52312 6.75708 3.92796C5.81967 5.33281 5.31934 6.98438 5.31934 8.67388C5.3219 10.94 6.22257 13.1124 7.8236 14.7143C9.42463 16.3161 11.5951 17.2164 13.8586 17.2174V17.2174ZM13.8586 2.36643C15.1046 2.36643 16.3226 2.73636 17.3587 3.42943C18.3947 4.1225 19.2022 5.10759 19.679 6.26012C20.1558 7.41266 20.2806 8.68087 20.0375 9.9044C19.7944 11.1279 19.1944 12.2518 18.3133 13.1339C17.4323 14.016 16.3097 14.6168 15.0876 14.8601C13.8656 15.1035 12.5988 14.9786 11.4477 14.5012C10.2965 14.0238 9.31256 13.2154 8.62031 12.1781C7.92805 11.1408 7.55857 9.92137 7.55857 8.67388C7.56061 7.00167 8.22502 5.39853 9.40605 4.2161C10.5871 3.03367 12.1883 2.36848 13.8586 2.36643V2.36643Z" fill="#333333"/>
<path d="M13.8587 20.1738C10.31 20.1779 6.90785 21.5911 4.39855 24.1034C1.88925 26.6157 0.477727 30.0218 0.473633 33.5747C0.473633 33.8715 0.59139 34.1561 0.800995 34.366C1.0106 34.5758 1.29488 34.6937 1.59131 34.6937C1.88773 34.6937 2.17202 34.5758 2.38163 34.366C2.59123 34.1561 2.70899 33.8715 2.70899 33.5747C2.70899 30.6141 3.8837 27.7748 5.97467 25.6814C8.06565 23.5879 10.9016 22.4118 13.8587 22.4118C16.8158 22.4118 19.6518 23.5879 21.7428 25.6814C23.8337 27.7748 25.0084 30.6141 25.0084 33.5747C25.0022 33.7255 25.0264 33.8759 25.0797 34.017C25.133 34.1581 25.2143 34.287 25.3186 34.3959C25.4229 34.5048 25.5481 34.5914 25.6867 34.6506C25.8253 34.7097 25.9745 34.7403 26.1251 34.7403C26.2758 34.7403 26.425 34.7097 26.5636 34.6506C26.7022 34.5914 26.8274 34.5048 26.9317 34.3959C27.036 34.287 27.1173 34.1581 27.1706 34.017C27.2239 33.8759 27.2481 33.7255 27.2419 33.5747C27.2383 30.022 25.8272 26.6158 23.3182 24.1035C20.8092 21.5912 17.4072 20.1779 13.8587 20.1738Z" fill="#333333"/>
</svg>
