<svg width="1451" height="802" viewBox="0 0 1451 802" fill="none" xmlns="http://www.w3.org/2000/svg">
<circle cx="1354" cy="618" r="97" fill="#A2DDFF"/>
<path d="M1410 177C1410 79.2456 1330.75 0 1233 0H177C79.2456 0 4.22001e-05 79.2456 4.22001e-05 177V177C4.22001e-05 274.754 79.2456 354 177 354H1233C1330.75 354 1410 274.754 1410 177V177Z" fill="#A2DDFF"/>
<path d="M1274 482C1274 428.981 1231.02 386 1178 386H938C884.981 386 842 428.981 842 482V482C842 535.019 884.981 578 938 578H1178C1231.02 578 1274 535.019 1274 482V482Z" fill="#A2DDFF"/>
<path d="M1202 706C1202 652.981 1159.02 610 1106 610H866C812.981 610 770 652.981 770 706V706C770 759.019 812.981 802 866 802H1106C1159.02 802 1202 759.019 1202 706V706Z" fill="#A2DDFF"/>
</svg>
