<svg width="1326" height="671" viewBox="0 0 1326 671" fill="none" xmlns="http://www.w3.org/2000/svg">
<path d="M428.503 573.399C442.495 520.258 410.758 465.835 357.617 451.843L351.891 450.335C298.75 436.343 244.327 468.08 230.335 521.221C216.343 574.362 248.079 628.784 301.22 642.776L306.947 644.284C360.088 658.276 414.511 626.54 428.503 573.399Z" fill="#DFF3FF"/>
<path d="M780.667 233.411C822.332 197.159 826.72 133.995 790.468 92.33L775.773 75.4411C739.521 33.7762 676.357 29.3882 634.692 65.6403L619.441 78.9098C577.776 115.162 573.388 178.326 609.64 219.991L624.335 236.88C660.587 278.545 723.752 282.933 765.417 246.681L780.667 233.411Z" fill="#DFF3FF"/>
<path d="M1037.67 591.411C1079.33 555.159 1083.72 491.995 1047.47 450.33L1032.77 433.441C996.521 391.776 933.357 387.388 891.692 423.64L876.441 436.91C834.776 473.162 830.388 536.326 866.64 577.991L881.335 594.88C917.587 636.545 980.752 640.933 1022.42 604.681L1037.67 591.411Z" fill="#DFF3FF"/>
<path d="M236.667 343.411C278.332 307.159 282.72 243.995 246.468 202.33L231.773 185.441C195.521 143.776 132.357 139.388 90.6919 175.64L75.4411 188.91C33.7762 225.162 29.3882 288.326 65.6403 329.991L80.3351 346.88C116.587 388.545 179.752 392.933 221.417 356.681L236.667 343.411Z" fill="#DFF3FF"/>
<path d="M1259.67 362.411C1301.33 326.159 1305.72 262.995 1269.47 221.33L1254.77 204.441C1218.52 162.776 1155.36 158.388 1113.69 194.64L1098.44 207.91C1056.78 244.162 1052.39 307.326 1088.64 348.991L1103.34 365.88C1139.59 407.545 1202.75 411.933 1244.42 375.681L1259.67 362.411Z" fill="#DFF3FF"/>
</svg>
