<svg width="2492" height="990" viewBox="0 0 2492 990" fill="none" xmlns="http://www.w3.org/2000/svg">
<circle cx="285" cy="50" r="50" fill="#A2DDFF"/>
<circle cx="125.5" cy="617.5" r="125.5" fill="#A2DDFF"/>
<path d="M319 233C319 150.157 386.157 83 469 83H2342C2424.84 83 2492 150.157 2492 233V840C2492 922.843 2424.84 990 2342 990H469C386.157 990 319 922.843 319 840V233Z" fill="#56C2FF"/>
<path d="M404.441 87.5347L342.716 97.4214L395.514 133.117L457.878 119.974L404.441 87.5347Z" fill="#DB8934"/>
<path d="M395.346 133.976C395.231 133.953 395.121 133.908 395.023 133.842L342.225 98.1467C342.08 98.0482 341.967 97.9083 341.902 97.7452C341.837 97.5821 341.823 97.4033 341.86 97.2319C341.898 97.0606 341.987 96.9045 342.115 96.784C342.242 96.6634 342.403 96.584 342.577 96.5559L404.303 86.6695C404.508 86.6375 404.718 86.6785 404.895 86.7854L458.333 119.225C458.483 119.317 458.602 119.451 458.675 119.611C458.748 119.771 458.771 119.949 458.741 120.122C458.712 120.295 458.631 120.455 458.509 120.581C458.387 120.708 458.23 120.795 458.059 120.831L395.696 133.974C395.581 133.998 395.462 133.999 395.346 133.976ZM345.043 97.9392L395.697 132.185L455.527 119.576L404.262 88.45L345.043 97.9392Z" fill="#151515"/>
<path d="M426.739 141.688C423.434 158.564 407.228 169.594 390.545 166.327C373.862 163.059 363.01 146.731 366.315 129.855C367.028 126.194 368.388 122.688 370.332 119.504C376.894 108.765 389.558 102.684 402.514 105.221C414.624 107.593 423.66 116.849 426.435 128.196C427.517 132.618 427.621 137.223 426.739 141.688Z" fill="#FBC2D3"/>
<g opacity="0.25">
<path d="M402.514 105.221C389.559 102.684 376.896 108.766 370.333 119.504C373.816 124.279 380.978 129.59 395.645 132.462C395.887 132.509 396.126 132.556 396.363 132.595C396.569 132.636 396.775 132.676 396.98 132.709C397.482 132.799 397.97 132.884 398.457 132.96C399.143 133.072 399.811 133.169 400.469 133.252C400.762 133.29 401.056 133.325 401.342 133.363C401.699 133.402 402.048 133.445 402.398 133.48L402.911 133.531C404.708 133.703 406.392 133.781 407.966 133.788C408.204 133.79 408.436 133.79 408.667 133.783C408.769 133.784 408.877 133.787 408.984 133.781C409.267 133.776 409.543 133.767 409.819 133.76C409.966 133.755 410.114 133.747 410.258 133.744C410.282 133.745 410.306 133.743 410.33 133.74C410.536 133.731 410.737 133.717 410.934 133.707C410.964 133.708 410.993 133.706 411.022 133.702C411.126 133.697 411.229 133.691 411.326 133.683C411.654 133.661 411.975 133.634 412.294 133.602C412.451 133.588 412.607 133.573 412.762 133.555C414.043 133.419 415.316 133.209 416.572 132.926C416.729 132.893 416.887 132.856 417.041 132.819C417.922 132.605 418.747 132.36 419.518 132.095C419.663 132.044 419.804 131.993 419.942 131.944C420.208 131.85 420.466 131.75 420.718 131.646C420.864 131.588 421.007 131.53 421.152 131.464C421.316 131.394 421.476 131.323 421.633 131.251C421.789 131.18 421.922 131.12 422.059 131.052C422.398 130.89 422.726 130.722 423.043 130.543C423.157 130.483 423.278 130.416 423.392 130.352C423.603 130.232 423.809 130.107 424.006 129.984C424.123 129.913 424.24 129.838 424.35 129.763C425.081 129.29 425.778 128.764 426.433 128.191C423.657 116.849 414.622 107.592 402.514 105.221Z" fill="black"/>
</g>
<path d="M390.378 167.188C373.245 163.833 362.064 147.011 365.456 129.69C368.848 112.369 385.547 101.007 402.682 104.363C419.817 107.718 430.996 124.54 427.604 141.861C424.212 159.182 407.508 170.543 390.378 167.188ZM402.345 106.082C386.161 102.913 370.385 113.654 367.179 130.027C363.972 146.4 374.527 162.297 390.715 165.467C406.903 168.638 422.676 157.895 425.882 141.522C429.089 125.149 418.524 109.249 402.346 106.08L402.345 106.082Z" fill="#151515"/>
<path d="M370.354 46.177C376.985 49.5732 394.728 47.4017 391.437 64.1521L382.633 72.783C373.873 73.1507 368.641 69.2672 366.535 64.3372C364.164 58.7905 365.297 51.8293 366.892 47.5353C367.013 47.2055 367.203 46.9052 367.448 46.654C367.694 46.4028 367.99 46.2066 368.317 46.0782C368.644 45.9499 368.995 45.8923 369.346 45.9093C369.697 45.9264 370.041 46.0176 370.354 46.177Z" fill="#FBC2D3"/>
<g opacity="0.25">
<path d="M383.358 69.0845C374.66 69.1349 369.343 65.6871 367.102 61.4448C365.382 58.195 365.266 54.4425 365.822 51.2423C364.951 55.2669 364.764 60.1941 366.535 64.3371C368.643 69.2673 373.873 73.1506 382.633 72.7829L391.437 64.152C391.577 63.4405 391.676 62.7662 391.743 62.1224L383.358 69.0845Z" fill="black"/>
</g>
<g opacity="0.55">
<path d="M366.446 49.844C366.933 48.598 368.531 48.0545 369.867 48.6917C376.375 51.7977 393.305 50.3553 391.402 64.1881L391.443 64.148C394.733 47.4035 376.987 49.5723 370.36 46.1768C370.046 46.0174 369.703 45.9262 369.352 45.9092C369.001 45.8921 368.65 45.9497 368.323 46.0781C367.996 46.2064 367.699 46.4027 367.454 46.6538C367.208 46.905 367.019 47.2054 366.898 47.5351C366.278 49.2384 365.823 50.9972 365.539 52.7873C365.772 51.7863 366.075 50.8028 366.446 49.844Z" fill="white"/>
</g>
<path d="M377.004 73.2647C371.66 72.218 367.675 69.2377 365.728 64.6816C363.31 59.0234 364.319 51.9572 366.072 47.2314C366.236 46.7854 366.492 46.3792 366.825 46.0396C367.157 45.7 367.558 45.4348 368.001 45.2616C368.443 45.0883 368.918 45.0109 369.393 45.0344C369.868 45.058 370.332 45.182 370.756 45.3982C372.329 46.2036 374.686 46.7 377.182 47.2256C384.669 48.8014 394.924 50.9611 392.301 64.3172C392.267 64.4906 392.181 64.6496 392.055 64.7735L383.248 73.4079C383.093 73.56 382.888 73.6491 382.671 73.6581C380.773 73.7495 378.871 73.6175 377.004 73.2647ZM369.528 46.8083C369.233 46.751 368.927 46.7793 368.648 46.8896C368.434 46.9733 368.24 47.1015 368.079 47.2656C367.918 47.4297 367.794 47.626 367.715 47.8416C366.155 52.0496 365.122 58.8052 367.34 63.9956C369.588 69.2552 375.016 72.1335 382.261 71.9212L390.628 63.7164C392.737 52.2938 384.284 50.5135 376.819 48.938C374.205 48.3882 371.737 47.8681 369.954 46.9551C369.82 46.8866 369.676 46.8372 369.528 46.8083Z" fill="#151515"/>
<path d="M373.251 53.3841C376.726 55.3436 386.425 53.5266 387.053 62.8956C387.123 63.8895 386.946 64.8852 386.538 65.7943C386.13 66.7033 385.504 67.4975 384.715 68.1062C384.499 68.2687 384.273 68.4291 384.037 68.5783C383.113 69.1785 382.045 69.5192 380.943 69.5649C379.842 69.6106 378.748 69.3596 377.777 68.838C371.606 65.5033 370.363 57.9028 371.426 54.0876C371.643 53.3075 372.543 52.9825 373.251 53.3841Z" fill="#F589AA"/>
<g opacity="0.25">
<path d="M372.737 56.0071C376.257 57.74 385.826 56.5803 386.775 64.3154C386.806 64.5798 386.813 64.8466 386.794 65.1122C387.015 64.3953 387.103 63.644 387.053 62.8954C386.429 53.5274 376.726 55.3425 373.251 53.3839C372.543 52.9843 371.643 53.3073 371.425 54.0894C371.239 54.7946 371.132 55.5183 371.105 56.2471C371.431 55.8341 372.14 55.712 372.737 56.0071Z" fill="black"/>
</g>
<path d="M379.33 70.3157C378.642 70.1809 377.977 69.9424 377.36 69.6085C371.027 66.1858 369.354 58.2596 370.58 53.8533C370.664 53.5507 370.816 53.2713 371.024 53.0363C371.232 52.8013 371.491 52.617 371.782 52.4976C372.088 52.3716 372.418 52.3173 372.749 52.3388C373.079 52.3604 373.4 52.4572 373.686 52.6219C374.516 53.0914 375.909 53.3354 377.388 53.5965C381.627 54.3449 387.433 55.3703 387.934 62.8387C388.018 63.9777 387.816 65.1193 387.348 66.1608C386.879 67.2023 386.159 68.1108 385.251 68.8046C385.019 68.9811 384.773 69.153 384.519 69.316C382.984 70.3074 381.124 70.6657 379.33 70.3157ZM372.681 54.0949C372.603 54.0795 372.523 54.0873 372.45 54.1172C372.405 54.1345 372.365 54.1622 372.333 54.1982C372.301 54.2341 372.278 54.2771 372.266 54.3237C371.377 57.5191 372.202 64.8299 378.191 68.0696C379.024 68.5165 379.962 68.7313 380.907 68.6917C381.852 68.652 382.769 68.3594 383.561 67.8444C383.777 67.7055 383.987 67.5594 384.184 67.4097C384.856 66.8875 385.39 66.2086 385.739 65.4323C386.087 64.6561 386.24 63.8062 386.183 62.9572C385.773 56.8584 381.155 56.0429 377.082 55.323C375.452 55.0356 373.913 54.7639 372.825 54.1497C372.78 54.1232 372.732 54.1046 372.681 54.0949Z" fill="#151515"/>
<path d="M451.611 62.0898C444.188 62.7338 428.576 54.0302 425.305 70.7844L430.202 82.1026C438.177 85.7476 444.487 84.1245 448.297 80.3531C452.585 76.1105 454.162 69.2363 454.304 64.6575C454.317 64.3062 454.255 63.9562 454.123 63.6305C453.99 63.3049 453.79 63.011 453.535 62.7683C453.281 62.5256 452.978 62.3396 452.646 62.2226C452.314 62.1056 451.961 62.0604 451.611 62.0898Z" fill="#FBC2D3"/>
<g opacity="0.25">
<path d="M430.927 78.4004C438.964 81.7281 445.189 80.5405 448.864 77.457C451.683 75.0958 453.206 71.6645 453.898 68.4909C453.187 72.5468 451.501 77.1803 448.298 80.3493C444.486 84.1204 438.177 85.7437 430.203 82.0988L425.305 70.7845C425.444 70.073 425.607 69.4111 425.788 68.7896L430.927 78.4004Z" fill="black"/>
</g>
<g opacity="0.55">
<path d="M453.852 66.9616C453.87 65.6237 452.596 64.5176 451.118 64.6038C443.92 65.0256 428.784 57.3035 425.328 70.8322L425.306 70.7797C428.576 54.0313 444.192 62.7338 451.611 62.089C451.961 62.0595 452.313 62.1046 452.645 62.2213C452.977 62.3379 453.28 62.5236 453.534 62.7658C453.789 63.0081 453.989 63.3016 454.122 63.6268C454.255 63.9521 454.317 64.3017 454.304 64.6527C454.236 66.464 453.994 68.2644 453.581 70.0294C453.743 69.0143 453.834 67.9893 453.852 66.9616Z" fill="white"/>
</g>
<path d="M435.234 84.6683C433.372 84.2909 431.561 83.6958 429.838 82.8953C429.641 82.8052 429.484 82.645 429.398 82.4458L424.5 71.1276C424.43 70.9653 424.411 70.7857 424.445 70.6122C427.054 57.2533 437.365 59.1242 444.894 60.4862C447.403 60.9408 449.774 61.3702 451.535 61.2178C452.008 61.1773 452.485 61.2377 452.934 61.395C453.383 61.5524 453.793 61.803 454.138 62.1305C454.482 62.458 454.754 62.8548 454.933 63.2947C455.113 63.7345 455.197 64.2075 455.181 64.6823C455.02 69.7198 453.289 76.6447 448.917 80.9733C445.394 84.457 440.578 85.7148 435.234 84.6683ZM430.873 81.4393C437.502 84.3686 443.615 83.7504 447.681 79.7274C451.693 75.7572 453.285 69.111 453.428 64.6255C453.435 64.3962 453.394 64.1679 453.307 63.9556C453.22 63.7433 453.089 63.5519 452.922 63.3938C452.759 63.2379 452.565 63.1187 452.352 63.0443C452.139 62.97 451.912 62.9421 451.688 62.9627C449.692 63.1357 447.21 62.6865 444.582 62.2096C437.075 60.8499 428.574 59.3101 426.218 70.6874L430.873 81.4393Z" fill="#151515"/>
<path d="M446.209 67.6719C442.252 68.1759 433.955 62.8348 429.839 71.2745C429.399 72.1687 429.187 73.1575 429.222 74.1533C429.257 75.1491 429.538 76.1209 430.039 76.9824C430.177 77.2141 430.326 77.4479 430.489 77.6751C431.118 78.5795 431.979 79.2982 432.982 79.756C433.985 80.2138 435.092 80.3938 436.188 80.2771C443.161 79.5164 447.18 72.9464 447.635 69.0122C447.728 68.2077 447.016 67.567 446.209 67.6719Z" fill="#F589AA"/>
<g opacity="0.25">
<path d="M445.695 70.2951C441.782 70.5725 433.357 65.8886 429.56 72.6945C429.432 72.9276 429.325 73.1722 429.242 73.4252C429.308 72.6779 429.51 71.9489 429.838 71.2745C433.955 62.8348 442.252 68.1749 446.209 67.6719C447.016 67.569 447.727 68.2077 447.634 69.0141C447.54 69.7374 447.367 70.4481 447.116 71.1332C446.971 70.6278 446.36 70.2473 445.695 70.2951Z" fill="black"/>
</g>
<path d="M434.192 81.06C432.401 80.7062 430.816 79.6735 429.77 78.1782C429.597 77.9315 429.434 77.6795 429.285 77.4283C428.706 76.4435 428.381 75.3302 428.341 74.189C428.3 73.0478 428.543 71.9144 429.05 70.891C432.331 64.1663 438.096 65.4038 442.304 66.3096C443.77 66.6255 445.154 66.9231 446.099 66.8033C446.427 66.7595 446.76 66.791 447.073 66.8956C447.386 67.0002 447.671 67.1751 447.906 67.4068C448.13 67.627 448.301 67.8955 448.405 68.1917C448.509 68.4879 448.544 68.8039 448.507 69.1157C447.982 73.6581 443.442 80.3676 436.286 81.1497C435.587 81.2258 434.881 81.1955 434.192 81.06ZM440.523 67.7281C436.863 67.0112 432.999 66.7968 430.627 71.6592C430.254 72.4242 430.075 73.269 430.104 74.1195C430.134 74.9701 430.373 75.8004 430.798 76.5377C430.924 76.7496 431.063 76.9641 431.21 77.1741C431.75 77.9501 432.489 78.5669 433.349 78.96C434.209 79.3531 435.159 79.508 436.099 79.4085C442.867 78.669 446.389 72.2094 446.771 68.9127C446.778 68.8651 446.773 68.8166 446.757 68.7713C446.741 68.7259 446.714 68.6851 446.679 68.6522C446.633 68.6079 446.577 68.5748 446.516 68.5554C446.455 68.536 446.391 68.5309 446.328 68.5404C445.087 68.6986 443.561 68.37 441.943 68.0214C441.47 67.9226 440.999 67.8212 440.523 67.7281Z" fill="#151515"/>
<path d="M410.114 58.5659C381.199 52.9032 368.703 77.3342 366.422 90.655C364.142 103.976 369.628 117.014 397.595 122.491C425.563 127.968 435.562 117.963 438.479 104.766C441.397 91.5702 439.025 64.2277 410.114 58.5659Z" fill="#FBC2D3"/>
<g opacity="0.25">
<path d="M398.698 116.86C371.373 111.509 365.319 99.9046 366.972 88.0337C366.748 88.9425 366.566 89.8174 366.423 90.65C364.143 103.971 369.629 117.009 397.596 122.486C425.564 127.963 435.562 117.963 438.479 104.766C438.661 103.942 438.822 103.062 438.957 102.137C436.011 113.749 426.023 122.211 398.698 116.86Z" fill="black"/>
</g>
<g opacity="0.55">
<path d="M410.114 58.5658C381.408 52.944 368.888 76.969 366.472 90.3526C369.077 78.0979 380.279 58.1532 405.001 60.5308C404.91 61.9373 406.666 63.4057 409.074 63.8773C411.482 64.3488 413.661 63.6501 414.108 62.3143C437.894 69.4425 440.748 92.1358 438.542 104.468C441.353 91.1636 438.811 64.1917 410.114 58.5658Z" fill="white"/>
</g>
<path d="M408.682 109.908C408.682 109.908 406.907 114.466 403.865 117.188C402.306 118.578 400.419 119.49 398.264 119.068C396.108 118.646 394.706 117.089 393.786 115.214C391.995 111.546 392.074 106.656 392.074 106.656C396.814 110.615 402.317 111.822 408.682 109.908Z" fill="#151515"/>
<path d="M403.865 117.188C402.307 118.578 400.419 119.49 398.264 119.068C396.108 118.646 394.706 117.089 393.787 115.214C395.346 113.823 397.233 112.91 399.387 113.332C401.542 113.754 402.945 115.316 403.865 117.188Z" fill="#F75263"/>
<path d="M398.097 119.93C391.093 118.558 391.19 107.127 391.197 106.641C391.2 106.476 391.249 106.315 391.34 106.176C391.43 106.037 391.558 105.927 391.709 105.858C391.86 105.79 392.027 105.765 392.191 105.787C392.355 105.809 392.51 105.877 392.637 105.983C397.276 109.859 402.441 110.871 408.43 109.069C408.587 109.021 408.755 109.019 408.914 109.062C409.072 109.105 409.216 109.192 409.327 109.313C409.439 109.434 409.514 109.583 409.545 109.745C409.575 109.906 409.56 110.073 409.5 110.226C409.323 110.678 405.101 121.301 398.097 119.93ZM393.033 108.489C393.288 111.533 394.313 117.403 398.434 118.21C402.57 119.02 405.741 113.932 407.118 111.213C401.965 112.321 397.242 111.407 393.033 108.489Z" fill="#151515"/>
<path d="M397.427 123.351C384.323 120.785 375.091 116.317 369.987 110.068C365.713 104.844 364.226 98.2632 365.55 90.5057C366.989 82.1145 372.335 69.7859 382.681 62.6592C390.447 57.3062 399.727 55.6395 410.283 57.7066C420.838 59.7737 428.798 64.8178 433.976 72.709C440.869 83.2135 441.171 96.6452 439.338 104.956C435.601 121.876 421.497 128.065 397.427 123.351ZM409.946 59.4252C399.884 57.4547 391.045 59.0278 383.681 64.1045C373.788 70.9228 368.666 82.749 367.287 90.8049C364.517 106.991 374.485 117.079 397.763 121.638C421.042 126.197 434.088 120.62 437.629 104.58C439.389 96.6022 439.106 83.7207 432.517 73.6725C427.6 66.1885 420.008 61.3957 409.946 59.4252Z" fill="#151515"/>
<path d="M386.513 94.8634C389.174 95.3847 391.815 93.3409 392.41 90.2986C393.006 87.2563 391.332 84.3675 388.67 83.8463C386.009 83.3251 383.368 85.3689 382.773 88.4112C382.177 91.4535 383.851 94.3422 386.513 94.8634Z" fill="#151515"/>
<path d="M386.319 87.9957C387.006 88.1303 387.672 87.683 387.806 86.9967C387.941 86.3104 387.493 85.645 386.806 85.5105C386.119 85.3759 385.453 85.8232 385.318 86.5095C385.184 87.1958 385.632 87.8612 386.319 87.9957Z" fill="white"/>
<path d="M418.281 101.085C420.942 101.606 423.583 99.5623 424.179 96.52C424.774 93.4777 423.1 90.589 420.439 90.0677C417.777 89.5465 415.137 91.5903 414.541 94.6326C413.945 97.6749 415.62 100.564 418.281 101.085Z" fill="#151515"/>
<path d="M418.087 94.2172C418.774 94.3517 419.44 93.9044 419.574 93.2181C419.709 92.5318 419.261 91.8664 418.574 91.7319C417.887 91.5974 417.221 92.0446 417.086 92.7309C416.952 93.4172 417.4 94.0826 418.087 94.2172Z" fill="white"/>
<path d="M399.843 111.015C405.926 112.206 411.657 109.092 412.642 104.059C413.628 99.0268 409.495 93.9813 403.412 92.79C397.329 91.5986 391.598 94.7125 390.612 99.7451C389.627 104.778 393.759 109.823 399.843 111.015Z" fill="#F589AA"/>
<g opacity="0.25">
<path d="M400.432 108.005C394.657 106.874 390.376 103.641 390.801 98.9962C390.728 99.2407 390.662 99.4899 390.612 99.7451C389.428 105.795 393.76 109.823 399.843 111.015C405.925 112.206 411.547 109.651 412.642 104.059C412.693 103.796 412.73 103.53 412.753 103.263C411.439 107.419 406.196 109.134 400.432 108.005Z" fill="black"/>
</g>
<g opacity="0.55">
<path d="M402.962 95.087C408.809 96.232 412.945 100.463 412.492 104.695C412.548 104.487 412.6 104.277 412.642 104.059C413.628 99.0268 409.494 93.9821 403.412 92.7909C397.329 91.5997 391.598 94.7125 390.612 99.7451C390.568 99.9708 390.534 100.191 390.506 100.411C391.671 96.3076 397.105 93.94 402.962 95.087Z" fill="white"/>
</g>
<path d="M399.675 111.874C392.461 110.461 388.566 105.634 389.752 99.5766C390.829 94.0788 397.032 90.6482 403.58 91.9306C410.128 93.213 414.579 98.73 413.503 104.228C412.371 110.006 406.555 113.221 399.675 111.874ZM403.243 93.6502C397.644 92.5536 392.365 95.3639 391.474 99.9137C390.282 105.999 395.102 109.194 400.011 110.155C405.99 111.326 410.831 108.75 411.782 103.891C412.673 99.3411 408.843 94.7467 403.243 93.6502Z" fill="#151515"/>
<path d="M398.869 98.8735C398.912 99.1119 398.934 99.3537 398.933 99.596C398.934 100.629 398.734 101.652 398.343 102.607C398.252 102.832 398.142 103.048 398.012 103.253C397.907 103.408 397.759 103.53 397.586 103.601C397.413 103.673 397.223 103.692 397.039 103.656C396.855 103.62 396.686 103.531 396.553 103.399C396.419 103.267 396.328 103.099 396.29 102.916C396.247 102.677 396.226 102.435 396.227 102.193C396.226 101.16 396.426 100.137 396.817 99.1816C396.907 98.9568 397.018 98.7408 397.148 98.5363C397.252 98.3808 397.4 98.2595 397.573 98.1878C397.746 98.116 397.937 98.0969 398.121 98.133C398.304 98.169 398.474 98.2585 398.607 98.3902C398.74 98.522 398.831 98.6901 398.869 98.8735Z" fill="#151515"/>
<path d="M407.046 100.475C407.081 100.713 407.098 100.954 407.094 101.195C407.094 101.71 407.048 102.224 406.957 102.731C406.879 103.241 406.738 103.738 406.537 104.213C406.444 104.438 406.327 104.653 406.188 104.854C406.079 105.002 405.93 105.116 405.759 105.183C405.588 105.249 405.401 105.266 405.221 105.23C405.04 105.195 404.874 105.109 404.74 104.983C404.607 104.857 404.512 104.695 404.467 104.517C404.414 104.279 404.387 104.035 404.386 103.791C404.379 103.276 404.436 102.762 404.555 102.261C404.663 101.757 404.814 101.264 405.008 100.786C405.096 100.562 405.202 100.345 405.324 100.138C405.425 99.9764 405.572 99.8491 405.746 99.7732C405.921 99.6973 406.114 99.6762 406.301 99.7128C406.488 99.7494 406.659 99.8419 406.792 99.978C406.925 100.114 407.014 100.288 407.046 100.475Z" fill="#151515"/>
<path d="M395.514 133.117L383.47 194.617L363.058 181.235L350.894 173.26L337.205 164.283C335.896 163.425 334.862 162.208 334.226 160.779C333.589 159.349 333.378 157.767 333.617 156.222L337.947 128.236L342.715 97.4211L363.055 111.171L375.176 119.367L393.025 131.434L395.514 133.117Z" fill="#F8A655"/>
<path d="M375.176 119.367L363.06 181.236L350.896 173.26L363.055 111.171L375.176 119.367Z" fill="#DB8934"/>
<path d="M383.302 195.476C383.191 195.454 383.084 195.411 382.989 195.348L336.727 165.017C335.278 164.065 334.134 162.718 333.429 161.135C332.725 159.553 332.49 157.802 332.752 156.09L341.85 97.2875C341.872 97.1416 341.931 97.0038 342.021 96.8868C342.111 96.7698 342.23 96.6775 342.365 96.6185C342.5 96.5594 342.649 96.5356 342.796 96.5491C342.943 96.5626 343.084 96.6131 343.207 96.6959L396.006 132.392C396.148 132.488 396.259 132.623 396.324 132.782C396.39 132.94 396.408 133.114 396.375 133.282L384.331 194.782C384.31 194.895 384.266 195.003 384.202 195.099C384.139 195.196 384.057 195.278 383.961 195.343C383.866 195.407 383.758 195.452 383.645 195.475C383.532 195.498 383.416 195.498 383.302 195.476ZM343.371 98.9219L334.486 156.358C334.274 157.737 334.463 159.148 335.031 160.424C335.598 161.699 336.52 162.785 337.686 163.553L382.858 193.171L394.539 133.52L343.371 98.9219Z" fill="#151515"/>
<g opacity="0.25">
<path d="M393.024 131.434L392.412 134.56L342.715 97.4211L337.948 128.236L333.618 156.222C333.379 157.767 333.59 159.349 334.227 160.779C334.863 162.208 335.897 163.425 337.206 164.283L383.47 194.617L395.514 133.117L393.024 131.434ZM384.417 175.384C383.522 179.955 378.32 182.208 374.366 179.74L338.237 157.191C335.682 155.594 334.307 152.759 334.736 149.939L338.023 128.296L373.036 157.191C374.645 158.517 376.942 158.216 378.358 156.494L387.609 145.24C388.543 144.104 390.377 144.963 390.094 146.41L384.417 175.384Z" fill="black"/>
</g>
<path d="M395.514 133.117L379.523 150.552C378.86 151.273 377.953 151.723 376.977 151.815C376.001 151.908 375.026 151.636 374.239 151.052L331.521 119.309C330.68 118.686 330.121 117.755 329.965 116.721C329.809 115.687 330.069 114.634 330.689 113.791L342.716 97.4214L356.438 106.698L358.272 107.935L360.651 109.547L381.223 123.452L395.514 133.117Z" fill="#F8A655"/>
<g opacity="0.25">
<path d="M380.852 143.761C379.531 144.996 377.269 145.115 375.613 144.036L332.217 115.751C331.495 115.301 330.951 114.616 330.677 113.812C330.064 114.655 329.809 115.705 329.967 116.735C330.124 117.765 330.682 118.691 331.519 119.313L374.239 151.051C375.026 151.635 376.001 151.908 376.977 151.815C377.953 151.723 378.86 151.273 379.523 150.551L395.514 133.117L393.615 131.832L380.852 143.761Z" fill="black"/>
</g>
<g opacity="0.6">
<path d="M330.38 115.368L337.003 106.77C338.422 104.929 340.481 103.689 342.773 103.296C345.065 102.903 347.422 103.386 349.374 104.649L395.072 133.699L395.514 133.117L342.715 97.4211L330.689 113.791C330.187 114.475 329.919 115.302 329.926 116.15C330.044 115.872 330.197 115.609 330.38 115.368Z" fill="white"/>
</g>
<path d="M375.678 152.618C374.968 152.479 374.298 152.182 373.717 151.749L330.997 120.011C329.974 119.247 329.294 118.111 329.104 116.849C328.914 115.587 329.23 114.301 329.983 113.271L342.009 96.9013C342.143 96.7188 342.343 96.5953 342.566 96.5569C342.79 96.5184 343.019 96.5678 343.207 96.6948L396.006 132.39C396.11 132.461 396.198 132.553 396.263 132.661C396.329 132.769 396.37 132.889 396.384 133.014C396.399 133.139 396.386 133.266 396.347 133.386C396.308 133.505 396.243 133.615 396.158 133.707L380.17 151.137C379.612 151.749 378.905 152.206 378.119 152.465C377.332 152.725 376.492 152.777 375.678 152.618ZM342.924 98.6236L331.397 114.312C330.917 114.969 330.716 115.789 330.837 116.593C330.958 117.398 331.392 118.122 332.044 118.61L374.764 150.347C375.376 150.804 376.136 151.017 376.897 150.945C377.657 150.873 378.363 150.521 378.878 149.957L394.182 133.278L342.924 98.6236Z" fill="#151515"/>
<path d="M395.515 133.117L383.471 194.617L407.421 189.923L421.695 187.125L437.759 183.975C439.296 183.674 440.712 182.937 441.841 181.854C442.969 180.77 443.761 179.384 444.123 177.863L450.669 150.311L457.877 119.974L433.854 125.036L419.538 128.055L398.456 132.498L395.515 133.117Z" fill="#F8A655"/>
<path d="M419.538 128.055L407.422 189.923L421.695 187.125L433.854 125.036L419.538 128.055Z" fill="#DB8934"/>
<path d="M383.302 195.476C383.189 195.454 383.082 195.41 382.986 195.346C382.889 195.283 382.807 195.201 382.743 195.105C382.678 195.01 382.633 194.903 382.61 194.79C382.588 194.677 382.587 194.561 382.609 194.448L394.653 132.948C394.687 132.78 394.769 132.626 394.89 132.504C395.011 132.382 395.165 132.298 395.333 132.263L457.696 119.12C457.841 119.09 457.991 119.096 458.132 119.139C458.273 119.182 458.402 119.26 458.505 119.366C458.608 119.472 458.683 119.602 458.722 119.744C458.761 119.887 458.764 120.037 458.73 120.18L444.974 178.071C444.572 179.755 443.693 181.288 442.444 182.488C441.195 183.688 439.627 184.504 437.926 184.839L383.639 195.478C383.528 195.5 383.413 195.499 383.302 195.476ZM396.263 133.858L384.581 193.506L437.589 183.115C438.959 182.845 440.222 182.186 441.229 181.219C442.235 180.252 442.942 179.017 443.267 177.659L456.703 121.115L396.263 133.858Z" fill="#151515"/>
<g opacity="0.25">
<path d="M395.515 133.117L383.471 194.617L437.759 183.975C439.296 183.674 440.712 182.937 441.841 181.854C442.969 180.77 443.761 179.384 444.123 177.863L450.669 150.311L457.877 119.974L397.844 135.623L398.456 132.498L395.515 133.117ZM395.523 147.473C395.806 146.031 397.829 145.922 398.265 147.327L402.586 161.235C403.248 163.367 405.261 164.513 407.252 163.889L450.578 150.335L445.458 171.62C444.791 174.393 442.454 176.5 439.485 177.016L397.518 184.274C392.926 185.068 388.959 181.019 389.854 176.449L395.523 147.473Z" fill="black"/>
</g>
<path d="M459.989 144.468L408.454 157.747C407.505 157.991 406.499 157.875 405.63 157.422C404.761 156.968 404.091 156.209 403.749 155.291L395.516 133.112L412.397 129.552L436.689 124.433L439.5 123.838L441.666 123.384L457.876 119.967L462.838 139.664C463.097 140.678 462.942 141.754 462.408 142.655C461.874 143.556 461.004 144.208 459.989 144.468Z" fill="#F8A655"/>
<g opacity="0.25">
<path d="M356.438 106.698L358.272 107.935C357.462 107.565 356.621 107.266 355.759 107.043C355.759 107.043 356.002 106.913 356.438 106.698Z" fill="black"/>
</g>
<g opacity="0.25">
<path d="M381.223 123.452C377.834 131.578 366.133 130.572 363.31 122.829C361.712 118.435 364.172 113.029 360.657 109.548L381.223 123.452Z" fill="black"/>
</g>
<g opacity="0.25">
<path d="M412.396 129.557L436.688 124.438C432.117 126.335 432.363 132.271 429.221 135.736C423.689 141.843 412.472 138.363 412.396 129.557Z" fill="black"/>
</g>
<g opacity="0.25">
<path d="M442.171 123.966C441.288 123.847 440.397 123.807 439.507 123.844L441.672 123.39C441.992 123.753 442.171 123.966 442.171 123.966Z" fill="black"/>
</g>
<g opacity="0.25">
<path d="M405.078 148.506C405.836 150.148 407.887 151.111 409.828 150.736L460.687 140.91C461.525 140.766 462.287 140.337 462.845 139.696C463.094 140.707 462.934 141.776 462.4 142.67C461.865 143.565 460.999 144.212 459.989 144.473L408.454 157.751C407.505 157.996 406.498 157.88 405.629 157.426C404.76 156.973 404.09 156.213 403.749 155.295L395.515 133.117L397.758 132.644L405.078 148.506Z" fill="black"/>
</g>
<g opacity="0.6">
<path d="M462.532 141.248L459.642 130.787C459.022 128.548 457.583 126.622 455.608 125.394C453.634 124.165 451.269 123.723 448.985 124.156L395.705 133.823L395.515 133.117L457.877 119.974L462.841 139.671C463.048 140.494 462.984 141.361 462.658 142.144C462.654 141.842 462.612 141.54 462.532 141.248Z" fill="white"/>
</g>
<path d="M406.529 158.66C405.717 158.5 404.959 158.134 404.328 157.598C403.698 157.061 403.216 156.371 402.93 155.594L394.695 133.422C394.651 133.304 394.632 133.178 394.641 133.052C394.65 132.927 394.686 132.805 394.747 132.695C394.807 132.584 394.891 132.488 394.992 132.413C395.093 132.338 395.209 132.286 395.332 132.259L457.696 119.117C457.917 119.07 458.149 119.111 458.341 119.231C458.533 119.351 458.672 119.54 458.727 119.76L463.69 139.457C463.999 140.695 463.807 142.005 463.155 143.102C462.503 144.199 461.444 144.995 460.208 145.317L408.674 158.595C407.973 158.776 407.24 158.799 406.529 158.66ZM396.691 133.765L404.573 154.985C404.836 155.701 405.358 156.294 406.035 156.648C406.712 157.001 407.496 157.091 408.236 156.898L459.771 143.619C460.559 143.414 461.234 142.907 461.649 142.207C462.065 141.508 462.188 140.673 461.991 139.884L457.234 121.005L396.691 133.765Z" fill="#151515"/>
<path d="M355.899 106.343C355.899 106.343 378.499 95.5513 382.106 114.378C384.9 128.966 367.466 129.403 363.738 120.63C361.557 115.499 366.115 108.989 355.899 106.343Z" fill="#FBC2D3"/>
<g opacity="0.55">
<path d="M381.86 115.635C382.236 117.282 382.299 118.726 382.115 119.982C382.486 118.418 382.522 116.559 382.105 114.382C378.498 95.5555 355.898 106.347 355.898 106.347C356.604 106.527 357.299 106.749 357.977 107.014C363.835 105.147 378.723 101.89 381.86 115.635Z" fill="#F8F8F8"/>
</g>
<g opacity="0.25">
<path d="M382.407 117.407C379.604 122.621 367.973 121.187 364.679 115.834C362.439 112.196 365.862 107.968 358.222 105.393C356.786 105.923 355.899 106.343 355.899 106.343C366.115 108.989 361.557 115.499 363.737 120.632C367.187 128.749 382.373 128.979 382.407 117.407Z" fill="black"/>
</g>
<path d="M370.989 127.067C367.594 126.402 364.371 124.356 362.932 120.972C362.182 119.207 362.159 117.361 362.137 115.578C362.088 111.813 362.051 108.84 355.681 107.191C355.507 107.145 355.351 107.048 355.235 106.911C355.118 106.774 355.046 106.605 355.029 106.426C355.012 106.248 355.05 106.068 355.138 105.912C355.226 105.755 355.361 105.63 355.523 105.552C356.022 105.314 367.82 99.7694 376.023 103.911C379.676 105.752 382.013 109.223 382.969 114.213C384.185 120.558 381.836 125.28 376.687 126.843C374.932 127.376 372.932 127.447 370.989 127.067ZM358.434 106.251C363.796 108.442 363.844 112.198 363.884 115.556C363.906 117.245 363.927 118.838 364.541 120.289C366.434 124.744 372.084 126.409 376.171 125.168C380.439 123.873 382.287 120.001 381.242 114.543C380.393 110.114 378.369 107.063 375.227 105.476C369.751 102.709 362.119 104.89 358.434 106.251Z" fill="#151515"/>
<path d="M442.303 123.264C442.303 123.264 425.443 104.745 415.001 120.82C406.911 133.277 422.892 140.258 429.654 133.539C433.609 129.609 431.843 121.861 442.303 123.264Z" fill="#FBC2D3"/>
<g opacity="0.55">
<path d="M414.755 122.077C422.843 110.531 435.402 119.162 440.126 123.098C440.854 123.108 441.581 123.164 442.302 123.264C442.302 123.264 425.443 104.745 415.001 120.82C413.794 122.679 413.125 124.415 412.88 126.003C413.182 124.774 413.785 123.46 414.755 122.077Z" fill="#F8F8F8"/>
</g>
<g opacity="0.25">
<path d="M413.579 123.512C414.208 129.397 425.521 132.457 430.591 128.742C434.037 126.217 432.463 121.01 440.51 121.508C441.644 122.541 442.302 123.264 442.302 123.264C431.842 121.861 433.609 129.61 429.654 133.539C423.397 139.757 409.246 134.241 413.579 123.512Z" fill="black"/>
</g>
<path d="M420.51 136.765C418.566 136.384 416.74 135.563 415.316 134.408C411.137 131.018 410.743 125.759 414.264 120.341C417.031 116.08 420.504 113.752 424.583 113.421C433.742 112.68 442.577 122.266 442.95 122.673C443.07 122.807 443.147 122.974 443.17 123.152C443.193 123.33 443.16 123.511 443.077 123.67C442.993 123.829 442.863 123.958 442.703 124.041C442.543 124.123 442.362 124.155 442.184 124.131C435.663 123.256 434.507 125.995 433.047 129.464C432.354 131.108 431.636 132.808 430.276 134.161C427.663 136.752 423.907 137.43 420.51 136.765ZM427.986 115.374C426.913 115.156 425.814 115.086 424.722 115.168C421.214 115.454 418.19 117.516 415.737 121.296C412.711 125.955 412.961 130.24 416.424 133.049C419.742 135.745 425.602 136.329 429.037 132.917C430.153 131.806 430.771 130.339 431.43 128.781C432.736 125.688 434.197 122.228 439.988 122.221C437.603 120.045 432.958 116.349 427.988 115.375L427.986 115.374Z" fill="#151515"/>
</svg>
