<svg width="854" height="358" viewBox="0 0 854 358" fill="none" xmlns="http://www.w3.org/2000/svg">
<path d="M194 169C194 86.1573 261.157 19 344 19H704C786.843 19 854 86.1573 854 169V208C854 290.843 786.843 358 704 358H344C261.157 358 194 290.843 194 208V169Z" fill="#56C2FF"/>
<circle cx="50" cy="114.986" r="50" fill="#A2DDFF"/>
<path d="M213.99 20.419L187.476 24.6659L210.156 39.9991L236.945 34.3537L213.99 20.419Z" fill="#DB8934"/>
<path d="M210.084 40.3682C210.034 40.3585 209.987 40.3389 209.945 40.3107L187.265 24.9774C187.203 24.9351 187.154 24.875 187.126 24.8049C187.098 24.7349 187.092 24.6581 187.108 24.5845C187.125 24.5108 187.163 24.4438 187.218 24.392C187.272 24.3403 187.342 24.3061 187.416 24.294L213.931 20.0473C214.019 20.0335 214.109 20.0511 214.186 20.0971L237.14 34.0319C237.205 34.0712 237.256 34.1289 237.287 34.1975C237.318 34.2662 237.328 34.3426 237.316 34.4169C237.303 34.4912 237.268 34.56 237.216 34.6144C237.164 34.6687 237.096 34.7061 237.022 34.7218L210.234 40.3673C210.184 40.3776 210.133 40.3779 210.084 40.3682ZM188.475 24.8883L210.234 39.599L235.935 34.1827L213.914 20.8121L188.475 24.8883Z" fill="#151515"/>
<path d="M223.569 43.6812C222.149 50.9302 215.188 55.6681 208.021 54.2647C200.855 52.8612 196.194 45.8472 197.613 38.5981C197.919 37.0252 198.503 35.5195 199.339 34.1517C202.158 29.5388 207.597 26.9265 213.163 28.0164C218.365 29.0351 222.246 33.0113 223.438 37.8854C223.903 39.7851 223.948 41.7629 223.569 43.6812Z" fill="#FBC2D3"/>
<g opacity="0.25">
<path d="M213.162 28.0164C207.598 26.9266 202.158 29.5389 199.339 34.1518C200.835 36.2029 203.911 38.484 210.212 39.7178C210.316 39.7382 210.419 39.7583 210.52 39.7752C210.609 39.7925 210.698 39.8099 210.785 39.824C211.001 39.8627 211.211 39.899 211.42 39.932C211.714 39.98 212.002 40.0217 212.284 40.0573C212.41 40.0736 212.536 40.0887 212.659 40.1048C212.812 40.1216 212.962 40.14 213.113 40.155L213.333 40.177C214.105 40.2509 214.829 40.2844 215.505 40.2876C215.607 40.2882 215.706 40.2884 215.806 40.2854C215.85 40.2857 215.896 40.2869 215.942 40.2844C216.063 40.2823 216.182 40.2783 216.3 40.2755C216.364 40.2734 216.427 40.27 216.489 40.2685C216.499 40.2688 216.51 40.2682 216.52 40.2666C216.609 40.2629 216.695 40.2569 216.78 40.2529C216.792 40.2532 216.805 40.2524 216.817 40.2506C216.862 40.2483 216.906 40.2456 216.948 40.2423C217.089 40.233 217.227 40.2213 217.363 40.2077C217.431 40.2016 217.498 40.1953 217.565 40.1873C218.115 40.129 218.662 40.0388 219.201 39.9171C219.269 39.9031 219.337 39.8873 219.403 39.8713C219.781 39.7792 220.136 39.6742 220.467 39.5601C220.529 39.5385 220.59 39.5165 220.649 39.4956C220.763 39.4551 220.874 39.4122 220.982 39.3674C221.045 39.3424 221.106 39.3175 221.169 39.2892C221.239 39.2591 221.308 39.2286 221.375 39.1978C221.442 39.167 221.499 39.1413 221.558 39.1124C221.704 39.0424 221.845 38.9703 221.981 38.8936C222.03 38.8676 222.082 38.8392 222.131 38.8114C222.222 38.7601 222.31 38.7062 222.395 38.6534C222.445 38.6227 222.495 38.5908 222.542 38.5583C222.857 38.3552 223.156 38.1295 223.437 37.883C222.245 33.0112 218.364 29.035 213.162 28.0164Z" fill="black"/>
</g>
<path d="M207.95 54.6347C200.59 53.1934 195.787 45.9674 197.244 38.5271C198.701 31.0867 205.874 26.2061 213.235 27.6476C220.595 29.089 225.397 36.3148 223.94 43.7552C222.483 51.1955 215.308 56.0756 207.95 54.6347ZM213.09 28.3862C206.138 27.0248 199.361 31.6388 197.984 38.6719C196.607 45.7051 201.141 52.5338 208.094 53.8956C215.048 55.2574 221.823 50.6426 223.201 43.6094C224.578 36.5763 220.04 29.7463 213.09 28.3854L213.09 28.3862Z" fill="#151515"/>
<path d="M199.348 2.65337C202.197 4.11225 209.818 3.17943 208.404 10.3747L204.623 14.0822C200.86 14.2401 198.612 12.572 197.707 10.4542C196.689 8.0716 197.176 5.08136 197.861 3.23682C197.913 3.09518 197.994 2.96615 198.1 2.85827C198.205 2.75038 198.333 2.66608 198.473 2.61095C198.614 2.55581 198.764 2.53108 198.915 2.53839C199.066 2.5457 199.214 2.58489 199.348 2.65337Z" fill="#FBC2D3"/>
<g opacity="0.25">
<path d="M204.934 12.4935C201.197 12.5151 198.914 11.0341 197.951 9.21179C197.212 7.81578 197.162 6.20389 197.401 4.82921C197.027 6.55802 196.947 8.67452 197.708 10.4542C198.613 12.572 200.86 14.2401 204.623 14.0821L208.405 10.3747C208.464 10.069 208.507 9.77939 208.536 9.50282L204.934 12.4935Z" fill="black"/>
</g>
<g opacity="0.55">
<path d="M197.669 4.22859C197.879 3.6934 198.565 3.45992 199.139 3.73361C201.934 5.06782 209.207 4.44824 208.39 10.3902L208.407 10.373C209.82 3.18025 202.197 4.11189 199.351 2.65335C199.216 2.58487 199.068 2.54568 198.918 2.53837C198.767 2.53105 198.616 2.55578 198.476 2.61092C198.335 2.66606 198.208 2.75036 198.102 2.85824C197.997 2.96613 197.915 3.09516 197.864 3.2368C197.597 3.96847 197.402 4.72397 197.28 5.49294C197.38 5.06293 197.51 4.64045 197.669 4.22859Z" fill="white"/>
</g>
<path d="M202.205 14.2891C199.909 13.8395 198.197 12.5593 197.361 10.6022C196.322 8.1717 196.756 5.13632 197.509 3.10634C197.579 2.91475 197.689 2.74025 197.832 2.59439C197.975 2.44852 198.147 2.3346 198.337 2.26017C198.527 2.18574 198.731 2.15248 198.935 2.1626C199.139 2.17272 199.339 2.22599 199.521 2.31888C200.196 2.66485 201.209 2.87807 202.281 3.10384C205.497 3.78074 209.902 4.70843 208.775 10.4457C208.761 10.5202 208.724 10.5885 208.67 10.6417L204.887 14.3507C204.82 14.416 204.732 14.4543 204.639 14.4581C203.824 14.4974 203.007 14.4407 202.205 14.2891ZM198.993 2.92457C198.866 2.89999 198.735 2.91211 198.615 2.9595C198.523 2.99547 198.44 3.05052 198.371 3.12101C198.302 3.1915 198.248 3.27584 198.214 3.36845C197.544 5.17604 197.1 8.07797 198.053 10.3075C199.019 12.5668 201.351 13.8032 204.463 13.7121L208.057 10.1876C208.963 5.28092 205.332 4.51618 202.125 3.83942C201.002 3.60326 199.942 3.37981 199.176 2.98766C199.118 2.95822 199.057 2.93699 198.993 2.92457Z" fill="#151515"/>
<path d="M200.593 5.74918C202.085 6.59091 206.251 5.81039 206.521 9.83492C206.551 10.2619 206.475 10.6896 206.3 11.0801C206.125 11.4706 205.856 11.8117 205.517 12.0732C205.424 12.143 205.327 12.2119 205.226 12.276C204.829 12.5338 204.37 12.6802 203.897 12.6998C203.424 12.7194 202.954 12.6116 202.537 12.3876C199.886 10.9551 199.352 7.69023 199.808 6.05138C199.902 5.71627 200.288 5.57665 200.593 5.74918Z" fill="#F589AA"/>
<g opacity="0.25">
<path d="M200.372 6.87608C201.884 7.62046 205.995 7.12228 206.402 10.445C206.415 10.5586 206.418 10.6731 206.41 10.7872C206.505 10.4793 206.543 10.1566 206.521 9.835C206.254 5.81089 202.085 6.59057 200.593 5.74926C200.288 5.57758 199.902 5.71635 199.808 6.0523C199.728 6.35524 199.682 6.66608 199.671 6.97916C199.811 6.80174 200.115 6.74932 200.372 6.87608Z" fill="black"/>
</g>
<path d="M203.204 13.0224C202.908 12.9644 202.623 12.862 202.358 12.7186C199.637 11.2483 198.919 7.84356 199.445 5.95081C199.481 5.82082 199.546 5.70077 199.636 5.59983C199.725 5.49889 199.837 5.41974 199.962 5.36843C200.093 5.3143 200.235 5.29097 200.377 5.30023C200.519 5.30949 200.656 5.35108 200.78 5.42183C201.136 5.62351 201.734 5.72833 202.37 5.84046C204.191 6.16194 206.685 6.60243 206.9 9.81055C206.936 10.2998 206.849 10.7902 206.648 11.2376C206.447 11.685 206.137 12.0752 205.747 12.3732C205.647 12.4491 205.542 12.5229 205.433 12.5929C204.774 13.0188 203.975 13.1727 203.204 13.0224ZM200.348 6.05456C200.314 6.04797 200.28 6.05131 200.249 6.06416C200.229 6.07157 200.212 6.0835 200.198 6.09893C200.185 6.11436 200.175 6.13286 200.17 6.15287C199.788 7.52547 200.142 10.6659 202.715 12.0575C203.073 12.2495 203.476 12.3418 203.881 12.3247C204.287 12.3077 204.681 12.182 205.021 11.9608C205.114 11.9011 205.204 11.8384 205.289 11.7741C205.578 11.5498 205.807 11.2581 205.957 10.9247C206.106 10.5912 206.172 10.2262 206.148 9.86146C205.972 7.24165 203.988 6.89135 202.238 6.58211C201.538 6.45864 200.877 6.34196 200.41 6.0781C200.39 6.06672 200.37 6.05875 200.348 6.05456Z" fill="#151515"/>
<path d="M234.252 9.48892C231.064 9.76558 224.358 6.02685 222.953 13.2238L225.056 18.0856C228.482 19.6513 231.192 18.9541 232.829 17.3341C234.671 15.5117 235.348 12.5588 235.409 10.5919C235.415 10.441 235.388 10.2907 235.331 10.1508C235.275 10.0109 235.189 9.88464 235.079 9.78038C234.97 9.67612 234.84 9.59623 234.697 9.54599C234.555 9.49575 234.403 9.47629 234.252 9.48892Z" fill="#FBC2D3"/>
<g opacity="0.25">
<path d="M225.368 16.4953C228.82 17.9247 231.494 17.4146 233.073 16.09C234.283 15.0757 234.938 13.6018 235.235 12.2386C234.929 13.9808 234.205 15.9712 232.829 17.3324C231.192 18.9523 228.482 19.6496 225.057 18.0839L222.953 13.2238C223.012 12.9182 223.082 12.6338 223.16 12.3669L225.368 16.4953Z" fill="black"/>
</g>
<g opacity="0.55">
<path d="M235.216 11.5816C235.223 11.0069 234.676 10.5318 234.041 10.5688C230.949 10.75 224.447 7.43286 222.963 13.2442L222.953 13.2217C224.358 6.02728 231.066 9.7655 234.253 9.48851C234.403 9.47585 234.555 9.49522 234.697 9.54534C234.839 9.59547 234.97 9.6752 235.079 9.77927C235.188 9.88335 235.274 10.0094 235.331 10.1491C235.388 10.2888 235.415 10.439 235.41 10.5898C235.38 11.3678 235.276 12.1412 235.099 12.8994C235.169 12.4634 235.208 12.023 235.216 11.5816Z" fill="white"/>
</g>
<path d="M227.218 19.1876C226.418 19.0255 225.64 18.7699 224.9 18.426C224.815 18.3873 224.748 18.3185 224.711 18.2329L222.607 13.3711C222.577 13.3014 222.569 13.2242 222.583 13.1497C223.704 7.41129 228.133 8.21495 231.367 8.79999C232.445 8.99529 233.463 9.17973 234.22 9.11425C234.423 9.09684 234.628 9.12279 234.821 9.19038C235.014 9.25797 235.19 9.36565 235.338 9.50632C235.486 9.64699 235.603 9.81743 235.68 10.0064C235.757 10.1953 235.793 10.3985 235.786 10.6024C235.717 12.7664 234.973 15.741 233.096 17.6004C231.582 19.0968 229.513 19.6372 227.218 19.1876ZM225.344 17.8006C228.192 19.0589 230.818 18.7933 232.565 17.0652C234.288 15.3598 234.972 12.5048 235.033 10.5781C235.036 10.4796 235.019 10.3815 234.981 10.2903C234.944 10.1991 234.887 10.1169 234.816 10.049C234.746 9.98201 234.662 9.93081 234.571 9.89887C234.479 9.86692 234.382 9.85495 234.285 9.86378C233.428 9.93811 232.362 9.74513 231.233 9.5403C228.008 8.95624 224.357 8.29479 223.345 13.182L225.344 17.8006Z" fill="#151515"/>
<path d="M231.932 11.8867C230.232 12.1032 226.668 9.80889 224.9 13.4343C224.711 13.8183 224.62 14.2431 224.635 14.6709C224.65 15.0986 224.771 15.5161 224.986 15.8861C225.045 15.9857 225.109 16.0861 225.179 16.1837C225.45 16.5722 225.819 16.8809 226.25 17.0775C226.681 17.2742 227.157 17.3515 227.628 17.3014C230.623 16.9746 232.349 14.1524 232.544 12.4624C232.584 12.1169 232.279 11.8417 231.932 11.8867Z" fill="#F589AA"/>
<g opacity="0.25">
<path d="M231.712 13.0135C230.031 13.1327 226.412 11.1207 224.781 14.0442C224.726 14.1443 224.68 14.2494 224.644 14.3581C224.672 14.037 224.759 13.7239 224.9 13.4342C226.668 9.80885 230.232 12.1028 231.932 11.8867C232.279 11.8425 232.585 12.1168 232.544 12.4632C232.504 12.7739 232.43 13.0792 232.322 13.3735C232.26 13.1564 231.997 12.993 231.712 13.0135Z" fill="black"/>
</g>
<path d="M226.77 17.6376C226.001 17.4857 225.32 17.0421 224.871 16.3998C224.796 16.2938 224.726 16.1855 224.662 16.0776C224.414 15.6546 224.274 15.1764 224.257 14.6862C224.239 14.1959 224.344 13.7091 224.562 13.2695C225.971 10.3808 228.447 10.9124 230.255 11.3015C230.885 11.4372 231.479 11.565 231.885 11.5136C232.026 11.4947 232.169 11.5083 232.303 11.5532C232.438 11.5982 232.56 11.6733 232.661 11.7728C232.757 11.8674 232.831 11.9827 232.875 12.11C232.92 12.2372 232.935 12.373 232.919 12.5069C232.694 14.4581 230.744 17.3402 227.669 17.6762C227.37 17.7089 227.066 17.6959 226.77 17.6376ZM229.49 11.9108C227.917 11.6029 226.258 11.5108 225.239 13.5995C225.079 13.9281 225.001 14.291 225.014 14.6563C225.027 15.0217 225.129 15.3784 225.312 15.6951C225.366 15.7861 225.426 15.8782 225.489 15.9684C225.721 16.3018 226.038 16.5667 226.408 16.7356C226.777 16.9045 227.185 16.971 227.589 16.9282C230.497 16.6106 232.009 13.8358 232.174 12.4197C232.176 12.3992 232.174 12.3784 232.167 12.3589C232.16 12.3394 232.149 12.3219 232.134 12.3078C232.114 12.2887 232.09 12.2745 232.064 12.2662C232.038 12.2579 232.01 12.2557 231.983 12.2598C231.45 12.3277 230.795 12.1866 230.1 12.0368C229.896 11.9944 229.694 11.9508 229.49 11.9108Z" fill="#151515"/>
<path d="M216.427 7.97517C204.006 5.54269 198.639 16.0372 197.659 21.7593C196.679 27.4814 199.036 33.0819 211.05 35.4347C223.063 37.7874 227.359 33.4895 228.612 27.821C229.865 22.1524 228.846 10.4072 216.427 7.97517Z" fill="#FBC2D3"/>
<g opacity="0.25">
<path d="M211.523 33.0159C199.786 30.7172 197.185 25.7325 197.896 20.6333C197.799 21.0237 197.721 21.3995 197.66 21.7571C196.68 27.4793 199.037 33.0798 211.05 35.4325C223.064 37.7852 227.359 33.4895 228.612 27.8209C228.69 27.467 228.759 27.089 228.817 26.6916C227.552 31.6795 223.261 35.3146 211.523 33.0159Z" fill="black"/>
</g>
<g opacity="0.55">
<path d="M216.427 7.97512C204.096 5.56024 198.718 15.8804 197.681 21.6294C198.8 16.3653 203.612 7.7979 214.231 8.81921C214.192 9.42338 214.946 10.0541 215.981 10.2567C217.015 10.4593 217.951 10.1591 218.143 9.58533C228.36 12.6473 229.586 22.3954 228.639 27.6926C229.846 21.9778 228.754 10.3918 216.427 7.97512Z" fill="white"/>
</g>
<path d="M215.812 30.0297C215.812 30.0297 215.05 31.9874 213.743 33.1565C213.073 33.7537 212.263 34.1457 211.337 33.9644C210.411 33.783 209.808 33.1143 209.414 32.3087C208.644 30.733 208.678 28.6325 208.678 28.6325C210.714 30.3331 213.078 30.8515 215.812 30.0297Z" fill="#151515"/>
<path d="M213.743 33.1565C213.074 33.7537 212.263 34.1457 211.337 33.9643C210.411 33.783 209.809 33.1143 209.414 32.3086C210.083 31.711 210.894 31.3191 211.82 31.5003C212.745 31.6815 213.348 32.3526 213.743 33.1565Z" fill="#F75263"/>
<path d="M211.265 34.3344C208.257 33.7452 208.298 28.835 208.301 28.6264C208.302 28.5553 208.324 28.4859 208.363 28.4264C208.401 28.3669 208.456 28.3196 208.521 28.29C208.586 28.2604 208.658 28.2498 208.728 28.2592C208.799 28.2687 208.865 28.298 208.92 28.3436C210.913 30.0085 213.131 30.443 215.704 29.669C215.771 29.6486 215.843 29.6477 215.912 29.6662C215.98 29.6848 216.041 29.7221 216.089 29.7739C216.137 29.8258 216.17 29.89 216.183 29.9594C216.196 30.0287 216.189 30.1004 216.163 30.1661C216.088 30.3604 214.274 34.9236 211.265 34.3344ZM209.09 29.4199C209.199 30.7274 209.64 33.2491 211.41 33.5958C213.187 33.9437 214.549 31.7579 215.14 30.5903C212.927 31.0662 210.898 30.6733 209.09 29.4199Z" fill="#151515"/>
<path d="M210.977 35.8042C205.348 34.7018 201.383 32.7824 199.191 30.0982C197.354 27.8543 196.716 25.0274 197.285 21.6951C197.902 18.0906 200.199 12.7947 204.643 9.73344C207.979 7.43401 211.966 6.71805 216.5 7.606C221.034 8.49394 224.453 10.6607 226.678 14.0504C229.638 18.5627 229.768 24.3324 228.981 27.9024C227.375 35.1704 221.317 37.829 210.977 35.8042ZM216.355 8.34423C212.033 7.49778 208.236 8.17351 205.073 10.3543C200.823 13.2831 198.623 18.3632 198.031 21.8236C196.841 28.7766 201.122 33.1098 211.122 35.0681C221.122 37.0264 226.726 34.6309 228.246 27.741C229.003 24.3139 228.881 18.7805 226.051 14.4643C223.938 11.2495 220.677 9.19069 216.355 8.34423Z" fill="#151515"/>
<path d="M206.289 23.5671C207.432 23.791 208.567 22.9131 208.823 21.6062C209.079 20.2994 208.359 19.0585 207.216 18.8346C206.073 18.6107 204.939 19.4886 204.683 20.7955C204.427 22.1023 205.146 23.3432 206.289 23.5671Z" fill="#151515"/>
<path d="M206.206 20.617C206.501 20.6748 206.787 20.4827 206.845 20.1879C206.903 19.8931 206.71 19.6073 206.415 19.5495C206.12 19.4917 205.834 19.6838 205.776 19.9786C205.718 20.2734 205.911 20.5592 206.206 20.617Z" fill="white"/>
<path d="M219.935 26.2396C221.079 26.4635 222.213 25.5855 222.469 24.2787C222.725 22.9719 222.005 21.731 220.862 21.5071C219.719 21.2832 218.585 22.1611 218.329 23.4679C218.073 24.7748 218.792 26.0157 219.935 26.2396Z" fill="#151515"/>
<path d="M219.852 23.2895C220.147 23.3473 220.434 23.1551 220.491 22.8603C220.549 22.5655 220.357 22.2797 220.061 22.2219C219.766 22.1641 219.48 22.3562 219.423 22.651C219.365 22.9458 219.557 23.2317 219.852 23.2895Z" fill="white"/>
<path d="M212.015 30.5049C214.629 31.0167 217.09 29.679 217.513 27.5173C217.937 25.3555 216.162 23.1881 213.548 22.6764C210.935 22.1646 208.474 23.5022 208.05 25.664C207.627 27.8258 209.402 29.9931 212.015 30.5049Z" fill="#F589AA"/>
<g opacity="0.25">
<path d="M212.269 29.2121C209.788 28.7263 207.949 27.3377 208.131 25.3423C208.1 25.4473 208.072 25.5544 208.05 25.664C207.541 28.2627 209.403 29.9932 212.015 30.5049C214.628 31.0166 217.043 29.9191 217.514 27.5173C217.535 27.4041 217.551 27.2898 217.561 27.175C216.997 28.9606 214.745 29.697 212.269 29.2121Z" fill="black"/>
</g>
<g opacity="0.55">
<path d="M213.355 23.6632C215.867 24.155 217.644 25.9723 217.449 27.7904C217.473 27.701 217.495 27.6109 217.514 27.5173C217.937 25.3555 216.161 23.1886 213.548 22.6769C210.936 22.1652 208.474 23.5023 208.05 25.6641C208.031 25.761 208.017 25.8557 208.005 25.95C208.505 24.1875 210.84 23.1705 213.355 23.6632Z" fill="white"/>
</g>
<path d="M211.943 30.874C208.844 30.2671 207.171 28.1936 207.681 25.5916C208.143 23.23 210.808 21.7564 213.621 22.3072C216.433 22.8581 218.345 25.228 217.883 27.5896C217.397 30.0718 214.899 31.4528 211.943 30.874ZM213.476 23.0459C211.071 22.5748 208.803 23.782 208.42 25.7364C207.908 28.3503 209.979 29.7228 212.087 30.1357C214.656 30.6387 216.735 29.5321 217.144 27.4448C217.527 25.4905 215.881 23.5169 213.476 23.0459Z" fill="#151515"/>
<path d="M211.597 25.2896C211.616 25.392 211.625 25.4959 211.624 25.5999C211.625 26.0435 211.539 26.4829 211.371 26.8935C211.332 26.9901 211.284 27.0829 211.229 27.1707C211.184 27.2375 211.12 27.2896 211.046 27.3205C210.972 27.3513 210.89 27.3595 210.811 27.344C210.732 27.3285 210.659 27.2901 210.602 27.2335C210.545 27.1769 210.505 27.1047 210.489 27.0259C210.471 26.9235 210.462 26.8196 210.462 26.7155C210.461 26.272 210.547 25.8326 210.715 25.4219C210.754 25.3254 210.802 25.2326 210.858 25.1448C210.902 25.078 210.966 25.0259 211.04 24.995C211.115 24.9642 211.196 24.956 211.275 24.9715C211.354 24.987 211.427 25.0254 211.484 25.082C211.542 25.1386 211.581 25.2108 211.597 25.2896Z" fill="#151515"/>
<path d="M215.109 25.9776C215.125 26.0799 215.132 26.1832 215.13 26.2867C215.13 26.508 215.11 26.7289 215.071 26.9468C215.038 27.1655 214.977 27.3792 214.891 27.583C214.851 27.68 214.801 27.7724 214.741 27.8587C214.694 27.9222 214.63 27.9711 214.557 27.9997C214.483 28.0283 214.403 28.0354 214.325 28.0203C214.248 28.0051 214.176 27.9682 214.119 27.914C214.062 27.8598 214.021 27.7904 214.002 27.7139C213.979 27.6115 213.967 27.5069 213.967 27.402C213.964 27.1807 213.988 26.9599 214.04 26.7447C214.086 26.5283 214.151 26.3163 214.234 26.1112C214.272 26.0149 214.317 25.9217 214.37 25.8327C214.413 25.7633 214.476 25.7087 214.551 25.6761C214.626 25.6434 214.709 25.6344 214.79 25.6501C214.87 25.6658 214.943 25.7056 215.001 25.7641C215.058 25.8225 215.096 25.897 215.109 25.9776Z" fill="#151515"/>
<path d="M210.156 39.9991L204.982 66.4168L196.214 60.6687L190.989 57.2429L185.109 53.3869C184.546 53.018 184.102 52.4954 183.829 51.8814C183.556 51.2674 183.465 50.5879 183.567 49.9239L185.428 37.9025L187.476 24.6657L196.213 30.5721L201.419 34.0927L209.087 39.2763L210.156 39.9991Z" fill="#F8A655"/>
<path d="M201.419 34.0928L196.215 60.6689L190.99 57.2431L196.213 30.5722L201.419 34.0928Z" fill="#DB8934"/>
<path d="M204.91 66.786C204.862 66.7767 204.817 66.758 204.776 66.7311L184.903 53.7022C184.281 53.2932 183.79 52.7145 183.487 52.0347C183.184 51.3549 183.083 50.6027 183.196 49.8674L187.104 24.6083C187.113 24.5456 187.139 24.4864 187.178 24.4362C187.216 24.3859 187.267 24.3463 187.325 24.3209C187.383 24.2955 187.447 24.2853 187.51 24.2911C187.574 24.2969 187.634 24.3186 187.687 24.3542L210.367 39.6875C210.428 39.7288 210.476 39.7871 210.504 39.8551C210.532 39.9231 210.54 39.9979 210.526 40.0702L205.352 66.488C205.343 66.5366 205.324 66.5829 205.297 66.6242C205.269 66.6655 205.234 66.701 205.193 66.7287C205.152 66.7564 205.106 66.7757 205.057 66.7855C205.009 66.7954 204.959 66.7955 204.91 66.786ZM187.757 25.3103L183.941 49.9825C183.85 50.575 183.931 51.1811 184.175 51.729C184.418 52.2768 184.814 52.7434 185.316 53.0731L204.719 65.7957L209.737 40.1724L187.757 25.3103Z" fill="#151515"/>
<g opacity="0.25">
<path d="M209.086 39.2762L208.823 40.6189L187.476 24.6657L185.428 37.9026L183.568 49.924C183.465 50.588 183.556 51.2675 183.829 51.8815C184.103 52.4955 184.547 53.0181 185.109 53.3869L204.982 66.4168L210.156 39.9991L209.086 39.2762ZM205.389 58.1554C205.004 60.1186 202.77 61.0867 201.072 60.0267L185.552 50.3403C184.455 49.6541 183.864 48.4366 184.048 47.2252L185.46 37.9282L200.5 50.3404C201.191 50.91 202.178 50.7806 202.786 50.0408L206.76 45.2067C207.161 44.7187 207.949 45.0879 207.828 45.7093L205.389 58.1554Z" fill="black"/>
</g>
<path d="M210.156 39.9991L203.286 47.4885C203.002 47.7982 202.612 47.9915 202.193 48.0312C201.774 48.0709 201.355 47.954 201.017 47.7033L182.667 34.0681C182.306 33.8002 182.066 33.4005 181.999 32.9563C181.932 32.512 182.043 32.0595 182.31 31.6976L187.476 24.6658L193.37 28.6508L194.158 29.1822L195.18 29.8746L204.017 35.8476L210.156 39.9991Z" fill="#F8A655"/>
<g opacity="0.25">
<path d="M203.858 44.5715C203.29 45.102 202.318 45.153 201.607 44.6893L182.966 32.5394C182.656 32.3462 182.422 32.052 182.304 31.7066C182.041 32.0687 181.932 32.5198 181.999 32.9622C182.067 33.4046 182.307 33.8025 182.666 34.0697L201.017 47.7028C201.355 47.9539 201.774 48.0709 202.193 48.0312C202.612 47.9916 203.002 47.798 203.286 47.488L210.156 39.9991L209.34 39.4472L203.858 44.5715Z" fill="black"/>
</g>
<g opacity="0.6">
<path d="M182.177 32.3748L185.022 28.6816C185.631 27.891 186.516 27.3583 187.501 27.1895C188.485 27.0207 189.497 27.228 190.336 27.7704L209.966 40.2493L210.156 39.999L187.476 24.6657L182.31 31.6975C182.094 31.9912 181.979 32.3467 181.982 32.7111C182.033 32.5912 182.098 32.4783 182.177 32.3748Z" fill="white"/>
</g>
<path d="M201.635 48.376C201.33 48.3161 201.042 48.1886 200.792 48.0027L182.442 34.3695C182.002 34.0413 181.71 33.5531 181.628 33.0111C181.547 32.469 181.683 31.9168 182.006 31.4742L187.172 24.4424C187.23 24.364 187.315 24.311 187.411 24.2945C187.507 24.2779 187.606 24.2992 187.687 24.3538L210.367 39.6871C210.412 39.7175 210.449 39.7571 210.477 39.8034C210.505 39.8496 210.523 39.9014 210.529 39.9551C210.536 40.0088 210.53 40.0632 210.513 40.1146C210.496 40.1659 210.469 40.2131 210.432 40.2528L203.564 47.7399C203.325 48.0025 203.021 48.199 202.683 48.3104C202.345 48.4218 201.984 48.4444 201.635 48.376ZM187.565 25.1823L182.614 31.9216C182.408 32.2038 182.321 32.5558 182.373 32.9014C182.425 33.2469 182.611 33.5581 182.891 33.7675L201.242 47.4007C201.505 47.5969 201.832 47.6884 202.158 47.6574C202.485 47.6264 202.788 47.4751 203.009 47.233L209.583 40.0681L187.565 25.1823Z" fill="#151515"/>
<path d="M210.156 39.9991L204.982 66.4169L215.271 64.4008L221.402 63.199L228.303 61.8459C228.962 61.7164 229.571 61.4 230.056 60.9344C230.54 60.4689 230.881 59.8738 231.036 59.2201L233.848 47.3852L236.944 34.3536L226.625 36.5281L220.475 37.8247L211.419 39.7332L210.156 39.9991Z" fill="#F8A655"/>
<path d="M220.476 37.8248L215.271 64.4008L221.402 63.199L226.625 36.5281L220.476 37.8248Z" fill="#DB8934"/>
<path d="M204.91 66.786C204.862 66.7765 204.815 66.7576 204.774 66.7303C204.733 66.703 204.697 66.6678 204.67 66.6268C204.642 66.5858 204.623 66.5397 204.613 66.4913C204.603 66.4428 204.603 66.3929 204.612 66.3444L209.786 39.9266C209.801 39.8544 209.836 39.788 209.888 39.7357C209.94 39.6833 210.006 39.6473 210.078 39.6321L236.867 33.9867C236.929 33.9736 236.993 33.9765 237.054 33.9949C237.115 34.0134 237.17 34.0469 237.214 34.0923C237.258 34.1378 237.29 34.1936 237.307 34.2548C237.324 34.3159 237.325 34.3803 237.311 34.442L231.402 59.3093C231.229 60.0328 230.852 60.6913 230.315 61.2067C229.778 61.7221 229.105 62.0727 228.374 62.2168L205.055 66.787C205.007 66.7962 204.958 66.7958 204.91 66.786ZM210.477 40.3174L205.46 65.9398L228.229 61.4764C228.818 61.36 229.36 61.0773 229.793 60.6619C230.225 60.2464 230.529 59.7157 230.668 59.1327L236.44 34.8434L210.477 40.3174Z" fill="#151515"/>
<g opacity="0.25">
<path d="M210.156 39.9991L204.982 66.4169L228.303 61.8459C228.962 61.7164 229.571 61.4 230.056 60.9344C230.54 60.4689 230.881 59.8738 231.036 59.2201L233.848 47.3852L236.944 34.3536L211.156 41.0759L211.419 39.7332L210.156 39.9991ZM210.16 46.1661C210.281 45.5464 211.15 45.4999 211.337 46.1032L213.194 52.0778C213.478 52.9936 214.343 53.4856 215.198 53.2175L233.809 47.3955L231.61 56.5384C231.323 57.7296 230.319 58.6349 229.044 58.8563L211.017 61.9744C209.044 62.3154 207.34 60.5761 207.724 58.6128L210.16 46.1661Z" fill="black"/>
</g>
<path d="M237.852 44.8752L215.715 50.5794C215.307 50.6841 214.875 50.6342 214.501 50.4394C214.128 50.2445 213.84 49.9185 213.693 49.5243L210.157 39.9969L217.408 38.4678L227.843 36.2689L229.051 36.0132L229.981 35.8182L236.944 34.3503L239.076 42.8113C239.187 43.2472 239.12 43.7093 238.891 44.0962C238.661 44.4832 238.288 44.7633 237.852 44.8752Z" fill="#F8A655"/>
<g opacity="0.25">
<path d="M193.371 28.6508L194.158 29.1822C193.811 29.0231 193.449 28.8948 193.079 28.7989C193.079 28.7989 193.183 28.7429 193.371 28.6508Z" fill="black"/>
</g>
<g opacity="0.25">
<path d="M204.017 35.8476C202.561 39.3381 197.535 38.9058 196.322 35.5797C195.636 33.6924 196.692 31.3702 195.183 29.8751L204.017 35.8476Z" fill="black"/>
</g>
<g opacity="0.25">
<path d="M217.407 38.47L227.842 36.2711C225.879 37.0861 225.984 39.6358 224.635 41.1244C222.258 43.7476 217.44 42.2524 217.407 38.47Z" fill="black"/>
</g>
<g opacity="0.25">
<path d="M230.198 36.0682C229.819 36.0173 229.436 35.9998 229.053 36.016L229.983 35.821C230.121 35.9767 230.198 36.0682 230.198 36.0682Z" fill="black"/>
</g>
<g opacity="0.25">
<path d="M214.264 46.6095C214.59 47.315 215.471 47.7288 216.304 47.5677L238.151 43.3468C238.511 43.2848 238.839 43.1005 239.078 42.8251C239.185 43.2596 239.117 43.7188 238.887 44.103C238.657 44.4871 238.286 44.7653 237.852 44.8771L215.714 50.5811C215.306 50.6862 214.874 50.6364 214.501 50.4415C214.128 50.2466 213.84 49.9205 213.693 49.526L210.156 39.9991L211.12 39.7958L214.264 46.6095Z" fill="black"/>
</g>
<g opacity="0.6">
<path d="M238.944 43.492L237.702 38.9985C237.436 38.0364 236.818 37.2094 235.97 36.6817C235.122 36.1539 234.106 35.9642 233.124 36.15L210.238 40.3026L210.156 39.9991L236.944 34.3536L239.077 42.8147C239.166 43.1681 239.138 43.5407 238.998 43.877C238.996 43.747 238.978 43.6176 238.944 43.492Z" fill="white"/>
</g>
<path d="M214.888 50.9712C214.538 50.9027 214.213 50.7456 213.942 50.5149C213.671 50.2843 213.464 49.988 213.341 49.6544L209.804 40.13C209.785 40.0794 209.777 40.0253 209.781 39.9714C209.785 39.9175 209.8 39.865 209.826 39.8176C209.852 39.7702 209.888 39.729 209.931 39.6967C209.975 39.6645 210.025 39.642 210.078 39.6307L236.866 33.9853C236.962 33.9652 237.061 33.9827 237.144 34.0342C237.226 34.0857 237.286 34.1672 237.31 34.2615L239.441 42.7225C239.574 43.2544 239.491 43.817 239.211 44.2883C238.931 44.7595 238.477 45.1013 237.946 45.2395L215.809 50.9432C215.508 51.0213 215.193 51.0308 214.888 50.9712ZM210.661 40.2773L214.047 49.3926C214.16 49.7003 214.384 49.9549 214.675 50.1069C214.966 50.2588 215.303 50.2972 215.62 50.2146L237.758 44.5105C238.096 44.4223 238.386 44.2043 238.565 43.9039C238.743 43.6035 238.796 43.2448 238.712 42.9057L236.668 34.7965L210.661 40.2773Z" fill="#151515"/>
<path d="M193.139 28.4982C193.139 28.4982 202.847 23.8625 204.396 31.9497C205.596 38.2161 198.107 38.4038 196.506 34.6355C195.569 32.431 197.527 29.6349 193.139 28.4982Z" fill="#FBC2D3"/>
<g opacity="0.55">
<path d="M204.29 32.4894C204.452 33.1971 204.479 33.8173 204.4 34.3569C204.559 33.6849 204.575 32.8866 204.396 31.9514C202.846 23.8643 193.138 28.4999 193.138 28.4999C193.442 28.577 193.74 28.6727 194.031 28.7864C196.548 27.9843 202.943 26.5855 204.29 32.4894Z" fill="#F8F8F8"/>
</g>
<g opacity="0.25">
<path d="M204.525 33.251C203.322 35.4903 198.325 34.8744 196.91 32.575C195.948 31.0122 197.418 29.1961 194.137 28.0901C193.52 28.3179 193.139 28.4982 193.139 28.4982C197.527 29.6349 195.569 32.4311 196.506 34.6363C197.988 38.1229 204.511 38.2215 204.525 33.251Z" fill="black"/>
</g>
<path d="M199.621 37.4002C198.162 37.1146 196.778 36.236 196.16 34.7823C195.838 34.0239 195.828 33.2312 195.818 32.465C195.798 30.8478 195.781 29.5709 193.045 28.8623C192.971 28.8428 192.904 28.8009 192.854 28.7422C192.803 28.6834 192.773 28.6108 192.765 28.534C192.758 28.4573 192.774 28.3801 192.812 28.3129C192.85 28.2457 192.908 28.1918 192.977 28.1585C193.192 28.0563 198.26 25.6745 201.783 27.4537C203.353 28.2445 204.357 29.7351 204.767 31.8787C205.289 34.6045 204.28 36.6328 202.069 37.3042C201.314 37.5332 200.455 37.5636 199.621 37.4002ZM194.228 28.4588C196.531 29.3999 196.552 31.0131 196.569 32.4555C196.578 33.1812 196.587 33.8656 196.851 34.4887C197.664 36.4025 200.091 37.1178 201.847 36.5848C203.68 36.0283 204.474 34.3649 204.025 32.0204C203.66 30.1179 202.791 28.8075 201.441 28.1256C199.089 26.9371 195.811 27.8743 194.228 28.4588Z" fill="#151515"/>
<path d="M230.254 35.7667C230.254 35.7667 223.012 27.8117 218.527 34.7169C215.051 40.0676 221.916 43.0665 224.821 40.1806C226.52 38.4923 225.761 35.1641 230.254 35.7667Z" fill="#FBC2D3"/>
<g opacity="0.55">
<path d="M218.421 35.2567C221.895 30.297 227.29 34.0048 229.319 35.6953C229.632 35.6999 229.944 35.7238 230.254 35.7668C230.254 35.7668 223.012 27.8117 218.527 34.717C218.008 35.5156 217.721 36.2611 217.615 36.9433C217.745 36.4153 218.004 35.8512 218.421 35.2567Z" fill="#F8F8F8"/>
</g>
<g opacity="0.25">
<path d="M217.916 35.8734C218.186 38.4013 223.045 39.7156 225.223 38.1198C226.703 37.0352 226.027 34.7988 229.484 35.0124C229.971 35.4564 230.254 35.7667 230.254 35.7667C225.761 35.1642 226.519 38.4928 224.821 40.1806C222.133 42.8514 216.054 40.4822 217.916 35.8734Z" fill="black"/>
</g>
<path d="M220.893 41.566C220.058 41.4025 219.274 41.0498 218.662 40.5538C216.867 39.0977 216.698 36.8387 218.21 34.5113C219.399 32.6809 220.89 31.6808 222.642 31.5387C226.577 31.2204 230.372 35.338 230.532 35.5131C230.584 35.5703 230.617 35.642 230.627 35.7185C230.636 35.7951 230.622 35.8727 230.587 35.941C230.551 36.0093 230.495 36.065 230.426 36.1004C230.357 36.1358 230.28 36.1494 230.203 36.1392C227.402 35.7634 226.906 36.9399 226.278 38.4302C225.98 39.1362 225.672 39.8666 225.088 40.4474C223.966 41.5608 222.352 41.8518 220.893 41.566ZM224.104 32.3775C223.643 32.2837 223.171 32.254 222.702 32.2893C221.195 32.4117 219.896 33.2975 218.843 34.9214C217.543 36.9229 217.65 38.7632 219.138 39.9701C220.563 41.1282 223.08 41.379 224.556 39.9134C225.035 39.4359 225.301 38.8057 225.584 38.1368C226.145 36.808 226.772 35.3218 229.26 35.3189C228.236 34.3838 226.24 32.7962 224.105 32.3781L224.104 32.3775Z" fill="#151515"/>
</svg>
