<svg width="163" height="213" viewBox="0 0 163 213" fill="none" xmlns="http://www.w3.org/2000/svg">
<path d="M37.1172 162.96C11.7625 155.732 0.506052 137.961 1.59873 127.374C2.58055 117.846 12.4737 112.175 23.3457 121.764C27.9309 125.807 33.2244 129.051 37.5116 131.335C42.2451 133.868 45.7578 135.225 45.7578 135.225C48.1217 137.817 49.5008 140.986 50.0637 144.245C51.7956 154.283 45.7952 165.17 37.1172 162.96Z" fill="#FBC2D3"/>
<g opacity="0.25">
<path d="M37.1177 154.6C13.7741 149.151 2.39101 136.388 1.58194 127.63C0.692249 138.246 11.9631 155.788 37.1177 162.96C45.6647 165.137 51.6075 154.606 50.1319 144.71C49.0105 150.912 43.8767 156.009 37.1177 154.6Z" fill="black"/>
</g>
<g opacity="0.55">
<path d="M1.59934 130.231C2.58117 121.46 12.4743 116.24 23.3463 125.067C27.9316 128.787 33.225 131.773 37.5123 133.876C40.1978 135.212 42.9501 136.409 45.7584 137.462C47.9958 139.732 49.4965 142.625 50.0643 145.763C50.2243 146.616 50.3206 147.48 50.3523 148.347C50.3911 146.975 50.2947 145.603 50.0643 144.25C49.5043 140.992 48.1223 137.829 45.7584 135.23C45.7584 135.23 42.2457 133.868 37.5123 131.341C33.225 129.057 27.9316 125.813 23.3463 121.769C12.4743 112.18 2.58117 117.851 1.59934 127.38C1.50855 128.334 1.50855 129.294 1.59934 130.248C1.59748 130.242 1.59748 130.236 1.59934 130.231Z" fill="white"/>
</g>
<g opacity="0.25">
<path d="M50.0638 144.25C44.9028 141.248 40.427 137.078 37.5117 131.335C42.2452 133.867 45.7579 135.224 45.7579 135.224C48.1218 137.828 49.5038 140.992 50.0638 144.25Z" fill="black"/>
</g>
<path d="M39.3244 164.671C38.4614 164.669 37.602 164.559 36.7662 164.344C21.8661 160.095 13.1045 152.767 8.36956 147.367C2.61969 140.807 -0.440975 133.278 0.180944 127.227C0.712166 122.082 3.69219 117.847 7.95493 116.177C12.8885 114.247 18.84 115.889 24.2832 120.694C33.6278 128.935 46.141 133.85 46.2677 133.899C46.4725 133.979 46.6562 134.105 46.8047 134.268C53.3464 141.453 52.7892 152.141 48.9454 158.551C46.5801 162.502 43.102 164.671 39.3244 164.671ZM12.2868 118.22C11.1622 118.215 10.0468 118.423 8.99866 118.83C5.67888 120.127 3.44172 123.378 3.01559 127.519C2.03809 137.013 12.3242 154.409 37.5076 161.593C42.434 162.848 45.4442 158.856 46.5081 157.083C49.8193 151.553 50.1072 142.379 44.9245 136.427C42.8212 135.577 31.3921 130.754 22.4117 122.832C18.958 119.791 15.4698 118.22 12.2868 118.22Z" fill="#151515"/>
<path d="M24.876 175.07L27.9654 207.573L76.6982 207.5L50.7518 163.398C39.1283 164.945 29.1632 167.788 24.876 175.07Z" fill="#FBC2D3"/>
<g opacity="0.25">
<path d="M40.4212 189.451L25.3137 174.371C25.1626 174.6 25.0157 174.832 24.8818 175.07L27.9713 207.573H76.7041L67.8619 193.169C57.3353 192.639 45.8932 197.309 40.4212 189.451Z" fill="black"/>
</g>
<g opacity="0.55">
<path d="M50.7518 163.935V163.398C39.1283 164.945 29.1574 167.788 24.876 175.066L26.7475 178.144C29.6325 171.729 39.3816 165.285 50.7518 163.935Z" fill="white"/>
</g>
<path d="M32.5218 206.467C40.1218 202.997 42.8562 192.671 38.6294 183.404C34.4025 174.136 24.815 169.437 17.215 172.907C9.61506 176.377 6.88065 186.703 11.1075 195.971C15.3344 205.238 24.9219 209.937 32.5218 206.467Z" fill="#FBC2D3"/>
<g opacity="0.55">
<path d="M18.7534 176.235C26.1099 172.876 34.6224 175.571 38.6347 183.367C38.5123 183.067 38.77 183.664 38.6347 183.367C34.4065 174.099 24.8143 169.395 17.2202 172.872C9.6262 176.349 6.8866 186.668 11.1148 195.935C11.2501 196.233 11.3912 196.524 11.538 196.812C8.28015 188.672 11.3984 179.594 18.7534 176.235Z" fill="white"/>
</g>
<g opacity="0.25">
<path d="M10.9569 191.442C15.1217 198.932 24.6765 202.677 32.2979 199.815C37.0875 198.013 39.9725 194.026 40.4203 189.444C41.4481 196.774 38.4825 203.704 32.5282 206.422C24.9285 209.894 15.3405 205.195 11.1138 195.927C9.68666 192.847 9.0135 189.47 9.15014 186.078C9.40935 187.964 10.0223 189.784 10.9569 191.442Z" fill="black"/>
</g>
<path d="M27.2045 208.999C20.172 208.999 13.2661 204.085 9.8196 196.529C7.63857 191.747 7.11884 186.541 8.35548 181.867C9.61947 177.091 12.5577 173.436 16.629 171.577C19.6522 170.192 23.0339 169.932 26.4386 170.812C32.3267 165.066 42.3753 163.077 50.5653 161.988C50.8428 161.95 51.1253 161.995 51.3771 162.117C51.629 162.24 51.8389 162.434 51.9805 162.676L77.9254 206.778C78.0532 206.994 78.1216 207.241 78.1235 207.492C78.1255 207.743 78.061 207.99 77.9365 208.208C77.8121 208.426 77.6322 208.608 77.415 208.734C77.1979 208.86 76.9513 208.926 76.7003 208.926L27.9675 208.999C27.9042 208.988 27.8495 208.999 27.7919 208.988C27.5961 208.999 27.3989 208.999 27.2045 208.999ZM22.5257 173.154C20.8999 173.147 19.2917 173.49 17.811 174.162C14.5315 175.66 12.1504 178.654 11.1095 182.589C10.0399 186.622 10.502 191.155 12.4052 195.338C15.5076 202.134 21.7325 206.471 27.8797 206.124C27.9866 206.118 28.0937 206.124 28.1993 206.142L74.2054 206.072L50.0024 164.933C38.6625 166.528 31.8272 169.147 27.9042 173.376C27.7213 173.573 27.4861 173.715 27.2258 173.784C26.9656 173.853 26.6911 173.847 26.4343 173.766C25.1701 173.364 23.8522 173.158 22.5257 173.153V173.154Z" fill="#151515"/>
<path d="M38.124 183.619L37.7771 183.004C37.6527 182.773 37.5157 182.549 37.3668 182.334C37.207 182.086 37.027 181.807 36.7981 181.509L36.4555 181.043L36.0624 180.564C35.8004 180.229 35.4866 179.907 35.1771 179.563C34.8676 179.218 34.522 178.884 34.1607 178.554L33.618 178.06L33.0493 177.585C32.6721 177.268 32.2748 176.974 31.8847 176.686C31.4945 176.398 31.1001 176.131 30.7099 175.889C30.0086 175.438 29.2824 175.027 28.5347 174.658C28.2064 174.504 27.9098 174.351 27.6392 174.243C27.3685 174.135 27.1368 174.021 26.941 173.955L26.3292 173.729L26.273 173.709C26.0891 173.643 25.9206 173.54 25.7779 173.407C25.6352 173.274 25.5213 173.113 25.4433 172.934C25.3653 172.755 25.3247 172.562 25.3242 172.366C25.3237 172.171 25.3632 171.978 25.4403 171.798C25.5174 171.619 25.6304 171.457 25.7725 171.323C25.9145 171.189 26.0824 171.086 26.266 171.019C26.4495 170.952 26.6447 170.924 26.8396 170.936C27.0344 170.948 27.2247 171 27.3988 171.088L28.0826 171.424C28.3029 171.526 28.5505 171.678 28.8442 171.836C29.1379 171.994 29.4546 172.196 29.803 172.412C30.5827 172.905 31.3344 173.441 32.0545 174.017C32.4519 174.327 32.8435 174.668 33.2394 175.015C33.6353 175.362 34.0225 175.735 34.3911 176.117L34.9482 176.693L35.4765 177.285C35.8264 177.677 36.1445 178.086 36.4555 178.476C36.7665 178.867 37.0472 179.261 37.2919 179.65L37.659 180.206L37.9743 180.745C38.1816 181.082 38.3529 181.416 38.5012 181.713C38.6495 182.01 38.779 182.263 38.8611 182.468L39.149 183.116C39.1912 183.247 39.1848 183.39 39.1311 183.517C39.0773 183.644 38.9798 183.747 38.8562 183.809C38.7326 183.87 38.5912 183.885 38.4576 183.85C38.324 183.816 38.2072 183.735 38.1283 183.622L38.124 183.619Z" fill="#151515"/>
<path d="M140.823 175.07L137.732 207.573L88.999 207.5L114.945 163.398C126.57 164.945 136.534 167.788 140.823 175.07Z" fill="#FBC2D3"/>
<g opacity="0.25">
<path d="M125.276 189.451L140.379 174.371C140.523 174.6 140.677 174.832 140.811 175.07L137.72 207.573H88.999L97.8412 193.169C108.885 193.173 118.677 196.812 125.276 189.451Z" fill="black"/>
</g>
<g opacity="0.55">
<path d="M114.945 163.935V163.398C126.57 164.945 136.54 167.788 140.823 175.066L138.951 178.144C136.06 171.729 126.315 165.285 114.945 163.935Z" fill="white"/>
</g>
<path d="M154.556 195.9C158.783 186.632 156.049 176.306 148.449 172.836C140.849 169.366 131.261 174.065 127.034 183.333C122.807 192.6 125.542 202.926 133.142 206.396C140.742 209.867 150.329 205.167 154.556 195.9Z" fill="#FBC2D3"/>
<g opacity="0.55">
<path d="M146.943 176.235C139.587 172.876 131.074 175.571 127.062 183.367C126.927 183.664 127.184 183.067 127.062 183.367C131.29 174.099 140.882 169.395 148.476 172.872C156.07 176.349 158.806 186.673 154.583 195.935C154.439 196.233 154.305 196.524 154.16 196.812C157.416 188.672 154.298 179.594 146.943 176.235Z" fill="white"/>
</g>
<g opacity="0.25">
<path d="M154.739 191.442C150.574 198.932 141.02 202.677 133.398 199.815C128.609 198.013 125.724 194.026 125.276 189.444C124.248 196.774 127.214 203.704 133.168 206.422C140.768 209.894 150.356 205.195 154.584 195.927C156.01 192.846 156.682 189.47 156.546 186.078C156.287 187.964 155.674 189.784 154.739 191.442Z" fill="black"/>
</g>
<path d="M138.493 209C138.297 209 138.1 209 137.904 208.988C137.847 208.998 137.789 209.002 137.73 209L88.9975 208.926C88.7465 208.926 88.4998 208.86 88.2827 208.734C88.0656 208.608 87.8857 208.427 87.7612 208.208C87.6368 207.99 87.5723 207.743 87.5743 207.492C87.5762 207.241 87.6446 206.995 87.7724 206.778L113.717 162.675C113.859 162.433 114.069 162.239 114.321 162.117C114.573 161.994 114.855 161.949 115.132 161.986C123.322 163.075 133.371 165.065 139.259 170.811C142.664 169.932 146.038 170.193 149.069 171.575C153.14 173.435 156.078 177.089 157.342 181.866C158.579 186.54 158.062 191.746 155.878 196.528C152.432 204.082 145.526 209 138.493 209ZM137.736 206.129H137.814C143.97 206.467 150.195 202.139 153.288 195.343C155.196 191.165 155.658 186.632 154.584 182.593C153.543 178.658 151.162 175.665 147.883 174.167C145.249 172.964 142.268 172.829 139.255 173.771C138.998 173.852 138.724 173.858 138.463 173.789C138.203 173.72 137.968 173.578 137.785 173.38C133.862 169.151 127.027 166.532 115.687 164.938L91.4837 206.077L137.496 206.146C137.575 206.133 137.655 206.127 137.736 206.127V206.129Z" fill="#151515"/>
<path d="M126.559 183.113L126.839 182.465C126.921 182.26 127.044 182.005 127.199 181.71C127.355 181.415 127.519 181.079 127.726 180.742L128.041 180.203L128.408 179.647C128.653 179.259 128.951 178.878 129.245 178.473C129.539 178.069 129.874 177.674 130.224 177.282L130.752 176.69L131.309 176.114C131.681 175.729 132.075 175.368 132.461 175.012C132.847 174.656 133.248 174.324 133.646 174.014C134.366 173.438 135.118 172.902 135.897 172.409C136.246 172.197 136.56 171.994 136.856 171.833C137.153 171.672 137.399 171.523 137.618 171.421L138.302 171.085C138.641 170.918 139.033 170.893 139.391 171.014C139.749 171.136 140.045 171.395 140.212 171.735C140.379 172.075 140.405 172.467 140.283 172.825C140.161 173.184 139.902 173.479 139.563 173.647C139.519 173.668 139.473 173.688 139.429 173.706L139.371 173.726L138.759 173.952C138.564 174.018 138.327 174.129 138.063 174.24C137.798 174.351 137.494 174.501 137.166 174.655C136.418 175.024 135.693 175.435 134.992 175.886C134.6 176.128 134.212 176.404 133.816 176.683C133.42 176.962 133.028 177.259 132.651 177.582L132.075 178.057L131.534 178.551C131.171 178.877 130.841 179.224 130.516 179.56C130.191 179.895 129.893 180.227 129.631 180.561L129.238 181.04L128.895 181.506C128.666 181.804 128.486 182.082 128.319 182.331C128.17 182.547 128.033 182.77 127.909 183.001L127.562 183.616C127.483 183.729 127.366 183.81 127.233 183.844C127.099 183.879 126.958 183.864 126.834 183.803C126.71 183.742 126.613 183.638 126.559 183.511C126.505 183.384 126.499 183.242 126.541 183.11L126.559 183.113Z" fill="#151515"/>
<path d="M120.348 186.297C107.535 208.432 89.2809 207.591 82.958 207.562C76.6237 207.591 58.1576 208.426 45.3492 186.297C39.1257 175.542 38.4045 164.604 39.5432 155.749C39.7808 153.877 40.1047 152.088 40.479 150.42C41.2927 146.752 42.446 143.168 43.924 139.714C44.7503 137.796 45.3478 136.727 45.3478 136.727L116.824 132.117L118.921 131.985C118.921 131.985 119.245 132.611 119.758 133.757C120.175 134.697 120.722 135.984 121.315 137.561C122.987 141.983 125.058 148.677 125.882 156.338C125.981 157.232 126.058 158.138 126.119 159.055C126.69 167.725 125.503 177.391 120.348 186.297Z" fill="#FBC2D3"/>
<g opacity="0.25">
<path d="M120.348 177.31C107.535 195.782 89.2804 195.081 82.9575 195.056C76.6232 195.081 58.1571 195.776 45.3487 177.31C41.2372 171.381 39.5283 165.385 39.1699 159.868C38.7452 167.882 40.0581 177.153 45.3487 186.298C58.1614 208.434 76.6289 207.592 82.9575 207.564C89.2804 207.592 107.539 208.428 120.348 186.298C125.283 177.772 126.577 168.552 126.182 160.166C125.838 165.827 124.206 171.746 120.348 177.31Z" fill="black"/>
</g>
<g opacity="0.25">
<path d="M121.534 137.41C110.819 147.052 94.6364 150.463 85.5783 151.156C84.8585 151.213 84.107 151.257 83.3051 151.29C81.8655 151.346 80.2991 151.365 78.6378 151.323C68.0134 151.085 53.4774 148.557 43.9111 139.742C44.7418 137.798 45.3508 136.717 45.3508 136.717L116.827 132.099C117.41 132.303 118.74 132.503 119.994 133.467C120.41 134.428 120.951 135.767 121.534 137.41Z" fill="black"/>
</g>
<path d="M37.6944 161.02L37.7577 160.355C37.7937 159.941 37.8657 159.296 37.9593 158.556C38.1507 157.073 38.4732 155.11 38.9181 153.18C39.3629 151.25 39.9013 149.351 40.3577 147.947C40.814 146.542 41.1596 145.623 41.1596 145.623V145.615C41.2204 145.491 41.3234 145.394 41.4499 145.34C41.5764 145.286 41.7181 145.279 41.8492 145.32C41.9804 145.362 42.0924 145.449 42.165 145.565C42.2376 145.682 42.266 145.821 42.245 145.957C42.245 145.957 42.0075 146.892 41.7152 148.307C41.423 149.721 41.0962 151.62 40.8831 153.517C40.6701 155.414 40.5607 157.324 40.5333 158.749C40.5218 159.106 40.5333 159.424 40.5247 159.711C40.516 159.997 40.5247 160.257 40.5247 160.466C40.5247 160.898 40.5347 161.135 40.5347 161.135C40.5382 161.33 40.502 161.523 40.4282 161.703C40.3544 161.883 40.2447 162.046 40.1057 162.182C39.9668 162.318 39.8015 162.424 39.62 162.493C39.4386 162.563 39.2448 162.595 39.0506 162.587C38.8564 162.579 38.6659 162.532 38.4907 162.448C38.3155 162.364 38.1593 162.244 38.0317 162.098C37.9042 161.951 37.808 161.78 37.749 161.594C37.69 161.409 37.6694 161.214 37.6886 161.02H37.6944Z" fill="#151515"/>
<path d="M81.1394 209C73.4389 209 56.2612 208 44.1166 187.013C39.5745 179.167 37.4136 170.426 37.6929 161.037C37.6985 160.85 37.7409 160.666 37.8176 160.495C37.8943 160.325 38.0038 160.171 38.14 160.042C38.2761 159.914 38.4362 159.814 38.6111 159.747C38.786 159.681 38.9722 159.65 39.1592 159.655C39.3462 159.661 39.5302 159.703 39.7008 159.78C39.8714 159.857 40.0252 159.966 40.1535 160.103C40.2818 160.239 40.382 160.399 40.4484 160.574C40.5148 160.749 40.5461 160.935 40.5405 161.122C40.2756 169.974 42.3084 178.203 46.5869 185.584C58.5934 206.326 75.8517 206.195 82.3444 206.143H82.9562H83.581C90.0205 206.197 107.116 206.331 119.121 185.585C123.889 177.347 125.689 167.516 124.468 156.367C124.427 155.992 124.536 155.615 124.773 155.32C125.009 155.025 125.353 154.836 125.728 154.795C126.104 154.754 126.48 154.864 126.775 155.1C127.07 155.337 127.258 155.681 127.3 156.056C128.588 167.823 126.665 178.239 121.586 187.013C108.75 209.196 90.4495 209.043 83.5594 208.993H82.9562H82.3674C81.9874 209 81.5785 209 81.1394 209Z" fill="#151515"/>
<path d="M82.8486 159.258C82.8486 159.258 86.2836 150.595 97.6336 147.726C108.984 144.856 113.015 155.758 107.042 159.258H99.2762C99.2719 158.098 95.9118 149.719 82.8486 159.258Z" fill="#FFE851"/>
<g opacity="0.25">
<path d="M105.081 156.389H102.269C100.762 156.389 99.318 155.852 98.4571 154.901C96.993 153.282 93.3248 151.464 85.6171 154.989C83.616 157.328 82.8486 159.258 82.8486 159.258C95.9118 149.72 99.2719 158.106 99.2762 159.258H107.042C109.225 157.979 110.065 155.709 109.706 153.485L109.698 153.521C109.306 155.205 107.308 156.389 105.081 156.389Z" fill="black"/>
</g>
<g opacity="0.55">
<path d="M97.6336 150.25C105.075 148.78 109.369 151.935 109.762 155.052C110.194 150.742 105.811 145.659 97.6336 147.726C86.2836 150.595 82.8486 159.258 82.8486 159.258C82.8486 159.258 86.2836 152.491 97.6336 150.25Z" fill="white"/>
</g>
<path d="M107.042 160.683H99.2767C98.9082 160.683 98.5538 160.54 98.2883 160.285C98.0228 160.029 97.8667 159.68 97.8529 159.312C97.7968 158.975 97.1993 157.324 95.4142 156.563C93.5542 155.77 90.0098 155.793 83.6884 160.409C83.439 160.59 83.1377 160.685 82.8298 160.68C82.5219 160.675 82.2239 160.57 81.9806 160.381C81.7373 160.192 81.5618 159.929 81.4804 159.632C81.3989 159.335 81.416 159.019 81.529 158.733C81.6802 158.351 85.3699 149.358 97.2886 146.345C104.318 144.566 109.052 147.654 110.627 151.503C112.046 154.973 110.87 158.668 107.766 160.487C107.547 160.616 107.297 160.683 107.042 160.683ZM100.358 157.834H106.626C108.509 156.526 108.683 154.29 107.985 152.583C106.959 150.074 103.722 147.658 97.9811 149.109C93.3325 150.283 90.102 152.488 87.9411 154.591C91.4826 153.05 94.5001 152.897 96.9546 154.139C98.4902 154.929 99.6961 156.238 100.358 157.834Z" fill="#151515"/>
<path d="M82.8484 159.258C82.8484 159.258 79.4134 150.595 68.0648 147.726C56.7163 144.856 52.6825 155.758 58.6555 159.258H66.4294C66.4251 158.098 69.7852 149.719 82.8484 159.258Z" fill="#FFE851"/>
<g opacity="0.25">
<path d="M60.6238 156.389H63.4354C64.9427 156.389 66.3866 155.852 67.2475 154.901C68.7116 153.282 72.3812 151.464 80.0876 154.989C82.0901 157.328 82.856 159.258 82.856 159.258C69.7928 149.72 66.4327 158.106 66.4298 159.258H58.6559C56.4719 157.979 55.6326 155.709 55.9911 153.485L55.9997 153.521C56.3913 155.205 58.3895 156.389 60.6238 156.389Z" fill="black"/>
</g>
<g opacity="0.55">
<path d="M68.0647 150.25C60.6233 148.78 56.3274 151.935 55.9344 155.052C55.5025 150.742 59.8862 145.659 68.0647 147.726C79.4133 150.595 82.8482 159.258 82.8482 159.258C82.8482 159.258 79.4133 152.491 68.0647 150.25Z" fill="white"/>
</g>
<path d="M82.8482 160.683C82.5465 160.683 82.2525 160.587 82.0089 160.409C75.6875 155.793 72.1432 155.77 70.2832 156.563C68.4981 157.324 67.9006 158.975 67.8444 159.312C67.8307 159.68 67.6748 160.028 67.4096 160.284C67.1443 160.54 66.7904 160.683 66.4221 160.683H58.6481C58.3951 160.684 58.1466 160.616 57.9283 160.488C54.823 158.669 53.6468 154.974 55.0663 151.504C56.6413 147.656 61.3748 144.569 68.4045 146.346C80.3231 149.358 84.0129 158.351 84.1641 158.734C84.2499 158.95 84.2814 159.184 84.256 159.415C84.2307 159.647 84.1491 159.868 84.0184 160.06C83.8878 160.253 83.7121 160.41 83.5066 160.519C83.3011 160.628 83.0721 160.685 82.8396 160.684L82.8482 160.683ZM59.0699 157.834H65.3381C65.9998 156.238 67.2057 154.929 68.7413 154.139C71.206 152.89 74.2421 153.053 77.811 154.613C75.6515 152.508 72.4182 150.292 67.7192 149.109C61.9809 147.658 58.7431 150.074 57.7153 152.583C57.0127 154.29 57.1869 156.526 59.0699 157.834Z" fill="#151515"/>
<path d="M109.791 159.258H55.9043V207.574H109.791V159.258Z" fill="#1A86D5"/>
<path d="M109.791 159.258H55.9043V207.574H109.791V159.258Z" fill="#1A86D5"/>
<g opacity="0.55">
<path d="M55.9062 159.258V207.574H57.4395L60.8917 159.258H55.9062Z" fill="white"/>
</g>
<g opacity="0.25">
<path d="M108.353 159.258C108.354 163.247 107.775 167.215 106.634 171.037H55.9062V173.013L105.093 175.335C97.8469 192.541 79.3102 206.328 57.5848 206.328H55.9077V207.574H109.793V159.258H108.353Z" fill="black"/>
</g>
<path d="M109.791 208.999H55.9057C55.7186 209 55.5333 208.963 55.3604 208.891C55.1875 208.82 55.0303 208.715 54.898 208.583C54.7656 208.45 54.6606 208.293 54.589 208.12C54.5173 207.947 54.4805 207.762 54.4805 207.575V159.258C54.4805 159.071 54.5173 158.886 54.589 158.713C54.6606 158.54 54.7656 158.383 54.898 158.25C55.0303 158.118 55.1875 158.013 55.3604 157.942C55.5333 157.87 55.7186 157.833 55.9057 157.833H109.791C109.978 157.833 110.163 157.87 110.336 157.942C110.509 158.013 110.666 158.118 110.799 158.25C110.931 158.383 111.036 158.54 111.108 158.713C111.179 158.886 111.216 159.071 111.216 159.258V207.573C111.216 207.761 111.18 207.946 111.108 208.119C111.036 208.292 110.931 208.45 110.799 208.582C110.667 208.715 110.51 208.82 110.337 208.891C110.164 208.963 109.978 209 109.791 208.999ZM57.3295 206.15H108.367V160.683H57.3295V206.15Z" fill="#151515"/>
<path d="M113.244 159.258H52.4541V172.025H113.244V159.258Z" fill="#1A86D5"/>
<g opacity="0.25">
<path d="M113.244 167.575H52.4541V172.025H113.244V167.575Z" fill="black"/>
</g>
<g opacity="0.55">
<path d="M113.244 159.258H52.4541V162.224H113.244V159.258Z" fill="white"/>
</g>
<path d="M113.244 173.449H52.454C52.0764 173.449 51.7143 173.299 51.4473 173.032C51.1803 172.765 51.0303 172.403 51.0303 172.025V159.258C51.0303 158.88 51.1803 158.518 51.4473 158.251C51.7143 157.984 52.0764 157.833 52.454 157.833H113.244C113.431 157.833 113.616 157.87 113.789 157.942C113.962 158.013 114.119 158.118 114.251 158.25C114.383 158.383 114.488 158.54 114.56 158.713C114.631 158.886 114.668 159.071 114.667 159.258V172.025C114.667 172.403 114.517 172.765 114.25 173.032C113.983 173.299 113.621 173.449 113.244 173.449ZM53.8778 170.6H111.82V160.683H53.8778V170.6Z" fill="#151515"/>
<path d="M87.2581 159.258H78.4375V207.574H87.2581V159.258Z" fill="#FFE851"/>
<g opacity="0.25">
<path d="M83.9988 159.258V199.781C83.9988 202.729 82.0179 205.387 78.9788 206.515L78.4375 206.715V207.579H87.2567V159.258H83.9988Z" fill="black"/>
</g>
<g opacity="0.55">
<path d="M78.4375 159.258V207.574H80.1391L81.2908 159.258H78.4375Z" fill="white"/>
</g>
<path d="M87.2566 208.999H78.4345C78.2475 208.999 78.0624 208.963 77.8897 208.891C77.7169 208.819 77.56 208.715 77.4278 208.582C77.2956 208.45 77.1907 208.293 77.1191 208.12C77.0475 207.947 77.0107 207.762 77.0107 207.575V159.258C77.0107 158.88 77.1608 158.518 77.4278 158.251C77.6948 157.984 78.0569 157.833 78.4345 157.833H87.2566C87.6342 157.833 87.9963 157.984 88.2633 158.251C88.5303 158.518 88.6803 158.88 88.6803 159.258V207.573C88.6805 207.761 88.6439 207.946 88.5724 208.119C88.5009 208.292 88.3961 208.449 88.2638 208.582C88.1316 208.714 87.9746 208.819 87.8018 208.891C87.6289 208.963 87.4436 208.999 87.2566 208.999ZM79.8598 206.15H85.8328V160.683H79.8598V206.15Z" fill="#151515"/>
<path d="M82.8482 153.842C79.5126 153.842 76.8018 156.267 76.8018 159.258H88.8831C88.8889 156.267 86.1838 153.842 82.8482 153.842Z" fill="#FFE851"/>
<g opacity="0.55">
<path d="M82.8482 156.082C86.1838 156.082 88.8946 157.504 88.8946 159.251C88.8946 156.259 86.1896 153.835 82.8482 153.835C79.5068 153.835 76.8018 156.259 76.8018 159.251C76.8075 157.504 79.5126 156.082 82.8482 156.082Z" fill="white"/>
</g>
<path d="M88.8889 160.683H76.8076C76.6206 160.683 76.4355 160.646 76.2627 160.574C76.09 160.503 75.933 160.398 75.8008 160.266C75.6686 160.133 75.5637 159.976 75.4921 159.803C75.4206 159.63 75.3838 159.445 75.3838 159.258C75.3838 155.486 78.7323 152.417 82.8482 152.417C86.9641 152.417 90.3127 155.486 90.3127 159.258C90.3127 159.445 90.2759 159.63 90.2043 159.803C90.1328 159.976 90.0279 160.133 89.8957 160.266C89.7635 160.398 89.6065 160.503 89.4338 160.574C89.261 160.646 89.0759 160.683 88.8889 160.683ZM78.5366 157.834H87.1614C86.4963 156.334 84.8133 155.267 82.8425 155.267C80.8717 155.267 79.2017 156.334 78.5366 157.834Z" fill="#151515"/>
<path d="M136.137 160.799C131.346 179.339 111.674 192.62 98.4768 186.373C86.4041 180.664 89.1106 165.968 97.8261 162.077C106.542 158.186 108.767 156.391 109.215 150.985L111.622 144.071L116.976 128.71C116.976 128.71 120.879 130.278 125.242 133.54C131.885 138.517 139.588 147.448 136.137 160.799Z" fill="#FBC2D3"/>
<g opacity="0.55">
<path d="M125.242 133.545C120.879 130.281 116.976 128.713 116.976 128.713L116.292 132.512C116.292 132.512 120.094 133.978 124.346 137.032C130.817 141.686 138.323 150.043 134.96 162.539C131.063 177.03 117.052 188.078 105.049 187.926C117.453 188.345 132.095 176.445 136.138 160.799C139.588 147.448 131.885 138.517 125.242 133.545Z" fill="white"/>
</g>
<g opacity="0.25">
<path d="M136.138 156.249C131.347 172.16 111.674 183.557 98.4774 178.197C94.1513 176.441 91.7313 173.694 90.797 170.74C89.33 176.344 91.2649 182.962 98.4774 186.373C111.674 192.62 131.347 179.338 136.138 160.799C136.869 158.064 137.128 155.225 136.902 152.403C136.775 153.707 136.519 154.995 136.138 156.249Z" fill="black"/>
</g>
<g opacity="0.25">
<path d="M125.242 133.543C121.558 138.052 116.749 141.49 111.622 144.074L116.976 128.713C116.976 128.713 120.879 130.281 125.242 133.543Z" fill="black"/>
</g>
<path d="M105.697 189.358C102.994 189.381 100.319 188.802 97.8671 187.661C92.1086 184.937 88.8493 179.992 88.914 174.093C88.9788 168.323 92.3274 162.972 97.2466 160.776C105.841 156.942 107.418 155.461 107.795 150.869C107.81 150.683 107.862 150.501 107.947 150.334C108.033 150.168 108.15 150.02 108.293 149.899C108.436 149.778 108.601 149.686 108.779 149.629C108.957 149.572 109.144 149.55 109.331 149.565C109.517 149.581 109.699 149.633 109.865 149.718C110.031 149.804 110.179 149.921 110.3 150.064C110.421 150.207 110.513 150.372 110.57 150.55C110.627 150.728 110.649 150.916 110.634 151.102C110.128 157.255 107.429 159.353 98.4069 163.379C94.4854 165.129 91.8149 169.448 91.7631 174.125C91.7098 178.863 94.3788 182.857 99.0835 185.084C103.675 187.256 109.449 186.933 115.33 184.175C124.519 179.868 132.146 170.553 134.757 160.444C140.097 139.781 116.684 130.132 116.447 130.037C116.096 129.897 115.816 129.623 115.667 129.275C115.518 128.928 115.514 128.535 115.654 128.184C115.795 127.833 116.069 127.553 116.416 127.404C116.764 127.255 117.156 127.251 117.506 127.391C117.77 127.498 124.045 130.049 129.683 135.433C137.281 142.69 139.989 151.585 137.516 161.157C134.7 172.055 126.465 182.104 116.538 186.756C112.843 188.488 109.161 189.358 105.697 189.358Z" fill="#151515"/>
<path d="M77.8463 57.4334C38.0133 59.3304 29.4749 95.5345 30.7864 113.809C32.0979 132.084 43.5127 147.475 82.0371 145.643C120.561 143.811 130.488 127.401 130.053 109.086C129.618 90.771 117.681 55.5378 77.8463 57.4334Z" fill="#FBC2D3"/>
<g opacity="0.25">
<path d="M81.6714 137.871C44.0223 139.662 32.3225 126.347 30.6611 110.187C30.6611 111.456 30.7043 112.667 30.7864 113.809C32.0907 132.083 43.5127 147.475 82.0371 145.643C120.561 143.811 130.488 127.401 130.054 109.086C130.027 107.942 129.955 106.733 129.834 105.469C129.716 121.709 119.319 136.077 81.6714 137.871Z" fill="black"/>
</g>
<g opacity="0.55">
<path d="M77.8586 57.4333H77.8456C38.3092 59.316 29.611 94.9943 30.7598 113.395C30.23 96.4189 38.505 66.5383 71.7675 61.6725C72.1015 63.5552 74.8843 64.9193 78.2012 64.7623C81.5181 64.6053 84.1584 62.9819 84.3125 61.0776C117.879 62.7687 128.961 91.7216 130.044 108.67C129.438 90.2466 117.386 55.5593 77.8586 57.4333Z" fill="white"/>
</g>
<path d="M92.5548 125.488C92.5548 125.488 91.691 132.064 88.5742 136.63C86.9748 138.965 84.7894 140.776 81.8209 140.917C78.8524 141.058 76.5044 139.463 74.6904 137.29C71.1518 133.041 69.6748 126.577 69.6748 126.577C77.1796 130.258 84.8096 130.063 92.5548 125.488Z" fill="#151515"/>
<path d="M88.5742 136.63C86.9748 138.965 84.7894 140.776 81.8209 140.917C78.8524 141.058 76.5044 139.464 74.6904 137.29C76.2899 134.955 78.4752 133.144 81.4437 133.003C84.4122 132.862 86.7602 134.457 88.5742 136.63Z" fill="#F75263"/>
<path d="M81.4481 142.353C71.9322 142.353 68.4339 127.537 68.2871 126.896C68.2269 126.634 68.2422 126.359 68.3313 126.105C68.4205 125.851 68.5797 125.628 68.7907 125.46C69.0016 125.293 69.2556 125.189 69.5232 125.161C69.7908 125.132 70.061 125.18 70.3026 125.299C77.5741 128.861 84.6168 128.521 91.8336 124.261C92.0634 124.126 92.3266 124.058 92.5932 124.064C92.8599 124.071 93.1192 124.153 93.3418 124.3C93.5643 124.447 93.741 124.654 93.8518 124.897C93.9627 125.139 94.0031 125.408 93.9686 125.673C93.8822 126.334 91.7415 141.874 81.893 142.343C81.7433 142.35 81.5935 142.353 81.4481 142.353ZM71.9149 129.08C73.3042 133.041 76.4527 139.73 81.7562 139.497C87.0973 139.242 89.5849 132.211 90.5783 128.142C84.4023 131.024 78.1471 131.338 71.9149 129.08Z" fill="#151515"/>
<path d="M82.1912 128.993C90.5809 128.573 97.1005 122.597 96.7531 115.645C96.4057 108.693 89.3228 103.397 80.9331 103.817C72.5434 104.236 66.0238 110.213 66.3712 117.165C66.7186 124.117 73.8015 129.412 82.1912 128.993Z" fill="#F589AA"/>
<g opacity="0.25">
<path d="M81.097 125.651C73.1416 126.03 66.4689 123.159 65.5289 116.906C65.5116 117.252 65.5058 117.6 65.5289 117.953C65.9248 126.308 72.9199 130.197 81.3 129.804C89.68 129.411 96.2433 124.222 95.8762 116.509C95.8582 116.147 95.8212 115.786 95.7653 115.428C95.3752 121.32 89.0365 125.274 81.097 125.651Z" fill="black"/>
</g>
<g opacity="0.55">
<path d="M80.2487 107.826C88.3107 107.443 95.1071 111.676 95.8787 117.395C95.8859 117.107 95.8788 116.808 95.8701 116.509C95.5405 109.564 88.4791 104.265 80.099 104.658C71.719 105.051 65.1917 111.009 65.5228 117.954C65.5372 118.265 65.5646 118.566 65.5962 118.864C65.8064 113.086 72.1811 108.21 80.2487 107.826Z" fill="white"/>
</g>
<path d="M80.1177 131.257C76.0004 131.257 72.3855 130.249 69.6085 128.33C66.2167 125.984 64.3135 122.425 64.1048 118.021C63.9234 114.231 65.5171 110.6 68.5892 107.794C71.5865 105.057 75.652 103.438 80.0357 103.229C89.1932 102.797 96.9311 108.719 97.2982 116.437C97.6826 124.546 90.9826 130.766 81.3659 131.224C80.9427 131.247 80.5266 131.257 80.1177 131.257ZM80.9815 106.061C80.7108 106.061 80.4388 106.068 80.1652 106.081C76.4424 106.259 73.0103 107.617 70.5025 109.904C68.0681 112.124 66.8041 114.959 66.9437 117.886C67.1107 121.412 68.5518 124.137 71.2237 125.987C73.7258 127.715 77.2774 128.567 81.2248 128.381C89.3227 127.996 94.7573 123.142 94.4463 116.569C94.167 110.65 88.2027 106.061 80.9829 106.061H80.9815Z" fill="#151515"/>
<path d="M76.2625 114.126C76.3068 114.209 76.3467 114.294 76.382 114.381C76.474 114.602 76.5533 114.827 76.6195 115.057C76.9902 116.41 77.058 117.828 76.8182 119.211C76.7736 119.446 76.7154 119.678 76.644 119.907C76.6171 119.996 76.5854 120.084 76.549 120.17C76.4353 120.428 76.2521 120.649 76.0199 120.809C75.7877 120.968 75.5157 121.06 75.2343 121.073C74.953 121.087 74.6735 121.022 74.4271 120.885C74.1808 120.748 73.9773 120.546 73.8396 120.3C73.7953 120.217 73.7554 120.132 73.7201 120.045C73.6277 119.825 73.5479 119.6 73.4811 119.371C73.112 118.017 73.0446 116.598 73.2839 115.215C73.3288 114.981 73.3864 114.749 73.4566 114.521C73.5099 114.352 73.5517 114.256 73.5517 114.256C73.6652 113.998 73.8484 113.776 74.0807 113.616C74.3131 113.457 74.5853 113.365 74.8669 113.351C75.1486 113.338 75.4284 113.403 75.6749 113.54C75.9214 113.677 76.1249 113.88 76.2625 114.126Z" fill="#151515"/>
<path d="M87.5259 113.59C87.6627 113.891 87.7739 114.202 87.8584 114.521C87.9465 114.837 88.0181 115.158 88.0729 115.482C88.1334 115.833 88.1766 116.21 88.2068 116.586C88.2699 117.283 88.2374 117.986 88.1103 118.674C88.0643 118.91 88.0008 119.142 87.9203 119.369C87.8904 119.46 87.8549 119.548 87.8138 119.634C87.6278 120.003 87.303 120.283 86.9108 120.413C86.5186 120.543 86.0911 120.511 85.722 120.326C85.4696 120.197 85.2564 120.003 85.1044 119.764C85.0554 119.682 85.0112 119.597 84.9719 119.509C84.8708 119.291 84.7862 119.066 84.7186 118.835C84.5284 118.162 84.4315 117.466 84.4307 116.766C84.4307 116.389 84.4307 116.01 84.458 115.653C84.4854 115.296 84.5328 114.964 84.5804 114.678C84.6344 114.352 84.7158 114.032 84.8237 113.72C84.9247 113.449 85.1028 113.214 85.336 113.044C85.5692 112.873 85.8472 112.775 86.1357 112.761C86.4241 112.748 86.7102 112.819 86.9586 112.966C87.207 113.113 87.4067 113.33 87.533 113.59H87.5259Z" fill="#151515"/>
<path d="M76.0667 147.212C46.6465 147.212 30.9445 136.027 29.3652 113.911C28.5388 102.353 31.5995 84.3204 42.9408 71.5364C51.4649 61.9287 63.1849 56.6999 77.7798 56.0099C92.3747 55.3199 104.544 59.4036 113.945 68.1615C126.451 79.8132 131.209 97.4702 131.482 109.05C132.044 132.688 115.432 145.477 82.103 147.065C80.0328 147.163 78.0207 147.212 76.0667 147.212ZM80.9081 58.7842C79.9234 58.7842 78.9253 58.8082 77.9137 58.8562C64.1163 59.513 53.0657 64.4163 45.07 73.4277C34.3175 85.5491 31.4195 102.702 32.2056 113.708C33.7805 135.756 50.0569 145.744 81.9734 144.217C113.89 142.69 129.159 131.217 128.633 109.118C128.373 98.091 123.859 81.294 112.003 70.2472C103.83 62.633 93.381 58.7842 80.9081 58.7842Z" fill="#151515"/>
<path d="M58.5462 112.882C62.2122 112.707 65.0224 109.163 64.8231 104.965C64.6238 100.767 61.4903 97.5048 57.8243 97.6791C54.1584 97.8534 51.3481 101.398 51.5474 105.596C51.7468 109.794 54.8802 113.056 58.5462 112.882Z" fill="#151515"/>
<path d="M57.7173 102.077C57.7334 102.416 57.6486 102.752 57.4737 103.043C57.2988 103.334 57.0416 103.567 56.7346 103.712C56.4277 103.856 56.0847 103.907 55.7491 103.856C55.4135 103.806 55.1003 103.657 54.8491 103.429C54.598 103.201 54.4201 102.903 54.338 102.574C54.256 102.244 54.2734 101.898 54.3881 101.578C54.5028 101.259 54.7096 100.98 54.9824 100.778C55.2551 100.576 55.5816 100.46 55.9206 100.443C56.3753 100.422 56.8199 100.582 57.1568 100.888C57.4936 101.194 57.6953 101.622 57.7173 102.077Z" fill="white"/>
<path d="M107.773 103.359C107.548 103.268 107.325 103.189 107.082 103.114C106.838 103.039 106.601 102.97 106.362 102.914C105.875 102.799 105.382 102.712 104.886 102.651C104.637 102.63 104.391 102.6 104.143 102.585L103.402 102.561L102.665 102.588C102.42 102.588 102.177 102.639 101.935 102.66C101.693 102.681 101.452 102.719 101.215 102.774C100.977 102.826 100.737 102.853 100.505 102.918L99.8114 103.118C99.5782 103.176 99.3608 103.287 99.1348 103.366C98.9093 103.445 98.6887 103.538 98.474 103.642L97.8348 103.965C97.6215 104.072 97.4156 104.193 97.2186 104.328L96.614 104.711L96.5866 104.729C96.2712 104.926 95.8904 104.99 95.5279 104.906C95.1653 104.823 94.8507 104.599 94.6532 104.283C94.5293 104.083 94.4573 103.855 94.4438 103.619C94.4302 103.384 94.4755 103.149 94.5755 102.935C94.623 102.836 94.6561 102.78 94.6906 102.715C94.7252 102.65 94.7626 102.591 94.7986 102.533C94.8691 102.417 94.9426 102.3 95.0145 102.193C95.1585 101.97 95.3169 101.761 95.4724 101.557C95.7886 101.153 96.1284 100.768 96.4902 100.404C96.6773 100.23 96.8515 100.047 97.0459 99.8829C97.2402 99.7187 97.4317 99.5545 97.6289 99.3975L98.2408 98.9524C98.4481 98.8084 98.6727 98.6859 98.88 98.552C99.0923 98.42 99.312 98.3003 99.5379 98.1933C99.7568 98.0747 99.9816 97.9674 100.212 97.8721L100.901 97.5969C101.132 97.5076 101.372 97.4529 101.607 97.3766C101.839 97.2998 102.076 97.2373 102.316 97.1893L103.036 97.0453C103.274 97.0016 103.515 96.9708 103.756 96.9531L104.476 96.8825C104.618 96.8688 104.76 96.9092 104.874 96.9955C104.988 97.0818 105.065 97.2078 105.09 97.3484C105.115 97.489 105.087 97.634 105.01 97.7545C104.933 97.875 104.814 97.9622 104.676 97.9988L104.62 98.0132L103.983 98.1803C103.771 98.228 103.562 98.2881 103.357 98.3604L102.748 98.5837C102.547 98.6573 102.35 98.7439 102.159 98.8429C101.968 98.938 101.771 99.0172 101.584 99.131L101.038 99.4551C100.858 99.5644 100.684 99.6836 100.517 99.8123C100.343 99.9298 100.177 100.058 100.019 100.196C99.8618 100.34 99.6977 100.461 99.5479 100.605L99.1074 101.037L98.7 101.503C98.5647 101.658 98.4481 101.83 98.3214 101.99C98.0824 102.32 97.8631 102.663 97.6649 103.019C97.5728 103.196 97.4763 103.372 97.3986 103.55C97.3233 103.705 97.2598 103.865 97.2085 104.029L95.1614 102.263L95.9561 101.9C96.2165 101.773 96.4842 101.662 96.758 101.567L97.5814 101.279C97.8569 101.189 98.1371 101.114 98.4207 101.055C98.7087 100.995 98.9778 100.911 99.2658 100.871L100.119 100.747C100.407 100.704 100.695 100.705 100.983 100.682C101.268 100.659 101.553 100.654 101.838 100.667C102.126 100.678 102.407 100.667 102.689 100.7L103.533 100.783L104.365 100.927C104.64 100.981 104.912 101.051 105.184 101.113C105.724 101.254 106.255 101.425 106.775 101.626C107.034 101.731 107.292 101.833 107.544 101.954C107.796 102.075 108.053 102.203 108.301 102.348C108.413 102.427 108.493 102.543 108.527 102.676C108.561 102.809 108.546 102.95 108.486 103.073C108.425 103.196 108.323 103.294 108.197 103.348C108.071 103.402 107.929 103.41 107.798 103.369L107.773 103.359Z" fill="#151515"/>
<path d="M56.3044 62.5944C56.3044 62.5944 41.9355 55.3663 35.7019 72.182C35.7019 72.182 31.5946 73.1904 28.6837 76.0554C25.6893 79.004 23.933 83.8914 27.1246 89.7569C31.3917 97.6059 45.4453 101.482 48.2223 95.5878C50.8194 90.0795 46.1406 64.2668 56.3044 62.5944Z" fill="#FBC2D3"/>
<g opacity="0.25">
<path d="M47.9552 89.7958C45.132 94.7235 30.1657 91.6554 25.962 85.1575C25.2954 84.1262 25.8008 83.0847 25.5431 82.1326C25.2148 84.3826 25.6093 86.9595 27.1267 89.7583C31.3937 97.6073 45.4473 101.484 48.2244 95.5892C50.8157 90.081 46.1398 64.2682 56.3064 62.6031C56.3064 62.6031 56.1265 62.5123 55.7982 62.3755C46.2636 64.4569 50.5465 85.2656 47.9552 89.7958Z" fill="black"/>
</g>
<g opacity="0.55">
<path d="M30.4861 78.9017C33.3956 76.0367 37.5043 75.0284 37.5043 75.0284C41.4359 64.4209 48.6038 63.3824 53.3618 64.0608C54.1708 63.284 55.1973 62.7725 56.3044 62.5944C56.3044 62.5944 41.9369 55.3663 35.7019 72.182C35.7019 72.182 31.5946 73.1904 28.6837 76.0554C25.6893 79.004 23.933 83.8914 27.1246 89.7569C27.5195 90.4754 27.9828 91.1541 28.5081 91.7836C25.9081 86.284 27.6328 81.712 30.4861 78.9017Z" fill="white"/>
</g>
<path d="M42.5549 99.8599C36.9807 99.8599 29.1923 96.3279 25.9862 90.4322C22.963 84.8807 23.6454 79.1247 27.7987 75.0338C30.2173 72.6528 33.3355 71.4543 34.7392 71.0006C36.8439 65.7084 39.9837 62.2139 44.0809 60.5963C50.4901 58.0741 56.7928 61.1725 57.0577 61.3165C57.3266 61.4515 57.5458 61.6682 57.6839 61.9356C57.8221 62.203 57.872 62.5073 57.8266 62.8048C57.7812 63.1024 57.6428 63.3779 57.4312 63.5918C57.2196 63.8058 56.9457 63.9472 56.6488 63.9957C51.0343 64.9205 50.8702 76.5276 50.7464 85.0118C50.6744 90.0793 50.6168 94.0866 49.6235 96.1911C48.5538 98.4598 46.1684 99.7619 42.9235 99.8556C42.8025 99.857 42.6787 99.8599 42.5549 99.8599ZM49.4161 62.4746C47.9396 62.4618 46.474 62.7296 45.0973 63.264C41.6263 64.6382 38.9529 67.8043 37.1477 72.6715C37.0667 72.8898 36.9336 73.0849 36.7599 73.2398C36.5863 73.3947 36.3774 73.5047 36.1514 73.5603C36.1169 73.5689 32.3753 74.5225 29.7941 77.0649C28.2594 78.5759 25.0606 82.7705 28.4854 89.071C31.1027 93.8849 37.7768 97.0093 42.5348 97.0093C42.6384 97.0093 42.7392 97.0093 42.8399 97.0093C44.3415 96.966 46.295 96.5771 47.0451 94.9782C47.7764 93.4269 47.8355 89.3202 47.8974 84.9743C48.0169 76.7235 48.1579 66.8118 52.6582 62.8434C51.5939 62.6043 50.5069 62.4807 49.4161 62.4746Z" fill="#151515"/>
<path d="M100.042 60.5129C100.042 60.5129 113.659 51.9523 121.461 68.0997C121.461 68.0997 125.646 68.7119 128.814 71.2888C132.075 73.9392 134.285 78.6351 131.668 84.78C128.164 92.9992 114.536 98.1934 111.225 92.5887C108.113 87.3526 110.321 61.21 100.042 60.5129Z" fill="#FBC2D3"/>
<g opacity="0.25">
<path d="M110.942 86.7967C114.221 91.4349 128.828 86.958 132.392 80.0914C132.96 79.001 132.356 78.0129 132.523 77.0391C133.063 79.2473 132.915 81.8488 131.66 84.7801C128.155 92.9992 114.528 98.1935 111.217 92.5887C108.112 87.3527 110.32 61.2115 100.041 60.5129C100.041 60.5129 100.211 60.4049 100.525 60.2378C110.218 61.4118 107.93 82.5373 110.942 86.7967Z" fill="black"/>
</g>
<g opacity="0.55">
<path d="M127.294 74.2936C124.127 71.7181 119.939 71.1044 119.939 71.1044C115.018 60.9191 107.784 60.5647 103.113 61.6911C102.233 60.9953 101.161 60.5843 100.042 60.5129C100.042 60.5129 113.659 51.9523 121.461 68.0997C121.461 68.0997 125.646 68.7119 128.814 71.2888C132.075 73.9392 134.285 78.6351 131.668 84.78C131.343 85.5331 130.945 86.2529 130.481 86.9291C132.552 81.2077 130.401 76.8201 127.294 74.2936Z" fill="white"/>
</g>
<path d="M116.095 96.3569C113.242 96.3569 111.057 95.2938 109.882 93.319C108.693 91.3125 108.256 87.334 107.702 82.2967C106.777 73.8673 105.508 62.3221 99.8346 61.9361C99.5348 61.9156 99.2491 61.8007 99.0185 61.6078C98.7879 61.415 98.6242 61.154 98.5509 60.8624C98.4775 60.5708 98.4983 60.2634 98.6102 59.9843C98.7221 59.7052 98.9194 59.4687 99.1738 59.3087C99.4258 59.1502 105.403 55.4627 112.024 57.3641C116.255 58.5813 119.713 61.7661 122.31 66.835C123.75 67.1476 126.969 68.0435 129.603 70.1855C134.125 73.8615 135.346 79.5282 132.867 85.3418C130.178 91.6524 122.484 95.9593 116.9 96.3295C116.625 96.3569 116.357 96.3569 116.095 96.3569ZM103.696 60.4063C108.55 63.9296 109.633 73.7837 110.534 81.9856C111.009 86.3069 111.457 90.3877 112.332 91.8642C113.235 93.3853 115.211 93.5927 116.711 93.4861C121.477 93.1706 128.053 89.3722 130.244 84.224C133.055 77.6268 129.472 73.7549 127.796 72.3966C124.985 70.1106 121.174 69.5157 121.131 69.5157C120.902 69.481 120.684 69.3911 120.497 69.2536C120.31 69.116 120.16 68.9351 120.059 68.7263C117.8 64.0521 114.837 61.1553 111.252 60.1153C108.441 59.2957 105.684 59.7696 103.696 60.4092V60.4063Z" fill="#151515"/>
<path d="M101.221 60.6773C101.221 60.6773 88.0222 71.7139 65.3956 73.382C60.6425 73.731 55.8678 73.6519 51.1289 73.1457L52.0157 68.8964L54.2587 58.1378L56.5548 47.1284L59.257 34.1645L63.6896 12.915L71.2434 22.5242L77.2682 30.1932L83.0353 37.5293L88.8025 44.8756L94.823 52.5316L101.221 60.6773Z" fill="#F9F9F9"/>
<path d="M101.222 60.677C101.222 60.677 88.0231 71.7136 65.3965 73.3817C83.4955 67.0696 94.821 52.5312 94.821 52.5312L101.222 60.677Z" fill="#1A86D5"/>
<path d="M88.8024 44.8752C85.389 49.1418 72.8427 63.2164 52.0156 68.8961L54.2586 58.1374C70.6386 52.0371 80.0826 41.3173 83.0352 37.5391L88.8024 44.8752Z" fill="#1A86D5"/>
<path d="M77.269 30.2C74.7929 33.7003 68.6903 40.7988 56.5557 47.1281L59.2578 34.1641C66.528 29.0794 69.9111 24.6371 71.2442 22.5239L77.269 30.2Z" fill="#1A86D5"/>
<g opacity="0.55">
<path d="M52.0077 69.1697L54.2291 59.0722L56.5037 48.7384L59.1843 36.5782L63.5737 16.6324L71.1461 25.6712L77.1926 32.8849L82.9741 39.7846L88.7542 46.6887L94.7891 53.8909L100.778 61.0398C101.08 60.8079 101.234 60.6797 101.234 60.6797L94.8337 52.534L88.8132 44.878L83.0461 37.5318L77.2789 30.1956L71.2541 22.5267L63.7004 12.9175L59.2678 34.1669L56.5656 47.1309L54.2694 58.1402L52.0264 68.8989L51.1396 73.1482L52.0077 69.1697Z" fill="white"/>
</g>
<g opacity="0.25">
<path d="M82.1657 66.7571C68.8261 70.7903 56.0495 58.9873 58.9057 45.3377L61.4682 33.0839L65.2674 14.9343L63.6838 12.9277L59.2512 34.1772L56.549 47.1411L54.2528 58.1505L52.0098 68.9091L51.123 73.1584C55.8619 73.6646 60.6367 73.7437 65.3898 73.3947C88.025 71.7137 101.221 60.677 101.221 60.677L100.006 59.13C98.0808 60.4897 91.1979 64.0246 82.1657 66.7571Z" fill="black"/>
</g>
<path d="M59.7602 75.028C56.8269 75.0264 53.8956 74.8711 50.9785 74.5628C50.7804 74.542 50.5889 74.4799 50.4163 74.3804C50.2437 74.281 50.0939 74.1464 49.9766 73.9854C49.8592 73.8244 49.7769 73.6405 49.735 73.4457C49.6931 73.2509 49.6925 73.0495 49.7333 72.8544L62.2926 12.6295C62.3479 12.3638 62.4779 12.1195 62.6673 11.9253C62.8567 11.7311 63.0976 11.595 63.3616 11.5332C63.6257 11.4713 63.9019 11.4861 64.1578 11.576C64.4137 11.6658 64.6386 11.8269 64.8061 12.0403L102.344 59.7953C102.573 60.0867 102.68 60.4559 102.641 60.8245C102.603 61.1931 102.423 61.5323 102.139 61.7702C101.426 62.3622 85.9499 75.028 59.7602 75.028ZM52.85 71.8778C78.0435 74.0384 94.8713 63.503 99.206 60.4133L64.4606 16.2061L52.85 71.8778Z" fill="#151515"/>
<path d="M65.0418 17.3429C69.0377 15.9121 71.1179 11.511 69.6879 7.51271C68.258 3.51444 63.8593 1.43311 59.8633 2.8639C55.8673 4.2947 53.7872 8.69582 55.2172 12.6941C56.6471 16.6924 61.0458 18.7737 65.0418 17.3429Z" fill="#1A86D5"/>
<g opacity="0.55">
<path d="M62.7053 2.42982C60.6682 2.3638 58.6883 3.11004 57.201 4.50442C55.7138 5.89881 54.8409 7.82715 54.7744 9.86538C54.7744 10.0872 54.7744 10.3062 54.783 10.5237C55.225 7.21929 58.6153 4.41907 62.6362 4.55015C66.6571 4.68123 69.8588 7.69464 70.0848 11.0206C70.1093 10.8046 70.128 10.5885 70.1352 10.3652C70.2016 8.32711 69.4561 6.34609 68.0627 4.85793C66.6694 3.36976 64.7422 2.49635 62.7053 2.42982Z" fill="white"/>
<path d="M59.5708 6.18487C59.2802 6.17533 58.9933 6.25225 58.7464 6.40589C58.4995 6.55953 58.3036 6.783 58.1837 7.04802C58.0637 7.31304 58.025 7.6077 58.0724 7.89474C58.1199 8.18177 58.2513 8.44827 58.4502 8.66054C58.649 8.8728 58.9063 9.02129 59.1895 9.08722C59.4728 9.15314 59.7691 9.13353 60.0412 9.03089C60.3133 8.92824 60.5488 8.74716 60.718 8.51055C60.8872 8.27394 60.9824 7.99244 60.9917 7.70166C60.9981 7.50869 60.9663 7.31636 60.8983 7.13567C60.8303 6.95498 60.7274 6.78947 60.5954 6.6486C60.4635 6.50773 60.3051 6.39427 60.1292 6.3147C59.9534 6.23513 59.7637 6.19102 59.5708 6.18487Z" fill="white"/>
</g>
<g opacity="0.25">
<path d="M62.32 14.279C58.4157 14.1523 55.2658 11.7986 54.8742 8.87305C54.8199 9.2014 54.7868 9.5329 54.7749 9.86551C54.7393 10.9175 54.9199 11.9656 55.3057 12.945C55.6914 13.9243 56.274 14.8139 57.0173 15.5588C57.7607 16.3036 58.649 16.8878 59.6272 17.2752C60.6054 17.6626 61.6526 17.8448 62.7041 17.8108C63.7556 17.7767 64.7889 17.5269 65.7399 17.077C66.691 16.6271 67.5396 15.9866 68.2332 15.1951C68.9268 14.4037 69.4506 13.4782 69.7722 12.4759C70.0937 11.4737 70.2062 10.4161 70.1026 9.36856C69.5196 12.2624 66.2257 14.4058 62.32 14.279Z" fill="black"/>
</g>
<path d="M62.4593 19.2282C62.3599 19.2282 62.2592 19.2282 62.1598 19.2282C60.3597 19.1686 58.6177 18.5764 57.1539 17.5264C55.6901 16.4764 54.5703 15.0158 53.9361 13.3291C53.3018 11.6424 53.1815 9.80549 53.5904 8.05045C53.9993 6.2954 54.9191 4.70105 56.2334 3.46891C57.5477 2.23677 59.1976 1.42216 60.9746 1.12805C62.7515 0.833949 64.5757 1.07354 66.2165 1.81656C67.8574 2.55957 69.2413 3.77265 70.1933 5.30246C71.1452 6.83226 71.6226 8.61011 71.5649 10.4113C71.4851 12.7751 70.491 15.0156 68.7924 16.6604C67.0937 18.3052 64.8231 19.2259 62.4593 19.2282ZM62.4492 3.85152C61.2201 3.85273 60.0185 4.21598 58.9944 4.89595C57.9703 5.57592 57.1689 6.54253 56.6902 7.67522C56.2114 8.80791 56.0766 10.0566 56.3024 11.2654C56.5283 12.4743 57.1049 13.5899 57.9602 14.473C58.8155 15.3562 59.9118 15.9679 61.1123 16.2317C62.3127 16.4956 63.5643 16.4 64.7108 15.9569C65.8574 15.5138 66.8482 14.7427 67.5596 13.7399C68.2711 12.737 68.6717 11.5468 68.7116 10.3177C68.7636 8.65907 68.1565 7.04745 67.0231 5.83596C65.8897 4.62447 64.3226 3.91191 62.6651 3.8544L62.4492 3.85152Z" fill="#151515"/>
</svg>
