<svg width="128" height="183" viewBox="0 0 128 183" fill="none" xmlns="http://www.w3.org/2000/svg">
<path d="M53.4509 171.329C53.6213 176.763 50.2686 181.291 46.0732 181.291H20.7866C8.70232 181.291 3.92008 163.419 14.2252 156.355C14.4309 156.215 14.6404 156.075 14.8561 155.947C15.8449 155.335 16.9041 154.844 18.0106 154.486C15.7785 146.504 16.4397 140.124 17.6977 135.697C18.9898 131.097 20.9305 128.608 20.9305 128.608L42.8076 131.936L52.6093 133.428L53.4509 171.329Z" fill="#FBC2D3"/>
<g opacity="0.25">
<path d="M42.8179 131.245C39.6016 135.579 34.5518 138.37 28.8712 138.37C24.7732 138.367 20.8124 136.896 17.708 134.225C19.0001 130.58 20.9407 128.609 20.9407 128.609L42.8179 131.245Z" fill="black"/>
</g>
<g opacity="0.25">
<path d="M52.6199 133.429L20.941 128.609C20.941 128.609 20.8628 128.711 20.7316 128.902L44.8131 132.464L45.497 162.78C45.6371 167.125 42.8788 170.746 39.4277 170.746H18.6244C13.8421 170.746 10.4567 167.437 9.16084 163.377C6.82524 171.359 11.7715 181.292 20.7808 181.292H46.0673C50.2628 181.292 53.6154 176.764 53.4451 171.33L52.6199 133.429Z" fill="black"/>
</g>
<path d="M46.0737 182.668H20.7872C14.9211 182.668 9.89279 178.683 7.97611 172.515C6.24996 166.956 7.27328 159.454 13.4498 155.221C13.682 155.063 13.9179 154.907 14.1589 154.765C14.8635 154.327 15.6029 153.948 16.3696 153.631C12.3735 137.621 19.538 128.167 19.8535 127.762C20.0038 127.569 20.2032 127.419 20.431 127.328C20.6588 127.237 20.9068 127.209 21.1493 127.246L52.8282 132.065C53.1489 132.114 53.442 132.274 53.6559 132.518C53.8699 132.761 53.9909 133.072 53.9979 133.396L54.8294 171.292C54.9366 174.746 53.7796 177.984 51.6534 180.174C50.0938 181.786 48.1128 182.668 46.0737 182.668ZM21.5948 130.102C20.1374 132.45 15.6971 141.074 19.3462 154.117C19.4418 154.459 19.4017 154.824 19.2341 155.137C19.0664 155.45 18.7843 155.686 18.4466 155.797C17.4439 156.121 16.4839 156.564 15.5873 157.117C15.3715 157.243 15.1848 157.369 15.0044 157.495C9.98742 160.933 9.17987 167.108 10.607 171.702C11.841 175.673 15.1621 179.918 20.7847 179.918H46.0712C47.7191 179.918 48.938 179.018 49.6711 178.264C51.2585 176.626 52.1556 174.053 52.0686 171.376V171.363L51.2623 134.617L21.5948 130.102Z" fill="#151515"/>
<path d="M17.6149 153.172L18.1776 153.036C18.3669 152.995 18.5562 152.935 18.8464 152.884L19.8117 152.714L20.9233 152.607C21.3208 152.607 21.7372 152.57 22.1687 152.599L22.8223 152.633L23.4873 152.712C23.935 152.774 24.3793 152.858 24.8185 152.964C26.585 153.38 28.1635 154.115 29.3118 154.644C30.46 155.173 31.2121 155.511 31.2121 155.511C31.3431 155.565 31.4479 155.669 31.5048 155.799C31.5617 155.929 31.5663 156.075 31.5176 156.209C31.4689 156.342 31.3706 156.451 31.2432 156.514C31.1159 156.577 30.9691 156.589 30.8335 156.546C30.8335 156.546 30.0032 156.302 28.8058 155.907C27.6083 155.513 26.0298 155.026 24.474 154.861C24.0894 154.818 23.7027 154.795 23.3157 154.791H22.7517L22.2192 154.825C21.8608 154.843 21.5189 154.92 21.1946 154.951L20.2924 155.153L19.5795 155.371C19.3738 155.429 19.1391 155.531 18.9751 155.589L18.4325 155.793C18.2618 155.862 18.079 155.896 17.8948 155.894C17.7106 155.891 17.5287 155.852 17.3599 155.778C17.1911 155.705 17.0388 155.598 16.9119 155.465C16.785 155.331 16.6861 155.174 16.621 155.002C16.5558 154.83 16.5258 154.647 16.5327 154.463C16.5396 154.279 16.5832 154.098 16.661 153.932C16.7388 153.765 16.8492 153.616 16.9857 153.492C17.1222 153.369 17.2821 153.274 17.4559 153.213C17.5013 153.204 17.5631 153.187 17.6149 153.172Z" fill="#151515"/>
<path d="M74.0135 171.329C73.8432 176.763 77.1958 181.291 81.3913 181.291H106.678C118.762 181.291 123.544 163.419 113.239 156.355C113.034 156.215 112.823 156.075 112.608 155.947C111.619 155.335 110.56 154.845 109.454 154.486C111.686 146.504 111.025 140.124 109.767 135.697C108.475 131.097 106.534 128.608 106.534 128.608L84.6568 131.936L74.8552 133.428L74.0135 171.329Z" fill="#FBC2D3"/>
<g opacity="0.25">
<path d="M84.647 131.108C86.1031 132.949 87.9103 134.484 89.964 135.624C92.0178 136.763 94.2774 137.485 96.6122 137.748C98.9471 138.01 101.311 137.808 103.567 137.153C105.823 136.498 107.927 135.403 109.757 133.931C108.465 130.477 106.524 128.609 106.524 128.609L84.647 131.108Z" fill="black"/>
</g>
<g opacity="0.25">
<path d="M74.8451 133.429L106.524 128.609C106.524 128.609 106.602 128.711 106.733 128.902L82.6519 132.464L81.968 162.78C81.8279 167.125 84.5862 170.746 88.0373 170.746H108.841C113.623 170.746 117.008 167.437 118.304 163.377C120.64 171.359 115.693 181.292 106.684 181.292H81.3976C77.2022 181.292 73.8495 176.764 74.0199 171.33L74.8451 133.429Z" fill="black"/>
</g>
<path d="M106.677 182.668H81.398C79.3601 182.668 77.3778 181.786 75.8183 180.176C73.6921 177.986 72.5376 174.748 72.6423 171.294L73.4738 133.399C73.4808 133.075 73.6018 132.764 73.8158 132.52C74.0297 132.276 74.3228 132.116 74.6435 132.067L106.322 127.248C106.565 127.211 106.813 127.239 107.041 127.33C107.269 127.421 107.468 127.571 107.618 127.764C107.934 128.169 115.098 137.624 111.102 153.633C111.877 153.954 112.625 154.338 113.338 154.78C113.552 154.906 113.788 155.062 114.019 155.219C120.202 159.454 121.222 166.956 119.496 172.515C117.573 178.682 112.544 182.668 106.677 182.668ZM76.1981 134.614L75.3918 171.361V171.373C75.3072 174.051 76.2044 176.626 77.7892 178.261C78.5223 179.017 79.7412 179.915 81.3891 179.915H106.674C112.298 179.915 115.619 175.671 116.853 171.7C118.28 167.105 117.473 160.93 112.452 157.491C112.276 157.365 112.09 157.239 111.9 157.133C110.995 156.573 110.026 156.125 109.014 155.796C108.676 155.686 108.394 155.45 108.226 155.137C108.059 154.824 108.018 154.459 108.114 154.117C111.762 141.077 107.324 132.455 105.864 130.102L76.1981 134.614Z" fill="#151515"/>
<path d="M96.1217 155.547L96.639 155.282C96.9658 155.119 97.4668 154.872 98.0573 154.615C99.5242 153.959 101.054 153.452 102.622 153.103C103.059 153.017 103.497 152.93 103.936 152.875C104.375 152.819 104.809 152.78 105.232 152.739C105.657 152.729 106.07 152.696 106.463 152.716C106.835 152.718 107.207 152.738 107.576 152.778C107.922 152.801 108.238 152.851 108.518 152.896C108.761 152.928 109.003 152.973 109.242 153.031L109.873 153.175C110.204 153.28 110.484 153.506 110.656 153.808C110.829 154.11 110.881 154.465 110.804 154.804C110.726 155.143 110.524 155.44 110.237 155.637C109.951 155.834 109.6 155.916 109.256 155.867C109.204 155.855 109.152 155.84 109.102 155.823L109.02 155.793L108.534 155.618C108.348 155.547 108.158 155.486 107.965 155.436C107.743 155.372 107.492 155.298 107.208 155.245C106.905 155.174 106.599 155.119 106.291 155.08C105.962 155.02 105.609 155.008 105.243 154.97C104.876 154.961 104.495 154.931 104.108 154.949C103.72 154.966 103.319 154.979 102.919 155.008C101.431 155.153 99.9622 155.449 98.5343 155.89C97.9362 156.066 97.4643 156.231 97.1122 156.357L96.5671 156.556C96.4358 156.602 96.2922 156.596 96.1649 156.54C96.0376 156.484 95.936 156.383 95.8803 156.256C95.8246 156.129 95.8189 155.985 95.8644 155.854C95.9098 155.723 96.003 155.614 96.1255 155.548L96.1217 155.547Z" fill="#151515"/>
<path d="M63.5787 2.12134C17.2591 2.12134 5.36283 43.5708 5.86882 64.7969C6.3748 86.023 18.7783 104.474 63.5787 104.474C108.379 104.474 120.799 86.0256 121.305 64.7969C121.811 43.5682 109.899 2.12134 63.5787 2.12134Z" fill="#FBC2D3"/>
<g opacity="0.25">
<path d="M63.5787 95.4568C19.8004 95.4568 6.96032 79.3923 5.92438 60.5952C5.85372 62.0655 5.83732 63.4702 5.86886 64.7968C6.37358 86.0255 18.7784 104.474 63.5787 104.474C108.379 104.474 120.799 86.0255 121.305 64.7968C121.337 63.4702 121.32 62.0655 121.249 60.5965C120.212 79.3923 107.357 95.4568 63.5787 95.4568Z" fill="black"/>
</g>
<g opacity="0.55">
<path d="M63.5933 2.12134H63.5782C17.6031 2.12134 5.54406 42.9484 5.86204 64.3156C6.18254 44.6316 17.4328 10.4944 56.2925 6.69463C56.5764 8.89183 59.7297 10.6254 63.5858 10.6254C67.4418 10.6254 70.5951 8.89309 70.8803 6.69589C109.73 10.5032 120.99 44.6353 121.311 64.3169C121.63 42.9496 109.557 2.13016 63.5933 2.12134Z" fill="white"/>
</g>
<path d="M76.8893 81.7228C76.8893 81.7228 75.5278 89.2819 71.6566 94.402C69.6718 97.0162 67.0359 98.9929 63.581 98.9929C60.1262 98.9929 57.4941 97.0162 55.5055 94.402C51.6343 89.287 50.2778 81.7228 50.2778 81.7228C58.7925 86.3969 67.644 86.5947 76.8893 81.7228Z" fill="#151515"/>
<path d="M71.657 94.4023C69.6721 97.0165 67.0362 98.9932 63.5814 98.9932C60.1266 98.9932 57.4945 97.0165 55.5059 94.4023C57.4907 91.7868 60.1266 89.8101 63.5814 89.8101C67.0362 89.8101 69.6721 91.7868 71.657 94.4023Z" fill="#F75263"/>
<path d="M63.5875 100.373C52.3575 100.373 49.0629 82.7169 48.9279 81.9648C48.8826 81.7093 48.9104 81.4463 49.0083 81.206C49.1061 80.9656 49.27 80.7578 49.481 80.6064C49.692 80.455 49.9415 80.3662 50.2008 80.3501C50.4601 80.3341 50.7187 80.3916 50.9468 80.5159C59.2747 85.0892 67.5496 85.0867 76.2434 80.5046C76.4719 80.3846 76.7295 80.331 76.9869 80.3499C77.2443 80.3688 77.4913 80.4595 77.6997 80.6117C77.908 80.7638 78.0695 80.9713 78.1656 81.2105C78.2617 81.4497 78.2886 81.711 78.2434 81.9648C78.1172 82.7169 74.8125 100.373 63.5875 100.373ZM52.3184 84.259C53.6294 88.8764 56.987 97.6198 63.5875 97.6198C70.212 97.6198 73.5671 88.8159 74.8693 84.2124C67.2543 87.4729 59.6949 87.4893 52.3184 84.259Z" fill="#151515"/>
<path d="M63.5874 86.0985C73.3325 86.0985 81.2325 79.5667 81.2325 71.5094C81.2325 63.452 73.3325 56.9202 63.5874 56.9202C53.8423 56.9202 45.9424 63.452 45.9424 71.5094C45.9424 79.5667 53.8423 86.0985 63.5874 86.0985Z" fill="#F589AA"/>
<g opacity="0.25">
<path d="M63.5862 81.2795C54.3359 81.2795 46.7537 77.5868 46.0067 70.296C45.9676 70.6966 45.9424 71.0998 45.9424 71.5093C45.9424 81.1938 53.8425 86.0984 63.5862 86.0984C73.3298 86.0984 81.2312 80.4606 81.2312 71.5093C81.23 71.0884 81.2068 70.6679 81.1618 70.2494C80.3884 77.0526 72.8175 81.2795 63.5862 81.2795Z" fill="black"/>
</g>
<g opacity="0.55">
<path d="M63.586 60.5951C72.9536 60.5951 80.6115 65.8714 81.1919 72.5335C81.2159 72.1972 81.231 71.8557 81.231 71.5093C81.231 63.4462 73.3321 56.9188 63.586 56.9188C53.8398 56.9188 45.9409 63.4512 45.9409 71.5093C45.9409 71.8696 45.9548 72.2211 45.9763 72.5676C46.5352 65.8878 54.2045 60.5951 63.586 60.5951Z" fill="white"/>
</g>
<path d="M63.5877 87.4755C52.0308 87.4755 44.5635 81.2077 44.5635 71.5093C44.5635 62.7054 53.097 55.5431 63.5877 55.5431C74.0783 55.5431 82.6106 62.7054 82.6106 71.5093C82.6106 80.7605 74.6095 87.4755 63.5877 87.4755ZM63.5877 58.2959C54.6175 58.2959 47.3205 64.2172 47.3205 71.5093C47.3205 81.2506 55.7241 84.7227 63.5877 84.7227C73.1648 84.7227 79.8536 79.2889 79.8536 71.5093C79.8536 64.2223 72.5566 58.2959 63.5877 58.2959Z" fill="#151515"/>
<path d="M58.4168 67.6704C58.555 68.0255 58.6605 68.3924 58.7323 68.7665C58.8929 69.5597 58.972 70.3673 58.9682 71.1766C58.9733 71.9864 58.8942 72.7945 58.7323 73.588C58.6605 73.9621 58.555 74.329 58.4168 74.6841C58.3023 74.9546 58.1105 75.1855 57.8653 75.3479C57.6202 75.5102 57.3325 75.5968 57.0383 75.5968C56.7441 75.5968 56.4565 75.5102 56.2113 75.3479C55.9661 75.1855 55.7743 74.9546 55.6598 74.6841C55.5208 74.3292 55.4148 73.9623 55.3431 73.588C55.0302 71.996 55.0302 70.3585 55.3431 68.7665C55.4148 68.3922 55.5208 68.0253 55.6598 67.6704C55.7738 67.3994 55.9655 67.168 56.2107 67.0053C56.456 66.8425 56.7439 66.7557 57.0383 66.7557C57.3328 66.7557 57.6207 66.8425 57.8659 67.0053C58.1111 67.168 58.3028 67.3994 58.4168 67.6704Z" fill="#151515"/>
<path d="M71.5157 67.6704C71.6417 68.0275 71.7391 68.394 71.8072 68.7665C71.9621 69.5609 72.0466 70.3674 72.0595 71.1766C72.092 71.9856 72.0246 72.7955 71.8589 73.588C71.7833 73.9645 71.6679 74.3319 71.5144 74.6841C71.3911 74.945 71.1961 75.1656 70.952 75.3201C70.7079 75.4745 70.4249 75.5566 70.1359 75.5566C69.8469 75.5566 69.5639 75.4745 69.3198 75.3201C69.0758 75.1656 68.8807 74.945 68.7574 74.6841C68.6032 74.3321 68.4873 73.9647 68.4117 73.588C68.246 72.7955 68.1786 71.9856 68.211 71.1766C68.2247 70.3674 68.3091 69.561 68.4634 68.7665C68.5322 68.3939 68.6305 68.0274 68.7574 67.6704C68.8638 67.3914 69.0526 67.1513 69.2988 66.9818C69.545 66.8124 69.8369 66.7217 70.1359 66.7217C70.4349 66.7217 70.7269 66.8124 70.9731 66.9818C71.2193 67.1513 71.4081 67.3914 71.5144 67.6704H71.5157Z" fill="#151515"/>
<path d="M63.5789 105.851C42.5876 105.851 26.9942 101.747 17.2329 93.6551C9.07281 86.8896 4.7852 77.1912 4.48868 64.8295C4.17575 51.4561 8.69679 30.8309 22.5009 16.7167C32.8654 6.11745 46.6859 0.744141 63.5789 0.744141C80.472 0.744141 94.3001 6.11997 104.67 16.723C118.476 30.8397 123.002 51.4598 122.683 64.8295C122.035 92.0488 102.148 105.851 63.5789 105.851ZM63.5789 3.49694C47.4569 3.49694 34.3051 8.59181 24.4731 18.6405C11.2683 32.1411 6.94163 51.9247 7.24699 64.764C7.86149 90.5584 26.2889 103.098 63.5789 103.098C100.869 103.098 119.312 90.5584 119.927 64.764C120.233 51.9298 115.905 32.1512 102.697 18.6455C92.8667 8.59433 79.7048 3.49694 63.5789 3.49694Z" fill="#151515"/>
<path d="M38.1416 65.22C42.4051 65.22 45.8613 61.2711 45.8613 56.3998C45.8613 51.5284 42.4051 47.5795 38.1416 47.5795C33.8781 47.5795 30.4219 51.5284 30.4219 56.3998C30.4219 61.2711 33.8781 65.22 38.1416 65.22Z" fill="#151515"/>
<path d="M37.1789 54.1042C37.9574 53.3268 37.9574 52.0665 37.1789 51.2891C36.4003 50.5117 35.138 50.5117 34.3594 51.2891C33.5809 52.0665 33.5809 53.3268 34.3594 54.1042C35.138 54.8816 36.4003 54.8816 37.1789 54.1042Z" fill="white"/>
<path d="M89.0332 65.22C93.2967 65.22 96.7529 61.2711 96.7529 56.3998C96.7529 51.5284 93.2967 47.5795 89.0332 47.5795C84.7697 47.5795 81.3135 51.5284 81.3135 56.3998C81.3135 61.2711 84.7697 65.22 89.0332 65.22Z" fill="#151515"/>
<path d="M88.6327 53.0208C88.8091 51.9356 88.071 50.9131 86.9842 50.737C85.8974 50.5609 84.8733 51.2978 84.6969 52.3829C84.5205 53.4681 85.2585 54.4906 86.3453 54.6667C87.4322 54.8429 88.4562 54.106 88.6327 53.0208Z" fill="white"/>
<path d="M38.3047 6.9087C38.3047 6.9087 22.0274 -2.25049 13.8736 16.8729C13.8736 16.8729 9.05229 17.8141 5.51798 20.9713C1.88146 24.2192 -0.42512 29.7827 2.95147 36.7485C7.46998 46.0715 23.5605 51.3327 27.1087 44.6604C30.4209 38.4279 26.4172 8.28446 38.3047 6.9087Z" fill="#FBC2D3"/>
<g opacity="0.25">
<path d="M27.109 37.9403C23.5608 43.4912 6.3675 39.1132 1.84899 31.3587C1.13228 30.1279 1.77581 28.9499 1.52975 27.8311C1.02503 30.4176 1.34048 33.4211 2.9518 36.7472C7.47032 46.0701 23.5608 51.3313 27.109 44.6591C30.4225 38.4266 26.4176 8.28313 38.3063 6.90736C38.3063 6.90736 38.1006 6.79271 37.7284 6.61633C26.5488 8.51116 30.3683 32.8429 27.109 37.9403Z" fill="black"/>
</g>
<g opacity="0.55">
<path d="M7.44727 24.3653C10.9803 21.2081 15.8042 20.2683 15.8042 20.2683C20.9574 8.20383 29.3244 7.39626 34.807 8.44321C35.7898 7.58817 37.0104 7.05284 38.3059 6.9087C38.3059 6.9087 22.0287 -2.25049 13.8736 16.8729C13.8736 16.8729 9.05229 17.8141 5.51798 20.9713C1.88146 24.2192 -0.42512 29.7827 2.95147 36.7485C3.37047 37.6019 3.87122 38.4129 4.44671 39.17C1.72878 32.6603 3.98236 27.4621 7.44727 24.3653Z" fill="white"/>
</g>
<path d="M20.9966 49.0358H20.7278C14.3091 48.9161 5.26318 44.4146 1.83865 37.3493C-1.30072 30.8736 -0.221877 24.3727 4.72565 19.9468C7.70225 17.2885 11.4561 16.098 13.0144 15.6936C15.7197 9.68654 19.5203 5.8175 24.3177 4.19102C31.78 1.66248 38.8145 5.54537 39.1098 5.71168C39.3637 5.85406 39.566 6.07312 39.6874 6.33742C39.8089 6.60171 39.8434 6.89763 39.7859 7.18271C39.7285 7.46778 39.582 7.72735 39.3676 7.92413C39.1532 8.12092 38.8818 8.24481 38.5925 8.27801C31.8014 9.06417 30.9586 22.6329 30.3428 32.5404C29.9819 38.3698 29.6955 42.9733 28.4501 45.3091C27.1719 47.718 24.5297 49.0358 20.9966 49.0358ZM29.5844 6.09719C28.0875 6.08849 26.5995 6.32731 25.1807 6.80398C20.9991 8.23014 17.6642 11.7993 15.2693 17.412C15.181 17.6186 15.0434 17.8006 14.8686 17.942C14.6937 18.0834 14.4869 18.18 14.2661 18.2234C14.2232 18.2322 9.76025 19.1418 6.56915 21.9966C4.66004 23.7025 0.617224 28.4975 4.32566 36.1487C7.20131 42.0801 15.157 46.1759 20.7846 46.2817C22.5877 46.3157 24.9953 45.9491 26.0236 44.014C26.9851 42.2048 27.2854 37.4262 27.5971 32.3653C28.2015 22.6266 28.9321 10.867 34.6809 6.87957C33.029 6.37364 31.3122 6.11009 29.5844 6.09719Z" fill="#151515"/>
<path d="M89.1606 6.9087C89.1606 6.9087 105.438 -2.25049 113.592 16.8729C113.592 16.8729 118.413 17.8141 121.947 20.9713C125.584 24.2192 127.89 29.7827 124.514 36.7485C119.995 46.0715 103.905 51.3327 100.357 44.6604C97.0444 38.4279 101.048 8.28446 89.1606 6.9087Z" fill="#FBC2D3"/>
<g opacity="0.25">
<path d="M100.356 37.9403C103.905 43.4912 121.098 39.1132 125.616 31.3587C126.333 30.1279 125.69 28.9499 125.936 27.8311C126.44 30.4176 126.125 33.4211 124.514 36.7472C119.995 46.0701 103.905 51.3313 100.356 44.6591C97.0429 38.4266 101.048 8.28313 89.1592 6.90736C89.1592 6.90736 89.3648 6.79271 89.7371 6.61633C100.917 8.51116 97.0972 32.8429 100.356 37.9403Z" fill="black"/>
</g>
<g opacity="0.55">
<path d="M120.018 24.3653C116.485 21.2081 111.661 20.2683 111.661 20.2683C106.514 8.20383 98.1407 7.39626 92.6582 8.44321C91.6754 7.58817 90.4547 7.05284 89.1592 6.9087C89.1592 6.9087 105.436 -2.25049 113.591 16.8729C113.591 16.8729 118.413 17.8141 121.947 20.9713C125.584 24.2192 127.89 29.7827 124.514 36.7485C124.095 37.6019 123.594 38.4129 123.018 39.17C125.736 32.6603 123.483 27.4621 120.018 24.3653Z" fill="white"/>
</g>
<path d="M106.469 49.0359C102.936 49.0359 100.293 47.718 99.0114 45.3067C97.7698 42.9709 97.4833 38.3673 97.1187 32.538C96.5029 22.6304 95.66 9.06172 88.869 8.27557C88.5797 8.24237 88.3083 8.11848 88.0939 7.92169C87.8794 7.72491 87.733 7.46534 87.6755 7.18027C87.6181 6.89519 87.6525 6.59926 87.774 6.33497C87.8955 6.07068 88.0977 5.85162 88.3517 5.70923C88.6469 5.54293 95.6853 1.66004 103.144 4.18858C107.939 5.81506 111.742 9.6841 114.447 15.6911C116.005 16.0955 119.759 17.2861 122.736 19.9444C127.683 24.3653 128.762 30.8712 125.623 37.3469C122.198 44.4122 113.152 48.9136 106.734 49.0333L106.469 49.0359ZM92.7818 6.87461C98.5382 10.8583 99.2688 22.6229 99.8732 32.3666C100.187 37.4275 100.485 42.2061 101.447 44.0153C102.475 45.9492 104.862 46.3158 106.686 46.2831C112.313 46.1772 120.269 42.0814 123.145 36.15C126.853 28.4989 122.81 23.7038 120.901 21.998C117.686 19.1255 113.245 18.2335 113.204 18.2247C112.982 18.1823 112.774 18.0861 112.598 17.9446C112.422 17.8032 112.284 17.6207 112.195 17.4133C109.797 11.7906 106.452 8.21636 102.261 6.79649C98.7035 5.58829 95.1843 6.15019 92.7818 6.87461Z" fill="#151515"/>
<mask id="mask0_408_27532" style="mask-type:luminance" maskUnits="userSpaceOnUse" x="19" y="81" width="89" height="89">
<path d="M63.7326 169.148C88.0591 169.148 107.78 149.458 107.78 125.169C107.78 100.88 88.0591 81.1899 63.7326 81.1899C39.4061 81.1899 19.6855 100.88 19.6855 125.169C19.6855 149.458 39.4061 169.148 63.7326 169.148Z" fill="white"/>
</mask>
<g mask="url(#mask0_408_27532)">
<path d="M95.6727 90.5078L105.204 94.649C105.204 94.649 126.791 139.937 76.9664 179.454L67.436 175.313C117.26 135.801 95.6727 90.5078 95.6727 90.5078Z" fill="#3D90F2"/>
<path d="M86.1495 86.7723L95.6812 90.9135C95.6812 90.9135 117.267 136.2 67.4433 175.717L57.9116 171.581C107.735 132.059 86.1495 86.7723 86.1495 86.7723Z" fill="#3D90F2"/>
<path d="M76.6271 83.0356L86.1587 87.1768C86.1587 87.1768 107.744 132.465 57.9208 171.982L48.3892 167.841C98.2127 128.324 76.6271 83.0356 76.6271 83.0356Z" fill="#3D90F2"/>
<path d="M67.1028 79.2988L76.6358 83.4413C76.6358 83.4413 98.2214 128.728 48.3979 168.245L38.8662 164.104C88.6898 124.588 67.1028 79.2988 67.1028 79.2988Z" fill="#3D90F2"/>
<path d="M71.7591 103.469C71.8386 116.351 68.226 133.037 54.1481 149.808C50.4888 154.162 46.1331 158.523 40.9521 162.818C40.378 163.296 39.7913 163.776 39.1982 164.249C39.091 164.336 38.9774 164.423 38.8714 164.508L29.3423 160.368C30.7303 159.264 32.0829 158.151 33.3637 157.034C37.0248 153.876 40.4563 150.463 43.6322 146.82C74.313 111.486 57.8553 76.153 57.589 75.5735L67.1106 79.7071C67.1106 79.7071 71.3389 88.5765 71.7389 101.881C71.7452 102.403 71.7591 102.936 71.7591 103.469Z" fill="#3D90F2"/>
<g opacity="0.55">
<path d="M74.439 178.258C122.733 139.959 103.935 96.2301 102.735 93.5819L105.204 94.6541C105.204 94.6541 126.791 139.942 76.9677 179.459L67.436 175.318C67.4638 175.295 67.489 175.273 67.5168 175.251L74.439 178.258Z" fill="white"/>
</g>
<g opacity="0.55">
<path d="M64.9159 174.517C113.209 136.217 94.4118 92.4883 93.2118 89.8401L95.6812 90.9135C95.6812 90.9135 117.267 136.2 67.4433 175.717L57.9116 171.581L57.9936 171.514L64.9159 174.517Z" fill="white"/>
</g>
<g opacity="0.55">
<path d="M55.3922 170.781C103.686 132.481 84.8894 88.7528 83.6894 86.1046L86.1587 87.1768C86.1587 87.1768 107.744 132.465 57.9208 171.982L48.3892 167.841L48.4712 167.774L55.3922 170.781Z" fill="white"/>
</g>
<g opacity="0.55">
<path d="M45.8692 167.046C94.1635 128.746 75.3651 85.0174 74.1652 82.3691L76.6345 83.4425C76.6345 83.4425 98.2214 128.729 48.3979 168.246L38.8662 164.105C38.894 164.084 38.9192 164.061 38.947 164.038L45.8692 167.046Z" fill="white"/>
</g>
<g opacity="0.55">
<path d="M36.3516 163.309C84.6459 125.009 65.8475 81.2806 64.6475 78.6311L67.1169 79.7045C67.1169 79.7045 88.6975 124.993 38.8752 164.51L29.3423 160.368L29.4243 160.303L36.3516 163.309Z" fill="white"/>
</g>
<g opacity="0.25">
<path d="M90.7425 159.908C86.6792 163.066 82.0906 165.484 77.187 167.052C76.9864 167.119 76.7857 167.185 76.5864 167.238C71.6811 168.734 66.5513 169.361 61.4296 169.089C61.2832 169.089 61.1293 169.069 60.9829 169.063C57.2447 168.83 53.5517 168.121 49.9939 166.952C49.8677 166.918 49.7528 166.879 49.633 166.839C46.6002 165.821 43.689 164.472 40.9518 162.817C40.8584 162.765 40.7574 162.71 40.6641 162.645C38.037 161.039 35.5895 159.158 33.3633 157.032C37.0244 153.875 40.4559 150.462 43.6318 146.819C46.9255 148.143 50.3464 149.127 53.8411 149.755C53.9471 149.768 54.048 149.788 54.1477 149.808C57.9643 150.471 61.8392 150.739 65.7109 150.607C65.8169 150.607 65.9304 150.607 66.044 150.593C70.6041 150.415 75.1233 149.661 79.4936 148.349C79.6008 148.317 79.7131 148.282 79.8267 148.243C83.6556 147.07 87.3226 145.424 90.7425 143.343C92.3162 142.385 93.8244 141.325 95.2573 140.168C95.3531 140.1 95.4445 140.026 95.5311 139.947C102.345 134.361 106.383 127.297 107.473 119.961C109.227 134.768 103.4 150.1 90.7425 159.908Z" fill="black"/>
</g>
<path d="M76.9677 180.274C76.854 180.274 76.7415 180.251 76.6371 180.206L67.1054 176.065C66.9747 176.008 66.861 175.918 66.7754 175.804C66.6897 175.69 66.6349 175.556 66.6164 175.415C66.5979 175.274 66.6162 175.13 66.6696 174.998C66.723 174.866 66.8097 174.75 66.9212 174.661C92.3819 154.467 98.6404 132.771 99.4076 118.126C100.239 102.241 94.9799 90.9689 94.9256 90.858C94.8534 90.7061 94.8293 90.5357 94.8566 90.3697C94.8839 90.2037 94.9613 90.0499 95.0784 89.929C95.1956 89.8081 95.3469 89.7258 95.5121 89.693C95.6774 89.6602 95.8487 89.6785 96.0032 89.7456L105.535 93.8867C105.718 93.9665 105.866 94.1097 105.951 94.2899C106.176 94.7586 111.429 105.986 110.596 122.27C109.829 137.276 103.46 159.49 77.4812 180.098C77.3349 180.213 77.1539 180.275 76.9677 180.274ZM69.0183 175.095L76.8415 178.496C101.977 158.392 108.177 136.84 108.941 122.271C109.698 107.759 105.376 97.0981 104.582 95.2776L97.2259 92.0813C98.7224 96.002 101.708 105.562 101.066 118.133C100.307 132.932 94.1055 154.739 69.0208 175.1L69.0183 175.095Z" fill="#151515"/>
<path d="M76.9677 180.274C76.854 180.274 76.7415 180.251 76.6371 180.206L67.1054 176.065C66.9747 176.008 66.861 175.918 66.7754 175.804C66.6897 175.69 66.6349 175.556 66.6164 175.415C66.5979 175.274 66.6162 175.13 66.6696 174.998C66.723 174.866 66.8097 174.75 66.9212 174.661C92.3819 154.467 98.6404 132.771 99.4076 118.126C100.239 102.241 94.9799 90.9689 94.9256 90.858C94.8534 90.7061 94.8293 90.5357 94.8566 90.3697C94.8839 90.2037 94.9613 90.0499 95.0784 89.929C95.1956 89.8081 95.3469 89.7258 95.5121 89.693C95.6774 89.6602 95.8487 89.6785 96.0032 89.7456L105.535 93.8867C105.718 93.9665 105.866 94.1097 105.951 94.2899C106.176 94.7586 111.429 105.986 110.596 122.27C109.829 137.276 103.46 159.49 77.4812 180.098C77.3349 180.213 77.1539 180.275 76.9677 180.274ZM69.0183 175.095L76.8415 178.496C101.977 158.392 108.177 136.84 108.941 122.271C109.698 107.759 105.376 97.0981 104.582 95.2776L97.2259 92.0813C98.7224 96.002 101.708 105.562 101.066 118.133C100.307 132.932 94.1055 154.739 69.0208 175.1L69.0183 175.095Z" fill="#151515"/>
<path d="M67.4436 176.544C67.3302 176.544 67.2181 176.52 67.1143 176.474L57.5826 172.337C57.4517 172.28 57.3377 172.191 57.2518 172.077C57.1659 171.963 57.111 171.829 57.0925 171.687C57.0739 171.546 57.0923 171.402 57.146 171.27C57.1996 171.138 57.2866 171.022 57.3984 170.934C82.8591 150.739 89.1176 129.043 89.8848 114.399C90.7163 98.513 85.4559 87.2422 85.4029 87.1301C85.3306 86.9781 85.3066 86.8078 85.3339 86.6418C85.3612 86.4758 85.4385 86.322 85.5557 86.2011C85.6728 86.0802 85.8241 85.9978 85.9894 85.9651C86.1546 85.9323 86.3259 85.9506 86.4805 86.0177L96.0121 90.1601C96.1951 90.2393 96.343 90.3821 96.4285 90.562C96.6519 91.0319 101.905 102.26 101.073 118.542C100.306 133.55 93.9377 155.764 67.9585 176.37C67.8112 176.484 67.6299 176.545 67.4436 176.544ZM59.4943 171.364L67.3175 174.766C92.4526 154.66 98.6531 133.11 99.4165 118.54C100.174 104.029 95.8519 93.3677 95.0582 91.5459L87.7019 88.3509C89.1984 92.2703 92.1838 101.831 91.5416 114.401C90.7845 129.197 84.5827 151.003 59.4968 171.364H59.4943Z" fill="#151515"/>
<path d="M67.4436 176.544C67.3302 176.544 67.2181 176.52 67.1143 176.474L57.5826 172.337C57.4517 172.28 57.3377 172.191 57.2518 172.077C57.1659 171.963 57.111 171.829 57.0925 171.687C57.0739 171.546 57.0923 171.402 57.146 171.27C57.1996 171.138 57.2866 171.022 57.3984 170.934C82.8591 150.739 89.1176 129.043 89.8848 114.399C90.7163 98.513 85.4559 87.2422 85.4029 87.1301C85.3306 86.9781 85.3066 86.8078 85.3339 86.6418C85.3612 86.4758 85.4385 86.322 85.5557 86.2011C85.6728 86.0802 85.8241 85.9978 85.9894 85.9651C86.1546 85.9323 86.3259 85.9506 86.4805 86.0177L96.0121 90.1601C96.1951 90.2393 96.343 90.3821 96.4285 90.562C96.6519 91.0319 101.905 102.26 101.073 118.542C100.306 133.55 93.9377 155.764 67.9585 176.37C67.8112 176.484 67.6299 176.545 67.4436 176.544ZM59.4943 171.364L67.3175 174.766C92.4526 154.66 98.6531 133.11 99.4165 118.54C100.174 104.029 95.8519 93.3677 95.0582 91.5459L87.7019 88.3509C89.1984 92.2703 92.1838 101.831 91.5416 114.401C90.7845 129.197 84.5827 151.003 59.4968 171.364H59.4943Z" fill="#151515"/>
<path d="M57.9208 172.807C57.8072 172.807 57.6947 172.784 57.5902 172.739L48.0586 168.598C47.9276 168.541 47.8137 168.451 47.7278 168.337C47.6419 168.223 47.5871 168.089 47.5685 167.947C47.55 167.806 47.5684 167.662 47.622 167.53C47.6756 167.398 47.7625 167.282 47.8744 167.193C73.3363 147 79.5948 125.304 80.362 110.659C81.1935 94.7737 75.9331 83.5017 75.8801 83.3896C75.8077 83.2378 75.7835 83.0675 75.8107 82.9016C75.8379 82.7357 75.9152 82.5821 76.0322 82.4612C76.1493 82.3404 76.3005 82.2581 76.4657 82.2255C76.6308 82.1928 76.802 82.2112 76.9564 82.2784L86.4881 86.4195C86.6713 86.4987 86.8197 86.6415 86.9057 86.8214C87.1291 87.2914 92.3819 98.5192 91.5504 114.803C90.782 129.809 84.4149 152.023 58.4344 172.631C58.2882 172.746 58.1071 172.808 57.9208 172.807ZM49.9715 167.628L57.7947 171.029C82.9298 150.924 89.1303 129.373 89.8937 114.804C90.6507 100.292 86.3291 89.6309 85.5354 87.8104L78.1791 84.6142C79.6756 88.5348 82.661 98.0947 82.0188 110.666C81.2617 125.46 75.0599 147.266 49.979 167.628H49.9715Z" fill="#151515"/>
<path d="M57.9208 172.807C57.8072 172.807 57.6947 172.784 57.5902 172.739L48.0586 168.598C47.9276 168.541 47.8137 168.451 47.7278 168.337C47.6419 168.223 47.5871 168.089 47.5685 167.947C47.55 167.806 47.5684 167.662 47.622 167.53C47.6756 167.398 47.7625 167.282 47.8744 167.193C73.3363 147 79.5948 125.304 80.362 110.659C81.1935 94.7737 75.9331 83.5017 75.8801 83.3896C75.8077 83.2378 75.7835 83.0675 75.8107 82.9016C75.8379 82.7357 75.9152 82.5821 76.0322 82.4612C76.1493 82.3404 76.3005 82.2581 76.4657 82.2255C76.6308 82.1928 76.802 82.2112 76.9564 82.2784L86.4881 86.4195C86.6713 86.4987 86.8197 86.6415 86.9057 86.8214C87.1291 87.2914 92.3819 98.5192 91.5504 114.803C90.782 129.809 84.4149 152.023 58.4344 172.631C58.2882 172.746 58.1071 172.808 57.9208 172.807ZM49.9715 167.628L57.7947 171.029C82.9298 150.924 89.1303 129.373 89.8937 114.804C90.6507 100.292 86.3291 89.6309 85.5354 87.8104L78.1791 84.6142C79.6756 88.5348 82.661 98.0947 82.0188 110.666C81.2617 125.46 75.0599 147.266 49.979 167.628H49.9715Z" fill="#151515"/>
<path d="M48.3978 169.072C48.284 169.072 48.1714 169.048 48.0672 169.002L38.5356 164.861C38.4049 164.804 38.2912 164.714 38.2055 164.6C38.1199 164.486 38.0651 164.352 38.0466 164.211C38.028 164.07 38.0464 163.926 38.0998 163.794C38.1532 163.662 38.2398 163.546 38.3514 163.458C63.8474 143.236 70.0933 121.504 70.8428 106.841C71.6541 90.9665 66.4101 79.765 66.3558 79.6542C66.2836 79.5022 66.2595 79.3318 66.2868 79.1658C66.3141 78.9998 66.3915 78.8461 66.5086 78.7252C66.6257 78.6043 66.777 78.5219 66.9423 78.4891C67.1075 78.4563 67.2789 78.4747 67.4334 78.5417L76.9651 82.6841C77.1483 82.7633 77.2967 82.9061 77.3827 83.086C77.6061 83.556 82.859 94.7838 82.0262 111.066C81.259 126.074 74.8907 148.288 48.9114 168.894C48.7652 169.009 48.5842 169.072 48.3978 169.072ZM40.4485 163.892L48.2717 167.294C73.4068 147.188 79.6085 125.638 80.3707 111.068C81.1278 96.5565 76.8073 85.8955 76.0137 84.0738L68.6536 80.8712C70.1513 84.7919 73.1355 94.3517 72.4932 106.923C71.7374 121.723 65.5369 143.53 40.451 163.896L40.4485 163.892Z" fill="#151515"/>
<path d="M48.3978 169.072C48.284 169.072 48.1714 169.048 48.0672 169.002L38.5356 164.861C38.4049 164.804 38.2912 164.714 38.2055 164.6C38.1199 164.486 38.0651 164.352 38.0466 164.211C38.028 164.07 38.0464 163.926 38.0998 163.794C38.1532 163.662 38.2398 163.546 38.3514 163.458C63.8474 143.236 70.0933 121.504 70.8428 106.841C71.6541 90.9665 66.4101 79.765 66.3558 79.6542C66.2836 79.5022 66.2595 79.3318 66.2868 79.1658C66.3141 78.9998 66.3915 78.8461 66.5086 78.7252C66.6257 78.6043 66.777 78.5219 66.9423 78.4891C67.1075 78.4563 67.2789 78.4747 67.4334 78.5417L76.9651 82.6841C77.1483 82.7633 77.2967 82.9061 77.3827 83.086C77.6061 83.556 82.859 94.7838 82.0262 111.066C81.259 126.074 74.8907 148.288 48.9114 168.894C48.7652 169.009 48.5842 169.072 48.3978 169.072ZM40.4485 163.892L48.2717 167.294C73.4068 147.188 79.6085 125.638 80.3707 111.068C81.1278 96.5565 76.8073 85.8955 76.0137 84.0738L68.6536 80.8712C70.1513 84.7919 73.1355 94.3517 72.4932 106.923C71.7374 121.723 65.5369 143.53 40.451 163.896L40.4485 163.892Z" fill="#151515"/>
<path d="M38.8749 165.335C38.7617 165.335 38.6496 165.311 38.5456 165.267L29.0127 161.124C28.8817 161.067 28.7678 160.978 28.6819 160.864C28.596 160.75 28.5412 160.615 28.5226 160.474C28.5041 160.333 28.5225 160.189 28.5761 160.057C28.6297 159.924 28.7166 159.808 28.8285 159.72C54.2891 139.527 60.5477 117.83 61.3148 103.186C62.1464 87.299 56.8859 76.0283 56.8329 75.9161C56.7603 75.7642 56.736 75.5938 56.7632 75.4277C56.7904 75.2615 56.8678 75.1077 56.9851 74.9868C57.1024 74.8659 57.2539 74.7836 57.4193 74.7511C57.5847 74.7186 57.7561 74.7374 57.9105 74.8049L67.4422 78.9461C67.6248 79.0257 67.7727 79.1684 67.8586 79.348C68.0832 79.8179 73.3361 91.0458 72.5033 107.33C71.7361 122.336 65.3678 144.55 39.3885 165.157C39.2424 165.273 39.0613 165.335 38.8749 165.335ZM30.9256 160.156L38.7488 163.557C63.8839 143.452 70.0844 121.901 70.8478 107.332C71.6049 92.8197 67.2832 82.1588 66.4895 80.3383L59.1332 77.142C60.6297 81.0614 63.6151 90.6225 62.9729 103.192C62.2183 117.988 56.0128 139.794 30.9256 160.156Z" fill="#151515"/>
<path d="M38.8749 165.335C38.7617 165.335 38.6496 165.311 38.5456 165.267L29.0127 161.124C28.8817 161.067 28.7678 160.978 28.6819 160.864C28.596 160.75 28.5412 160.615 28.5226 160.474C28.5041 160.333 28.5225 160.189 28.5761 160.057C28.6297 159.924 28.7166 159.808 28.8285 159.72C54.2891 139.527 60.5477 117.83 61.3148 103.186C62.1464 87.299 56.8859 76.0283 56.8329 75.9161C56.7603 75.7642 56.736 75.5938 56.7632 75.4277C56.7904 75.2615 56.8678 75.1077 56.9851 74.9868C57.1024 74.8659 57.2539 74.7836 57.4193 74.7511C57.5847 74.7186 57.7561 74.7374 57.9105 74.8049L67.4422 78.9461C67.6248 79.0257 67.7727 79.1684 67.8586 79.348C68.0832 79.8179 73.3361 91.0458 72.5033 107.33C71.7361 122.336 65.3678 144.55 39.3885 165.157C39.2424 165.273 39.0613 165.335 38.8749 165.335ZM30.9256 160.156L38.7488 163.557C63.8839 143.452 70.0844 121.901 70.8478 107.332C71.6049 92.8197 67.2832 82.1588 66.4895 80.3383L59.1332 77.142C60.6297 81.0614 63.6151 90.6225 62.9729 103.192C62.2183 117.988 56.0128 139.794 30.9256 160.156Z" fill="#151515"/>
<path d="M109.087 106.186L108.134 116.516C108.134 116.516 107.787 116.85 107.099 117.422C106.947 117.548 106.78 117.689 106.586 117.842C99.2675 123.754 66.5111 146.225 20.9095 117.769C20.7353 117.662 20.5562 117.549 20.3833 117.436C19.8029 117.069 19.2161 116.697 18.6294 116.311L19.5493 106.337L19.5821 105.97C20.7597 106.744 21.9311 107.483 23.0962 108.187C23.4962 108.439 23.8974 108.674 24.2898 108.907C50.283 124.253 71.928 123.128 86.8513 118.401C86.8854 118.393 86.9188 118.382 86.951 118.368C87.3296 118.242 87.7081 118.116 88.0715 117.99C88.2721 117.924 88.4715 117.851 88.6721 117.784C94.0285 115.92 99.1242 113.379 103.835 110.225C104.214 109.973 104.568 109.721 104.903 109.491C107.643 107.564 109.087 106.186 109.087 106.186Z" fill="#3D90F2"/>
<path d="M109.654 95.9819L108.702 106.313C108.702 106.313 72.3897 140.969 19.1958 106.105L20.1485 95.774C73.3436 130.636 109.654 95.9819 109.654 95.9819Z" fill="#3D90F2"/>
<path d="M110.225 85.7847L109.272 96.1155C109.272 96.1155 72.96 130.771 19.7661 95.9076L20.7188 85.5768C73.9126 120.437 110.225 85.7847 110.225 85.7847Z" fill="#3D90F2"/>
<path d="M110.798 75.5797L109.845 85.9106C109.845 85.9106 73.5332 120.566 20.3394 85.7015L21.292 75.3706C74.4833 110.236 110.798 75.5797 110.798 75.5797Z" fill="#3D90F2"/>
<path d="M111.365 65.3811L110.413 75.7119C110.413 75.7119 74.1006 110.367 20.9067 75.5041L21.8594 65.1732C75.0533 100.036 111.365 65.3811 111.365 65.3811Z" fill="#3D90F2"/>
<g opacity="0.55">
<path d="M110.66 73.0386C109.587 74.0238 100.084 82.4308 84.3833 86.3213C78.5416 83.2303 72.0788 81.4896 65.4727 81.2279C58.8666 80.9662 52.2861 82.1902 46.2175 84.8094C38.4196 82.3767 30.0664 78.5101 21.2565 72.7349L21.9492 65.2299L21.8597 65.172L20.907 75.5029C21.0243 75.5797 21.1404 75.6503 21.2565 75.7258L20.3367 85.7027C20.454 85.7795 20.5701 85.8501 20.6862 85.9269L19.7663 95.9038C19.8837 95.9806 19.9998 96.0512 20.1158 96.1268L19.1909 106.109C19.3083 106.185 19.4244 106.256 19.5405 106.332L18.6206 116.31C19.2086 116.695 19.7928 117.066 20.377 117.43C20.3765 117.432 20.3765 117.435 20.377 117.437C20.5499 117.551 20.7291 117.663 20.9032 117.77C66.5149 146.23 99.2688 123.753 106.58 117.846C106.774 117.693 106.941 117.553 107.093 117.426C107.772 116.859 108.125 116.523 108.125 116.523L108.378 113.845C108.157 114.047 107.574 114.567 106.659 115.294C106.206 113.324 105.616 111.387 104.893 109.499C104.879 109.466 104.865 109.426 104.852 109.387C107.367 107.585 108.696 106.318 108.696 106.318L108.948 103.641C108.533 104.019 106.851 105.515 104.043 107.42C103.223 105.564 102.272 103.768 101.198 102.046C101.188 102.02 101.175 101.996 101.159 101.974C106.424 98.8241 109.271 96.1117 109.271 96.1117L109.523 93.4345C108.913 93.9938 105.579 96.9507 99.9338 100.112C99.4829 99.4658 99.0131 98.8275 98.5243 98.1967C97.6453 97.0654 96.725 95.9915 95.7635 94.9753C95.7565 94.9664 95.7474 94.9595 95.737 94.9551C104.807 90.7232 109.846 85.9169 109.846 85.9169L110.099 83.2384C109.28 83.9943 103.558 89.0552 93.9276 93.1447C91.9528 91.2782 89.8067 89.601 87.5176 88.1355C102.06 83.6819 110.419 75.7158 110.419 75.7158L110.66 73.0386ZM76.8806 87.7298C70.1148 88.6029 62.4721 88.5298 54.0823 86.8303C61.6388 85.2365 69.4737 85.5457 76.8806 87.7298ZM21.3461 75.7876C28.816 80.6393 35.9515 84.1203 42.6971 86.5216C40.6047 87.6594 38.6087 88.9656 36.7287 90.4272C36.3893 90.6892 36.065 90.9626 35.7357 91.2322C30.5089 88.8688 25.4782 86.0947 20.6912 82.936L21.3461 75.7876ZM20.7758 85.9925C24.863 88.66 29.1239 91.0524 33.5301 93.1535C31.8311 94.7471 30.263 96.4745 28.8412 98.3189C25.9883 96.792 23.0836 95.076 20.1234 93.1359L20.7758 85.9925ZM20.2054 96.1973C22.6029 97.7545 24.9654 99.1748 27.293 100.458C26.0598 102.265 24.9661 104.163 24.0211 106.135C22.5423 105.253 21.0521 104.331 19.5468 103.345L20.2054 96.1973ZM18.9764 113.544L19.6351 106.398C20.7543 107.125 21.866 107.817 22.97 108.483C22.9706 108.486 22.9706 108.489 22.97 108.491C22.137 110.537 21.4596 112.643 20.9436 114.79C20.2887 114.383 19.6338 113.968 18.9764 113.536V113.544ZM103.833 110.242C104.7 112.038 105.429 113.898 106.013 115.805C97.1868 122.574 65.3502 142.282 21.6414 115.239C22.3083 113.158 23.1465 111.135 24.1473 109.192C63.3427 132.21 92.6431 117.759 103.786 110.143C103.806 110.17 103.822 110.201 103.833 110.233V110.242ZM99.4164 103.071C100.677 104.71 101.811 106.443 102.808 108.254C90.8803 115.954 62.6828 128.365 25.4028 106.938C26.5467 105.034 27.8412 103.224 29.274 101.527C61.4071 118.385 86.387 110.235 99.3773 103.014L99.4164 103.071ZM92.855 96.2263C92.8606 96.2323 92.8653 96.2391 92.8689 96.2465C94.6844 97.7586 96.3682 99.4217 97.9023 101.218C84.6899 108.032 61.0828 114.632 31.0923 99.5019C32.8151 97.7109 34.6877 96.0696 36.6896 94.596C60.5718 104.88 80.0225 101.501 92.8462 96.2339L92.855 96.2263ZM81.9947 89.5642C85.0335 90.8649 87.9149 92.5052 90.5838 94.4537C78.2421 98.9388 60.6311 101.257 39.3546 92.7743C42.2325 90.9638 45.3065 89.4846 48.5178 88.3648C61.397 91.9088 72.6876 91.5636 81.9795 89.5679L81.9947 89.5642Z" fill="white"/>
</g>
<path d="M65.7629 132.651C52.6503 132.651 36.4096 128.956 18.1715 117.004C18.0461 116.921 17.9455 116.806 17.8804 116.671C17.8153 116.536 17.7881 116.386 17.8018 116.237L18.7557 105.906C18.769 105.764 18.8187 105.628 18.9001 105.511C18.9815 105.394 19.0918 105.3 19.2203 105.238C19.3488 105.177 19.4911 105.149 19.6334 105.158C19.7757 105.167 19.9132 105.213 20.0326 105.291C47.2535 123.132 69.8739 122.247 84.0616 118.363C99.4089 114.16 108.424 105.678 108.514 105.592C108.636 105.478 108.79 105.404 108.955 105.379C109.12 105.354 109.289 105.38 109.44 105.453C109.59 105.525 109.714 105.642 109.797 105.787C109.88 105.932 109.916 106.099 109.902 106.265L108.949 116.596C108.931 116.794 108.842 116.98 108.697 117.117C108.319 117.476 99.2878 125.974 83.5392 130.287C77.7462 131.864 71.7676 132.66 65.7629 132.651ZM19.4951 115.895C46.4977 133.429 68.9326 132.559 83.0294 128.717C97.0695 124.892 105.855 117.451 107.338 116.128L108.072 108.152C104.813 110.798 96.6569 116.625 84.4982 119.953C70.1855 123.871 47.5021 124.823 20.2724 107.415L19.4951 115.895Z" fill="#151515"/>
<path d="M65.7629 132.651C52.6503 132.651 36.4096 128.956 18.1715 117.004C18.0461 116.921 17.9455 116.806 17.8804 116.671C17.8153 116.536 17.7881 116.386 17.8018 116.237L18.7557 105.906C18.769 105.764 18.8187 105.628 18.9001 105.511C18.9815 105.394 19.0918 105.3 19.2203 105.238C19.3488 105.177 19.4911 105.149 19.6334 105.158C19.7757 105.167 19.9132 105.213 20.0326 105.291C47.2535 123.132 69.8739 122.247 84.0616 118.363C99.4089 114.16 108.424 105.678 108.514 105.592C108.636 105.478 108.79 105.404 108.955 105.379C109.12 105.354 109.289 105.38 109.44 105.453C109.59 105.525 109.714 105.642 109.797 105.787C109.88 105.932 109.916 106.099 109.902 106.265L108.949 116.596C108.931 116.794 108.842 116.98 108.697 117.117C108.319 117.476 99.2878 125.974 83.5392 130.287C77.7462 131.864 71.7676 132.66 65.7629 132.651ZM19.4951 115.895C46.4977 133.429 68.9326 132.559 83.0294 128.717C97.0695 124.892 105.855 117.451 107.338 116.128L108.072 108.152C104.813 110.798 96.6569 116.625 84.4982 119.953C70.1855 123.871 47.5021 124.823 20.2724 107.415L19.4951 115.895Z" fill="#151515"/>
<path d="M66.3332 122.447C53.2205 122.447 36.9798 118.753 18.7417 106.799C18.6165 106.717 18.5159 106.602 18.4508 106.467C18.3857 106.332 18.3585 106.182 18.372 106.033L19.326 95.7023C19.3389 95.5603 19.3885 95.4241 19.4698 95.307C19.5511 95.1898 19.6615 95.0957 19.7901 95.0338C19.9186 94.9719 20.0611 94.9443 20.2036 94.9537C20.346 94.9631 20.4836 95.0092 20.6029 95.0875C47.8238 112.928 70.4441 112.044 84.6319 108.159C99.9792 103.957 108.995 95.4742 109.084 95.3886C109.206 95.2746 109.36 95.2003 109.525 95.1754C109.691 95.1505 109.859 95.1761 110.01 95.249C110.16 95.3218 110.285 95.4385 110.367 95.5835C110.45 95.7285 110.487 95.8951 110.472 96.0613L109.52 106.392C109.502 106.591 109.412 106.776 109.267 106.914C108.889 107.274 99.858 115.772 84.1095 120.083C78.3164 121.661 72.3378 122.455 66.3332 122.447ZM20.0654 105.69C47.068 123.225 69.5016 122.355 83.5984 118.513C97.6398 114.688 106.426 107.248 107.908 105.925L108.643 97.9474C105.383 100.593 97.2272 106.42 85.0684 109.75C70.7558 113.668 48.0736 114.619 20.8426 97.2116L20.0654 105.69Z" fill="#151515"/>
<path d="M66.3332 122.447C53.2205 122.447 36.9798 118.753 18.7417 106.799C18.6165 106.717 18.5159 106.602 18.4508 106.467C18.3857 106.332 18.3585 106.182 18.372 106.033L19.326 95.7023C19.3389 95.5603 19.3885 95.4241 19.4698 95.307C19.5511 95.1898 19.6615 95.0957 19.7901 95.0338C19.9186 94.9719 20.0611 94.9443 20.2036 94.9537C20.346 94.9631 20.4836 95.0092 20.6029 95.0875C47.8238 112.928 70.4441 112.044 84.6319 108.159C99.9792 103.957 108.995 95.4742 109.084 95.3886C109.206 95.2746 109.36 95.2003 109.525 95.1754C109.691 95.1505 109.859 95.1761 110.01 95.249C110.16 95.3218 110.285 95.4385 110.367 95.5835C110.45 95.7285 110.487 95.8951 110.472 96.0613L109.52 106.392C109.502 106.591 109.412 106.776 109.267 106.914C108.889 107.274 99.858 115.772 84.1095 120.083C78.3164 121.661 72.3378 122.455 66.3332 122.447ZM20.0654 105.69C47.068 123.225 69.5016 122.355 83.5984 118.513C97.6398 114.688 106.426 107.248 107.908 105.925L108.643 97.9474C105.383 100.593 97.2272 106.42 85.0684 109.75C70.7558 113.668 48.0736 114.619 20.8426 97.2116L20.0654 105.69Z" fill="#151515"/>
<path d="M66.9035 112.242C53.7908 112.242 37.5502 108.547 19.3121 96.5942C19.1868 96.5119 19.0863 96.3971 19.0212 96.2623C18.956 96.1274 18.9288 95.9773 18.9423 95.8282L19.8963 85.4974C19.9096 85.3556 19.9593 85.2196 20.0407 85.1027C20.1221 84.9858 20.2324 84.8918 20.3609 84.83C20.4893 84.7681 20.6316 84.7404 20.774 84.7497C20.9163 84.7589 21.0538 84.8047 21.1732 84.8826C48.3941 102.723 71.0145 101.84 85.2022 97.9549C100.549 93.7532 109.565 85.2693 109.653 85.1849C109.775 85.0682 109.93 84.9914 110.096 84.9649C110.263 84.9384 110.434 84.9635 110.586 85.0367C110.737 85.11 110.863 85.2279 110.946 85.3746C111.029 85.5214 111.065 85.69 111.049 85.8577L110.096 96.1885C110.078 96.3871 109.988 96.5724 109.844 96.7101C109.465 97.0692 100.435 105.567 84.6861 109.879C78.891 111.457 72.9101 112.251 66.9035 112.242ZM20.6357 95.4855C47.632 113.024 70.0719 112.154 84.1738 108.312C98.2151 104.486 107.001 97.0465 108.484 95.7224L109.218 87.7462C105.959 90.3919 97.8025 96.2188 85.6438 99.5473C71.3299 103.467 48.6477 104.417 21.418 87.0092L20.6357 95.4855Z" fill="#151515"/>
<path d="M66.9035 112.242C53.7908 112.242 37.5502 108.547 19.3121 96.5942C19.1868 96.5119 19.0863 96.3971 19.0212 96.2623C18.956 96.1274 18.9288 95.9773 18.9423 95.8282L19.8963 85.4974C19.9096 85.3556 19.9593 85.2196 20.0407 85.1027C20.1221 84.9858 20.2324 84.8918 20.3609 84.83C20.4893 84.7681 20.6316 84.7404 20.774 84.7497C20.9163 84.7589 21.0538 84.8047 21.1732 84.8826C48.3941 102.723 71.0145 101.84 85.2022 97.9549C100.549 93.7532 109.565 85.2693 109.653 85.1849C109.775 85.0682 109.93 84.9914 110.096 84.9649C110.263 84.9384 110.434 84.9635 110.586 85.0367C110.737 85.11 110.863 85.2279 110.946 85.3746C111.029 85.5214 111.065 85.69 111.049 85.8577L110.096 96.1885C110.078 96.3871 109.988 96.5724 109.844 96.7101C109.465 97.0692 100.435 105.567 84.6861 109.879C78.891 111.457 72.9101 112.251 66.9035 112.242ZM20.6357 95.4855C47.632 113.024 70.0719 112.154 84.1738 108.312C98.2151 104.486 107.001 97.0465 108.484 95.7224L109.218 87.7462C105.959 90.3919 97.8025 96.2188 85.6438 99.5473C71.3299 103.467 48.6477 104.417 21.418 87.0092L20.6357 95.4855Z" fill="#151515"/>
<path d="M67.4726 102.047C54.3612 102.047 38.1205 98.3517 19.8824 86.3981C19.7571 86.3159 19.6565 86.2012 19.5913 86.0662C19.5262 85.9313 19.4991 85.7813 19.5127 85.6321L20.4654 75.3013C20.4789 75.1595 20.5289 75.0235 20.6104 74.9066C20.692 74.7898 20.8023 74.6958 20.9309 74.634C21.0594 74.5722 21.2017 74.5445 21.3441 74.5537C21.4865 74.5629 21.6241 74.6086 21.7436 74.6865C48.9645 92.5274 71.5848 91.6429 85.7713 87.7575C101.12 83.5521 110.135 75.0758 110.224 74.9838C110.346 74.8678 110.5 74.7916 110.666 74.7655C110.833 74.7394 111.003 74.7646 111.155 74.8377C111.307 74.9108 111.432 75.0284 111.515 75.1747C111.598 75.321 111.635 75.4891 111.619 75.6566L110.667 85.9874C110.648 86.1859 110.559 86.3711 110.414 86.509C110.036 86.8681 101.004 95.3658 85.2565 99.6771C79.4614 101.258 73.4801 102.055 67.4726 102.047ZM21.2098 85.2895C48.2061 102.823 70.646 101.952 84.7429 98.1111C98.7843 94.2861 107.569 86.8454 109.053 85.5225L109.787 77.5463C106.528 80.1921 98.3717 86.0177 86.2129 89.3475C71.899 93.2656 49.2168 94.2168 21.9871 76.8093L21.2098 85.2895Z" fill="#151515"/>
<path d="M67.4726 102.047C54.3612 102.047 38.1205 98.3517 19.8824 86.3981C19.7571 86.3159 19.6565 86.2012 19.5913 86.0662C19.5262 85.9313 19.4991 85.7813 19.5127 85.6321L20.4654 75.3013C20.4789 75.1595 20.5289 75.0235 20.6104 74.9066C20.692 74.7898 20.8023 74.6958 20.9309 74.634C21.0594 74.5722 21.2017 74.5445 21.3441 74.5537C21.4865 74.5629 21.6241 74.6086 21.7436 74.6865C48.9645 92.5274 71.5848 91.6429 85.7713 87.7575C101.12 83.5521 110.135 75.0758 110.224 74.9838C110.346 74.8678 110.5 74.7916 110.666 74.7655C110.833 74.7394 111.003 74.7646 111.155 74.8377C111.307 74.9108 111.432 75.0284 111.515 75.1747C111.598 75.321 111.635 75.4891 111.619 75.6566L110.667 85.9874C110.648 86.1859 110.559 86.3711 110.414 86.509C110.036 86.8681 101.004 95.3658 85.2565 99.6771C79.4614 101.258 73.4801 102.055 67.4726 102.047ZM21.2098 85.2895C48.2061 102.823 70.646 101.952 84.7429 98.1111C98.7843 94.2861 107.569 86.8454 109.053 85.5225L109.787 77.5463C106.528 80.1921 98.3717 86.0177 86.2129 89.3475C71.899 93.2656 49.2168 94.2168 21.9871 76.8093L21.2098 85.2895Z" fill="#151515"/>
<path d="M68.0429 91.8458C54.9302 91.8458 38.6908 88.1519 20.4527 76.1983C20.3274 76.1159 20.2269 76.0012 20.1618 75.8663C20.0967 75.7314 20.0694 75.5814 20.083 75.4323L21.0356 65.1014C21.049 64.9596 21.0989 64.8236 21.1804 64.7066C21.262 64.5897 21.3725 64.4958 21.5011 64.434C21.6297 64.3723 21.7721 64.3448 21.9146 64.3542C22.057 64.3637 22.1945 64.4097 22.3138 64.4879C49.5347 82.3275 72.1551 81.4431 86.3415 77.559C101.69 73.3523 110.704 64.8709 110.798 64.784C110.919 64.6672 111.074 64.5904 111.241 64.5639C111.407 64.5374 111.578 64.5625 111.73 64.6357C111.882 64.709 112.008 64.8269 112.091 64.9737C112.173 65.1204 112.209 65.289 112.193 65.4567L111.241 75.7876C111.223 75.9862 111.133 76.1715 110.988 76.3092C110.61 76.6695 101.578 85.1672 85.8305 89.4785C80.034 91.0581 74.0514 91.8543 68.0429 91.8458ZM21.7763 75.0896C48.7789 92.6244 71.2125 91.7538 85.3094 87.9125C99.3507 84.0875 108.135 76.6468 109.619 75.3227L110.354 67.3465C107.094 69.9922 98.9381 75.8191 86.7794 79.1489C72.4655 83.0671 49.7833 84.0183 22.5536 66.6095L21.7763 75.0896Z" fill="#151515"/>
<path d="M68.0429 91.8458C54.9302 91.8458 38.6908 88.1519 20.4527 76.1983C20.3274 76.1159 20.2269 76.0012 20.1618 75.8663C20.0967 75.7314 20.0694 75.5814 20.083 75.4323L21.0356 65.1014C21.049 64.9596 21.0989 64.8236 21.1804 64.7066C21.262 64.5897 21.3725 64.4958 21.5011 64.434C21.6297 64.3723 21.7721 64.3448 21.9146 64.3542C22.057 64.3637 22.1945 64.4097 22.3138 64.4879C49.5347 82.3275 72.1551 81.4431 86.3415 77.559C101.69 73.3523 110.704 64.8709 110.798 64.784C110.919 64.6672 111.074 64.5904 111.241 64.5639C111.407 64.5374 111.578 64.5625 111.73 64.6357C111.882 64.709 112.008 64.8269 112.091 64.9737C112.173 65.1204 112.209 65.289 112.193 65.4567L111.241 75.7876C111.223 75.9862 111.133 76.1715 110.988 76.3092C110.61 76.6695 101.578 85.1672 85.8305 89.4785C80.034 91.0581 74.0514 91.8543 68.0429 91.8458ZM21.7763 75.0896C48.7789 92.6244 71.2125 91.7538 85.3094 87.9125C99.3507 84.0875 108.135 76.6468 109.619 75.3227L110.354 67.3465C107.094 69.9922 98.9381 75.8191 86.7794 79.1489C72.4655 83.0671 49.7833 84.0183 22.5536 66.6095L21.7763 75.0896Z" fill="#151515"/>
<path d="M30.7998 161.502L21.0548 157.89C21.0548 157.89 -2.98503 113.858 44.5913 71.6742L54.3362 75.2875C6.75988 117.47 30.7998 161.502 30.7998 161.502Z" fill="#3D90F2"/>
<path d="M40.5155 164.715L30.7706 161.103C30.7706 161.103 6.72696 117.066 54.3033 74.8779L64.0482 78.4912C16.4744 120.683 40.5155 164.715 40.5155 164.715Z" fill="#3D90F2"/>
<path d="M50.2312 167.927L40.4863 164.315C40.4863 164.315 16.4439 120.278 64.0202 78.0906L73.7651 81.7039C26.1888 123.888 50.2312 167.927 50.2312 167.927Z" fill="#3D90F2"/>
<path d="M59.9472 171.133L50.2023 167.519C50.2023 167.519 26.1586 123.483 73.7349 81.2957L83.4785 84.9026C35.9022 127.097 59.9472 171.133 59.9472 171.133Z" fill="#3D90F2"/>
<path d="M93.1909 88.1154C92.3367 88.8713 91.5102 89.6272 90.7039 90.3831C89.8358 91.1895 89.003 92.0008 88.1891 92.8134C47.7004 133.181 69.2987 173.674 69.652 174.333L59.9159 170.724C59.9159 170.724 55.2687 162.209 54.1015 149.073C54.0876 148.96 54.0813 148.847 54.075 148.734C52.7539 132.954 56.5153 110.651 79.1937 88.4593C80.2536 87.4275 81.3476 86.3957 82.4883 85.3702C82.7015 85.1698 82.9211 84.9771 83.1419 84.7768C83.2416 84.6911 83.3413 84.5979 83.4485 84.5046L93.1909 88.1154Z" fill="#3D90F2"/>
<g opacity="0.55">
<path d="M93.1148 88.1872L93.1931 88.1166L83.4482 84.5046C83.3434 84.5966 83.245 84.6898 83.1415 84.783L73.7335 81.2958C73.6288 81.389 73.5304 81.4822 73.4269 81.5742L64.0189 78.0869C63.9142 78.1801 63.817 78.2733 63.7123 78.3653L54.3055 74.878C54.2008 74.9712 54.1024 75.0645 53.9977 75.1577L44.5909 71.6742C-2.97907 113.862 21.0583 157.899 21.0583 157.899L23.5819 158.835C22.2381 156.256 1.065 113.628 47.1776 72.735L53.9169 75.2333C50.0637 78.6606 46.4585 82.3562 43.1285 86.2924H43.1209C40.8759 87.4849 38.7377 88.8678 36.7299 90.426C25.2336 99.3344 19.3725 112.804 19.7056 126.292C20.0842 114.281 25.915 102.509 36.7299 94.5671C36.8498 94.4739 36.9822 94.387 37.1084 94.3013C13.5682 129.566 30.7817 161.104 30.7817 161.104L33.3053 162.04C32.1243 159.772 15.6123 126.522 43.0212 90.722C46.9312 88.742 51.1085 87.3394 55.4222 86.5582C19.5593 125.964 40.4863 164.312 40.4863 164.312L43.0099 165.247C41.7481 162.813 22.8071 124.679 59.5092 86.0013C62.551 85.726 65.6126 85.75 68.6497 86.0731H68.6573C27.949 126.739 50.1996 167.513 50.1996 167.513L52.7232 168.449C51.4274 165.965 31.6335 126.1 71.8534 86.5406C74.3497 86.9773 76.8049 87.6221 79.1934 88.4681C37.3482 129.414 59.913 170.737 59.913 170.737L62.4366 171.673C61.1369 169.177 41.2547 129.148 81.823 89.4937C84.0309 90.4301 86.159 91.5441 88.1862 92.8247C89.0001 92.0121 89.8266 91.2008 90.701 90.3945C88.8697 88.9796 86.9288 87.712 84.8967 86.6035C85.2752 86.2609 85.645 85.9169 86.0323 85.573L93.1148 88.1872ZM48.8811 83.7689C51.2949 81.1597 53.9573 78.5467 56.896 75.9413L63.6341 78.4396C62.5691 79.3921 61.5458 80.3446 60.5515 81.2983H60.5288C56.5516 81.5884 52.6328 82.4196 48.8811 83.7689ZM64.3634 81.1937C65.0952 80.5109 65.8443 79.8289 66.6107 79.1477L73.3499 81.6447C73.167 81.8098 72.9903 81.9736 72.8086 82.1373C70.0308 81.5503 67.2024 81.2343 64.3634 81.1937ZM82.4892 85.3727C80.3197 84.3543 78.0699 83.5161 75.7625 82.8668C75.953 82.6967 76.1335 82.5254 76.3253 82.3553L83.0646 84.8536C82.8702 85.0275 82.686 85.2001 82.4917 85.3739L82.4892 85.3727Z" fill="white"/>
</g>
<path d="M30.7993 162.333C30.7011 162.333 30.6036 162.315 30.5116 162.281L20.7667 158.669C20.5797 158.6 20.4238 158.465 20.3276 158.291C20.0752 157.834 14.2167 146.911 14.1523 130.607C14.0943 115.58 19.2311 93.0515 44.0382 71.0531C44.1505 70.9536 44.2878 70.8865 44.4354 70.859C44.583 70.8315 44.7353 70.8446 44.876 70.8969L54.6209 74.5089C54.7534 74.5591 54.8708 74.6425 54.9618 74.751C55.0528 74.8595 55.1144 74.9896 55.1406 75.1287C55.1668 75.2678 55.1568 75.4113 55.1115 75.5454C55.0663 75.6795 54.9873 75.7998 54.8821 75.8947C30.5394 97.4875 25.4997 119.526 25.5553 134.212C25.6183 150.102 31.4706 161.003 31.5299 161.112C31.5983 161.238 31.6328 161.379 31.63 161.522C31.6272 161.665 31.5872 161.805 31.514 161.928C31.4407 162.051 31.3367 162.153 31.212 162.224C31.0874 162.295 30.9465 162.332 30.8031 162.333H30.7993ZM21.6424 157.231L29.1628 160.019C27.453 156.187 23.9465 146.806 23.8972 134.219C23.8392 119.4 28.8322 97.2872 52.7623 75.581L44.7662 72.6166C20.7377 94.0997 15.7447 115.987 15.8066 130.599C15.8671 145.111 20.7541 155.464 21.6462 157.231H21.6424Z" fill="#151515"/>
<path d="M30.7993 162.333C30.7011 162.333 30.6036 162.315 30.5116 162.281L20.7667 158.669C20.5797 158.6 20.4238 158.465 20.3276 158.291C20.0752 157.834 14.2167 146.911 14.1523 130.607C14.0943 115.58 19.2311 93.0515 44.0382 71.0531C44.1505 70.9536 44.2878 70.8865 44.4354 70.859C44.583 70.8315 44.7353 70.8446 44.876 70.8969L54.6209 74.5089C54.7534 74.5591 54.8708 74.6425 54.9618 74.751C55.0528 74.8595 55.1144 74.9896 55.1406 75.1287C55.1668 75.2678 55.1568 75.4113 55.1115 75.5454C55.0663 75.6795 54.9873 75.7998 54.8821 75.8947C30.5394 97.4875 25.4997 119.526 25.5553 134.212C25.6183 150.102 31.4706 161.003 31.5299 161.112C31.5983 161.238 31.6328 161.379 31.63 161.522C31.6272 161.665 31.5872 161.805 31.514 161.928C31.4407 162.051 31.3367 162.153 31.212 162.224C31.0874 162.295 30.9465 162.332 30.8031 162.333H30.7993ZM21.6424 157.231L29.1628 160.019C27.453 156.187 23.9465 146.806 23.8972 134.219C23.8392 119.4 28.8322 97.2872 52.7623 75.581L44.7662 72.6166C20.7377 94.0997 15.7447 115.987 15.8066 130.599C15.8671 145.111 20.7541 155.464 21.6462 157.231H21.6424Z" fill="#151515"/>
<path d="M40.5156 165.541C40.4174 165.541 40.3201 165.523 40.2279 165.49L30.4842 161.88C30.2976 161.811 30.1423 161.677 30.0464 161.502C29.794 161.045 23.9355 150.122 23.8711 133.818C23.8118 118.792 28.9499 96.2617 53.7569 74.2645C53.8689 74.1649 54.006 74.0977 54.1534 74.0702C54.3009 74.0426 54.453 74.0558 54.5935 74.1083L64.3384 77.7215C64.4709 77.7718 64.5883 77.8552 64.6793 77.9637C64.7703 78.0722 64.8319 78.2023 64.8581 78.3414C64.8843 78.4805 64.8743 78.6239 64.829 78.7581C64.7838 78.8922 64.7048 79.0125 64.5996 79.1074C40.2872 100.667 35.2311 122.673 35.2702 137.338C35.3119 153.245 41.1843 164.211 41.2436 164.321C41.312 164.446 41.3466 164.588 41.3438 164.731C41.341 164.874 41.301 165.014 41.2277 165.137C41.1544 165.26 41.0504 165.362 40.9258 165.433C40.8011 165.504 40.6602 165.541 40.5168 165.541H40.5156ZM31.3599 160.44L38.8803 163.228C37.1693 159.396 33.664 150.015 33.6148 137.426C33.5567 122.609 38.5497 100.495 62.4785 78.7899L54.485 75.8317C30.4931 97.2847 25.4862 119.142 25.5253 133.731C25.5644 148.257 30.4678 158.665 31.3612 160.44H31.3599Z" fill="#151515"/>
<path d="M40.5156 165.541C40.4174 165.541 40.3201 165.523 40.2279 165.49L30.4842 161.88C30.2976 161.811 30.1423 161.677 30.0464 161.502C29.794 161.045 23.9355 150.122 23.8711 133.818C23.8118 118.792 28.9499 96.2617 53.7569 74.2645C53.8689 74.1649 54.006 74.0977 54.1534 74.0702C54.3009 74.0426 54.453 74.0558 54.5935 74.1083L64.3384 77.7215C64.4709 77.7718 64.5883 77.8552 64.6793 77.9637C64.7703 78.0722 64.8319 78.2023 64.8581 78.3414C64.8843 78.4805 64.8743 78.6239 64.829 78.7581C64.7838 78.8922 64.7048 79.0125 64.5996 79.1074C40.2872 100.667 35.2311 122.673 35.2702 137.338C35.3119 153.245 41.1843 164.211 41.2436 164.321C41.312 164.446 41.3466 164.588 41.3438 164.731C41.341 164.874 41.301 165.014 41.2277 165.137C41.1544 165.26 41.0504 165.362 40.9258 165.433C40.8011 165.504 40.6602 165.541 40.5168 165.541H40.5156ZM31.3599 160.44L38.8803 163.228C37.1693 159.396 33.664 150.015 33.6148 137.426C33.5567 122.609 38.5497 100.495 62.4785 78.7899L54.485 75.8317C30.4931 97.2847 25.4862 119.142 25.5253 133.731C25.5644 148.257 30.4678 158.665 31.3612 160.44H31.3599Z" fill="#151515"/>
<path d="M50.2314 168.75C50.1333 168.75 50.0359 168.732 49.9437 168.699L40.1988 165.085C40.0119 165.016 39.8564 164.882 39.761 164.707C39.5086 164.25 33.6488 153.328 33.5845 137.024C33.5264 121.998 38.6632 99.468 63.4703 77.4708C63.5826 77.3714 63.7199 77.3042 63.8674 77.2765C64.0149 77.2488 64.1673 77.2615 64.3081 77.3134L74.053 80.9266C74.1868 80.9764 74.3055 81.0598 74.3974 81.1689C74.4894 81.2779 74.5515 81.4089 74.5778 81.549C74.6041 81.6891 74.5936 81.8336 74.5474 81.9685C74.5013 82.1034 74.4209 82.2241 74.3142 82.3188C50.0018 103.876 44.9445 125.882 44.9836 140.547C45.0265 156.454 50.8989 167.42 50.9582 167.529C51.0263 167.655 51.0605 167.797 51.0575 167.94C51.0545 168.083 51.0145 168.223 50.9413 168.345C50.8681 168.468 50.7642 168.57 50.6398 168.641C50.5154 168.712 50.3747 168.75 50.2314 168.75ZM41.0745 163.644L48.5911 166.436C46.8801 162.605 43.3748 153.224 43.3243 140.635C43.2663 125.818 48.2605 103.704 72.1894 81.9988L64.1933 79.0343C40.2077 100.487 35.1996 122.345 35.2387 136.935C35.2778 151.466 40.1824 161.88 41.0745 163.644Z" fill="#151515"/>
<path d="M50.2314 168.75C50.1333 168.75 50.0359 168.732 49.9437 168.699L40.1988 165.085C40.0119 165.016 39.8564 164.882 39.761 164.707C39.5086 164.25 33.6488 153.328 33.5845 137.024C33.5264 121.998 38.6632 99.468 63.4703 77.4708C63.5826 77.3714 63.7199 77.3042 63.8674 77.2765C64.0149 77.2488 64.1673 77.2615 64.3081 77.3134L74.053 80.9266C74.1868 80.9764 74.3055 81.0598 74.3974 81.1689C74.4894 81.2779 74.5515 81.4089 74.5778 81.549C74.6041 81.6891 74.5936 81.8336 74.5474 81.9685C74.5013 82.1034 74.4209 82.2241 74.3142 82.3188C50.0018 103.876 44.9445 125.882 44.9836 140.547C45.0265 156.454 50.8989 167.42 50.9582 167.529C51.0263 167.655 51.0605 167.797 51.0575 167.94C51.0545 168.083 51.0145 168.223 50.9413 168.345C50.8681 168.468 50.7642 168.57 50.6398 168.641C50.5154 168.712 50.3747 168.75 50.2314 168.75ZM41.0745 163.644L48.5911 166.436C46.8801 162.605 43.3748 153.224 43.3243 140.635C43.2663 125.818 48.2605 103.704 72.1894 81.9988L64.1933 79.0343C40.2077 100.487 35.1996 122.345 35.2387 136.935C35.2778 151.466 40.1824 161.88 41.0745 163.644Z" fill="#151515"/>
<path d="M59.947 171.959C59.8492 171.959 59.7521 171.942 59.6605 171.907L49.9156 168.295C49.7284 168.226 49.5724 168.092 49.4765 167.917C49.2242 167.46 43.3656 156.538 43.3013 140.233C43.2432 125.208 48.38 102.678 73.1871 80.6809C73.2992 80.5811 73.4365 80.5137 73.5841 80.4859C73.7317 80.4582 73.8841 80.4711 74.0249 80.5234L83.7698 84.1367C83.9036 84.1864 84.0223 84.2698 84.1142 84.3789C84.2062 84.4879 84.2683 84.6189 84.2946 84.759C84.3209 84.8991 84.3104 85.0436 84.2642 85.1785C84.2181 85.3134 84.1377 85.4341 84.031 85.5288C59.7186 107.088 54.6613 129.094 54.7004 143.758C54.742 159.665 60.6157 170.631 60.675 170.741C60.7433 170.867 60.7776 171.008 60.7746 171.151C60.7717 171.294 60.7315 171.434 60.6581 171.557C60.5847 171.68 60.4805 171.781 60.3558 171.852C60.2312 171.922 60.0903 171.959 59.947 171.959ZM50.7913 166.858L58.3117 169.646C56.6019 165.815 53.0954 156.434 53.0462 143.845C52.9881 129.027 57.9811 106.914 81.9099 85.2075L73.9151 82.2443C49.9232 103.697 44.9164 125.555 44.9555 140.144C44.9921 154.675 49.8954 165.083 50.7888 166.857L50.7913 166.858Z" fill="#151515"/>
<path d="M59.947 171.959C59.8492 171.959 59.7521 171.942 59.6605 171.907L49.9156 168.295C49.7284 168.226 49.5724 168.092 49.4765 167.917C49.2242 167.46 43.3656 156.538 43.3013 140.233C43.2432 125.208 48.38 102.678 73.1871 80.6809C73.2992 80.5811 73.4365 80.5137 73.5841 80.4859C73.7317 80.4582 73.8841 80.4711 74.0249 80.5234L83.7698 84.1367C83.9036 84.1864 84.0223 84.2698 84.1142 84.3789C84.2062 84.4879 84.2683 84.6189 84.2946 84.759C84.3209 84.8991 84.3104 85.0436 84.2642 85.1785C84.2181 85.3134 84.1377 85.4341 84.031 85.5288C59.7186 107.088 54.6613 129.094 54.7004 143.758C54.742 159.665 60.6157 170.631 60.675 170.741C60.7433 170.867 60.7776 171.008 60.7746 171.151C60.7717 171.294 60.7315 171.434 60.6581 171.557C60.5847 171.68 60.4805 171.781 60.3558 171.852C60.2312 171.922 60.0903 171.959 59.947 171.959ZM50.7913 166.858L58.3117 169.646C56.6019 165.815 53.0954 156.434 53.0462 143.845C52.9881 129.027 57.9811 106.914 81.9099 85.2075L73.9151 82.2443C49.9232 103.697 44.9164 125.555 44.9555 140.144C44.9921 154.675 49.8954 165.083 50.7888 166.857L50.7913 166.858Z" fill="#151515"/>
<path d="M69.6631 175.167C69.5649 175.167 69.4674 175.15 69.3754 175.115L59.6292 171.503C59.4426 171.434 59.2871 171.3 59.1914 171.125C58.939 170.668 53.0805 159.745 53.0161 143.441C52.9568 128.415 58.0949 105.886 82.902 83.8885C83.0138 83.7887 83.1509 83.7213 83.2983 83.6936C83.4457 83.6658 83.5979 83.6788 83.7385 83.7311L93.4834 87.3443C93.6162 87.3943 93.7339 87.4775 93.8251 87.5861C93.9163 87.6946 93.978 87.8247 94.0042 87.9639C94.0305 88.1032 94.0204 88.2468 93.9749 88.381C93.9295 88.5152 93.8501 88.6355 93.7446 88.7302C69.4322 110.289 64.3762 132.296 64.4153 146.96C64.4569 162.868 70.3306 173.834 70.3899 173.942C70.4583 174.068 70.4928 174.209 70.49 174.353C70.4872 174.496 70.4473 174.636 70.374 174.759C70.3007 174.882 70.1967 174.984 70.072 175.055C69.9474 175.126 69.8065 175.163 69.6631 175.163V175.167ZM60.5037 170.069L68.024 172.857C66.3143 169.026 62.8077 159.645 62.7585 147.057C62.7005 132.238 67.6934 110.125 91.6223 88.419L83.6275 85.4558C59.599 106.939 54.606 128.825 54.6678 143.437C54.7246 157.947 59.6116 168.298 60.5037 170.069Z" fill="#151515"/>
<path d="M69.6631 175.167C69.5649 175.167 69.4674 175.15 69.3754 175.115L59.6292 171.503C59.4426 171.434 59.2871 171.3 59.1914 171.125C58.939 170.668 53.0805 159.745 53.0161 143.441C52.9568 128.415 58.0949 105.886 82.902 83.8885C83.0138 83.7887 83.1509 83.7213 83.2983 83.6936C83.4457 83.6658 83.5979 83.6788 83.7385 83.7311L93.4834 87.3443C93.6162 87.3943 93.7339 87.4775 93.8251 87.5861C93.9163 87.6946 93.978 87.8247 94.0042 87.9639C94.0305 88.1032 94.0204 88.2468 93.9749 88.381C93.9295 88.5152 93.8501 88.6355 93.7446 88.7302C69.4322 110.289 64.3762 132.296 64.4153 146.96C64.4569 162.868 70.3306 173.834 70.3899 173.942C70.4583 174.068 70.4928 174.209 70.49 174.353C70.4872 174.496 70.4473 174.636 70.374 174.759C70.3007 174.882 70.1967 174.984 70.072 175.055C69.9474 175.126 69.8065 175.163 69.6631 175.163V175.167ZM60.5037 170.069L68.024 172.857C66.3143 169.026 62.8077 159.645 62.7585 147.057C62.7005 132.238 67.6934 110.125 91.6223 88.419L83.6275 85.4558C59.599 106.939 54.606 128.825 54.6678 143.437C54.7246 157.947 59.6116 168.298 60.5037 170.069Z" fill="#151515"/>
<path d="M74.5322 172.312L67.5241 179.475L67.2718 179.735C66.0655 175.955 64.7481 172.438 63.3172 169.142C59.9104 161.259 55.9231 154.728 51.6355 149.308C42.3398 137.578 31.6233 131.092 22.2153 127.512C21.8821 127.386 21.5478 127.261 21.221 127.153C20.8349 127.007 20.455 126.874 20.074 126.754C19.9478 126.707 19.8342 126.667 19.7144 126.628C7.39791 122.494 -2.09717 123.267 -2.09717 123.267L5.16452 115.842C5.16452 115.842 42.2792 112.826 64.9185 150.631C67.9468 155.697 70.7228 161.504 73.1202 168.143C73.6064 169.494 74.0771 170.884 74.5322 172.312Z" fill="#3D90F2"/>
<path d="M-8.98145 130.827L-1.71851 123.394C-1.71851 123.394 48.3473 119.328 67.6529 179.866L60.3913 187.292C41.0857 126.76 -8.98145 130.827 -8.98145 130.827Z" fill="#3D90F2"/>
<path d="M-15.8608 138.389L-8.59916 130.956C-8.59916 130.956 41.468 126.89 60.7735 187.428L53.5106 194.861C34.2063 134.323 -15.8608 138.389 -15.8608 138.389Z" fill="#3D90F2"/>
<path d="M-22.7412 145.951L-15.4783 138.525C-15.4783 138.525 34.585 134.459 53.8906 194.997L46.629 202.423C27.3259 141.885 -22.7412 145.951 -22.7412 145.951Z" fill="#3D90F2"/>
<path d="M-29.6206 153.512L-22.3589 146.087C-22.3589 146.087 27.7082 142.021 47.0138 202.559L39.7508 209.984C20.4528 149.447 -29.6206 153.512 -29.6206 153.512Z" fill="#3D90F2"/>
<g opacity="0.55">
<path d="M72.5111 174.243C53.7986 115.565 6.18572 117.584 3.27979 117.762L5.16113 115.839C5.16113 115.839 55.2282 111.773 74.5326 172.311L67.2658 179.736C67.2545 179.702 67.2431 179.671 67.233 179.637L72.5111 174.243Z" fill="white"/>
</g>
<g opacity="0.55">
<path d="M65.6316 181.806C46.919 123.127 -0.695141 125.145 -3.60107 125.324L-1.71847 123.4C-1.71847 123.4 48.3474 119.335 67.653 179.872L60.39 187.298C60.3799 187.265 60.3686 187.232 60.3572 187.198L65.6316 181.806Z" fill="white"/>
</g>
<g opacity="0.55">
<path d="M58.7509 189.368C40.0384 130.689 -7.57454 132.707 -10.4805 132.887L-8.59912 130.962C-8.59912 130.962 41.468 126.896 60.7736 187.434L53.5106 194.867C53.5005 194.833 53.4879 194.8 53.4778 194.766L58.7509 189.368Z" fill="white"/>
</g>
<g opacity="0.55">
<path d="M51.8715 196.93C33.159 138.25 -14.4552 140.269 -17.3599 140.449L-15.4785 138.525C-15.4785 138.525 34.5848 134.459 53.8904 194.997L46.6287 202.423L46.5946 202.323L51.8715 196.93Z" fill="white"/>
</g>
<g opacity="0.55">
<path d="M44.9911 204.491C26.2786 145.813 -21.3343 147.831 -24.2402 148.01L-22.3589 146.087C-22.3589 146.087 27.7082 142.021 47.0138 202.559L39.7509 209.984C39.7408 209.95 39.7282 209.919 39.7181 209.885L44.9911 204.491Z" fill="white"/>
</g>
<g opacity="0.25">
<path d="M73.1194 168.144C70.0048 168.824 66.8251 169.162 63.637 169.152C63.531 169.152 63.4237 169.152 63.3165 169.145C59.5781 169.109 55.8594 168.598 52.2505 167.624C52.1289 167.597 52.0089 167.564 51.8909 167.524C44.7308 165.531 38.1927 161.76 32.8861 156.563C27.5796 151.366 23.6774 144.912 21.5432 137.803C21.5302 137.786 21.5231 137.765 21.523 137.744C20.4464 134.135 19.8412 130.402 19.7224 126.638C19.7161 126.638 19.7161 126.638 19.7161 126.624C19.6427 124.424 19.7363 122.22 19.9963 120.034C20.39 122.616 21.1372 125.131 22.217 127.51C23.7312 130.919 25.9709 134.187 28.9387 137.211C34.9133 143.276 42.9346 147.358 51.6372 149.314C51.7508 149.335 51.8568 149.361 51.964 149.381C56.219 150.302 60.5674 150.723 64.9202 150.633C67.9511 155.693 70.7258 161.502 73.1194 168.144Z" fill="black"/>
</g>
<path d="M67.2657 180.563C67.2015 180.563 67.1376 180.555 67.0752 180.54C66.9362 180.507 66.8081 180.439 66.7034 180.342C66.5986 180.245 66.5206 180.123 66.4771 179.987C56.6123 149.051 38.5218 135.505 25.0824 129.593C10.506 123.175 -1.92023 124.083 -2.04641 124.093C-2.21425 124.106 -2.38211 124.068 -2.52762 123.984C-2.67312 123.899 -2.78935 123.772 -2.86077 123.62C-2.9322 123.468 -2.95544 123.297 -2.9274 123.132C-2.89935 122.966 -2.82136 122.813 -2.70381 122.692L4.56923 115.265C4.70711 115.12 4.89337 115.031 5.09288 115.013C5.61527 114.972 17.991 114.055 32.9396 120.615C46.7185 126.662 65.2544 140.492 75.3211 172.057C75.3665 172.2 75.3722 172.353 75.3375 172.498C75.3029 172.644 75.2291 172.778 75.1242 172.885L67.8626 180.311C67.7852 180.391 67.6925 180.454 67.5899 180.498C67.4874 180.541 67.3771 180.563 67.2657 180.563ZM-0.0224781 122.375C4.21087 122.375 14.1842 123.005 25.6779 128.044C39.265 134.006 57.4754 147.538 67.6342 178.187L73.5937 172.094C63.6948 141.494 45.7192 128.053 32.3504 122.167C19.0345 116.305 7.51806 116.555 5.52819 116.649L-0.0754716 122.38L-0.0224781 122.375Z" fill="#151515"/>
<path d="M67.2657 180.563C67.2015 180.563 67.1376 180.555 67.0752 180.54C66.9362 180.507 66.8081 180.439 66.7034 180.342C66.5986 180.245 66.5206 180.123 66.4771 179.987C56.6123 149.051 38.5218 135.505 25.0824 129.593C10.506 123.175 -1.92023 124.083 -2.04641 124.093C-2.21425 124.106 -2.38211 124.068 -2.52762 123.984C-2.67312 123.899 -2.78935 123.772 -2.86077 123.62C-2.9322 123.468 -2.95544 123.297 -2.9274 123.132C-2.89935 122.966 -2.82136 122.813 -2.70381 122.692L4.56923 115.265C4.70711 115.12 4.89337 115.031 5.09288 115.013C5.61527 114.972 17.991 114.055 32.9396 120.615C46.7185 126.662 65.2544 140.492 75.3211 172.057C75.3665 172.2 75.3722 172.353 75.3375 172.498C75.3029 172.644 75.2291 172.778 75.1242 172.885L67.8626 180.311C67.7852 180.391 67.6925 180.454 67.5899 180.498C67.4874 180.541 67.3771 180.563 67.2657 180.563ZM-0.0224781 122.375C4.21087 122.375 14.1842 123.005 25.6779 128.044C39.265 134.006 57.4754 147.538 67.6342 178.187L73.5937 172.094C63.6948 141.494 45.7192 128.053 32.3504 122.167C19.0345 116.305 7.51806 116.555 5.52819 116.649L-0.0754716 122.38L-0.0224781 122.375Z" fill="#151515"/>
<path d="M60.39 188.124C60.2146 188.124 60.0439 188.068 59.9025 187.964C59.761 187.861 59.656 187.715 59.6026 187.549C49.7366 156.613 31.6461 143.067 18.2079 137.154C3.63028 130.736 -8.79471 131.644 -8.92089 131.654C-9.08858 131.667 -9.25631 131.629 -9.40173 131.544C-9.54715 131.46 -9.66337 131.333 -9.7349 131.181C-9.80643 131.029 -9.82989 130.859 -9.80213 130.693C-9.77438 130.528 -9.69674 130.374 -9.57955 130.254L-2.31661 122.821C-2.17837 122.676 -1.9923 122.587 -1.79296 122.569C-1.27309 122.526 11.1039 121.61 26.0538 128.17C39.8314 134.217 58.3686 148.047 68.4352 179.613C68.4805 179.756 68.4861 179.908 68.4515 180.054C68.4168 180.2 68.3432 180.333 68.2384 180.44L60.9755 187.866C60.9001 187.946 60.8094 188.01 60.7089 188.054C60.6083 188.099 60.4999 188.122 60.39 188.124ZM-6.902 129.938C-2.66991 129.938 7.30338 130.568 18.7972 135.607C32.3843 141.569 50.5946 155.101 60.7546 185.75L66.7129 179.656C56.8014 149.011 38.7929 135.574 25.3951 129.696C12.0881 123.858 0.630964 124.115 -1.35511 124.21L-6.96004 129.943L-6.902 129.938Z" fill="#151515"/>
<path d="M60.39 188.124C60.2146 188.124 60.0439 188.068 59.9025 187.964C59.761 187.861 59.656 187.715 59.6026 187.549C49.7366 156.613 31.6461 143.067 18.2079 137.154C3.63028 130.736 -8.79471 131.644 -8.92089 131.654C-9.08858 131.667 -9.25631 131.629 -9.40173 131.544C-9.54715 131.46 -9.66337 131.333 -9.7349 131.181C-9.80643 131.029 -9.82989 130.859 -9.80213 130.693C-9.77438 130.528 -9.69674 130.374 -9.57955 130.254L-2.31661 122.821C-2.17837 122.676 -1.9923 122.587 -1.79296 122.569C-1.27309 122.526 11.1039 121.61 26.0538 128.17C39.8314 134.217 58.3686 148.047 68.4352 179.613C68.4805 179.756 68.4861 179.908 68.4515 180.054C68.4168 180.2 68.3432 180.333 68.2384 180.44L60.9755 187.866C60.9001 187.946 60.8094 188.01 60.7089 188.054C60.6083 188.099 60.4999 188.122 60.39 188.124ZM-6.902 129.938C-2.66991 129.938 7.30338 130.568 18.7972 135.607C32.3843 141.569 50.5946 155.101 60.7546 185.75L66.7129 179.656C56.8014 149.011 38.7929 135.574 25.3951 129.696C12.0881 123.858 0.630964 124.115 -1.35511 124.21L-6.96004 129.943L-6.902 129.938Z" fill="#151515"/>
<path d="M53.5121 195.686C53.3366 195.685 53.1658 195.629 53.0242 195.526C52.8825 195.423 52.7773 195.277 52.7235 195.11C42.8461 164.133 24.7203 150.587 11.2543 144.679C-3.31576 138.287 -15.6701 139.201 -15.7925 139.212C-15.9602 139.225 -16.1279 139.187 -16.2733 139.102C-16.4187 139.018 -16.535 138.891 -16.6065 138.739C-16.678 138.587 -16.7015 138.417 -16.6737 138.251C-16.646 138.086 -16.5683 137.932 -16.4511 137.812L-9.18945 130.379C-9.05056 130.234 -8.86418 130.145 -8.66454 130.127C-8.14468 130.085 4.23235 129.169 19.1822 135.728C32.9598 141.775 51.497 155.606 61.5637 187.172C61.6088 187.315 61.6144 187.467 61.5797 187.612C61.5451 187.758 61.4715 187.891 61.3668 187.998L54.1039 195.424C54.0281 195.505 53.9365 195.57 53.8348 195.615C53.7331 195.661 53.6233 195.685 53.5121 195.686ZM-13.7824 137.499C-9.55033 137.499 0.422968 138.129 11.918 143.169C25.5051 149.129 43.7154 162.661 53.8755 193.311L59.8337 187.219C49.9223 156.572 31.9125 143.136 18.5147 137.257C5.20773 131.419 -6.24818 131.678 -8.23553 131.773L-13.8405 137.504L-13.7824 137.499Z" fill="#151515"/>
<path d="M53.5121 195.686C53.3366 195.685 53.1658 195.629 53.0242 195.526C52.8825 195.423 52.7773 195.277 52.7235 195.11C42.8461 164.133 24.7203 150.587 11.2543 144.679C-3.31576 138.287 -15.6701 139.201 -15.7925 139.212C-15.9602 139.225 -16.1279 139.187 -16.2733 139.102C-16.4187 139.018 -16.535 138.891 -16.6065 138.739C-16.678 138.587 -16.7015 138.417 -16.6737 138.251C-16.646 138.086 -16.5683 137.932 -16.4511 137.812L-9.18945 130.379C-9.05056 130.234 -8.86418 130.145 -8.66454 130.127C-8.14468 130.085 4.23235 129.169 19.1822 135.728C32.9598 141.775 51.497 155.606 61.5637 187.172C61.6088 187.315 61.6144 187.467 61.5797 187.612C61.5451 187.758 61.4715 187.891 61.3668 187.998L54.1039 195.424C54.0281 195.505 53.9365 195.57 53.8348 195.615C53.7331 195.661 53.6233 195.685 53.5121 195.686ZM-13.7824 137.499C-9.55033 137.499 0.422968 138.129 11.918 143.169C25.5051 149.129 43.7154 162.661 53.8755 193.311L59.8337 187.219C49.9223 156.572 31.9125 143.136 18.5147 137.257C5.20773 131.419 -6.24818 131.678 -8.23553 131.773L-13.8405 137.504L-13.7824 137.499Z" fill="#151515"/>
<path d="M46.6311 203.248C46.567 203.248 46.503 203.241 46.4406 203.226C46.3016 203.193 46.1735 203.125 46.0687 203.028C45.964 202.931 45.886 202.809 45.8425 202.673C35.9777 171.737 17.886 158.19 4.44776 152.279C-10.1299 145.861 -22.5548 146.77 -22.6747 146.778C-22.8427 146.793 -23.0112 146.756 -23.1572 146.672C-23.3032 146.588 -23.4194 146.46 -23.4898 146.307C-23.5619 146.154 -23.5855 145.983 -23.5573 145.817C-23.5291 145.65 -23.4505 145.497 -23.3321 145.376L-16.0704 137.943C-15.9321 137.798 -15.7461 137.709 -15.5468 137.691C-15.0257 137.651 -2.64862 136.733 12.3 143.294C26.0789 149.341 44.6148 163.17 54.6814 194.736C54.7269 194.879 54.7326 195.031 54.6979 195.177C54.6632 195.322 54.5895 195.456 54.4846 195.563L47.2229 202.996C47.1461 203.075 47.0542 203.138 46.9526 203.182C46.8509 203.225 46.7416 203.247 46.6311 203.248ZM-20.6621 145.061C-16.43 145.061 -6.45674 145.691 5.03829 150.731C18.6254 156.692 36.8357 170.223 46.9945 200.873L52.9528 194.78C43.0388 164.129 25.0328 150.694 11.635 144.815C-1.67199 138.976 -13.1292 139.234 -15.1152 139.33L-20.7202 145.061H-20.6621Z" fill="#151515"/>
<path d="M46.6311 203.248C46.567 203.248 46.503 203.241 46.4406 203.226C46.3016 203.193 46.1735 203.125 46.0687 203.028C45.964 202.931 45.886 202.809 45.8425 202.673C35.9777 171.737 17.886 158.19 4.44776 152.279C-10.1299 145.861 -22.5548 146.77 -22.6747 146.778C-22.8427 146.793 -23.0112 146.756 -23.1572 146.672C-23.3032 146.588 -23.4194 146.46 -23.4898 146.307C-23.5619 146.154 -23.5855 145.983 -23.5573 145.817C-23.5291 145.65 -23.4505 145.497 -23.3321 145.376L-16.0704 137.943C-15.9321 137.798 -15.7461 137.709 -15.5468 137.691C-15.0257 137.651 -2.64862 136.733 12.3 143.294C26.0789 149.341 44.6148 163.17 54.6814 194.736C54.7269 194.879 54.7326 195.031 54.6979 195.177C54.6632 195.322 54.5895 195.456 54.4846 195.563L47.2229 202.996C47.1461 203.075 47.0542 203.138 46.9526 203.182C46.8509 203.225 46.7416 203.247 46.6311 203.248ZM-20.6621 145.061C-16.43 145.061 -6.45674 145.691 5.03829 150.731C18.6254 156.692 36.8357 170.223 46.9945 200.873L52.9528 194.78C43.0388 164.129 25.0328 150.694 11.635 144.815C-1.67199 138.976 -13.1292 139.234 -15.1152 139.33L-20.7202 145.061H-20.6621Z" fill="#151515"/>
<path d="M39.7507 210.811C39.6866 210.811 39.6226 210.803 39.5602 210.788C39.4212 210.755 39.2931 210.687 39.1884 210.59C39.0836 210.493 39.0056 210.371 38.9621 210.235C29.0973 179.299 11.0068 165.753 -2.43136 159.84C-17.0102 153.423 -29.434 154.33 -29.5538 154.341C-29.7218 154.355 -29.8898 154.317 -30.0356 154.232C-30.1813 154.148 -30.2977 154.021 -30.3693 153.869C-30.4409 153.716 -30.4642 153.546 -30.4362 153.38C-30.4082 153.214 -30.3302 153.061 -30.2125 152.94L-22.9533 145.51C-22.8148 145.365 -22.6282 145.275 -22.4284 145.258C-21.9086 145.215 -9.53154 144.299 5.41832 150.859C19.1959 156.906 37.7331 170.736 47.7998 202.302C47.8449 202.444 47.8505 202.597 47.8158 202.743C47.7812 202.888 47.7076 203.022 47.6029 203.129L40.34 210.555C40.2639 210.635 40.1726 210.699 40.0714 210.742C39.9701 210.786 39.8611 210.81 39.7507 210.811ZM-27.5413 152.624C-23.3092 152.624 -13.3359 153.254 -1.8421 158.293C11.745 164.255 29.9554 177.787 40.1154 208.436L46.0736 202.343C36.1622 171.698 18.1537 158.262 4.75461 152.383C-8.55111 146.545 -20.0083 146.802 -21.9956 146.898L-27.6006 152.63L-27.5413 152.624Z" fill="#151515"/>
<path d="M39.7507 210.811C39.6866 210.811 39.6226 210.803 39.5602 210.788C39.4212 210.755 39.2931 210.687 39.1884 210.59C39.0836 210.493 39.0056 210.371 38.9621 210.235C29.0973 179.299 11.0068 165.753 -2.43136 159.84C-17.0102 153.423 -29.434 154.33 -29.5538 154.341C-29.7218 154.355 -29.8898 154.317 -30.0356 154.232C-30.1813 154.148 -30.2977 154.021 -30.3693 153.869C-30.4409 153.716 -30.4642 153.546 -30.4362 153.38C-30.4082 153.214 -30.3302 153.061 -30.2125 152.94L-22.9533 145.51C-22.8148 145.365 -22.6282 145.275 -22.4284 145.258C-21.9086 145.215 -9.53154 144.299 5.41832 150.859C19.1959 156.906 37.7331 170.736 47.7998 202.302C47.8449 202.444 47.8505 202.597 47.8158 202.743C47.7812 202.888 47.7076 203.022 47.6029 203.129L40.34 210.555C40.2639 210.635 40.1726 210.699 40.0714 210.742C39.9701 210.786 39.8611 210.81 39.7507 210.811ZM-27.5413 152.624C-23.3092 152.624 -13.3359 153.254 -1.8421 158.293C11.745 164.255 29.9554 177.787 40.1154 208.436L46.0736 202.343C36.1622 171.698 18.1537 158.262 4.75461 152.383C-8.55111 146.545 -20.0083 146.802 -21.9956 146.898L-27.6006 152.63L-27.5413 152.624Z" fill="#151515"/>
<path d="M90.3832 163.392L83.0218 167.513C82.8956 167.387 82.7694 167.261 82.6433 167.146C82.1108 166.634 81.5897 166.121 81.0698 165.602C76.2243 160.85 71.6686 155.812 67.4272 150.515C58.298 139.064 51.5499 127.152 47.5159 114.716C47.4225 114.449 47.3355 114.183 47.256 113.91C47.2093 113.776 47.1689 113.636 47.1298 113.504C46.9695 113 46.8232 112.496 46.6705 111.992C44.6357 105.038 43.4665 97.8597 43.1892 90.6199C43.1286 89.1887 43.1097 87.7437 43.1286 86.2923C43.1362 85.4407 43.1564 84.5814 43.1892 83.7222L50.5506 79.6012C50.5039 80.8132 50.4774 82.0176 50.4837 83.217C50.4837 84.7213 50.524 86.2129 50.6099 87.7034C51.7455 109.625 61.0513 129.982 76.9614 149.05C80.4835 153.278 84.3269 157.444 88.4917 161.548C89.1117 162.166 89.7422 162.781 90.3832 163.392Z" fill="#3D90F2"/>
<path d="M82.8617 167.025L82.6409 167.151L75.4991 171.146C74.4997 170.188 73.5193 169.229 72.5591 168.256C66.6749 162.372 61.4447 156.356 56.8685 150.208C44.1054 133.029 36.6974 114.794 35.7207 95.3254C35.6475 94.0013 35.6072 92.6634 35.6072 91.3241C35.5945 90.0063 35.6147 88.6814 35.6677 87.3493L43.0291 83.2283C42.9887 84.2803 42.9698 85.3322 42.9622 86.3779C42.9559 87.823 42.9824 89.2605 43.0556 90.6917C43.4046 98.4431 44.7745 106.115 47.1299 113.509C47.1703 113.635 47.2107 113.781 47.2561 113.915C47.3356 114.188 47.4227 114.454 47.5161 114.721C51.6295 127.151 58.4521 139.055 67.6469 150.501C71.9041 155.761 76.4639 160.769 81.3034 165.501C81.8157 166.012 82.3351 166.52 82.8617 167.025Z" fill="#3D90F2"/>
<g opacity="0.55">
<path d="M50.5099 85.4305C50.5023 85.171 50.5036 84.9089 50.4998 84.6494C50.4695 82.9751 50.4796 81.2919 50.5465 79.5986L43.1851 83.7234C43.1851 83.8494 43.1851 83.9754 43.1763 84.0913L48.8544 80.9101C48.8166 81.8727 48.7947 82.8323 48.7888 83.7889C46.8433 84.4857 44.9503 85.3211 43.1246 86.2885C43.0728 86.3149 43.0198 86.3414 42.9605 86.3742C42.9605 85.3272 42.9832 84.279 43.0236 83.2245L35.6635 87.3493C35.6635 87.4753 35.6635 87.595 35.6547 87.7184L41.3328 84.5373C41.2958 85.4704 41.2743 86.4019 41.2684 87.3317C39.692 88.2679 38.1749 89.3004 36.7259 90.4233C36.3466 90.7156 35.9731 91.0151 35.6055 91.3216C35.6055 92.6609 35.6458 93.9988 35.719 95.3229C36.0521 95.071 36.3865 94.819 36.7285 94.567C38.2059 93.4824 39.7496 92.4907 41.3505 91.5975C42.4709 119.433 56.7016 144.736 80.9358 168.104L82.8651 167.023C58.6031 143.703 44.3056 118.458 43.0602 90.6904C43.1002 90.663 43.1424 90.639 43.1864 90.6186C45.0278 89.7004 46.93 88.9091 48.8796 88.2501C50.0847 115.975 64.3014 141.186 88.4536 164.472L90.3829 163.391C65.644 139.618 51.2569 113.842 50.5099 85.4305Z" fill="white"/>
</g>
<g opacity="0.25">
<path d="M88.4827 161.546C86.2177 163.088 83.8132 164.414 81.3005 165.507C81.2273 165.54 81.1478 165.574 81.067 165.607C78.3308 166.782 75.4792 167.669 72.5587 168.253C66.6745 162.371 61.4443 156.356 56.8682 150.208C60.3691 150.645 63.9037 150.75 67.4244 150.52C67.4976 150.52 67.5708 150.52 67.644 150.507C70.7829 150.288 73.8971 149.8 76.9523 149.049C80.4744 153.277 84.3179 157.443 88.4827 161.546Z" fill="black"/>
</g>
<path d="M83.0203 168.346C82.8064 168.346 82.601 168.262 82.4474 168.114C68.8856 155.077 58.6435 141.577 51.9976 127.99C45.0085 113.684 41.7644 98.7812 42.3536 83.6957C42.3593 83.5546 42.401 83.4174 42.4748 83.297C42.5485 83.1766 42.6519 83.0771 42.7751 83.0078L50.1352 78.883C50.2637 78.8111 50.4092 78.7748 50.5565 78.7778C50.7038 78.7807 50.8476 78.8229 50.9732 78.9C51.0987 78.977 51.2013 79.0861 51.2705 79.216C51.3397 79.3459 51.3729 79.4919 51.3667 79.6389C50.2311 108.904 63.1721 136.11 90.9495 162.809C91.0426 162.898 91.1134 163.008 91.1564 163.129C91.1993 163.251 91.2131 163.381 91.1967 163.509C91.1802 163.637 91.134 163.759 91.0617 163.866C90.9894 163.973 90.8931 164.061 90.7804 164.124L83.4203 168.249C83.2972 168.314 83.1596 168.347 83.0203 168.346ZM43.9952 84.2173C43.0098 113.151 55.8234 140.076 83.1528 166.499L89.0075 163.217C75.8457 150.422 65.8774 137.187 59.364 123.86C52.602 110.019 49.3453 95.6177 49.6746 81.0336L43.9952 84.2173Z" fill="#151515"/>
<path d="M75.4987 171.974C75.2847 171.974 75.079 171.892 74.9246 171.744C61.364 158.709 51.1207 145.207 44.4811 131.613C37.4869 117.309 34.2478 102.406 34.8371 87.3204C34.8424 87.1792 34.884 87.0419 34.9578 86.9214C35.0316 86.801 35.1352 86.7015 35.2585 86.6325L42.6199 82.5089C42.7484 82.4366 42.8939 82.3999 43.0414 82.4027C43.1889 82.4055 43.333 82.4477 43.4586 82.5248C43.5843 82.6019 43.687 82.7112 43.756 82.8414C43.8251 82.9715 43.8581 83.1177 43.8514 83.2649C42.7082 112.529 55.6556 139.734 83.4329 166.433C83.5261 166.523 83.5969 166.632 83.6398 166.754C83.6828 166.876 83.6966 167.006 83.6801 167.133C83.6637 167.261 83.6175 167.384 83.5452 167.49C83.4729 167.597 83.3766 167.686 83.2639 167.749L75.9038 171.873C75.7797 171.941 75.6402 171.976 75.4987 171.974ZM36.4774 87.8457C35.492 116.78 48.3056 143.705 75.6337 170.127L81.4898 166.852C68.3254 154.056 58.3546 140.82 51.8449 127.495C45.0804 113.648 41.8237 99.2462 42.1556 84.6633L36.4774 87.8457Z" fill="#151515"/>
<path d="M63.7817 169.957C50.3826 169.957 37.1185 164.007 28.2846 152.644C20.987 143.257 17.723 131.36 19.2104 119.571C20.6979 107.781 26.8151 97.0637 36.2163 89.7771C41.8552 85.4015 48.4587 82.4329 55.4778 81.118C62.4969 79.8031 69.729 80.1799 76.573 82.2171C83.4169 84.2543 89.675 87.8931 94.8271 92.831C99.9793 97.7689 103.877 103.863 106.195 110.608C108.514 117.352 109.187 124.552 108.158 131.608C107.129 138.664 104.429 145.373 100.281 151.178C96.1327 156.982 90.657 161.714 84.3088 164.981C77.9606 168.247 70.9233 169.954 63.7817 169.958V169.957ZM63.6441 82.0051C52.3891 82.012 41.5783 86.3909 33.4994 94.2149C25.4204 102.039 20.707 112.695 20.3567 123.927C20.0063 135.159 24.0464 146.087 31.6221 154.398C39.1978 162.709 49.7147 167.751 60.9475 168.457C72.1802 169.163 83.2475 165.478 91.8076 158.182C100.368 150.886 105.749 140.55 106.812 129.363C107.876 118.175 104.539 107.014 97.5067 98.2395C90.4746 89.4653 80.2994 83.767 69.1342 82.3503C67.3132 82.1209 65.4796 82.0056 63.6441 82.0051Z" fill="#151515"/>
</g>
<path d="M63.7815 170.508C50.2184 170.508 36.7903 164.483 27.8491 152.982C24.191 148.277 21.4969 142.899 19.9206 137.154C18.3443 131.409 17.9168 125.411 18.6623 119.501C19.4079 113.592 21.3119 107.887 24.2658 102.712C27.2197 97.5369 31.1655 92.9936 35.878 89.3414C41.5862 84.912 48.2708 81.9068 55.3763 80.5758C62.4817 79.2447 69.8027 79.6262 76.7307 81.6884C83.6588 83.7507 89.9938 87.4343 95.2093 92.4329C100.425 97.4315 104.37 103.601 106.717 110.428C109.064 117.255 109.745 124.543 108.704 131.686C107.662 138.829 104.929 145.621 100.73 151.497C96.5304 157.373 90.9874 162.163 84.5611 165.469C78.1348 168.776 71.0109 170.503 63.7815 170.508ZM63.6453 82.5596C54.1957 82.5561 45.0165 85.7089 37.5688 91.5159C29.7712 97.5599 24.3138 106.116 22.1263 115.728C19.9389 125.339 21.1568 135.41 25.5725 144.225C29.9883 153.04 37.3287 160.054 46.343 164.071C55.3573 168.088 65.4878 168.86 75.0083 166.256C84.5289 163.651 92.8505 157.832 98.5551 149.788C104.26 141.744 106.995 131.974 106.294 122.143C105.593 112.311 101.499 103.027 94.7106 95.8711C87.9222 88.7154 78.8588 84.1313 69.0647 82.8997C67.2671 82.674 65.4571 82.5604 63.6453 82.5596Z" fill="#151515"/>
<path d="M21.5943 130.894C29.7958 130.894 36.4445 122.76 36.4445 112.726C36.4445 102.692 29.7958 94.5573 21.5943 94.5573C13.3928 94.5573 6.74414 102.692 6.74414 112.726C6.74414 122.76 13.3928 130.894 21.5943 130.894Z" fill="white"/>
<path d="M21.5943 130.894C29.7958 130.894 36.4445 122.76 36.4445 112.726C36.4445 102.692 29.7958 94.5573 21.5943 94.5573C13.3928 94.5573 6.74414 102.692 6.74414 112.726C6.74414 122.76 13.3928 130.894 21.5943 130.894Z" fill="#FBC2D3"/>
<g opacity="0.6">
<path d="M21.5943 98.4515C29.5134 98.4515 35.9789 105.223 36.418 113.754C36.434 113.414 36.4424 113.071 36.4432 112.726C36.4432 102.691 29.7948 94.5573 21.5943 94.5573C13.3938 94.5573 6.74414 102.691 6.74414 112.726C6.74414 113.071 6.75255 113.414 6.76938 113.754C7.20344 105.223 13.6752 98.4515 21.5943 98.4515Z" fill="white"/>
</g>
<g opacity="0.25">
<path d="M21.5942 94.5573C21.9438 94.5573 22.287 94.5837 22.6302 94.6064C22.287 94.5774 21.9425 94.5573 21.5942 94.5573Z" fill="black"/>
<path d="M21.5943 122.351C14.0487 122.351 7.83182 117.081 6.88294 110.256C6.79184 111.075 6.7455 111.897 6.74414 112.721C6.74414 122.754 13.3926 130.889 21.5943 130.889C29.796 130.889 36.4445 122.754 36.4445 112.721C36.4433 111.897 36.3966 111.075 36.3044 110.256C35.3555 117.081 29.1386 122.351 21.5943 122.351Z" fill="black"/>
<path d="M21.5943 94.5573C21.2448 94.5573 20.9003 94.5774 20.5571 94.6064C20.9016 94.5837 21.2435 94.5573 21.5943 94.5573Z" fill="black"/>
</g>
<path d="M21.5946 132.274C12.6458 132.274 5.36523 123.506 5.36523 112.729C5.36523 101.952 12.6458 93.1838 21.5946 93.1838C30.5433 93.1838 37.8226 101.952 37.8226 112.729C37.8226 123.506 30.547 132.274 21.5946 132.274ZM21.5946 95.9366C14.1663 95.9366 8.12228 103.471 8.12228 112.729C8.12228 121.988 14.1663 129.521 21.5946 129.521C29.0228 129.521 35.0656 121.988 35.0656 112.729C35.0656 103.471 29.0228 95.9329 21.5946 95.9329V95.9366Z" fill="#151515"/>
<path d="M105.872 130.894C114.073 130.894 120.722 122.76 120.722 112.726C120.722 102.692 114.073 94.5573 105.872 94.5573C97.6701 94.5573 91.0215 102.692 91.0215 112.726C91.0215 122.76 97.6701 130.894 105.872 130.894Z" fill="white"/>
<path d="M105.872 130.894C114.073 130.894 120.722 122.76 120.722 112.726C120.722 102.692 114.073 94.5573 105.872 94.5573C97.6701 94.5573 91.0215 102.692 91.0215 112.726C91.0215 122.76 97.6701 130.894 105.872 130.894Z" fill="#FBC2D3"/>
<g opacity="0.6">
<path d="M105.877 98.4515C97.9579 98.4515 91.4925 105.223 91.0521 113.754C91.0369 113.414 91.0269 113.071 91.0269 112.726C91.0269 102.691 97.6753 94.5573 105.877 94.5573C114.079 94.5573 120.727 102.691 120.727 112.726C120.727 113.071 120.717 113.414 120.702 113.754C120.262 105.223 113.79 98.4515 105.877 98.4515Z" fill="white"/>
</g>
<g opacity="0.25">
<path d="M105.877 94.5573C105.527 94.5573 105.184 94.5837 104.841 94.6064C105.176 94.5774 105.522 94.5573 105.877 94.5573Z" fill="black"/>
<path d="M105.877 122.351C113.423 122.351 119.639 117.081 120.587 110.256C120.679 111.075 120.726 111.897 120.727 112.721C120.727 122.754 114.079 130.889 105.877 130.889C97.6753 130.889 91.0269 122.754 91.0269 112.721C91.028 111.897 91.0748 111.075 91.1669 110.256C92.1095 117.081 98.3251 122.351 105.877 122.351Z" fill="black"/>
<path d="M105.877 94.5573C106.226 94.5573 106.571 94.5774 106.914 94.6064C106.563 94.5837 106.221 94.5573 105.877 94.5573Z" fill="black"/>
</g>
<path d="M105.876 132.274C96.9278 132.274 89.6484 123.506 89.6484 112.729C89.6484 101.952 96.9177 93.1801 105.876 93.1801C114.835 93.1801 122.106 101.949 122.106 112.726C122.106 123.502 114.819 132.274 105.876 132.274ZM105.876 95.9366C98.4483 95.9366 92.4055 103.471 92.4055 112.729C92.4055 121.988 98.4483 129.521 105.876 129.521C113.305 129.521 119.349 121.988 119.349 112.729C119.349 103.471 113.298 95.9329 105.876 95.9329V95.9366Z" fill="#151515"/>
</svg>
