<svg width="73" height="83" viewBox="0 0 73 83" fill="none" xmlns="http://www.w3.org/2000/svg">
<path d="M57.9983 70.11L43.7681 80.9082H29.2315L15.0013 70.11C12.118 62.119 13.6523 54.1886 15.2614 49.2638C16.2675 46.1805 17.3044 44.2755 17.3044 44.2755L17.2215 43.7832L36.4889 41.9749H36.4998H36.5107L55.778 43.7832L55.6952 44.2755C55.6952 44.2755 56.7675 46.2439 57.7879 49.421C59.3805 54.3544 60.8513 62.2019 57.9983 70.11Z" fill="#FBC2D3"/>
<g opacity="0.25">
<path d="M57.5252 49.8592C53.0683 52.9539 46.3296 54.8547 36.435 54.8547C26.3751 54.8547 19.5811 52.8879 15.1299 49.7051C16.1329 46.6377 17.1666 44.7426 17.1666 44.7426L17.084 44.2529L36.2919 42.4539H36.3028H36.3136L55.5215 44.2529L55.4389 44.7426C55.4389 44.7426 56.5086 46.7008 57.5252 49.8592Z" fill="black"/>
</g>
<path d="M43.4816 82.125H28.9056C28.7237 82.1243 28.5471 82.0638 28.4029 81.9528L14.134 71.1115C14.0058 71.0146 13.9086 70.8824 13.8543 70.7309C9.3921 58.345 15.0787 46.3287 16.08 44.373L16.0433 44.1537C16.0245 44.0407 16.0291 43.9249 16.057 43.8138C16.0849 43.7026 16.1354 43.5984 16.2053 43.5076C16.2752 43.4169 16.3631 43.3416 16.4635 43.2864C16.5638 43.2313 16.6745 43.1975 16.7884 43.1871L36.0514 41.3778C36.1209 41.3662 36.1916 41.3637 36.2618 41.3704L36.2927 41.3732L55.6044 43.1871C55.7184 43.1976 55.8289 43.2316 55.9292 43.2868C56.0294 43.342 56.1172 43.4173 56.1871 43.508C56.2571 43.5987 56.3076 43.7028 56.3355 43.8139C56.3634 43.925 56.3682 44.0407 56.3496 44.1537L56.3129 44.373C57.3137 46.3287 63.0002 58.345 58.538 70.7309C58.4837 70.8824 58.3865 71.0146 58.2583 71.1115L43.99 81.9528C43.8442 82.0649 43.6654 82.1255 43.4816 82.125ZM29.1853 80.4604H43.2025L57.05 69.9388C61.4091 57.4627 54.779 45.0394 54.7108 44.9149C54.687 44.8701 54.6669 44.8235 54.6506 44.7754L36.1941 43.0413L17.7376 44.7754C17.7229 44.8234 17.7037 44.8699 17.6803 44.9143C17.6127 45.0394 10.9896 57.4851 15.3412 69.9411L29.1853 80.4604Z" fill="#151515"/>
<path d="M69.5267 77.0488C67.8988 79.2372 65.6696 80.9084 62.9177 80.9084H9.81718C7.06471 80.9084 4.80643 79.2585 3.20534 77.0488C1.1266 74.174 -1.17045 67.3801 2.70717 63.8769C5.81872 61.0662 9.29052 61.8369 11.6685 63.9128C13.4651 63.6267 18.3071 63.0134 26.8826 63.0134H45.8477C54.4249 63.0134 59.2675 63.6262 61.0624 63.9128C63.4272 61.8577 66.8762 61.1129 70.0225 63.8769C74.0848 67.4425 72.2512 73.3854 69.5267 77.0488Z" fill="#FBC2D3"/>
<g opacity="0.25">
<path d="M30.6733 57.0459C34.4216 60.4266 38.1747 60.4266 41.9328 57.0459V73.6072H30.9691L30.6733 57.0459Z" fill="black"/>
</g>
<g opacity="0.55">
<path d="M11.6128 63.9906C13.4039 63.6988 18.2273 63.0806 26.7662 63.0806V64.9649C18.2273 64.9649 13.6023 64.7556 13.6023 66.4943C11.2236 64.3899 5.766 62.9924 2.65452 65.8368C1.36206 67.0198 0.758003 68.5737 0.602999 70.2243C0.401836 67.9026 0.878245 65.578 2.65452 63.9525C5.76372 61.1075 9.23421 61.889 11.6128 63.9906Z" fill="white"/>
</g>
<g opacity="0.55">
<path d="M72.2679 70.3669C72.0883 68.6942 71.3914 67.1153 69.9525 65.8361C66.8051 63.0412 61.3697 64.4142 59.0076 66.4936C57.8639 65.4238 54.3581 64.9642 45.7838 64.9642H44.313V63.0799H45.7821C54.3563 63.0799 59.1991 63.6987 60.993 63.9899C63.358 61.9099 66.8057 61.1535 69.9508 63.9512C71.9231 65.7013 72.5049 68.0202 72.2679 70.3669Z" fill="white"/>
</g>
<g opacity="0.25">
<path d="M72.2539 68.3313C71.9735 70.1343 70.8293 71.9498 69.4559 73.3313C67.8283 74.9699 65.5996 76.2207 62.8483 76.2207C62.2613 76.2208 61.6801 76.1048 61.1384 75.8793C60.5966 75.6538 60.1051 75.3232 59.6922 74.9068C59.2794 74.4904 58.9534 73.9964 58.7331 73.4534C58.5128 72.9104 58.4027 72.3291 58.409 71.7433C58.4156 71.2164 58.4566 70.6906 58.5315 70.169C58.0014 71.918 56.9218 73.4504 55.4521 74.54C53.9825 75.6297 52.2007 76.2187 50.3699 76.2201H22.5238C20.6909 76.2198 18.9065 75.6315 17.4341 74.542C15.9617 73.4525 14.8791 71.9194 14.3462 70.169C14.4032 70.5808 14.4403 70.9721 14.4602 71.3423C14.5833 74.0042 12.4315 76.2207 9.76165 76.2207C7.00976 76.2207 4.75194 74.9853 3.15118 73.3313C2.04621 72.1875 0.879688 70.2139 0.61185 68.2227C0.251694 71.5539 1.75159 75.318 3.15118 77.2797C4.74966 79.5155 7.00748 81.1848 9.76165 81.1848H62.8511C65.6024 81.1848 67.8312 79.4939 69.4587 77.2797C71.2435 74.8471 72.6477 71.4197 72.2539 68.3313Z" fill="black"/>
</g>
<path d="M62.9361 82.125H9.77232C7.03312 82.125 4.44289 80.6215 2.48094 77.8909C0.206839 74.7263 -1.76424 66.8671 2.57509 63.1292C5.53742 60.5799 9.48813 61.3017 11.8866 63.3032C13.8954 63.0046 18.7346 62.4472 26.8603 62.4472C26.9716 62.4431 27.0825 62.4613 27.1865 62.5007C27.2905 62.5401 27.3854 62.6 27.4656 62.6767C27.5458 62.7533 27.6095 62.8453 27.6531 62.947C27.6966 63.0487 27.7191 63.1581 27.7191 63.2686C27.7191 63.3791 27.6966 63.4885 27.6531 63.5902C27.6095 63.6919 27.5458 63.7839 27.4656 63.8605C27.3854 63.9372 27.2905 63.9971 27.1865 64.0365C27.0825 64.0759 26.9716 64.0941 26.8603 64.09C18.2707 64.09 13.4388 64.7132 11.7605 64.9857C11.6351 65.0057 11.5068 64.9968 11.3854 64.9598C11.264 64.9227 11.1528 64.8585 11.0603 64.7721C9.23418 63.0613 6.01849 62.3395 3.6605 64.3699C0.119523 67.42 1.91426 74.2703 3.82884 76.9346C4.99129 78.552 6.9675 80.4798 9.77232 80.4798H62.9361C65.6827 80.4798 67.6874 78.5475 68.8853 76.9261C71.5993 73.2523 72.6094 67.6296 69.1363 64.4452C66.5723 62.0948 63.4868 63.1621 61.6281 64.7908C61.5364 64.871 61.4279 64.93 61.3105 64.9637C61.1931 64.9974 61.0697 65.0049 60.949 64.9857C59.2713 64.716 54.4434 64.09 45.8481 64.09C45.7368 64.0941 45.6259 64.0759 45.5219 64.0365C45.4179 63.9971 45.323 63.9372 45.2428 63.8605C45.1626 63.7839 45.0989 63.6919 45.0553 63.5902C45.0117 63.4885 44.9893 63.3791 44.9893 63.2686C44.9893 63.1581 45.0117 63.0487 45.0553 62.947C45.0989 62.8453 45.1626 62.7533 45.2428 62.6767C45.323 62.6 45.4179 62.5401 45.5219 62.5007C45.6259 62.4613 45.7368 62.4431 45.8481 62.4472C53.9938 62.4472 58.8364 63.0074 60.8354 63.3054C63.4034 61.2445 67.2241 60.4559 70.2594 63.2386C74.439 67.0699 73.3587 73.6516 70.2206 77.8994C68.1782 80.6639 65.661 82.125 62.9361 82.125Z" fill="#151515"/>
<path d="M61.628 64.5222L61.4959 64.5851C61.4058 64.6289 61.3163 64.6671 61.1823 64.7369C60.8617 64.8997 60.5556 65.0769 60.2658 65.2674C59.9694 65.462 59.6897 65.6697 59.4285 65.8891C59.2141 66.0703 59.0807 66.1988 59.0807 66.1988C59.0267 66.2511 58.9487 66.2876 58.8608 66.3019C58.7728 66.3162 58.6807 66.3072 58.601 66.2767C58.5213 66.2462 58.4594 66.1961 58.4263 66.1354C58.3932 66.0748 58.3912 66.0076 58.4206 65.946V65.9432C58.4206 65.9432 58.4985 65.7806 58.6396 65.5408C58.8137 65.2454 59.0126 64.9579 59.2353 64.6801C59.4627 64.3977 59.7139 64.1257 59.9876 63.8656C60.0951 63.7608 60.2143 63.6597 60.2716 63.6071L60.3714 63.5186C60.5299 63.378 60.759 63.2888 61.0085 63.2704C61.258 63.252 61.5073 63.306 61.7017 63.4206C61.8961 63.5351 62.0196 63.7009 62.045 63.8813C62.0705 64.0617 61.9957 64.242 61.8373 64.3825C61.7774 64.4363 61.7068 64.4833 61.628 64.5222Z" fill="#151515"/>
<path d="M13.3205 66.2056L13.2245 66.1128C13.1605 66.0535 13.0824 65.9839 12.9736 65.892C12.7138 65.6737 12.436 65.467 12.1415 65.2732C11.8535 65.0831 11.5493 64.9063 11.2307 64.7439C10.9746 64.6131 10.7961 64.5351 10.7961 64.5351C10.5821 64.4412 10.4283 64.2896 10.3686 64.1136C10.3089 63.9375 10.3481 63.7515 10.4776 63.5964C10.6071 63.4413 10.8164 63.3299 11.0593 63.2866C11.3022 63.2433 11.5588 63.2718 11.7728 63.3656C11.855 63.4014 11.9291 63.4461 11.9924 63.4983L12.0256 63.5261C12.0256 63.5261 12.1901 63.6625 12.4148 63.8764C12.6861 64.1356 12.9353 64.4066 13.1611 64.6877C13.3823 64.9645 13.5801 65.2508 13.7532 65.545C13.8223 65.6619 13.8812 65.7705 13.9145 65.8363L13.9689 65.943C13.9994 66.0041 13.9987 66.0711 13.9672 66.1318C13.9356 66.1926 13.8752 66.2432 13.7967 66.2746C13.7183 66.3059 13.627 66.316 13.5392 66.3029C13.4514 66.2899 13.373 66.2545 13.318 66.2033L13.3205 66.2056Z" fill="#151515"/>
<path d="M36.4919 73.6784C36.2128 68.0617 34.1916 62.172 30.1554 55.9668L14.6001 61.9686C17.6681 65.2816 20.7743 72.3825 22.3963 76.4422C23.402 78.9588 25.8658 80.712 28.7128 80.8902L28.8387 80.8975C33.1477 81.1262 36.6935 77.7391 36.4919 73.6784Z" fill="#FBC2D3"/>
<g opacity="0.25">
<path d="M36.112 71.8372C35.3495 74.433 32.2591 76.3691 28.6262 76.2116L28.5008 76.2059C25.6515 76.0603 23.1862 74.6304 22.1804 72.5771C20.7113 69.5814 14.3789 61.9651 14.3789 61.9651C17.4488 65.3271 20.5569 72.5328 22.1798 76.6523C23.1862 79.2061 25.6515 80.9852 28.5002 81.1661L28.6262 81.1735C32.9378 81.4055 36.4858 77.9702 36.2841 73.8478C36.2516 73.1817 36.1923 72.5112 36.112 71.8372Z" fill="black"/>
</g>
<path d="M30.1274 55.4623C30.1274 55.4623 30.2806 55.6271 30.5477 55.9491C30.6827 56.1092 30.8444 56.3095 31.0312 56.5472C31.218 56.7848 31.4185 57.0792 31.6491 57.4007C31.8798 57.7221 32.1047 58.094 32.3644 58.4912C32.6161 58.893 32.8622 59.3442 33.1315 59.8229C33.7058 60.9127 34.2208 62.0332 34.6743 63.1795C35.684 65.6935 36.6146 68.7683 36.9825 72.1824C37.0394 72.6077 37.0588 73.0399 37.0913 73.4744L37.1027 73.6374L37.1084 73.7189V73.7912V73.8486V74.1666V74.4857C37.1084 74.5873 37.0873 74.7343 37.077 74.8571L37.0338 75.2422C37.0231 75.368 37.0025 75.4928 36.9722 75.6153C36.9153 75.8535 36.868 76.0946 36.8014 76.3311C36.7217 76.5635 36.6408 76.7966 36.5605 77.0296C36.466 77.2592 36.3555 77.4779 36.2513 77.7023C35.3469 79.465 33.7694 80.8735 31.9122 81.595C30.9803 81.9414 29.9954 82.1207 29.0021 82.1248C28.7492 82.1191 28.5254 82.1334 28.2458 82.1036L27.92 82.0674C27.8631 82.0611 27.8158 82.0582 27.7531 82.0485L27.5612 82.0163L27.1797 81.9526L26.822 81.8648C26.5828 81.812 26.3527 81.7271 26.1204 81.653C25.2067 81.3278 24.3557 80.8458 23.6049 80.2284C22.8735 79.6202 22.2535 78.8876 21.7728 78.0639C21.6589 77.8602 21.5524 77.6501 21.4499 77.4412L21.3138 77.1209L21.246 76.9607L21.1891 76.8195C21.0421 76.4407 20.8967 76.0661 20.7528 75.6957C20.4646 74.9604 20.1702 74.2406 19.8809 73.545C19.2995 72.1531 18.7191 70.8519 18.1548 69.6677C17.5904 68.4836 17.0391 67.4183 16.5436 66.4827C16.297 66.0149 16.0709 65.573 15.8483 65.1746C15.6256 64.7763 15.4354 64.3998 15.2463 64.0737L14.9866 63.6019C14.9012 63.4567 14.8214 63.3213 14.7474 63.1944C14.5993 62.9401 14.4763 62.7192 14.367 62.5498C14.1523 62.2054 14.0452 62.0103 14.0452 62.0103L14.0338 61.9891C13.9962 61.9209 13.9833 61.8418 13.9971 61.7651C14.0109 61.6883 14.0507 61.6189 14.1097 61.5684C14.1687 61.518 14.2432 61.4897 14.3205 61.4884C14.3979 61.4872 14.4733 61.513 14.5339 61.5614C14.5339 61.5614 14.7121 61.7032 15.0327 61.9914C15.2296 62.166 15.4168 62.3513 15.5937 62.5464C15.8158 62.7662 16.0425 63.0394 16.2953 63.3459C16.5482 63.6524 16.8079 64.0083 17.0926 64.3929C17.3609 64.7872 17.6485 65.2142 17.9349 65.6832C18.5084 66.6199 19.0739 67.7168 19.6765 68.917C20.279 70.1172 20.8872 71.4362 21.4989 72.8419C21.8058 73.5456 22.1151 74.2676 22.422 75.0149C22.5739 75.3865 22.7269 75.7619 22.8811 76.1411L22.938 76.284L22.9921 76.4051L23.1003 76.6496C23.1823 76.8075 23.2649 76.967 23.356 77.122C23.7331 77.7516 24.2147 78.3111 24.7798 78.7762C25.3642 79.25 26.0252 79.6189 26.7337 79.8668C26.9148 79.9242 27.0925 79.989 27.2787 80.0269L27.555 80.0935L27.8158 80.1377L27.9462 80.1612C27.9912 80.1687 28.0521 80.1721 28.1045 80.1785L28.4303 80.21C28.5858 80.2278 28.801 80.2146 28.9855 80.2175C29.7524 80.21 30.5122 80.0684 31.2311 79.7991C32.6628 79.2521 33.885 78.1712 34.582 76.835C34.6601 76.6628 34.7478 76.4975 34.8212 76.3253L35.0075 75.7973C35.0576 75.6182 35.0929 75.4357 35.1385 75.256C35.1618 75.1708 35.1769 75.0836 35.1834 74.9954L35.2159 74.7429C35.2315 74.6552 35.2412 74.5667 35.245 74.4777L35.2484 74.1586L35.2518 73.84V73.7826C35.2518 73.7642 35.2518 73.8687 35.2518 73.8153L35.2467 73.739L35.237 73.5857C35.2096 73.1788 35.1903 72.7736 35.1458 72.3741C34.8543 69.1649 34.0234 66.2325 33.0956 63.8103C32.64 62.5929 32.1275 61.5144 31.6981 60.5466L30.546 58.0464C30.3882 57.702 30.2407 57.3915 30.1251 57.1143C29.997 56.8405 29.8893 56.6063 29.8073 56.4128C29.6365 56.0294 29.5596 55.8182 29.5596 55.8182C29.5318 55.7447 29.5302 55.6637 29.5551 55.5891C29.5801 55.5145 29.63 55.451 29.6963 55.4094C29.7626 55.3678 29.8412 55.3507 29.9186 55.3611C29.996 55.3715 30.0674 55.4087 30.1206 55.4664L30.1274 55.4623Z" fill="#151515"/>
<path d="M42.8448 55.9668C38.8086 62.172 36.7867 68.0617 36.5082 73.6784C36.3066 77.7408 39.8519 81.1262 44.161 80.8975L44.2869 80.8902C47.1346 80.712 49.5978 78.9588 50.6036 76.4422C52.2257 72.3825 55.3308 65.2816 58.4 61.9686L42.8448 55.9668Z" fill="#FBC2D3"/>
<g opacity="0.25">
<path d="M36.4952 71.8372C37.2572 74.433 40.3475 76.3691 43.9804 76.2116L44.1064 76.2059C46.9557 76.0603 49.4204 74.6304 50.4268 72.5771C51.8953 69.5814 58.2277 61.9651 58.2277 61.9651C55.1584 65.3271 52.0498 72.5328 50.4268 76.6523C49.4204 79.2061 46.9552 80.9852 44.1064 81.1661L43.9804 81.1735C39.6688 81.4055 36.1214 77.9702 36.3231 73.8478C36.3556 73.1817 36.4143 72.5112 36.4952 71.8372Z" fill="black"/>
</g>
<path d="M42.8285 55.8182C42.8285 55.8182 42.7499 56.0294 42.5808 56.4128C42.4988 56.6062 42.3917 56.8404 42.263 57.1142C42.1491 57.3914 42.0004 57.699 41.8421 58.0463C41.5231 58.7396 41.1353 59.581 40.6905 60.5464C40.2588 61.5135 39.7468 62.5926 39.2929 63.8099C38.3662 66.232 37.5353 69.1644 37.2425 72.3733C37.1981 72.7751 37.1788 73.1769 37.152 73.585L37.1417 73.7382L37.1372 73.8145C37.1372 73.8679 37.1372 73.7634 37.1372 73.7818V73.8392L37.1406 74.1578L37.144 74.4769C37.1476 74.5659 37.1575 74.6545 37.1736 74.742L37.2055 74.9946C37.2124 75.0827 37.2274 75.1699 37.2505 75.2552C37.2961 75.4348 37.3314 75.6173 37.3815 75.7964L37.5677 76.3244C37.6418 76.4966 37.7289 76.6631 37.807 76.8341C38.5041 78.1703 39.7263 79.251 41.1581 79.798C41.877 80.0673 42.6368 80.2089 43.4038 80.2164C43.5889 80.2164 43.8024 80.2268 43.959 80.209L44.2848 80.1774C44.3372 80.1711 44.3987 80.1676 44.4431 80.1602L44.5736 80.1366L44.8344 80.0925L45.1106 80.0259C45.2969 79.988 45.4746 79.9203 45.6557 79.8657C46.3643 79.618 47.0253 79.2491 47.6097 78.7752C48.1747 78.31 48.6563 77.7505 49.0336 77.1211C49.1247 76.9661 49.2044 76.8066 49.2887 76.6487L49.3969 76.4042L49.4539 76.2831L49.5108 76.1402C49.6658 75.7606 49.8188 75.3853 49.9699 75.0141C50.2774 74.268 50.5867 73.5448 50.8931 72.8411C51.5076 71.4355 52.121 70.1188 52.7156 68.9164C53.3102 67.714 53.8837 66.6206 54.4578 65.6827C54.7426 65.2138 55.0313 64.7868 55.2996 64.3925C55.5843 64.0079 55.8355 63.6498 56.0969 63.3456C56.3583 63.0414 56.5765 62.7659 56.7991 62.5461C56.9757 62.3507 57.163 62.1654 57.3601 61.9911C57.6802 61.7041 57.8585 61.5612 57.8585 61.5612C57.9191 61.5131 57.9944 61.4876 58.0716 61.489C58.1488 61.4905 58.2231 61.5187 58.282 61.569C58.3409 61.6193 58.3807 61.6886 58.3948 61.765C58.4088 61.8415 58.3962 61.9206 58.3591 61.9888L58.3471 62.01C58.3471 62.01 58.2401 62.2057 58.0253 62.5495C57.916 62.7217 57.793 62.9398 57.6455 63.1941L57.4057 63.6016L57.1465 64.0734C56.9569 64.3994 56.7598 64.7719 56.544 65.1742C56.3281 65.5766 56.0958 66.0145 55.8486 66.4823C55.3531 67.4178 54.8012 68.4825 54.2374 69.6671C53.6736 70.8518 53.0932 72.1524 52.5117 73.5442C52.2218 74.2398 51.9274 74.9596 51.6397 75.6948L51.2035 76.8186L51.1465 76.9598L51.0793 77.1199L50.9426 77.4402C50.8407 77.6491 50.7359 77.8592 50.6197 78.0629C50.1392 78.8868 49.5191 79.6193 48.7875 80.2273C48.0369 80.8447 47.186 81.3267 46.2725 81.6519C46.0401 81.7259 45.81 81.8109 45.5708 81.8637L45.2132 81.9515L44.8298 82.0186L44.6379 82.0508C44.5753 82.0605 44.5274 82.0634 44.4711 82.0697L44.1453 82.1036C43.8656 82.1334 43.6418 82.1191 43.3889 82.1248C42.3962 82.1215 41.4116 81.9432 40.4798 81.5979C38.6231 80.8765 37.0449 79.468 36.1411 77.7054C36.0369 77.481 35.9258 77.26 35.8312 77.0327L35.5903 76.3342C35.5248 76.0977 35.4764 75.8567 35.4195 75.6185C35.3895 75.4959 35.3689 75.3712 35.358 75.2454L35.3147 74.8603C35.3044 74.7375 35.2811 74.5905 35.2839 74.4889V74.1698V73.8518V73.7944V73.7221L35.2896 73.6406L35.301 73.4776C35.3335 73.0431 35.354 72.611 35.4098 72.1857C35.7777 68.7718 36.7083 65.7 37.7181 63.1832C38.1721 62.0372 38.6871 60.9167 39.261 59.8267C39.5304 59.348 39.777 58.8975 40.0281 58.4951C40.289 58.0974 40.5088 57.7249 40.7435 57.4046C40.9781 57.0843 41.1746 56.7939 41.3614 56.5511C41.5482 56.3083 41.71 56.1132 41.8455 55.9531C42.112 55.6311 42.2653 55.4663 42.2653 55.4663C42.3184 55.4087 42.3899 55.3715 42.4673 55.3611C42.5447 55.3507 42.6233 55.3678 42.6896 55.4094C42.7559 55.4509 42.8058 55.5145 42.8307 55.5891C42.8556 55.6636 42.8541 55.7446 42.8262 55.8182H42.8285Z" fill="#151515"/>
<path d="M36.1921 0.608154C13.009 0.608154 7.0546 21.5468 7.30796 32.2715C7.56131 42.9962 13.7691 52.3165 36.1921 52.3165C58.6152 52.3165 64.8309 42.9962 65.0843 32.2715C65.3377 21.5468 59.3735 0.608154 36.1921 0.608154Z" fill="#FBC2D3"/>
<g opacity="0.25">
<path d="M36.4349 47.4512C14.552 47.4512 8.13413 39.4242 7.61669 30.0327C7.58136 30.7664 7.57281 31.4688 7.58877 32.1315C7.84179 42.7384 14.0414 51.9564 36.4349 51.9564C58.8284 51.9564 65.036 42.7384 65.289 32.1315C65.305 31.4688 65.2964 30.7664 65.2611 30.0333C64.7425 39.4248 58.3173 47.4512 36.4349 47.4512Z" fill="black"/>
</g>
<g opacity="0.55">
<path d="M36.4419 0.815674H36.4345C13.4541 0.815674 7.42828 21.2151 7.58499 31.8908C7.74569 22.0585 13.3692 4.99952 32.7925 3.10098C32.9344 4.1987 34.5107 5.06493 36.4397 5.06493C38.3687 5.06493 39.9432 4.19927 40.0868 3.10155C59.5051 5.00407 65.1337 22.058 65.2944 31.8919C65.4511 21.2173 59.4145 0.820224 36.4419 0.815674Z" fill="white"/>
</g>
<path d="M36.5001 42.5835C41.2037 42.5835 45.0167 39.4513 45.0167 35.5876C45.0167 31.7239 41.2037 28.5918 36.5001 28.5918C31.7964 28.5918 27.9834 31.7239 27.9834 35.5876C27.9834 39.4513 31.7964 42.5835 36.5001 42.5835Z" fill="#F589AA"/>
<g opacity="0.25">
<path d="M36.4395 40.3675C31.8156 40.3675 28.0254 38.523 27.6521 34.88C27.6327 35.0796 27.6196 35.2816 27.6196 35.4858C27.6196 40.3248 31.5682 42.7756 36.4395 42.7756C41.3107 42.7756 45.2593 39.958 45.2593 35.4858C45.2583 35.2768 45.2467 35.0679 45.2246 34.8601C44.8393 38.2556 41.0543 40.3675 36.4395 40.3675Z" fill="black"/>
</g>
<g opacity="0.55">
<path d="M36.4395 30.0331C41.1215 30.0331 44.9493 32.6687 45.2394 35.9983C45.2513 35.8277 45.2593 35.657 45.2593 35.4864C45.2593 31.4601 41.3107 28.1965 36.4395 28.1965C31.5682 28.1965 27.6196 31.4601 27.6196 35.4864C27.6196 35.6661 27.627 35.8419 27.6379 36.0154C27.9165 32.6773 31.7495 30.0331 36.4395 30.0331Z" fill="white"/>
</g>
<path d="M36.4999 43.1917C30.5874 43.1917 26.7666 40.0876 26.7666 35.2836C26.7666 30.9225 31.133 27.375 36.4999 27.375C41.8668 27.375 46.2333 30.9225 46.2333 35.2836C46.2333 39.8659 42.1394 43.1917 36.4999 43.1917ZM36.4999 28.9835C32.053 28.9835 28.4352 31.8104 28.4352 35.2836C28.4352 39.928 32.601 41.5831 36.4999 41.5831C41.2482 41.5831 44.5647 38.9929 44.5647 35.2836C44.5647 31.8093 40.9469 28.9835 36.4999 28.9835Z" fill="#151515"/>
<path d="M33.7192 33.3788C33.745 33.4322 33.7681 33.4868 33.7884 33.5426C33.8408 33.6841 33.8846 33.8286 33.9198 33.9752C34.1156 34.8371 34.1156 35.7308 33.9198 36.5927C33.8842 36.7393 33.8401 36.8837 33.7877 37.0254C33.7488 37.1292 33.7186 37.1891 33.7186 37.1891C33.6378 37.3476 33.5138 37.4809 33.3604 37.574C33.2069 37.6672 33.0302 37.7165 32.8498 37.7165C32.6695 37.7165 32.4927 37.6672 32.3393 37.574C32.1858 37.4809 32.0618 37.3476 31.9811 37.1891C31.955 37.1358 31.9319 37.0811 31.9119 37.0254C31.8595 36.8837 31.8155 36.7393 31.7798 36.5927C31.5845 35.7308 31.5845 34.8371 31.7798 33.9752C31.8155 33.8286 31.8595 33.6842 31.9119 33.5426C31.9321 33.4868 31.9552 33.4322 31.9811 33.3788C32.0615 33.2199 32.1854 33.0862 32.3389 32.9928C32.4923 32.8994 32.6693 32.8499 32.8498 32.8499C33.0303 32.8499 33.2073 32.8994 33.3608 32.9928C33.5143 33.0862 33.6382 33.2199 33.7186 33.3788H33.7192Z" fill="#151515"/>
<path d="M41.0194 33.4138C41.0974 33.6069 41.1587 33.8062 41.2028 34.0094C41.2424 34.1872 41.2845 34.3952 41.3108 34.618C41.3372 34.8408 41.3548 35.0785 41.3624 35.3161C41.3817 35.7555 41.3394 36.1954 41.2367 36.6234C41.2005 36.7707 41.1531 36.9152 41.0948 37.0555C41.0726 37.1115 41.0471 37.1661 41.0181 37.2191C40.9312 37.37 40.8051 37.4957 40.6526 37.5831C40.5001 37.6705 40.3268 37.7165 40.1503 37.7165C39.9737 37.7165 39.8004 37.6705 39.6479 37.5831C39.4954 37.4957 39.3693 37.37 39.2824 37.2191C39.2535 37.1661 39.2279 37.1115 39.2058 37.0555C39.1474 36.9152 39.1 36.7707 39.0638 36.6234C38.9611 36.1954 38.9188 35.7555 38.9382 35.3161C38.9457 35.0785 38.9627 34.8408 38.9897 34.618C39.0167 34.3952 39.0581 34.186 39.0977 34.0094C39.1423 33.8066 39.2041 33.6077 39.2824 33.415C39.3545 33.2475 39.4753 33.1045 39.6297 33.004C39.784 32.9035 39.9651 32.8499 40.1503 32.8499C40.3354 32.8499 40.5165 32.9035 40.6708 33.004C40.8252 33.1045 40.946 33.2475 41.0181 33.415L41.0194 33.4138Z" fill="#151515"/>
<path d="M36.1916 52.925C16.9461 52.925 7.02148 45.9681 6.69919 32.2413C6.54003 25.5125 8.79773 15.1415 15.6847 8.04037C20.8611 2.70293 27.7606 0 36.1916 0C44.6226 0 51.5255 2.70692 56.7036 8.04607C63.5928 15.1484 65.8511 25.5205 65.692 32.2441C65.368 45.9658 55.4422 52.925 36.1916 52.925ZM36.1916 1.65198C28.2199 1.65198 21.7164 4.19011 16.8612 9.19624C10.3304 15.929 8.19055 25.7976 8.34235 32.202C8.64538 45.0323 17.755 51.2702 36.1916 51.2702C54.6283 51.2702 63.7458 45.0329 64.0488 32.202C64.2006 25.7993 62.0596 15.9336 55.5277 9.19909C50.6702 4.19126 44.165 1.65084 36.1916 1.65084V1.65198Z" fill="#151515"/>
<path d="M23.7246 32.2415C26.0765 32.2415 27.983 30.335 27.983 27.9832C27.983 25.6314 26.0765 23.7249 23.7246 23.7249C21.3728 23.7249 19.4663 25.6314 19.4663 27.9832C19.4663 30.335 21.3728 32.2415 23.7246 32.2415Z" fill="#151515"/>
<path d="M23.4979 26.3114C23.6243 25.777 23.2926 25.2415 22.7572 25.1154C22.2218 24.9893 21.6853 25.3202 21.5589 25.8546C21.4325 26.389 21.7641 26.9245 22.2996 27.0506C22.835 27.1768 23.3715 26.8458 23.4979 26.3114Z" fill="white"/>
<path d="M48.9708 32.2415C51.1546 32.2415 52.9249 30.335 52.9249 27.9832C52.9249 25.6314 51.1546 23.7249 48.9708 23.7249C46.787 23.7249 45.0166 25.6314 45.0166 27.9832C45.0166 30.335 46.787 32.2415 48.9708 32.2415Z" fill="#151515"/>
<path d="M48.9334 26.3109C49.0598 25.7765 48.7282 25.2411 48.1928 25.1149C47.6573 24.9888 47.1208 25.3198 46.9944 25.8542C46.8681 26.3886 47.1997 26.924 47.7351 27.0502C48.2706 27.1763 48.8071 26.8453 48.9334 26.3109Z" fill="white"/>
<path d="M23.7251 3.52054C23.7251 3.52054 15.6991 -1.02107 11.6737 8.4606C11.6737 8.4606 9.29551 8.92734 7.5522 10.4924C5.75827 12.1031 4.62062 14.8613 6.28632 18.3148C8.51496 22.9365 16.4521 25.5462 18.2022 22.2384C19.8369 19.1478 17.8608 4.20288 23.7251 3.52054Z" fill="#FBC2D3"/>
<g opacity="0.25">
<path d="M18.2051 18.7132C16.4317 21.4859 7.83751 19.2984 5.57912 15.4246C5.22068 14.8097 5.54265 14.2211 5.41956 13.6614C5.16711 14.9536 5.32439 16.4546 6.13018 18.116C8.38857 22.7736 16.4317 25.4036 18.2051 22.07C19.8617 18.9555 17.8592 3.89452 23.8018 3.20688C23.8018 3.20688 23.6992 3.15001 23.5134 3.06128C17.9282 4.00828 19.8344 16.1657 18.2051 18.7132Z" fill="black"/>
</g>
<g opacity="0.55">
<path d="M8.37795 11.9305C10.1445 10.3528 12.5545 9.88298 12.5545 9.88298C15.1275 3.85405 19.3131 3.45136 22.0536 3.97463C22.5449 3.54784 23.1547 3.28042 23.802 3.20793C23.802 3.20793 15.6688 -1.36893 11.5897 8.18635C11.5897 8.18635 9.17976 8.65672 7.41317 10.2339C5.59529 11.8572 4.44302 14.6367 6.1304 18.117C6.33966 18.544 6.58986 18.9497 6.8775 19.3285C5.51951 16.0746 6.64499 13.477 8.37795 11.9305Z" fill="white"/>
</g>
<path d="M15.431 24.3335H15.2947C12.0572 24.2726 7.49178 21.9925 5.76286 18.4156C4.17252 15.1192 4.72061 11.8069 7.23391 9.55411C8.69703 8.24194 10.5322 7.63479 11.3563 7.414C12.7195 4.40897 14.629 2.47086 17.0412 1.65032C20.8143 0.366029 24.3727 2.336 24.5226 2.42079C24.6741 2.50645 24.7947 2.63796 24.867 2.79646C24.9394 2.95497 24.9598 3.13236 24.9254 3.30321C24.891 3.47406 24.8035 3.62961 24.6754 3.74759C24.5473 3.86558 24.3853 3.93993 24.2125 3.96001C20.9438 4.33955 20.528 11.0563 20.2247 15.9602C20.0435 18.8907 19.8998 21.2055 19.2677 22.3988C18.6043 23.6466 17.2445 24.3335 15.431 24.3335ZM19.7101 2.86918C18.9784 2.8648 18.251 2.9819 17.5575 3.21572C15.5128 3.91619 13.881 5.67449 12.7041 8.44167C12.6513 8.56571 12.569 8.67491 12.4643 8.75973C12.3597 8.84454 12.2359 8.90237 12.1038 8.92818C12.0833 8.93217 9.8949 9.3834 8.33296 10.7815C7.40431 11.614 5.44024 13.9533 7.24641 17.6935C8.65727 20.6132 12.5627 22.6298 15.3253 22.681C16.1966 22.6947 17.332 22.5268 17.8119 21.6215C18.2771 20.7435 18.4242 18.3689 18.5798 15.855C18.8752 11.0837 19.2296 5.35128 21.9389 3.17873C21.2127 2.97819 20.4634 2.87412 19.7101 2.86918Z" fill="#151515"/>
<path d="M49.2749 3.52054C49.2749 3.52054 57.3011 -1.02107 61.3261 8.4606C61.3261 8.4606 63.7049 8.92734 65.4483 10.4924C67.2417 12.1031 68.3794 14.8613 66.7136 18.3148C64.4849 22.9365 56.5476 25.5462 54.798 22.2384C53.1632 19.1478 55.1388 4.20288 49.2749 3.52054Z" fill="#FBC2D3"/>
<g opacity="0.25">
<path d="M54.8184 18.7132C56.5912 21.4859 65.186 19.2984 67.4443 15.4246C67.8028 14.8097 67.4808 14.2211 67.6039 13.6614C67.8558 14.9536 67.6985 16.4546 66.8927 18.116C64.6343 22.7736 56.5912 25.4036 54.8184 22.07C53.1618 18.9555 55.1637 3.89452 49.2217 3.20688C49.2217 3.20688 49.3237 3.15001 49.51 3.06128C55.0982 4.00828 53.1891 16.1657 54.8184 18.7132Z" fill="black"/>
</g>
<g opacity="0.55">
<path d="M64.6457 11.9305C62.8791 10.3528 60.4686 9.88298 60.4686 9.88298C57.8962 3.85405 53.7105 3.45136 50.97 3.97463C50.4787 3.54793 49.8689 3.28052 49.2217 3.20793C49.2217 3.20793 57.3548 -1.36893 61.4334 8.18635C61.4334 8.18635 63.8439 8.65672 65.6105 10.2339C67.4278 11.8572 68.5807 14.6367 66.8927 18.117C66.6837 18.5441 66.4335 18.9498 66.1456 19.3285C67.507 16.0746 66.3781 13.477 64.6457 11.9305Z" fill="white"/>
</g>
<path d="M57.8887 24.3335C56.1302 24.3335 54.8128 23.6507 54.169 22.3961C53.5554 21.2013 53.4167 18.8885 53.241 15.9583C52.9469 11.055 52.5437 4.33896 49.3736 3.95946C49.2061 3.93929 49.049 3.86487 48.9249 3.74687C48.8008 3.62886 48.716 3.47331 48.6827 3.3025C48.6494 3.13169 48.6693 2.95436 48.7395 2.79592C48.8096 2.63747 48.9266 2.50603 49.0735 2.42041C49.2189 2.33564 52.6677 0.366456 56.3274 1.65004C58.6664 2.46991 60.5196 4.40837 61.8403 7.41306C62.6389 7.63382 64.4184 8.24091 65.8377 9.55294C68.2747 11.8055 68.8078 15.1174 67.2635 18.4134C65.5871 21.9916 61.1607 24.2737 58.0215 24.3306L57.8887 24.3335ZM51.5739 3.17713C54.2053 5.34716 54.5479 11.0829 54.8359 15.8559C54.9868 18.3696 55.1295 20.7439 55.5805 21.6218C56.0454 22.527 57.1502 22.6954 57.9912 22.6812C60.6706 22.63 64.4575 20.6136 65.825 17.6942C67.5769 13.9544 65.6724 11.6154 64.772 10.783C63.2574 9.38338 61.137 8.9339 61.1139 8.92935C60.9861 8.90334 60.8663 8.84548 60.7651 8.7608C60.6638 8.67613 60.5841 8.56719 60.5329 8.44346C59.3895 5.67033 57.8017 3.91053 55.8141 3.21298C54.2499 2.66507 52.7001 2.86193 51.5739 3.17713Z" fill="#151515"/>
</svg>
