<svg width="226" height="230" viewBox="0 0 226 230" fill="none" xmlns="http://www.w3.org/2000/svg">
<path d="M177.1 149.368C177.339 167.118 56.054 163.09 56.054 163.09C4.50583 151.524 1.65431 115.408 10.8154 106.851C18.8804 99.3168 29.731 104.853 45.8281 116.074C48.2998 117.802 51.0099 119.161 53.8733 120.11C68.2727 124.911 82.7083 118.422 82.7083 118.422L153.492 115.5C157.457 118.545 161.123 121.958 164.441 125.696C169.981 131.946 176.981 140.447 177.1 149.368Z" fill="#FBC2D3"/>
<g opacity="0.25">
<path d="M56.0538 151.181C19.9186 144.693 7.71644 128.547 6.80165 117.109C5.85883 131.389 16.9254 154.312 56.0538 163.089C56.0538 163.089 175.935 167.118 175.7 149.365C175.651 147.032 175.272 144.718 174.575 142.491C162.452 154.043 56.0538 151.181 56.0538 151.181Z" fill="black"/>
</g>
<g opacity="0.55">
<path d="M10.8153 112.139C18.8803 105.309 29.7326 110.327 45.8263 120.508C62.3091 130.939 82.7082 117.709 82.7082 117.709L153.49 115.06C153.49 115.06 174.783 134.136 175.659 149.938C175.687 149.745 175.701 149.551 175.701 149.356C175.467 131.603 153.49 115.485 153.49 115.485L82.7082 118.422C82.7082 118.422 62.3157 127.595 45.8263 116.091C29.7326 104.861 18.8803 99.3248 10.8153 106.859C8.01325 109.483 6.33036 114.698 6.83803 121.002C7.21054 117.089 8.6874 113.941 10.8153 112.139Z" fill="white"/>
</g>
<g opacity="0.25">
<path d="M164.441 125.688C147.846 137.125 125.324 139.996 112.573 139.996C97.9562 139.996 70.5173 136.22 53.873 120.115C68.2724 124.911 82.708 118.422 82.708 118.422L153.492 115.5C157.456 118.542 161.123 121.953 164.441 125.688Z" fill="black"/>
</g>
<path d="M84.3791 165.23C68.1155 165.23 56.1738 164.845 55.9958 164.84C55.8848 164.837 55.7745 164.823 55.6661 164.799C17.9206 156.331 8.46113 135.63 6.15355 127.122C3.77838 118.394 5.17282 109.73 9.62482 105.571C19.1964 96.6306 32.1419 104.391 46.8379 114.646C62.2922 125.429 81.8012 116.903 81.9973 116.814C82.2013 116.724 82.4205 116.673 82.6434 116.663L153.425 113.743C153.797 113.73 154.164 113.833 154.474 114.038C155.487 114.718 179.323 130.88 179.565 149.341C179.587 151.011 178.885 152.558 177.475 153.938C171.263 160.021 148.86 163.694 110.885 164.853C101.589 165.136 92.4507 165.23 84.3791 165.23ZM56.2776 161.344C85.6796 162.304 163.829 162.389 175.011 151.435C175.72 150.741 176.059 150.073 176.05 149.388C175.848 134.06 156.247 119.58 152.974 117.274L83.1066 120.156C80.2864 121.345 60.9851 128.8 44.8237 117.521C28.552 106.168 19.0101 101.599 12.0132 108.134C9.17154 110.789 7.18372 117.575 9.53086 126.206C11.6753 134.087 20.5199 153.272 56.2776 161.344Z" fill="#151515"/>
<path d="M28.5146 179.214L32.6123 222.246L97.2247 222.151L62.8252 163.76C47.4121 165.807 34.1996 169.572 28.5146 179.214Z" fill="#FBC2D3"/>
<g opacity="0.25">
<path d="M49.1263 198.255L29.0965 178.288C28.8954 178.591 28.7015 178.9 28.5146 179.214L32.6123 222.246H97.2247L85.5021 203.165C71.5528 202.474 56.3821 208.658 49.1263 198.255Z" fill="black"/>
</g>
<g opacity="0.55">
<path d="M62.8252 164.471V163.76C47.4121 165.807 34.1996 169.572 28.5146 179.214L30.997 183.288C34.8226 174.79 47.7484 166.258 62.8252 164.471Z" fill="white"/>
</g>
<path d="M38.6411 220.75C48.7173 216.156 52.3426 202.485 46.7386 190.216C41.1346 177.946 28.4232 171.724 18.3471 176.319C8.27089 180.913 4.64551 194.584 10.2496 206.853C15.8536 219.123 28.5649 225.344 38.6411 220.75Z" fill="#FBC2D3"/>
<g opacity="0.55">
<path d="M20.398 180.755C30.1508 176.309 41.4382 179.876 46.7572 190.198C46.5924 189.802 46.9369 190.59 46.7572 190.198C41.1531 177.929 28.4399 171.708 18.364 176.304C8.28808 180.9 4.67012 194.569 10.2743 206.838C10.4534 207.231 10.6402 207.616 10.8347 207.991C6.51124 197.222 10.6451 185.204 20.398 180.755Z" fill="white"/>
</g>
<g opacity="0.25">
<path d="M10.0616 200.89C15.585 210.806 28.252 215.769 38.3559 211.975C44.7084 209.59 48.5324 204.31 49.1257 198.255C50.4889 207.96 46.5577 217.133 38.6625 220.733C28.5866 225.329 15.8784 219.107 10.2742 206.838C8.38348 202.759 7.49083 198.289 7.66996 193.797C8.0134 196.29 8.82481 198.697 10.0616 200.89Z" fill="black"/>
</g>
<path d="M31.6012 223.998C22.3297 223.998 13.2213 217.521 8.67369 207.566C5.79415 201.265 5.10847 194.403 6.74026 188.245C8.40667 181.961 12.2752 177.154 17.6354 174.71C21.6456 172.88 26.1174 172.544 30.6271 173.722C38.397 166.1 51.725 163.465 62.5921 162.029C62.9336 161.982 63.2814 162.037 63.5919 162.187C63.9024 162.336 64.1618 162.574 64.3376 162.871L98.7388 221.261C98.8939 221.527 98.9762 221.829 98.9776 222.137C98.9789 222.444 98.8991 222.747 98.7462 223.014C98.5933 223.281 98.3728 223.503 98.1068 223.658C97.8407 223.813 97.5385 223.895 97.2306 223.896L32.6182 223.992C32.541 223.992 32.4639 223.987 32.3874 223.977C32.1221 223.993 31.8666 223.998 31.6012 223.998ZM25.3971 176.541C23.2222 176.534 21.0714 176.997 19.0924 177.898C14.7047 179.897 11.5236 183.891 10.1308 189.143C8.705 194.518 9.32146 200.546 11.8631 206.105C15.9986 215.153 24.3043 220.927 32.5111 220.463C32.6473 220.457 32.7837 220.465 32.9182 220.487L94.1615 220.397L61.9048 165.654C46.7835 167.77 37.6751 171.253 32.4369 176.887C32.2115 177.131 31.9213 177.305 31.6002 177.39C31.2792 177.476 30.9405 177.468 30.6238 177.368C28.9337 176.829 27.1712 176.55 25.3971 176.541Z" fill="#151515"/>
<path d="M46.1261 190.503L45.7075 189.742C45.5756 189.497 45.4124 189.205 45.213 188.897C45.0135 188.589 44.8124 188.225 44.5537 187.847C43.9772 186.976 43.3509 186.14 42.6779 185.342C42.3153 184.902 41.9148 184.469 41.5077 184.034C41.1005 183.599 40.6654 183.178 40.2138 182.776C39.7621 182.374 39.3039 181.985 38.8473 181.612C38.3908 181.238 37.9177 180.9 37.4512 180.591C36.9848 180.281 36.5249 179.999 36.0964 179.726C35.6464 179.486 35.2376 179.232 34.8354 179.046C34.4333 178.86 34.0772 178.669 33.7459 178.535C33.4146 178.402 33.1344 178.265 32.8921 178.183L32.1405 177.905L32.068 177.878C31.8515 177.798 31.653 177.676 31.4837 177.519C31.3144 177.363 31.1777 177.174 31.0813 176.964C30.985 176.755 30.9309 176.528 30.9222 176.298C30.9134 176.067 30.9502 175.837 31.0304 175.621C31.1106 175.405 31.2326 175.207 31.3896 175.037C31.5465 174.868 31.7352 174.732 31.945 174.635C32.1547 174.539 32.3814 174.485 32.6121 174.476C32.8428 174.468 33.0729 174.504 33.2894 174.584C33.347 174.606 33.4047 174.631 33.4542 174.655L34.2932 175.07C34.5635 175.195 34.875 175.378 35.2343 175.579C35.5936 175.78 35.9909 176.022 36.4178 176.294C36.8447 176.566 37.2864 176.887 37.7611 177.211C38.2128 177.567 38.7072 177.919 39.1753 178.336C39.6435 178.753 40.1264 179.174 40.5995 179.626C41.0725 180.077 41.5307 180.553 41.9609 181.053C42.3911 181.554 42.818 182.055 43.2186 182.563C43.6191 183.072 43.9883 183.588 44.3279 184.098C44.9547 185.02 45.5271 185.978 46.0421 186.967C46.2794 187.389 46.464 187.809 46.6387 188.166C46.8135 188.523 46.9503 188.838 47.0541 189.092C47.27 189.6 47.3838 189.892 47.3838 189.892C47.455 190.058 47.4595 190.245 47.3964 190.414C47.3332 190.583 47.2072 190.721 47.0446 190.8C46.882 190.879 46.6953 190.892 46.5233 190.836C46.3513 190.781 46.2073 190.662 46.1212 190.503H46.1261Z" fill="#151515"/>
<path d="M196.635 179.214L192.537 222.246L127.925 222.151L162.326 163.76C177.739 165.807 190.95 169.572 196.635 179.214Z" fill="#FBC2D3"/>
<g opacity="0.25">
<path d="M176.023 198.255L196.053 178.288C196.254 178.591 196.448 178.9 196.635 179.214L192.537 222.246H127.925L139.647 203.165C153.597 202.474 168.767 208.658 176.023 198.255Z" fill="black"/>
</g>
<g opacity="0.55">
<path d="M162.324 164.471V163.76C177.737 165.807 190.95 169.572 196.635 179.214L194.152 183.288C190.327 174.79 177.409 166.258 162.324 164.471Z" fill="white"/>
</g>
<path d="M214.871 206.808C220.475 194.539 216.85 180.868 206.774 176.274C196.698 171.679 183.986 177.901 178.382 190.17C172.778 202.44 176.404 216.11 186.48 220.705C196.556 225.299 209.267 219.077 214.871 206.808Z" fill="#FBC2D3"/>
<g opacity="0.55">
<path d="M204.752 180.755C194.999 176.309 183.713 179.876 178.392 190.198C178.213 190.59 178.557 189.802 178.392 190.198C183.996 177.929 196.71 171.708 206.786 176.304C216.861 180.9 220.486 194.569 214.88 206.838C214.701 207.231 214.514 207.616 214.32 207.991C218.638 197.222 214.504 185.204 204.752 180.755Z" fill="white"/>
</g>
<g opacity="0.25">
<path d="M215.087 200.89C209.564 210.806 196.897 215.769 186.793 211.975C180.44 209.59 176.616 204.31 176.023 198.255C174.66 207.96 178.591 217.133 186.486 220.733C196.562 225.329 209.275 219.107 214.879 206.838C216.77 202.759 217.663 198.289 217.484 193.797C217.139 196.291 216.326 198.697 215.087 200.89Z" fill="black"/>
</g>
<path d="M193.548 223.998C193.287 223.998 193.025 223.998 192.765 223.983C192.689 223.993 192.617 223.983 192.536 223.998L127.923 223.903C127.615 223.902 127.313 223.82 127.047 223.665C126.78 223.51 126.56 223.288 126.407 223.021C126.254 222.754 126.174 222.451 126.175 222.143C126.176 221.835 126.258 221.533 126.414 221.268L160.816 162.877C160.991 162.58 161.25 162.341 161.56 162.191C161.87 162.04 162.217 161.984 162.559 162.03C173.421 163.471 186.754 166.108 194.525 173.723C199.035 172.544 203.503 172.88 207.515 174.711C212.874 177.155 216.746 181.957 218.41 188.247C220.042 194.404 219.357 201.267 216.477 207.567C211.928 217.521 202.819 223.998 193.548 223.998ZM192.542 220.467H192.638C200.846 220.925 209.15 215.158 213.284 206.11C215.828 200.544 216.444 194.516 215.018 189.147C213.626 183.896 210.444 179.902 206.057 177.903C202.536 176.295 198.547 176.113 194.519 177.372C194.202 177.472 193.863 177.48 193.542 177.395C193.221 177.31 192.931 177.135 192.706 176.891C187.472 171.256 178.366 167.774 163.238 165.658L130.981 220.408L192.233 220.498C192.335 220.478 192.438 220.468 192.542 220.467Z" fill="#151515"/>
<path d="M177.76 189.895C177.76 189.895 177.882 189.604 178.09 189.095C178.194 188.841 178.326 188.532 178.505 188.169C178.685 187.807 178.865 187.392 179.102 186.971C179.617 185.983 180.189 185.025 180.815 184.103C181.154 183.593 181.533 183.082 181.924 182.569C182.315 182.055 182.738 181.547 183.182 181.058C183.625 180.569 184.085 180.093 184.543 179.631C185.001 179.168 185.486 178.738 185.967 178.341C186.448 177.944 186.93 177.572 187.381 177.216C187.856 176.887 188.291 176.557 188.725 176.299C189.158 176.04 189.549 175.779 189.908 175.584C190.268 175.39 190.579 175.2 190.849 175.075L191.688 174.66C192.106 174.454 192.589 174.422 193.031 174.571C193.472 174.721 193.836 175.039 194.043 175.457C194.249 175.874 194.282 176.357 194.132 176.798C193.983 177.239 193.664 177.603 193.246 177.809C193.192 177.836 193.137 177.86 193.081 177.882L193.005 177.908L192.254 178.186C192.011 178.269 191.73 178.399 191.402 178.539C191.074 178.679 190.708 178.853 190.31 179.049C189.913 179.245 189.501 179.489 189.049 179.729C188.621 180.003 188.148 180.266 187.695 180.594C187.241 180.922 186.767 181.253 186.298 181.615C185.83 181.977 185.369 182.364 184.932 182.779C184.495 183.194 184.055 183.603 183.638 184.038C183.221 184.472 182.831 184.905 182.468 185.345C181.795 186.144 181.169 186.98 180.592 187.85C180.325 188.229 180.122 188.586 179.933 188.901C179.743 189.215 179.574 189.5 179.438 189.745L179.02 190.506C178.934 190.665 178.79 190.785 178.618 190.84C178.446 190.895 178.259 190.882 178.096 190.803C177.934 190.725 177.808 190.586 177.745 190.417C177.681 190.248 177.686 190.061 177.757 189.895H177.76Z" fill="#151515"/>
<path d="M112.38 1.75049C53.4593 1.75049 38.3282 54.5074 38.9726 81.5323C39.6171 108.557 55.3928 132.036 112.38 132.036C169.368 132.036 185.157 108.551 185.816 81.5323C186.475 54.514 171.3 1.75049 112.38 1.75049Z" fill="#FBC2D3"/>
<g opacity="0.25">
<path d="M112.38 120.563C56.6929 120.563 40.3601 100.114 39.0431 76.1882C38.9525 78.059 38.931 79.8475 38.9723 81.5355C39.6151 108.557 55.3924 132.04 112.38 132.04C169.367 132.04 185.156 108.55 185.816 81.5322C185.855 79.8442 185.834 78.0557 185.745 76.1865C184.418 100.109 168.065 120.563 112.38 120.563Z" fill="black"/>
</g>
<g opacity="0.55">
<path d="M112.398 1.75195H112.38C53.8995 1.75195 38.559 53.7217 38.9628 80.9178C39.3716 55.8626 53.6819 12.4087 103.112 7.57358C103.473 10.3732 107.483 12.5767 112.39 12.5767C117.297 12.5767 121.306 10.3716 121.668 7.57523C171.084 12.4219 185.407 55.8692 185.816 80.9195C186.221 53.725 170.864 1.76183 112.398 1.75195Z" fill="white"/>
</g>
<path d="M129.311 103.073C129.311 103.073 127.579 112.702 122.654 119.212C120.129 122.542 116.776 125.057 112.387 125.057C107.997 125.057 104.64 122.542 102.118 119.212C97.1945 112.702 95.4688 103.073 95.4688 103.073C106.291 109.023 117.556 109.275 129.311 103.073Z" fill="#151515"/>
<path d="M122.654 119.212C120.129 122.542 116.776 125.057 112.387 125.057C107.998 125.057 104.64 122.542 102.118 119.212C104.643 115.884 107.996 113.368 112.387 113.368C116.778 113.368 120.129 115.884 122.654 119.212Z" fill="#F75263"/>
<path d="M112.391 126.821C98.1116 126.821 93.9151 104.348 93.7436 103.391C93.6826 103.065 93.7158 102.728 93.8393 102.419C93.9628 102.111 94.1715 101.844 94.4411 101.65C94.7107 101.456 95.03 101.342 95.3618 101.322C95.6936 101.303 96.0242 101.378 96.3149 101.539C106.91 107.36 117.436 107.355 128.494 101.525C128.785 101.372 129.112 101.304 129.44 101.327C129.768 101.351 130.082 101.467 130.347 101.66C130.613 101.854 130.818 102.118 130.94 102.423C131.063 102.727 131.097 103.06 131.039 103.383C130.866 104.34 126.668 126.821 112.391 126.821ZM98.0506 106.311C99.717 112.189 103.984 123.317 112.391 123.317C120.818 123.317 125.082 112.118 126.742 106.252C117.055 110.394 107.436 110.413 98.0572 106.303L98.0506 106.311Z" fill="#151515"/>
<path d="M112.39 108.646C124.786 108.646 134.834 100.331 134.834 90.0745C134.834 79.8177 124.786 71.5029 112.39 71.5029C99.9941 71.5029 89.9453 79.8177 89.9453 90.0745C89.9453 100.331 99.9941 108.646 112.39 108.646Z" fill="#F589AA"/>
<g opacity="0.25">
<path d="M112.39 102.51C100.623 102.51 90.9771 97.8096 90.0277 88.5296C89.9745 89.0423 89.947 89.5573 89.9453 90.0727C89.9453 102.401 99.9998 108.644 112.39 108.644C124.78 108.644 134.834 101.467 134.834 90.0727C134.832 89.5385 134.803 89.0048 134.745 88.4736C133.765 97.1295 124.134 102.51 112.39 102.51Z" fill="black"/>
</g>
<g opacity="0.55">
<path d="M112.39 76.1816C124.304 76.1816 134.045 82.8975 134.783 91.3788C134.813 90.949 134.834 90.5158 134.834 90.0728C134.834 79.8162 124.78 71.5029 112.39 71.5029C99.9998 71.5029 89.9453 79.8162 89.9453 90.0728C89.9453 90.5323 89.9634 90.9786 89.9915 91.42C90.7002 82.9189 100.455 76.1816 112.39 76.1816Z" fill="white"/>
</g>
<path d="M112.39 110.395C97.6904 110.395 88.1914 102.418 88.1914 90.0731C88.1914 78.8663 99.047 69.751 112.39 69.751C125.733 69.751 136.588 78.8663 136.588 90.0731C136.588 101.848 126.41 110.395 112.39 110.395ZM112.39 73.2538C100.98 73.2538 91.6989 80.7997 91.6989 90.0731C91.6989 102.474 102.386 106.892 112.39 106.892C124.572 106.892 133.081 99.9757 133.081 90.0731C133.081 80.7997 123.797 73.2538 112.39 73.2538Z" fill="#151515"/>
<path d="M105.812 85.1866C105.988 85.6383 106.123 86.1052 106.214 86.5815C106.418 87.5919 106.519 88.6205 106.514 89.6513C106.52 90.6816 106.42 91.7098 106.214 92.7193C106.123 93.1956 105.988 93.6626 105.812 94.1142C105.666 94.4589 105.422 94.753 105.111 94.9598C104.799 95.1666 104.433 95.2769 104.059 95.2769C103.684 95.2769 103.318 95.1666 103.007 94.9598C102.695 94.753 102.451 94.4589 102.306 94.1142C102.129 93.6626 101.995 93.1956 101.904 92.7193C101.504 90.6929 101.504 88.6079 101.904 86.5815C101.995 86.1052 102.129 85.6383 102.306 85.1866C102.451 84.842 102.695 84.5479 103.007 84.3411C103.318 84.1342 103.684 84.0239 104.059 84.0239C104.433 84.0239 104.799 84.1342 105.111 84.3411C105.422 84.5479 105.666 84.842 105.812 85.1866Z" fill="#151515"/>
<path d="M122.474 85.1869C122.635 85.6413 122.759 86.1077 122.847 86.5818C123.042 87.5938 123.15 88.6209 123.168 89.6515C123.209 90.6808 123.123 91.7112 122.913 92.7196C122.816 93.1988 122.669 93.6664 122.474 94.1145C122.317 94.4464 122.069 94.7269 121.758 94.9233C121.448 95.1198 121.088 95.2241 120.72 95.2241C120.353 95.2241 119.993 95.1198 119.682 94.9233C119.372 94.7269 119.124 94.4464 118.967 94.1145C118.771 93.6664 118.624 93.1988 118.528 92.7196C118.317 91.7112 118.232 90.6808 118.273 89.6515C118.291 88.6209 118.398 87.5938 118.594 86.5818C118.681 86.1077 118.806 85.6413 118.967 85.1869C119.102 84.8313 119.342 84.5252 119.655 84.3092C119.968 84.0932 120.34 83.9775 120.72 83.9775C121.101 83.9775 121.473 84.0932 121.786 84.3092C122.099 84.5252 122.339 84.8313 122.474 85.1869Z" fill="#151515"/>
<path d="M112.38 133.785C85.6783 133.785 65.843 128.563 53.4265 118.262C43.0424 109.651 37.5932 97.3059 37.219 81.5703C36.8136 64.5484 42.5693 38.2959 60.1301 20.3304C73.3163 6.83938 90.8951 0 112.38 0C133.866 0 151.458 6.84267 164.647 20.3386C182.208 38.3074 187.965 64.555 187.558 81.5703C186.734 116.218 161.44 133.785 112.38 133.785ZM112.38 3.50285C91.8726 3.50285 75.1294 9.98816 62.6371 22.771C45.8412 39.9576 40.3359 65.1396 40.7249 81.4813C41.5078 114.315 64.9546 130.276 112.38 130.276C159.806 130.276 183.273 114.315 184.054 81.4813C184.445 65.1446 178.944 39.9691 162.132 22.7793C149.633 9.99145 132.892 3.50285 112.38 3.50285Z" fill="#151515"/>
<path d="M80.0229 82.0694C85.4456 82.0694 89.8417 77.0431 89.8417 70.8428C89.8417 64.6425 85.4456 59.6162 80.0229 59.6162C74.6001 59.6162 70.2041 64.6425 70.2041 70.8428C70.2041 77.0431 74.6001 82.0694 80.0229 82.0694Z" fill="#151515"/>
<path d="M77.0028 68.6624C78.4029 68.6624 79.5379 67.5284 79.5379 66.1295C79.5379 64.7307 78.4029 63.5967 77.0028 63.5967C75.6028 63.5967 74.4678 64.7307 74.4678 66.1295C74.4678 67.5284 75.6028 68.6624 77.0028 68.6624Z" fill="white"/>
<path d="M144.755 82.0694C150.178 82.0694 154.574 77.0431 154.574 70.8428C154.574 64.6425 150.178 59.6162 144.755 59.6162C139.333 59.6162 134.937 64.6425 134.937 70.8428C134.937 77.0431 139.333 82.0694 144.755 82.0694Z" fill="#151515"/>
<path d="M141.736 68.6624C143.136 68.6624 144.271 67.5284 144.271 66.1295C144.271 64.7307 143.136 63.5967 141.736 63.5967C140.336 63.5967 139.201 64.7307 139.201 66.1295C139.201 67.5284 140.336 68.6624 141.736 68.6624Z" fill="white"/>
<path d="M80.2308 7.84557C80.2308 7.84557 59.5334 -3.81415 49.1542 20.5263C49.1542 20.5263 43.0209 21.7252 38.5244 25.7436C33.8994 29.8788 30.9654 36.9586 35.2609 45.8253C41.0084 57.6826 61.4767 64.3903 65.9897 55.8975C70.2043 47.9662 65.1095 9.59782 80.2308 7.84557Z" fill="#FBC2D3"/>
<g opacity="0.25">
<path d="M65.9862 47.3454C61.4732 54.4104 39.6022 48.8375 33.8547 38.9679C32.9432 37.4017 33.7624 35.9014 33.4492 34.4785C32.8064 37.7723 33.2069 41.5946 35.2623 45.827C41.0098 57.6843 61.4781 64.392 65.9911 55.8992C70.2057 47.9663 65.1109 9.59789 80.2322 7.84564C80.2322 7.84564 79.9734 7.69907 79.4987 7.4751C65.2757 9.88444 70.1349 40.8552 65.9862 47.3454Z" fill="black"/>
</g>
<g opacity="0.55">
<path d="M40.9799 30.0666C45.4748 26.0482 51.608 24.8493 51.608 24.8493C58.1566 9.49572 68.8078 8.46644 75.7816 9.79874C77.032 8.71096 78.5843 8.02964 80.232 7.84557C80.232 7.84557 59.5346 -3.81415 49.1554 20.5263C49.1554 20.5263 43.0222 21.7236 38.5257 25.7436C33.9006 29.8788 30.9683 36.9586 35.2621 45.8253C35.7948 46.912 36.4318 47.9445 37.1642 48.9082C33.7061 40.6229 36.5708 34.0075 40.9799 30.0666Z" fill="white"/>
</g>
<path d="M58.215 61.4688H57.8722C49.7083 61.3157 38.2017 55.5863 33.8453 46.5944C29.8515 38.3486 31.2245 30.0683 37.5193 24.4426C41.3103 21.0583 46.0804 19.5432 48.0682 19.0278C51.5098 11.3814 56.3426 6.45734 62.4461 4.38725C71.9287 1.166 80.8788 6.10656 81.2563 6.31901C81.579 6.50063 81.8359 6.77968 81.9901 7.11615C82.1443 7.45262 82.1879 7.82924 82.1147 8.19201C82.0415 8.55479 81.8552 8.88509 81.5826 9.13557C81.3099 9.38606 80.9649 9.54386 80.597 9.58636C71.9584 10.586 70.887 27.8664 70.104 40.4698C69.6442 47.8889 69.2799 53.7484 67.7009 56.7209C66.0707 59.794 62.7082 61.4688 58.215 61.4688ZM69.1381 6.81306C67.2332 6.80182 65.3396 7.10565 63.534 7.71224C58.215 9.52378 53.974 14.0707 50.9263 21.2164C50.8146 21.4798 50.6399 21.7117 50.4174 21.8918C50.195 22.0718 49.9316 22.1945 49.6506 22.249C49.5962 22.2605 43.9179 23.4183 39.8532 27.0529C37.4237 29.2234 32.2827 35.3267 37.0001 45.0662C40.6559 52.6153 50.7764 57.8309 57.9332 57.9643C60.2506 58.0121 63.2901 57.5411 64.5988 55.079C65.8218 52.7734 66.1993 46.6933 66.5982 40.2574C67.3679 27.8598 68.2959 12.8916 75.6093 7.81435C73.5119 7.17049 71.3322 6.83323 69.1381 6.81306Z" fill="#151515"/>
<path d="M144.919 7.84557C144.919 7.84557 165.616 -3.81415 175.996 20.5263C175.996 20.5263 182.129 21.7252 186.625 25.7436C191.25 29.8788 194.184 36.9586 189.889 45.8253C184.141 57.6826 163.681 64.3903 159.162 55.8975C154.945 47.9662 160.04 9.59782 144.919 7.84557Z" fill="#FBC2D3"/>
<g opacity="0.25">
<path d="M159.162 47.3454C163.673 54.4104 185.544 48.8375 191.292 38.9679C192.205 37.4017 191.386 35.9014 191.699 34.4785C192.34 37.7723 191.94 41.5946 189.886 45.827C184.138 57.6843 163.678 64.392 159.159 55.8992C154.942 47.9663 160.037 9.59789 144.916 7.84564C144.916 7.84564 145.176 7.69907 145.65 7.4751C159.874 9.88444 155.015 40.8552 159.162 47.3454Z" fill="black"/>
</g>
<g opacity="0.55">
<path d="M184.168 30.0666C179.673 26.0482 173.54 24.8493 173.54 24.8493C166.993 9.49572 156.34 8.46644 149.366 9.79874C148.116 8.71096 146.564 8.02964 144.916 7.84557C144.916 7.84557 165.613 -3.81415 175.993 20.5263C175.993 20.5263 182.126 21.7236 186.622 25.7436C191.247 29.8788 194.181 36.9586 189.886 45.8253C189.354 46.912 188.717 47.9444 187.985 48.9082C191.445 40.6229 188.579 34.0075 184.168 30.0666Z" fill="white"/>
</g>
<path d="M166.935 61.4689C162.44 61.4689 159.081 59.7908 157.449 56.7211C155.87 53.7485 155.505 47.8874 155.046 40.4683C154.263 27.8583 153.191 10.5861 144.554 9.5865C144.186 9.54399 143.841 9.38619 143.569 9.13571C143.296 8.88522 143.11 8.55492 143.037 8.19215C142.963 7.82938 143.007 7.45276 143.161 7.11629C143.315 6.77981 143.572 6.50077 143.895 6.31914C144.271 6.10834 153.221 1.16284 162.712 4.38409C168.81 6.45418 173.648 11.3783 177.088 19.0246C179.066 19.5401 183.846 21.0552 187.637 24.4395C193.932 30.0651 195.305 38.3455 191.311 46.5913C186.955 55.5831 175.448 61.3141 167.284 61.4657L166.935 61.4689ZM149.525 7.80295C156.847 12.8736 157.777 27.8501 158.547 40.246C158.945 46.6851 159.323 52.762 160.546 55.0676C161.855 57.5297 164.892 57.999 167.211 57.9529C174.37 57.8195 184.49 52.6039 188.145 45.0548C192.862 35.3153 187.719 29.212 185.29 27.0415C181.2 23.3986 175.553 22.259 175.497 22.2459C175.216 22.1916 174.952 22.069 174.73 21.889C174.507 21.7089 174.332 21.4769 174.22 21.2133C171.167 14.0561 166.916 9.50909 161.584 7.70085C157.058 6.16598 152.581 6.88071 149.525 7.80295Z" fill="#151515"/>
<path d="M168.215 209.733H53.9239C50.4656 209.733 47.6621 212.534 47.6621 215.99V215.991C47.6621 219.447 50.4656 222.248 53.9239 222.248H168.215C171.674 222.248 174.477 219.447 174.477 215.991V215.99C174.477 212.534 171.674 209.733 168.215 209.733Z" fill="#D3D2D2"/>
<g opacity="0.25">
<path d="M168.214 209.733H165.642C166.138 209.733 166.629 209.831 167.087 210.02C167.546 210.21 167.962 210.488 168.312 210.838C168.663 211.189 168.941 211.605 169.131 212.062C169.321 212.52 169.419 213.011 169.419 213.506V213.661C169.419 214.157 169.321 214.647 169.131 215.105C168.941 215.563 168.663 215.979 168.312 216.329C167.962 216.679 167.546 216.957 167.087 217.147C166.629 217.336 166.138 217.434 165.642 217.434H51.4382C50.6119 217.431 49.8093 217.157 49.1541 216.654C48.4989 216.151 48.0274 215.446 47.812 214.649C47.6118 215.563 47.619 216.51 47.8332 217.42C48.0473 218.33 48.463 219.181 49.0496 219.91C49.6363 220.639 50.3789 221.227 51.223 221.631C52.0671 222.035 52.9911 222.246 53.9271 222.246H168.217C169.878 222.246 171.471 221.587 172.646 220.413C173.82 219.24 174.48 217.648 174.48 215.988C174.48 214.328 173.82 212.737 172.646 211.563C171.471 210.389 169.878 209.73 168.217 209.73L168.214 209.733Z" fill="black"/>
</g>
<path d="M168.214 223.998H53.9238C51.7979 223.998 49.7591 223.154 48.2559 221.653C46.7527 220.151 45.9082 218.114 45.9082 215.99C45.9082 213.866 46.7527 211.829 48.2559 210.327C49.7591 208.825 51.7979 207.981 53.9238 207.981H168.214C170.339 207.981 172.378 208.825 173.881 210.327C175.385 211.829 176.229 213.866 176.229 215.99C176.229 218.114 175.385 220.151 173.881 221.653C172.378 223.154 170.339 223.998 168.214 223.998ZM53.9238 211.482C52.7277 211.482 51.5807 211.957 50.7349 212.802C49.8892 213.647 49.4141 214.793 49.4141 215.988C49.4141 217.183 49.8892 218.329 50.7349 219.174C51.5807 220.019 52.7277 220.494 53.9238 220.494H168.214C169.41 220.494 170.557 220.019 171.402 219.174C172.248 218.329 172.723 217.183 172.723 215.988C172.723 214.793 172.248 213.647 171.402 212.802C170.557 211.957 169.41 211.482 168.214 211.482H53.9238Z" fill="#151515"/>
<path d="M184.948 135.879L184.882 136.397L177.021 202.501C176.785 204.495 175.825 206.333 174.323 207.666C172.82 209 170.88 209.736 168.87 209.735H56.275C54.2655 209.735 52.3258 208.999 50.8235 207.666C49.3212 206.332 48.3607 204.494 48.1242 202.501L40.2125 135.879C40.0747 134.729 40.1822 133.563 40.5281 132.457C40.8739 131.352 41.4502 130.332 42.219 129.465C42.9878 128.599 43.9317 127.904 44.9885 127.428C46.0452 126.953 47.1909 126.706 48.3501 126.704H176.79C177.95 126.705 179.096 126.951 180.153 127.427C181.21 127.902 182.155 128.596 182.925 129.462C183.695 130.328 184.273 131.347 184.62 132.452C184.967 133.557 185.077 134.723 184.941 135.874L184.948 135.879Z" fill="#D3D2D2"/>
<g opacity="0.55">
<path d="M40.4513 137.939C41.4023 134.742 44.5423 132.339 48.363 132.339H176.803C177.99 132.328 179.166 132.569 180.253 133.044C181.34 133.52 182.314 134.22 183.111 135.099C183.846 135.917 184.391 136.888 184.705 137.942L184.888 136.4L184.954 135.882C185.09 134.731 184.98 133.565 184.633 132.46C184.285 131.355 183.708 130.336 182.938 129.469C182.168 128.603 181.223 127.91 180.166 127.435C179.109 126.959 177.963 126.713 176.803 126.712H48.3498C47.1909 126.713 46.0452 126.959 44.9883 127.434C43.9314 127.909 42.9872 128.602 42.2178 129.468C41.4484 130.334 40.8713 131.353 40.5245 132.458C40.1777 133.563 40.069 134.728 40.2057 135.878L40.4513 137.939Z" fill="white"/>
</g>
<g opacity="0.25">
<path d="M184.882 136.392L177.021 202.495C176.785 204.489 175.825 206.327 174.323 207.661C172.82 208.995 170.88 209.731 168.87 209.73H56.275C55.0243 209.731 53.79 209.446 52.6667 208.896C51.5433 208.347 50.5606 207.548 49.7939 206.561C50.2423 205.629 50.539 205.051 50.539 205.051C152.533 205.051 183.105 129.663 183.105 129.663L184.882 136.392Z" fill="black"/>
</g>
<path d="M168.871 211.484H56.2775C53.8398 211.483 51.4872 210.589 49.6648 208.971C47.8424 207.354 46.6765 205.125 46.3878 202.706L38.4596 136.083C38.2931 134.687 38.4246 133.271 38.8456 131.929C39.2665 130.587 39.9673 129.35 40.9018 128.299C41.8362 127.247 42.9831 126.406 44.2668 125.829C45.5505 125.253 46.9419 124.955 48.3493 124.955H176.793C178.2 124.955 179.592 125.253 180.875 125.829C182.159 126.406 183.306 127.247 184.24 128.299C185.175 129.35 185.876 130.587 186.297 131.929C186.717 133.271 186.849 134.687 186.682 136.083L178.759 202.706C178.471 205.124 177.305 207.353 175.483 208.971C173.661 210.588 171.309 211.482 168.871 211.484ZM48.3493 128.458C47.4372 128.458 46.5356 128.651 45.7037 129.025C44.8718 129.398 44.1286 129.944 43.523 130.625C42.9174 131.306 42.4631 132.108 42.1901 132.978C41.9171 133.847 41.8316 134.765 41.9391 135.669L49.864 202.293C50.0512 203.86 50.8069 205.305 51.9881 206.353C53.1694 207.401 54.6943 207.981 56.2742 207.981H168.868C170.448 207.981 171.973 207.401 173.154 206.353C174.335 205.305 175.091 203.86 175.278 202.293L183.203 135.669C183.311 134.765 183.225 133.847 182.952 132.978C182.679 132.108 182.225 131.306 181.619 130.625C181.014 129.944 180.27 129.398 179.438 129.025C178.607 128.651 177.705 128.458 176.793 128.458H48.3493Z" fill="#151515"/>
<path d="M122.126 182.455C122.126 187.725 117.851 184.159 112.566 184.159C107.282 184.159 103.015 187.726 103.015 182.455C103.015 179.924 104.021 177.496 105.812 175.706C107.604 173.917 110.033 172.911 112.566 172.911C115.1 172.911 117.529 173.917 119.321 175.706C121.112 177.496 122.118 179.924 122.118 182.455H122.126Z" fill="white"/>
<path d="M112.575 171.293C114.789 171.293 116.584 169.022 116.584 166.222C116.584 163.422 114.789 161.151 112.575 161.151C110.361 161.151 108.566 163.422 108.566 166.222C108.566 169.022 110.361 171.293 112.575 171.293Z" fill="white"/>
<path d="M105.326 173.357C106.898 172.781 107.58 170.702 106.85 168.713C106.119 166.724 104.253 165.579 102.682 166.155C101.11 166.732 100.428 168.811 101.158 170.799C101.889 172.788 103.755 173.933 105.326 173.357Z" fill="white"/>
<path d="M123.991 170.802C124.722 168.814 124.04 166.734 122.468 166.158C120.896 165.582 119.03 166.727 118.3 168.716C117.57 170.704 118.252 172.783 119.823 173.36C121.395 173.936 123.261 172.791 123.991 170.802Z" fill="white"/>
<path d="M195.561 157.706C196.399 147.734 190.21 139.073 181.736 138.362C173.263 137.651 165.714 145.159 164.876 155.132C164.038 165.104 170.227 173.765 178.701 174.476C187.174 175.187 194.723 167.679 195.561 157.706Z" fill="#FBC2D3"/>
<g opacity="0.55">
<path d="M181.329 143.251C189.427 143.932 195.519 150.875 195.409 159.015C195.473 158.585 195.527 158.151 195.564 157.709C196.403 147.736 190.213 139.075 181.74 138.364C173.266 137.652 165.718 145.16 164.879 155.133C164.842 155.575 164.823 156.013 164.813 156.451C166.065 148.403 173.23 142.573 181.329 143.251Z" fill="white"/>
</g>
<g opacity="0.25">
<path d="M179.356 166.709C171.511 166.051 165.501 160.066 165.181 152.966C165.045 153.683 164.945 154.407 164.883 155.134C164.044 165.107 170.233 173.768 178.707 174.479C187.181 175.191 194.73 167.681 195.567 157.709C195.628 156.982 195.651 156.252 195.636 155.522C194.128 162.467 187.204 167.368 179.356 166.709Z" fill="black"/>
</g>
<path d="M179.808 176.278C179.394 176.278 178.977 176.26 178.557 176.225C173.942 175.836 169.788 173.377 166.872 169.297C164.021 165.306 162.692 160.224 163.132 154.987C164.051 144.067 172.455 135.823 181.887 136.618C186.502 137.005 190.655 139.465 193.571 143.545C196.423 147.537 197.751 152.619 197.311 157.856C196.434 168.289 188.714 176.278 179.808 176.278ZM180.632 140.068C173.53 140.068 167.35 146.672 166.622 155.28C166.251 159.69 167.352 163.946 169.722 167.261C172.03 170.489 175.269 172.432 178.845 172.733C186.334 173.366 193.057 166.556 193.812 157.561C194.183 153.152 193.082 148.897 190.713 145.582C188.405 142.352 185.165 140.409 181.588 140.109C181.272 140.083 180.95 140.068 180.632 140.068Z" fill="#151515"/>
</svg>
