<svg width="85" height="85" viewBox="0 0 85 85" fill="none" xmlns="http://www.w3.org/2000/svg">
<rect width="85" height="85" rx="16" fill="#3B3B47"/>
<path d="M40.1938 31.4114L39.7188 34L42.2057 32.7781C42.2965 32.7334 42.3975 32.7101 42.5 32.7101C42.6025 32.7101 42.7035 32.7334 42.7943 32.7781L45.2812 33.9994L44.8062 31.4108C44.7888 31.3164 44.7963 31.2195 44.828 31.1283C44.8597 31.0372 44.9146 30.9547 44.988 30.8878L47 29.0549L44.2201 28.6779C44.1186 28.6642 44.0222 28.6275 43.9393 28.5712C43.8563 28.5149 43.7893 28.4406 43.7439 28.3547L42.5 26L41.2566 28.3547C41.2112 28.4406 41.1442 28.5149 41.0612 28.5712C40.9783 28.6275 40.8819 28.6642 40.7804 28.6779L38 29.0555L40.012 30.8884C40.0854 30.9553 40.1403 31.0378 40.172 31.1289C40.2037 31.22 40.2112 31.317 40.1938 31.4114V31.4114Z" fill="white"/>
<path d="M27.0735 22.3472C27.0701 23.265 27.0666 24.2143 26.7773 25.0572C26.5001 25.865 25.9315 26.5998 25.3818 27.3104C24.6712 28.2286 24 29.096 24 29.9999C24 30.9039 24.6712 31.7714 25.3818 32.6897C25.9316 33.4003 26.5001 34.135 26.7773 34.9428C27.0666 35.7858 27.0701 36.7349 27.0735 37.6528C27.0778 38.7853 27.0818 39.8548 27.6059 40.5365C28.13 41.2181 29.1693 41.5127 30.2705 41.8256C31.171 42.0816 32.1023 42.3464 32.8452 42.8583C33.5728 43.3595 34.1356 44.1232 34.6798 44.8619C35.3595 45.7844 36.0015 46.6557 36.8538 46.9176C37.6472 47.1615 38.6503 46.8206 39.7123 46.4595C40.6196 46.1512 41.5583 45.8322 42.5001 45.8322C43.4418 45.8322 44.3805 46.1512 45.2878 46.4595C46.35 46.821 47.3528 47.1614 48.1464 46.9176C48.9987 46.6558 49.6406 45.7844 50.3202 44.862C50.8646 44.1234 51.4272 43.3595 52.1548 42.8584C52.8979 42.3464 53.8291 42.0817 54.7298 41.8256C55.8309 41.5127 56.8709 41.2169 57.3943 40.5365C57.9176 39.856 57.9223 38.7852 57.9266 37.6528C57.93 36.7348 57.9337 35.7857 58.2228 34.9427C58.5 34.135 59.0685 33.4002 59.6184 32.6896C60.3288 31.7714 61 30.904 61 29.9999C61 29.0959 60.329 28.2286 59.6184 27.3104C59.0686 26.5998 58.5 25.865 58.2228 25.057C57.9337 24.2142 57.93 23.265 57.9266 22.3472C57.9223 21.2147 57.9184 20.1452 57.3943 19.4635C56.8702 18.7819 55.8308 18.4873 54.7296 18.1744C53.8291 17.9184 52.8979 17.6536 52.1549 17.1417C51.4274 16.6405 50.8652 15.8768 50.3204 15.1381C49.6406 14.2156 48.9987 13.3442 48.1464 13.0824C47.3528 12.8386 46.3498 13.1794 45.2878 13.5405C44.3805 13.8488 43.4418 14.1678 42.5001 14.1678C41.5583 14.1678 40.6196 13.8488 39.7123 13.5405C38.6502 13.179 37.6472 12.8386 36.8537 13.0824C36.0015 13.3442 35.3595 14.2156 34.6799 15.138C34.1362 15.8766 33.5729 16.6405 32.8452 17.1416C32.1023 17.6536 31.171 17.9183 30.2704 18.1744C29.1692 18.4873 28.1292 18.783 27.6059 19.4635C27.0825 20.1441 27.0772 21.2148 27.0735 22.3472V22.3472ZM42.4994 17.733C49.5392 17.733 55.2665 23.2359 55.2665 30.0002C55.2665 36.7644 49.5387 42.2673 42.4994 42.2673C35.4602 42.2673 29.7324 36.7644 29.7324 30.0002C29.7324 23.2359 35.4597 17.733 42.4994 17.733Z" fill="white"/>
<path d="M48.1975 48.3837C48.1183 48.4068 48 48.4265 48 48.4434V69.2998L51 71V46C50.2174 47.0008 49.4537 48.016 48.1975 48.3837V48.3837Z" fill="white"/>
<path d="M34 46V71L37 69.2998V48.4432C37 48.4263 36.8817 48.4064 36.8025 48.3835C35.5463 48.0158 34.7826 47.0008 34 46Z" fill="white"/>
<path d="M47 48.1545C46.25 48.0656 45.5594 47.8155 44.8577 47.57C44.0577 47.2897 43.2159 47 42.4939 47C41.7719 47 40.9389 47.2897 40.1392 47.57C39.4375 47.8155 38.75 48.0659 38 48.1554V69L42.1711 66.516C42.2704 66.4586 42.3827 66.4283 42.4969 66.4283C42.6112 66.4283 42.7235 66.4586 42.8228 66.516L47 69V48.1545ZM41.125 60.9303C41.125 61.0988 41.0592 61.2604 40.9419 61.3795C40.8247 61.4987 40.6658 61.5656 40.5 61.5656C40.3342 61.5656 40.1753 61.4987 40.0581 61.3795C39.9408 61.2604 39.875 61.0988 39.875 60.9303V53.1568C39.875 52.9883 39.9408 52.8267 40.0581 52.7075C40.1753 52.5884 40.3342 52.5214 40.5 52.5214C40.6658 52.5214 40.8247 52.5884 40.9419 52.7075C41.0592 52.8267 41.125 52.9883 41.125 53.1568V60.9303ZM41.125 50.384C41.125 50.5525 41.0592 50.7141 40.9419 50.8332C40.8247 50.9524 40.6658 51.0193 40.5 51.0193C40.3342 51.0193 40.1753 50.9524 40.0581 50.8332C39.9408 50.7141 39.875 50.5525 39.875 50.384V49.7767C39.875 49.6082 39.9408 49.4466 40.0581 49.3275C40.1753 49.2083 40.3342 49.1414 40.5 49.1414C40.6658 49.1414 40.8247 49.2083 40.9419 49.3275C41.0592 49.4466 41.125 49.6082 41.125 49.7767V50.384Z" fill="white"/>
<path d="M42.5 41C48.8411 41 54 36.0656 54 30C54 23.9344 48.8411 19 42.5 19C36.1589 19 31 23.9346 31 30C31 36.0654 36.1589 41 42.5 41ZM36.0428 28.5139C36.0794 28.4035 36.1465 28.3054 36.2367 28.2307C36.3269 28.1559 36.4365 28.1075 36.5532 28.0908L40.2707 27.5592L41.9332 24.2432C41.9854 24.139 42.0661 24.0514 42.1663 23.9901C42.2664 23.9288 42.382 23.8963 42.5 23.8963C42.618 23.8963 42.7336 23.9288 42.8337 23.9901C42.9339 24.0514 43.0146 24.139 43.0668 24.2432L44.7293 27.5592L48.4468 28.0908C48.5636 28.1075 48.6732 28.156 48.7634 28.2308C48.8536 28.3057 48.9207 28.4038 48.9571 28.5143C48.9936 28.6247 48.9979 28.743 48.9696 28.8557C48.9413 28.9684 48.8816 29.0711 48.7971 29.1521L46.1072 31.7332L46.7422 35.3778C46.7621 35.4922 46.7491 35.6099 46.7047 35.7174C46.6602 35.825 46.5861 35.9181 46.4907 35.9864C46.3953 36.0546 46.2824 36.0952 46.1647 36.1036C46.0471 36.1119 45.9294 36.0877 45.825 36.0337L42.5 34.3124L39.1754 36.0332C39.071 36.0872 38.9533 36.1114 38.8356 36.1031C38.718 36.0947 38.6051 36.0541 38.5097 35.9859C38.4143 35.9176 38.3401 35.8245 38.2957 35.7169C38.2513 35.6094 38.2383 35.4917 38.2582 35.3773L38.8932 31.7327L36.2031 29.1516C36.1186 29.0706 36.0588 28.968 36.0305 28.8553C36.0022 28.7426 36.0065 28.6243 36.0428 28.5139V28.5139Z" fill="white"/>
</svg>
