<svg width="85" height="85" viewBox="0 0 85 85" fill="none" xmlns="http://www.w3.org/2000/svg">
<rect width="85" height="85" rx="16" fill="#3B3B47"/>
<path d="M41.375 13.625V19.9424C41.375 20.1081 41.4408 20.2671 41.5581 20.3843C41.6753 20.5015 41.8342 20.5674 42 20.5674C42.1658 20.5674 42.3247 20.5015 42.4419 20.3843C42.5592 20.2671 42.625 20.1081 42.625 19.9424V13.625C42.625 13.4592 42.5592 13.3003 42.4419 13.1831C42.3247 13.0658 42.1658 13 42 13C41.8342 13 41.6753 13.0658 41.5581 13.1831C41.4408 13.3003 41.375 13.4592 41.375 13.625V13.625Z" fill="white"/>
<path d="M68.375 39.3955H62.0576C61.8919 39.3955 61.7329 39.4614 61.6157 39.5786C61.4985 39.6958 61.4326 39.8547 61.4326 40.0205C61.4326 40.1863 61.4985 40.3452 61.6157 40.4625C61.7329 40.5797 61.8919 40.6455 62.0576 40.6455H68.375C68.5408 40.6455 68.6997 40.5797 68.8169 40.4625C68.9341 40.3452 69 40.1863 69 40.0205C69 39.8547 68.9341 39.6958 68.8169 39.5786C68.6997 39.4614 68.5408 39.3955 68.375 39.3955V39.3955Z" fill="white"/>
<path d="M21.9424 39.3955H15.625C15.4592 39.3955 15.3003 39.4614 15.1831 39.5786C15.0658 39.6958 15 39.8547 15 40.0205C15 40.1863 15.0658 40.3452 15.1831 40.4625C15.3003 40.5797 15.4592 40.6455 15.625 40.6455H21.9424C22.1081 40.6455 22.2671 40.5797 22.3843 40.4625C22.5015 40.3452 22.5674 40.1863 22.5674 40.0205C22.5674 39.8547 22.5015 39.6958 22.3843 39.5786C22.2671 39.4614 22.1081 39.3955 21.9424 39.3955V39.3955Z" fill="white"/>
<path d="M60.208 20.908L55.7408 25.375C55.6824 25.4329 55.636 25.5019 55.6042 25.5778C55.5725 25.6538 55.5561 25.7352 55.5559 25.8175C55.5557 25.8998 55.5718 25.9814 55.6033 26.0574C55.6347 26.1335 55.6808 26.2026 55.739 26.2608C55.7972 26.319 55.8664 26.3651 55.9424 26.3965C56.0185 26.4279 56.1001 26.444 56.1824 26.4438C56.2647 26.4436 56.3461 26.4272 56.4221 26.3954C56.498 26.3636 56.5669 26.3172 56.6248 26.2587L61.0918 21.7917C61.2066 21.674 61.2703 21.5158 61.2693 21.3515C61.2682 21.1871 61.2025 21.0297 61.0862 20.9135C60.97 20.7973 60.8126 20.7315 60.6482 20.7305C60.4838 20.7295 60.3257 20.7932 60.208 20.908V20.908Z" fill="white"/>
<path d="M27.375 53.741L22.9081 58.208C22.8489 58.2657 22.8017 58.3347 22.7693 58.4108C22.737 58.487 22.72 58.5688 22.7195 58.6515C22.719 58.7343 22.7349 58.8163 22.7663 58.8928C22.7977 58.9694 22.8441 59.0389 22.9026 59.0974C22.9611 59.1559 23.0306 59.2022 23.1072 59.2336C23.1837 59.2651 23.2657 59.281 23.3485 59.2804C23.4312 59.2799 23.513 59.2629 23.5892 59.2306C23.6653 59.1982 23.7343 59.151 23.792 59.0917L28.259 54.6247C28.3183 54.567 28.3654 54.498 28.3978 54.4219C28.4302 54.3457 28.4472 54.2639 28.4477 54.1812C28.4482 54.0984 28.4323 54.0164 28.4008 53.9399C28.3694 53.8633 28.3231 53.7938 28.2646 53.7353C28.2061 53.6768 28.1365 53.6305 28.06 53.5991C27.9834 53.5676 27.9014 53.5517 27.8187 53.5523C27.7359 53.5528 27.6541 53.5697 27.578 53.6021C27.5018 53.6345 27.4329 53.6817 27.3751 53.741H27.375Z" fill="white"/>
<path d="M56.6251 53.7412C56.5671 53.6828 56.4982 53.6363 56.4223 53.6046C56.3464 53.5728 56.2649 53.5563 56.1826 53.5562C56.1003 53.556 56.0188 53.572 55.9427 53.6034C55.8666 53.6348 55.7975 53.681 55.7393 53.7391C55.6811 53.7973 55.6349 53.8665 55.6035 53.9425C55.5721 54.0186 55.556 54.1001 55.5562 54.1824C55.5563 54.2647 55.5727 54.3462 55.6045 54.4221C55.6362 54.4981 55.6826 54.567 55.7411 54.625L60.2082 59.092C60.3259 59.2067 60.4841 59.2705 60.6485 59.2695C60.8129 59.2684 60.9702 59.2027 61.0865 59.0865C61.2027 58.9702 61.2685 58.8129 61.2695 58.6485C61.2706 58.4841 61.2068 58.3259 61.0921 58.2082L56.6251 53.7412Z" fill="white"/>
<path d="M27.3751 26.259C27.4927 26.3738 27.6509 26.4375 27.8153 26.4365C27.9797 26.4355 28.137 26.3697 28.2533 26.2535C28.3695 26.1373 28.4353 25.9799 28.4364 25.8155C28.4374 25.6511 28.3737 25.493 28.2589 25.3752L23.792 20.908C23.6744 20.7932 23.5162 20.7295 23.3518 20.7305C23.1874 20.7315 23.0301 20.7973 22.9138 20.9135C22.7976 21.0297 22.7318 21.1871 22.7307 21.3515C22.7297 21.5158 22.7934 21.674 22.9082 21.7917L27.3751 26.259Z" fill="white"/>
<path d="M48.7625 60.2705H35.2375C34.9963 60.2816 34.7687 60.3853 34.602 60.5599C34.4353 60.7345 34.3423 60.9666 34.3423 61.208C34.3423 61.4494 34.4353 61.6815 34.602 61.8561C34.7687 62.0307 34.9963 62.1344 35.2375 62.1455H48.7625C49.0036 62.1344 49.2312 62.0307 49.3979 61.8561C49.5646 61.6815 49.6577 61.4494 49.6577 61.208C49.6577 60.9666 49.5646 60.7345 49.3979 60.5599C49.2312 60.3853 49.0036 60.2816 48.7625 60.2705Z" fill="white"/>
<path d="M52.6801 28.6661C49.7252 25.7502 45.8539 24.1696 41.7784 24.2266C37.7553 24.2787 33.9143 25.9118 31.0856 28.7731C28.2569 31.6343 26.6679 35.4938 26.6619 39.5172C26.6619 44.2047 28.7964 48.5672 32.518 51.5205C33.6573 52.4207 34.5877 53.5575 35.2447 54.8524C35.9017 56.1473 36.2698 57.5694 36.3235 59.0205H41.3751V44.3956H39.7849C39.6174 44.3989 39.4578 44.4678 39.3405 44.5874C39.2232 44.707 39.1575 44.8679 39.1575 45.0355C39.1575 45.203 39.2232 45.3639 39.3405 45.4835C39.4578 45.6032 39.6174 45.672 39.7849 45.6753C39.9507 45.6753 40.1098 45.7412 40.2271 45.8585C40.3444 45.9758 40.4103 46.1349 40.4103 46.3008C40.4103 46.4666 40.3444 46.6257 40.2271 46.743C40.1098 46.8603 39.9507 46.9262 39.7849 46.9262C39.2862 46.9222 38.8093 46.7212 38.4581 46.3672C38.1069 46.0131 37.9099 45.5346 37.9099 45.0359C37.9099 44.5372 38.1069 44.0587 38.4581 43.7046C38.8093 43.3506 39.2862 43.1496 39.7849 43.1456H44.2154C44.7166 43.1456 45.1973 43.3447 45.5517 43.6991C45.9061 44.0535 46.1052 44.5342 46.1052 45.0355C46.1052 45.5367 45.9061 46.0174 45.5517 46.3718C45.1973 46.7262 44.7166 46.9253 44.2154 46.9253C44.1314 46.9285 44.0476 46.9147 43.9691 46.8847C43.8906 46.8547 43.8189 46.8092 43.7584 46.7509C43.6979 46.6926 43.6497 46.6227 43.6168 46.5453C43.5839 46.468 43.567 46.3848 43.567 46.3008C43.567 46.2167 43.5839 46.1335 43.6168 46.0562C43.6497 45.9789 43.6979 45.9089 43.7584 45.8506C43.8189 45.7923 43.8906 45.7468 43.9691 45.7169C44.0476 45.6869 44.1314 45.6731 44.2154 45.6762C44.3825 45.6722 44.5414 45.6029 44.6582 45.4833C44.775 45.3636 44.8404 45.2031 44.8404 45.0359C44.8404 44.8687 44.775 44.7082 44.6582 44.5885C44.5414 44.4689 44.3825 44.3996 44.2154 44.3956H42.6251V59.0206H47.5536C47.6399 57.5528 48.0359 56.1199 48.7156 54.8161C49.3953 53.5123 50.3433 52.3671 51.4972 51.456C53.3007 50.0315 54.7573 48.2162 55.757 46.1468C56.7567 44.0775 57.2735 41.8081 57.2684 39.51C57.268 35.4275 55.6385 31.5855 52.6801 28.6661V28.6661ZM33.4827 30.7423C32.1866 32.0202 31.1582 33.5436 30.4578 35.2235C29.7574 36.9035 29.399 38.7062 29.4035 40.5263C29.4035 40.6921 29.3376 40.8511 29.2204 40.9683C29.1032 41.0855 28.9443 41.1513 28.7785 41.1513C28.6127 41.1513 28.4538 41.0855 28.3365 40.9683C28.2193 40.8511 28.1535 40.6921 28.1535 40.5263C28.1485 38.5412 28.5393 36.575 29.3032 34.7427C30.067 32.9105 31.1886 31.2489 32.6022 29.8552C32.7199 29.7385 32.8792 29.6732 33.045 29.6739C33.2107 29.6745 33.3695 29.741 33.4862 29.8587C33.603 29.9764 33.6682 30.1357 33.6676 30.3014C33.6669 30.4672 33.6004 30.6259 33.4827 30.7427V30.7423ZM36.5766 28.4286C36.2252 28.6217 35.8786 28.8322 35.5464 29.0545C35.4781 29.1001 35.4016 29.1318 35.3211 29.1479C35.2406 29.164 35.1578 29.164 35.0772 29.148C34.9967 29.1321 34.9202 29.1004 34.8519 29.0548C34.7836 29.0092 34.725 28.9507 34.6794 28.8825C34.6337 28.8142 34.602 28.7377 34.5859 28.6572C34.5699 28.5767 34.5698 28.4938 34.5858 28.4133C34.6018 28.3328 34.6334 28.2563 34.679 28.188C34.7246 28.1197 34.7831 28.0611 34.8514 28.0155C35.2139 27.7732 35.5915 27.5436 35.9746 27.3331C36.1199 27.2533 36.2909 27.2344 36.4501 27.2807C36.6093 27.327 36.7435 27.4346 36.8234 27.5798C36.9032 27.7251 36.922 27.8961 36.8758 28.0553C36.8295 28.2145 36.7219 28.3488 36.5766 28.4286V28.4286Z" fill="white"/>
<path d="M36 63.3955H48V68.5205H36V63.3955Z" fill="white"/>
<path d="M48.7626 69.7705H35.2375C35.0055 69.7705 34.7829 69.8627 34.6188 70.0268C34.4547 70.1909 34.3625 70.4134 34.3625 70.6455C34.3625 70.8776 34.4547 71.1001 34.6188 71.2642C34.7829 71.4283 35.0055 71.5205 35.2375 71.5205H48.7626C48.9946 71.5205 49.2172 71.4283 49.3813 71.2642C49.5454 71.1001 49.6376 70.8776 49.6376 70.6455C49.6376 70.4134 49.5454 70.1909 49.3813 70.0268C49.2172 69.8627 48.9946 69.7705 48.7626 69.7705V69.7705Z" fill="white"/>
</svg>
