<svg width="85" height="85" viewBox="0 0 85 85" fill="none" xmlns="http://www.w3.org/2000/svg">
<rect width="85" height="85" rx="16" fill="#3B3B47"/>
<path d="M64.625 55.875V58.25H69.5944C70.0947 58.2506 70.5751 58.0542 70.9317 57.7033C71.2884 57.3524 71.4925 56.8753 71.5 56.375V51.5H69.0306C67.8675 51.5001 66.7516 51.9601 65.9263 52.7797C65.101 53.5993 64.6332 54.7119 64.625 55.875V55.875Z" fill="white"/>
<path d="M22.2499 43.6796C23.3847 43.6796 24.3046 42.7597 24.3046 41.6249C24.3046 40.4902 23.3847 39.5703 22.2499 39.5703C21.1152 39.5703 20.1953 40.4902 20.1953 41.6249C20.1953 42.7597 21.1152 43.6796 22.2499 43.6796Z" fill="white"/>
<path d="M19.75 27.3728V25H14.9056C14.4053 24.9994 13.9249 25.1958 13.5683 25.5467C13.2116 25.8976 13.0075 26.3747 13 26.875V31.75H15.4034C15.9764 31.7485 16.5434 31.6341 17.0721 31.4132C17.6008 31.1924 18.0808 30.8694 18.4845 30.4628C18.8882 30.0562 19.2078 29.574 19.425 29.0438C19.6421 28.5136 19.7526 27.9457 19.75 27.3728V27.3728Z" fill="white"/>
<path d="M42.25 29.9375C39.9384 29.9375 37.6788 30.623 35.7568 31.9072C33.8348 33.1914 32.3368 35.0168 31.4522 37.1524C30.5676 39.288 30.3361 41.638 30.7871 43.9051C31.238 46.1723 32.3512 48.2548 33.9857 49.8893C35.6202 51.5238 37.7027 52.637 39.9699 53.0879C42.237 53.5389 44.587 53.3074 46.7226 52.4228C48.8582 51.5382 50.6836 50.0402 51.9678 48.1182C53.252 46.1962 53.9375 43.9366 53.9375 41.625C53.934 38.5264 52.7015 35.5556 50.5104 33.3646C48.3194 31.1735 45.3486 29.941 42.25 29.9375V29.9375ZM42.25 41.0793C43.1232 41.0803 43.9645 41.4077 44.6088 41.9972C45.253 42.5867 45.6535 43.3957 45.7318 44.2654C45.8101 45.1352 45.5605 46.0027 45.0319 46.6978C44.5033 47.3929 43.734 47.8653 42.875 48.0223V48.9953C42.875 49.161 42.8092 49.32 42.6919 49.4372C42.5747 49.5544 42.4158 49.6203 42.25 49.6203C42.0842 49.6203 41.9253 49.5544 41.8081 49.4372C41.6909 49.32 41.625 49.161 41.625 48.9953V48.0223C40.8189 47.875 40.0899 47.4499 39.5646 46.8209C39.0394 46.1919 38.7512 45.3987 38.75 44.5793C38.75 44.4135 38.8159 44.2545 38.9331 44.1373C39.0503 44.0201 39.2092 43.9543 39.375 43.9543C39.5408 43.9543 39.6997 44.0201 39.8169 44.1373C39.9342 44.2545 40 44.4135 40 44.5793C40.0009 45.1633 40.2289 45.7242 40.6356 46.1433C41.0424 46.5625 41.5961 46.8071 42.1799 46.8256C42.2262 46.8163 42.2738 46.8163 42.3201 46.8256C42.91 46.807 43.4689 46.5572 43.8762 46.1301C44.2836 45.7031 44.5067 45.133 44.4975 44.5429C44.4883 43.9528 44.2475 43.39 43.827 42.9759C43.4066 42.5618 42.8402 42.3295 42.25 42.3293C41.3768 42.3282 40.5355 42.0008 39.8913 41.4113C39.247 40.8218 38.8465 40.0128 38.7682 39.143C38.6899 38.2733 38.9395 37.4058 39.4681 36.7107C39.9967 36.0156 40.766 35.5432 41.625 35.3862V34.2547C41.625 34.089 41.6909 33.93 41.8081 33.8128C41.9253 33.6956 42.0842 33.6297 42.25 33.6297C42.4158 33.6297 42.5747 33.6956 42.6919 33.8128C42.8092 33.93 42.875 34.089 42.875 34.2547V35.3862C43.6811 35.5335 44.4101 35.9586 44.9354 36.5876C45.4606 37.2166 45.7489 38.0098 45.75 38.8293C45.75 38.995 45.6842 39.154 45.5669 39.2712C45.4497 39.3884 45.2908 39.4543 45.125 39.4543C44.9592 39.4543 44.8003 39.3884 44.6831 39.2712C44.5659 39.154 44.5 38.995 44.5 38.8293C44.5 38.3842 44.368 37.9492 44.1208 37.5792C43.8736 37.2092 43.5222 36.9208 43.111 36.7505C42.6999 36.5802 42.2475 36.5357 41.8111 36.6225C41.3746 36.7093 40.9737 36.9236 40.659 37.2383C40.3443 37.5529 40.1301 37.9538 40.0432 38.3903C39.9564 38.8268 40.001 39.2792 40.1713 39.6903C40.3416 40.1014 40.63 40.4528 41 40.7001C41.37 40.9473 41.805 41.0793 42.25 41.0793V41.0793Z" fill="white"/>
<path d="M15.4034 51.5H13V56.375C13.0075 56.8753 13.2116 57.3524 13.5683 57.7033C13.9249 58.0542 14.4053 58.2506 14.9056 58.25H19.75V55.875C19.7525 55.3021 19.642 54.7344 19.4248 54.2043C19.2077 53.6742 18.888 53.1922 18.4843 52.7858C18.0805 52.3794 17.6006 52.0567 17.0719 51.836C16.5432 51.6154 15.9762 51.5012 15.4034 51.5Z" fill="white"/>
<path d="M62.2499 43.6796C63.3847 43.6796 64.3046 42.7597 64.3046 41.6249C64.3046 40.4902 63.3847 39.5703 62.2499 39.5703C61.1152 39.5703 60.1953 40.4902 60.1953 41.6249C60.1953 42.7597 61.1152 43.6796 62.2499 43.6796Z" fill="white"/>
<path d="M63.375 27.3727V25H21V27.3727C21.0024 28.1098 20.8595 28.8402 20.5795 29.522C20.2994 30.2038 19.8878 30.8237 19.368 31.3463C18.8482 31.869 18.2305 32.284 17.5503 32.5677C16.87 32.8515 16.1405 32.9984 15.4034 33H13V50.25H15.4034C16.1403 50.2514 16.8698 50.398 17.55 50.6816C18.2303 50.9651 18.8479 51.3799 19.3677 51.9024C19.8875 52.4248 20.2992 53.0445 20.5793 53.7262C20.8594 54.4079 21.0023 55.138 21 55.875V58.25H63.375V55.875C63.3836 54.3805 63.9832 52.9501 65.0429 51.8962C66.1025 50.8423 67.5361 50.2505 69.0306 50.25H71.5V33H69.0306C67.5359 32.999 66.1022 32.4067 65.0426 31.3524C63.983 30.2981 63.3835 28.8675 63.375 27.3727V27.3727ZM16 45.875C16 46.0408 15.9342 46.1997 15.8169 46.3169C15.6997 46.4342 15.5408 46.5 15.375 46.5C15.2092 46.5 15.0503 46.4342 14.9331 46.3169C14.8158 46.1997 14.75 46.0408 14.75 45.875V38.2272C14.75 38.0615 14.8158 37.9025 14.9331 37.7853C15.0503 37.6681 15.2092 37.6022 15.375 37.6022C15.5408 37.6022 15.6997 37.6681 15.8169 37.7853C15.9342 37.9025 16 38.0615 16 38.2272V45.875ZM16 35.5C16 35.6658 15.9342 35.8247 15.8169 35.9419C15.6997 36.0592 15.5408 36.125 15.375 36.125C15.2092 36.125 15.0503 36.0592 14.9331 35.9419C14.8158 35.8247 14.75 35.6658 14.75 35.5V34.9028C14.75 34.737 14.8158 34.578 14.9331 34.4608C15.0503 34.3436 15.2092 34.2778 15.375 34.2778C15.5408 34.2778 15.6997 34.3436 15.8169 34.4608C15.9342 34.578 16 34.737 16 34.9028V35.5ZM22.25 44.9302C21.5964 44.9303 20.9575 44.7365 20.414 44.3734C19.8705 44.0103 19.4469 43.4942 19.1968 42.8904C18.9466 42.2865 18.8811 41.6221 19.0086 40.981C19.136 40.34 19.4507 39.7511 19.9128 39.2889C20.375 38.8267 20.9638 38.5119 21.6048 38.3843C22.2458 38.2567 22.9103 38.3221 23.5142 38.5722C24.1181 38.8222 24.6342 39.2457 24.9974 39.7891C25.3606 40.3325 25.5545 40.9714 25.5546 41.625C25.5537 42.5012 25.2052 43.3412 24.5857 43.9607C23.9661 44.5803 23.1262 44.9288 22.25 44.9297V44.9302ZM42.25 54.5625C39.6912 54.5625 37.1899 53.8037 35.0623 52.3821C32.9347 50.9605 31.2765 48.94 30.2973 46.576C29.3181 44.2119 29.0619 41.6106 29.5611 39.101C30.0603 36.5914 31.2925 34.2861 33.1018 32.4768C34.9111 30.6675 37.2164 29.4353 39.726 28.9361C42.2356 28.4369 44.8369 28.6931 47.201 29.6723C49.565 30.6515 51.5855 32.3097 53.0071 34.4373C54.4287 36.5649 55.1875 39.0662 55.1875 41.625C55.1836 45.0551 53.8193 48.3435 51.3939 50.7689C48.9685 53.1943 45.6801 54.5586 42.25 54.5625V54.5625ZM62.25 44.9297C61.5964 44.9298 60.9574 44.736 60.4139 44.3729C59.8705 44.0097 59.4469 43.4936 59.1967 42.8898C58.9466 42.2859 58.8811 41.6214 59.0086 40.9804C59.1361 40.3393 59.4508 39.7504 59.913 39.2882C60.3752 38.826 60.964 38.5113 61.6051 38.3838C62.2462 38.2562 62.9106 38.3217 63.5145 38.5718C64.1184 38.8219 64.6345 39.2455 64.9977 39.789C65.3608 40.3324 65.5546 40.9714 65.5546 41.625C65.5537 42.5012 65.2052 43.3412 64.5857 43.9607C63.9661 44.5803 63.1262 44.9288 62.25 44.9297Z" fill="white"/>
<path d="M69.5944 25H64.625V27.3728C64.6331 28.5361 65.1008 29.649 65.9261 30.4689C66.7513 31.2889 67.8673 31.7494 69.0306 31.75H71.5V26.875C71.4925 26.3747 71.2884 25.8976 70.9317 25.5467C70.5751 25.1958 70.0947 24.9994 69.5944 25V25Z" fill="white"/>
</svg>
