<svg width="85" height="85" viewBox="0 0 85 85" fill="none" xmlns="http://www.w3.org/2000/svg">
<rect width="85" height="85" rx="16" fill="#3B3B47"/>
<path d="M42.1252 17.75C28.6849 17.75 17.7502 28.6846 17.7502 42.125C17.7502 55.5654 28.6849 66.5 42.1252 66.5C55.5656 66.5 66.5002 55.5654 66.5002 42.125C66.5002 28.6846 55.5656 17.75 42.1252 17.75ZM30.2405 24.998C26.6236 27.5216 23.8915 31.1182 22.4304 35.2794C22.3724 35.4312 22.2576 35.5545 22.1103 35.6231C21.9629 35.6917 21.7947 35.7002 21.6412 35.6469C21.4877 35.5935 21.361 35.4824 21.288 35.3372C21.215 35.192 21.2015 35.024 21.2502 34.869C22.7986 30.4586 25.6941 26.6465 29.5274 23.9716C29.6635 23.877 29.8316 23.8403 29.9948 23.8696C30.1579 23.899 30.3027 23.9919 30.3974 24.128C30.492 24.2641 30.5287 24.4322 30.4994 24.5954C30.47 24.7585 30.3771 24.9034 30.241 24.998H30.2405ZM32.0495 23.787C31.91 23.7872 31.7744 23.7407 31.6643 23.6549C31.5543 23.5691 31.4761 23.449 31.4423 23.3136C31.4084 23.1782 31.4208 23.0354 31.4776 22.9079C31.5343 22.7805 31.632 22.6756 31.7552 22.6101C32.0516 22.4524 32.3552 22.2995 32.6591 22.1552C32.7333 22.1198 32.8137 22.0993 32.8959 22.0949C32.978 22.0906 33.0601 22.1025 33.1376 22.1299C33.2151 22.1574 33.2865 22.1999 33.3475 22.255C33.4086 22.3101 33.4581 22.3766 33.4934 22.4509C33.5287 22.5252 33.549 22.6057 33.5531 22.6878C33.5572 22.77 33.545 22.8521 33.5174 22.9295C33.4897 23.0069 33.447 23.0781 33.3917 23.139C33.3365 23.1999 33.2697 23.2493 33.1954 23.2844C32.9091 23.4204 32.6222 23.5649 32.3426 23.7136C32.2524 23.7619 32.1518 23.7873 32.0495 23.7875V23.787ZM51.8015 36.1284L38.573 60.8845C38.5068 61.0085 38.4007 61.1065 38.2719 61.1628C38.1431 61.219 37.9991 61.2302 37.8632 61.1946C37.7273 61.1589 37.6073 61.0785 37.5227 60.9663C37.4381 60.8541 37.3937 60.7166 37.3969 60.5761L37.6869 47.0081L33.6335 47.8919C33.5326 47.9134 33.428 47.9097 33.3289 47.8811C33.2298 47.8525 33.1392 47.7999 33.0654 47.7279C32.9912 47.6553 32.9361 47.5656 32.9048 47.4667C32.8734 47.3678 32.8669 47.2628 32.8857 47.1608L36.7982 26.0286C36.824 25.8832 36.8993 25.7511 37.0113 25.6548C37.1233 25.5585 37.2651 25.5038 37.4127 25.5H46.8002C46.895 25.5033 46.9878 25.5275 47.072 25.5708C47.1563 25.6142 47.23 25.6756 47.2877 25.7507C47.3464 25.827 47.3879 25.9151 47.4092 26.0089C47.4305 26.1027 47.4311 26.2 47.4111 26.2941L45.2524 36.1305L51.154 35.2161C51.2688 35.1983 51.3863 35.2128 51.4933 35.258C51.6003 35.3033 51.6926 35.3774 51.7598 35.4722C51.827 35.567 51.8664 35.6786 51.8737 35.7946C51.881 35.9105 51.8558 36.0262 51.801 36.1286L51.8015 36.1284Z" fill="white"/>
<path d="M42.1253 14.0001C36.5626 14.0001 31.1249 15.6495 26.4997 18.7399C21.8745 21.8304 18.2696 26.2229 16.1409 31.3621C14.0122 36.5013 13.4552 42.1563 14.5404 47.6121C15.6257 53.0678 18.3044 58.0793 22.2378 62.0126C24.8494 64.6243 27.9499 66.696 31.3622 68.1094C34.7745 69.5228 38.4318 70.2503 42.1253 70.2503C45.8187 70.2503 49.476 69.5228 52.8883 68.1094C56.3006 66.696 59.4011 64.6243 62.0128 62.0126C64.6244 59.4009 66.6961 56.3004 68.1095 52.8881C69.5229 49.4758 70.2504 45.8186 70.2504 42.1251C70.2504 38.4317 69.5229 34.7744 68.1095 31.3621C66.6961 27.9498 64.6244 24.8493 62.0128 22.2376C59.4072 19.6178 56.3078 17.5407 52.8941 16.1268C49.4804 14.7128 45.8202 13.99 42.1253 14.0001V14.0001ZM42.1253 67.7501C27.9956 67.7501 16.5003 56.2547 16.5003 42.1251C16.5003 27.9955 27.9956 16.5001 42.1253 16.5001C56.2549 16.5001 67.7503 27.9955 67.7503 42.1251C67.7503 56.2547 56.2549 67.7501 42.1253 67.7501Z" fill="white"/>
<path d="M43.9914 37.307C43.9217 37.2312 43.8712 37.1399 43.8442 37.0405C43.8172 36.9412 43.8145 36.8369 43.8363 36.7362L46.024 26.75H37.9331L34.2861 46.4546L38.1955 45.6189C38.2878 45.5987 38.3835 45.5998 38.4754 45.6219C38.5673 45.6441 38.6529 45.6868 38.7259 45.7469C38.7989 45.807 38.8573 45.8828 38.8967 45.9687C38.9362 46.0545 38.9556 46.1483 38.9536 46.2427L38.7025 57.9899L50.1093 36.6409L44.5425 37.5011C44.4418 37.5159 44.339 37.5059 44.243 37.4721C44.147 37.4383 44.0606 37.3816 43.9914 37.307V37.307Z" fill="white"/>
</svg>
