<svg width="85" height="85" viewBox="0 0 85 85" fill="none" xmlns="http://www.w3.org/2000/svg">
<rect width="85" height="85" rx="16" fill="#3B3B47"/>
<path d="M69.0001 48.087C68.9522 47.7668 68.7918 47.4741 68.5477 47.2614C68.3036 47.0487 67.9917 46.9299 67.668 46.9263H67.3044V33.3364C67.3044 32.9913 67.1082 32.6763 66.763 32.6763H39.5005C39.3347 32.6763 39.1758 32.7421 39.0585 32.8593C38.9413 32.9765 38.8755 33.1355 38.8755 33.3013C38.8755 33.467 38.9413 33.626 39.0585 33.7432C39.1758 33.8604 39.3347 33.9263 39.5005 33.9263H66.0544V46.9263H65.8579C65.5341 46.9299 65.2222 47.0487 64.9781 47.2614C64.734 47.4741 64.5737 47.7668 64.5257 48.087L63.1747 56.6541C63.1606 56.7473 63.1659 56.8423 63.1904 56.9333C63.2149 57.0242 63.258 57.1091 63.317 57.1825C63.3744 57.2545 63.4464 57.3134 63.5283 57.3554C63.6102 57.3974 63.7001 57.4216 63.792 57.4263H69.7339C69.8254 57.4226 69.9152 57.3995 69.9971 57.3584C70.079 57.3173 70.1512 57.2592 70.2089 57.188C70.2678 57.1157 70.3109 57.0318 70.3354 56.9418C70.3599 56.8518 70.3653 56.7576 70.3511 56.6654L69.0001 48.087Z" fill="white"/>
<path d="M22.5521 52.6117L21.6794 52.2734V55.7551L23.0239 56.2729C33.6093 60.4474 45.3848 60.4474 55.9702 56.2729L57.3044 55.7551V52.2734L56.4448 52.6117C51.0508 54.7354 45.3059 55.827 39.5089 55.8296C33.7051 55.8272 27.9533 54.7357 22.5521 52.6117V52.6117Z" fill="white"/>
<path d="M57.3044 37.7124L39.7341 44.5514C39.6624 44.5795 39.5861 44.5939 39.5091 44.5939C39.4252 44.594 39.342 44.5796 39.2631 44.5514L21.6794 37.7124V50.9304L23.0239 51.4483C33.6093 55.6228 45.3848 55.6228 55.9702 51.4483L57.3044 50.9304V37.7124ZM24.4294 49.0334C24.4294 49.1992 24.3636 49.3581 24.2464 49.4753C24.1292 49.5926 23.9702 49.6584 23.8044 49.6584C23.6387 49.6584 23.4797 49.5926 23.3625 49.4753C23.2453 49.3581 23.1794 49.1992 23.1794 49.0334V44.0668C23.1794 43.901 23.2453 43.742 23.3625 43.6248C23.4797 43.5076 23.6387 43.4418 23.8044 43.4418C23.9702 43.4418 24.1292 43.5076 24.2464 43.6248C24.3636 43.742 24.4294 43.901 24.4294 44.0668V49.0334ZM24.4294 41.4347C24.4294 41.6004 24.3636 41.7594 24.2464 41.8766C24.1292 41.9938 23.9702 42.0597 23.8044 42.0597C23.6387 42.0597 23.4797 41.9938 23.3625 41.8766C23.2453 41.7594 23.1794 41.6004 23.1794 41.4347V40.8584C23.1794 40.6926 23.2453 40.5337 23.3625 40.4165C23.4797 40.2993 23.6387 40.2334 23.8044 40.2334C23.9702 40.2334 24.1292 40.2993 24.2464 40.4165C24.3636 40.5337 24.4294 40.6926 24.4294 40.8584V41.4347Z" fill="white"/>
<path d="M61.333 34.8014H39.501C39.1032 34.8014 38.7216 34.6433 38.4403 34.362C38.159 34.0807 38.001 33.6992 38.001 33.3014C38.001 32.9036 38.159 32.522 38.4403 32.2407C38.7216 31.9594 39.1032 31.8014 39.501 31.8014H60.7253L39.501 24L14 33.3734L39.501 43.2984L61.333 34.8014Z" fill="white"/>
</svg>
