<svg width="578" height="385" viewBox="0 0 578 385" fill="none" xmlns="http://www.w3.org/2000/svg">
<path d="M169.461 94.144L82.9893 151.936L168.16 279.154L254.632 221.362L169.461 94.144Z" fill="#F5F5F5"/>
<path d="M209.945 215.338L208.966 221.406L165.979 215.215L166.957 209.148L209.945 215.338Z" fill="#E0E0E0"/>
<path d="M188.297 193.694L194.462 194.579L187.627 236.868L181.454 235.974L188.297 193.694Z" fill="#E0E0E0"/>
<path d="M148.7 139.948C148.762 140.04 140.1 145.938 129.349 153.122C118.598 160.306 109.835 166.058 109.774 165.966C109.712 165.873 118.374 159.975 129.125 152.791C139.876 145.599 148.638 139.855 148.7 139.948Z" fill="#E0E0E0"/>
<path d="M180.506 131.97C180.567 132.063 166.156 141.803 148.323 153.715C130.482 165.635 115.978 175.221 115.916 175.129C115.855 175.036 130.258 165.304 148.099 153.376C165.932 141.464 180.444 131.878 180.506 131.97Z" fill="#E0E0E0"/>
<path d="M186.879 141.488C186.941 141.58 172.529 151.32 154.696 163.232C136.855 175.152 122.351 184.738 122.289 184.646C122.228 184.554 136.631 174.821 154.472 162.894C172.306 150.989 186.817 141.395 186.879 141.488Z" fill="#E0E0E0"/>
<path d="M193.252 151.012C193.314 151.105 178.903 160.845 161.069 172.757C143.228 184.677 128.724 194.263 128.663 194.171C128.601 194.079 143.005 184.346 160.846 172.418C178.679 160.507 193.191 150.92 193.252 151.012Z" fill="#E0E0E0"/>
<path d="M199.626 160.537C199.688 160.63 185.276 170.37 167.443 182.282C149.602 194.202 135.098 203.788 135.036 203.696C134.975 203.603 149.378 193.871 167.219 181.943C185.053 170.031 199.564 160.445 199.626 160.537Z" fill="#E0E0E0"/>
<path d="M458.61 179.39L385.987 227.926L457.515 334.765L530.138 286.229L458.61 179.39Z" fill="#F5F5F5"/>
<path d="M492.61 281.189L491.785 286.286L455.688 281.088L456.504 275.991L492.61 281.189Z" fill="#E0E0E0"/>
<path d="M474.43 263.009L479.609 263.756L473.867 299.268L468.681 298.521L474.43 263.009Z" fill="#E0E0E0"/>
<path d="M441.176 217.871C441.237 217.964 433.97 222.93 424.938 228.959C415.906 234.996 408.538 239.809 408.476 239.716C408.415 239.624 415.682 234.657 424.714 228.621C433.747 222.592 441.114 217.779 441.176 217.871Z" fill="#E0E0E0"/>
<path d="M467.879 211.172C467.941 211.265 455.849 219.458 440.867 229.468C425.886 239.478 413.694 247.516 413.632 247.424C413.57 247.332 425.662 239.147 440.644 229.129C455.626 219.119 467.818 211.08 467.879 211.172Z" fill="#E0E0E0"/>
<path d="M473.235 219.165C473.297 219.257 461.205 227.45 446.223 237.46C431.242 247.47 419.05 255.509 418.988 255.417C418.926 255.324 431.018 247.139 446 237.122C460.982 227.119 473.174 219.08 473.235 219.165Z" fill="#E0E0E0"/>
<path d="M478.592 227.165C478.653 227.258 466.562 235.451 451.58 245.461C436.598 255.471 424.406 263.509 424.344 263.417C424.283 263.325 436.375 255.139 451.356 245.122C466.33 235.112 478.53 227.073 478.592 227.165Z" fill="#E0E0E0"/>
<path d="M483.94 235.166C484.002 235.258 471.91 243.451 456.928 253.461C441.946 263.471 429.754 271.51 429.693 271.417C429.631 271.325 441.723 263.14 456.704 253.122C471.686 243.112 483.878 235.073 483.94 235.166Z" fill="#E0E0E0"/>
<path d="M343.71 98.8124L264.472 56.4712L202.072 173.046L281.31 215.387L343.71 98.8124Z" fill="#F5F5F5"/>
<path d="M267.746 178.925L262.721 180.642L249.958 145.399L254.983 143.674L267.746 178.925Z" fill="#E0E0E0"/>
<path d="M275.452 153.638L277.286 158.697L242.252 170.686L240.417 165.627L275.452 153.638Z" fill="#E0E0E0"/>
<path d="M300.344 101.632C300.283 101.748 292.245 97.5744 282.396 92.3076C272.539 87.0408 264.609 82.6826 264.67 82.5671C264.732 82.4516 272.77 86.625 282.619 91.8918C292.476 97.1586 300.406 101.517 300.344 101.632Z" fill="#E0E0E0"/>
<path d="M319.365 122.607C319.303 122.723 306.001 115.739 289.663 107.007C273.317 98.2751 260.116 91.0987 260.177 90.9832C260.239 90.8677 273.541 97.8516 289.887 106.591C306.225 115.315 319.426 122.492 319.365 122.607Z" fill="#E0E0E0"/>
<path d="M314.694 131.331C314.633 131.447 301.331 124.463 284.993 115.731C268.647 106.999 255.445 99.8228 255.507 99.7073C255.569 99.5918 268.87 106.576 285.216 115.315C301.554 124.039 314.756 131.216 314.694 131.331Z" fill="#E0E0E0"/>
<path d="M310.024 140.055C309.962 140.171 296.66 133.187 280.322 124.455C263.976 115.723 250.775 108.547 250.837 108.431C250.898 108.316 264.2 115.3 280.546 124.039C296.884 132.763 310.085 139.94 310.024 140.055Z" fill="#E0E0E0"/>
<path d="M305.354 148.779C305.292 148.895 291.991 141.911 275.652 133.179C259.307 124.447 246.105 117.271 246.167 117.155C246.228 117.04 259.53 124.024 275.876 132.763C292.214 141.487 305.416 148.664 305.354 148.779Z" fill="#E0E0E0"/>
<path opacity="0.2" d="M305.762 0H303.773V33.8646H305.762V0Z" fill="black"/>
<path d="M258.351 74.8363H351.185C351.185 74.8363 342.615 33.8492 304.067 33.8492C269.78 33.8492 258.351 74.8363 258.351 74.8363Z" fill="#6FBF73"/>
<path d="M305.762 0H303.773V33.8646H305.762V0Z" fill="#6FBF73"/>
<path d="M511.468 338.669C511.468 338.777 411.86 338.869 289.016 338.869C166.125 338.869 66.5396 338.777 66.5396 338.669C66.5396 338.561 166.125 338.469 289.016 338.469C411.86 338.469 511.468 338.554 511.468 338.669Z" fill="#253858"/>
<path d="M91.1618 290.444C93.7666 290.536 96.2097 291.946 97.9282 293.909C99.6468 295.865 100.703 298.329 101.373 300.847C102.676 305.713 101.874 311.465 100.487 316.308C95.2078 314.422 91.9556 308.801 90.4836 305.844C88.1639 301.178 86.7998 291.322 91.1618 290.444Z" fill="#6FBF73"/>
<path d="M108.078 322.207C106.413 319.82 106.375 316.501 107.693 313.898C109.01 311.303 111.538 309.432 114.32 308.578C115.607 308.185 117.102 308.015 118.22 308.762C119.268 309.463 119.723 310.834 119.584 312.081C119.445 313.328 118.813 314.476 118.066 315.484C115.499 318.965 112.386 321.852 108.078 322.207Z" fill="#6FBF73"/>
<path d="M108.664 338.477C108.641 338.484 108.556 338.122 108.425 337.468C108.286 336.744 108.101 335.812 107.886 334.696C107.469 332.363 106.807 329.044 107.308 325.379C107.785 321.729 109.242 318.603 110.768 316.739C111.515 315.8 112.24 315.13 112.772 314.722C113.026 314.506 113.257 314.376 113.396 314.268C113.542 314.168 113.627 314.121 113.635 314.137C113.689 314.198 112.402 314.999 110.976 316.901C109.535 318.772 108.148 321.837 107.67 325.433C107.177 329.029 107.785 332.317 108.14 334.657C108.325 335.835 108.479 336.79 108.571 337.453C108.648 338.107 108.687 338.477 108.664 338.477Z" fill="#253858"/>
<path d="M92.8573 297.859C92.8727 297.851 92.942 297.99 93.073 298.259C93.2118 298.56 93.3967 298.952 93.6202 299.43C94.0826 300.454 94.7454 301.94 95.5392 303.78C97.1268 307.469 99.2538 312.597 101.473 318.303C103.693 324.016 105.581 329.237 106.891 333.025C107.546 334.919 108.07 336.459 108.417 337.529C108.579 338.038 108.71 338.446 108.81 338.761C108.895 339.046 108.933 339.193 108.926 339.2C108.91 339.208 108.849 339.062 108.741 338.785C108.625 338.469 108.471 338.068 108.286 337.576C107.885 336.482 107.33 334.965 106.652 333.11C105.273 329.337 103.346 324.139 101.134 318.426C98.9147 312.72 96.8339 307.584 95.308 303.873C94.5604 302.048 93.9439 300.554 93.4969 299.476C93.2965 298.983 93.1424 298.583 93.0191 298.275C92.8958 298.005 92.8496 297.859 92.8573 297.859Z" fill="#253858"/>
<path d="M102.398 327.712C99.2848 322.422 93.4817 318.819 87.3549 318.372C85.7981 318.256 83.9177 318.518 83.2241 319.92C82.5305 321.321 83.4553 322.977 84.5188 324.132C88.9424 328.913 96.4179 330.584 102.452 328.136" fill="#6FBF73"/>
<path d="M89.7285 322.545C89.7285 322.522 90.0753 322.538 90.7073 322.584C91.0233 322.607 91.4086 322.63 91.8479 322.715C92.2872 322.799 92.7958 322.846 93.343 322.992C93.8901 323.123 94.499 323.261 95.1232 323.485C95.7629 323.669 96.4179 323.947 97.1038 324.239C98.4602 324.855 99.9091 325.664 101.281 326.711C102.645 327.774 103.793 328.959 104.733 330.122C105.18 330.715 105.612 331.285 105.951 331.862C106.321 332.417 106.598 332.971 106.853 333.472C107.13 333.964 107.292 334.45 107.477 334.858C107.662 335.266 107.77 335.635 107.862 335.936C108.047 336.536 108.14 336.867 108.117 336.875C108.04 336.906 107.662 335.558 106.622 333.587C106.352 333.102 106.067 332.563 105.689 332.024C105.35 331.462 104.918 330.915 104.464 330.338C103.531 329.206 102.391 328.051 101.05 327.004C99.701 325.972 98.2907 325.171 96.9574 324.547C96.2869 324.255 95.6396 323.97 95.0153 323.777C94.4065 323.546 93.8131 323.4 93.2736 323.246C91.1157 322.699 89.7208 322.63 89.7285 322.545Z" fill="#253858"/>
<path d="M439.557 81.212C437.292 81.7356 436.19 84.3382 435.974 86.6482C435.758 88.9582 436.051 91.4068 435.08 93.5166C433.985 95.8959 431.373 97.6438 431.28 100.254C431.226 101.848 432.174 103.349 432.128 104.943C432.051 107.561 429.385 109.54 429.246 112.151C429.146 114.037 430.402 115.839 430.101 117.702C429.87 119.15 428.737 120.289 428.259 121.683C427.311 124.447 429.207 127.497 431.689 129.052C434.448 130.785 437.985 131.239 441.091 130.246C444.197 129.252 446.817 126.842 448.058 123.824C449.43 120.497 449.129 116.755 448.829 113.167C447.896 101.994 447.21 90.8062 446.755 79.6104" fill="#253858"/>
<path d="M432.976 120.628C432.93 120.582 433.592 120.382 434.009 119.396C434.209 118.911 434.317 118.264 434.271 117.517C434.248 116.763 433.985 115.947 433.708 115.023C433.446 114.106 433.115 113.044 433.307 111.866C433.5 110.664 434.363 109.679 435.141 108.716C435.535 108.224 435.935 107.715 436.182 107.138C436.444 106.568 436.498 105.906 436.305 105.29C435.904 104.035 434.671 103.103 434.109 101.655C433.831 100.924 433.824 100.131 433.985 99.4071C434.14 98.6833 434.432 98.021 434.733 97.3896C435.334 96.1345 436.005 94.9872 436.267 93.7629C436.806 91.322 436.552 88.9889 436.922 87.0716C437.253 85.1543 438.07 83.7067 438.871 82.9675C439.264 82.5825 439.642 82.3823 439.889 82.2437C440.151 82.1282 440.289 82.082 440.297 82.0897C440.32 82.1359 439.727 82.313 438.979 83.0753C438.239 83.8222 437.492 85.239 437.199 87.1178C437.045 88.0495 437.022 89.1044 436.983 90.2286C436.945 91.3528 436.906 92.5771 436.621 93.8399C436.351 95.1181 435.673 96.3193 435.088 97.5436C434.51 98.7525 433.978 100.169 434.486 101.494C434.98 102.803 436.22 103.734 436.683 105.151C436.914 105.86 436.837 106.637 436.536 107.269C436.251 107.908 435.835 108.439 435.434 108.932C434.625 109.902 433.824 110.834 433.639 111.912C433.446 112.982 433.747 114.022 433.985 114.93C434.24 115.847 434.494 116.709 434.502 117.494C434.525 118.272 434.394 118.95 434.155 119.442C433.924 119.943 433.6 120.259 433.369 120.413C433.13 120.597 432.976 120.628 432.976 120.628Z" fill="#424242"/>
<path d="M426.911 138.885L419.952 158.92L390.944 160.476L386.104 171.225L416.391 174.29C422.433 176.784 429.331 173.727 431.535 167.583L439.619 145.037L426.911 138.885Z" fill="#FFBE9D"/>
<path d="M486.915 327.789C486.915 327.789 465.652 260.322 465.205 258.135C464.797 256.156 472.92 207.607 473.945 195.041L445.222 196.111C445.222 196.111 445.222 196.188 445.222 196.319L433.015 196.997L443.95 334.973H457.167L455.857 289.197C464.011 311.065 475.686 333.341 475.686 333.341L486.915 327.789Z" fill="#FFBE9D"/>
<path d="M456.389 305.598C456.405 305.182 456.227 290.259 456.227 290.259C456.065 291.152 451.156 277.308 451.28 276.461C451.341 276.03 456.389 305.598 456.389 305.598Z" fill="#EB996E"/>
<path d="M450.724 269.908C450.694 269.908 450.663 270.208 450.64 270.747C450.609 271.286 450.609 272.072 450.655 273.034C450.67 273.519 450.724 274.043 450.786 274.613C450.855 275.175 450.932 275.783 451.063 276.407C451.302 277.67 451.672 279.033 452.142 280.426C453.106 283.214 454.162 285.655 454.917 287.433C455.271 288.242 455.58 288.935 455.834 289.52C456.057 290.013 456.196 290.275 456.227 290.259C456.258 290.252 456.173 289.959 455.996 289.451C455.818 288.943 455.549 288.211 455.202 287.31C454.524 285.508 453.514 283.052 452.559 280.28C452.088 278.894 451.719 277.554 451.457 276.322C451.318 275.706 451.225 275.113 451.141 274.559C451.064 274.005 450.994 273.481 450.956 273.004C450.863 272.049 450.825 271.271 450.801 270.74C450.778 270.208 450.755 269.916 450.724 269.908Z" fill="#A36957"/>
<path d="M443.696 335.651L443.689 334.411L457.229 333.818L457.268 338.931L456.436 338.985C452.721 339.2 437.523 339.832 435.034 339.085C432.26 338.261 443.696 335.651 443.696 335.651Z" fill="#424242"/>
<path d="M457.452 338.631C457.452 338.638 457.375 338.646 457.221 338.654C457.021 338.669 456.805 338.677 456.558 338.7C455.896 338.731 455.079 338.769 454.108 338.815C452.042 338.9 449.183 338.969 446.023 338.985C442.864 339 440.004 338.946 437.939 338.885C436.976 338.846 436.159 338.815 435.488 338.792C435.242 338.777 435.026 338.769 434.825 338.754C434.671 338.746 434.594 338.738 434.594 338.731C434.594 338.723 434.671 338.723 434.825 338.723C435.026 338.723 435.242 338.731 435.488 338.731C436.151 338.738 436.976 338.754 437.939 338.769C440.004 338.8 442.864 338.839 446.023 338.823C449.175 338.808 452.035 338.754 454.108 338.7C455.071 338.677 455.888 338.654 456.558 338.638C456.805 338.631 457.021 338.631 457.221 338.623C457.375 338.623 457.452 338.623 457.452 338.631Z" fill="#253858"/>
<path d="M439.311 339.062C439.265 339.069 439.219 338.484 438.849 337.899C438.486 337.306 437.985 337.006 438.009 336.967C438.016 336.929 438.594 337.175 438.987 337.814C439.38 338.446 439.35 339.077 439.311 339.062Z" fill="#253858"/>
<path d="M443.272 337.037C443.234 337.06 443.041 336.829 442.848 336.521C442.648 336.213 442.525 335.943 442.555 335.92C442.594 335.897 442.787 336.128 442.979 336.436C443.187 336.744 443.311 337.014 443.272 337.037Z" fill="#253858"/>
<path d="M444.366 336.452C444.336 336.482 444.12 336.344 443.889 336.136C443.657 335.928 443.488 335.735 443.519 335.697C443.55 335.666 443.765 335.805 443.997 336.013C444.228 336.228 444.397 336.421 444.366 336.452Z" fill="#253858"/>
<path d="M445.052 335.181C445.052 335.227 444.736 335.266 444.351 335.273C443.965 335.281 443.649 335.25 443.649 335.204C443.649 335.158 443.965 335.119 444.351 335.112C444.736 335.104 445.052 335.135 445.052 335.181Z" fill="#253858"/>
<path d="M445.283 334.288C445.299 334.326 444.96 334.48 444.497 334.519C444.043 334.557 443.68 334.457 443.688 334.411C443.696 334.365 444.05 334.388 444.482 334.357C444.921 334.319 445.268 334.242 445.283 334.288Z" fill="#253858"/>
<path d="M442.817 335.859C442.817 335.874 442.486 335.92 441.954 335.859C441.684 335.828 441.368 335.766 441.029 335.658C440.86 335.597 440.683 335.558 440.498 335.443C440.413 335.389 440.313 335.304 440.282 335.173C440.243 335.042 440.313 334.896 440.413 334.827C441.237 334.396 442.07 334.858 442.378 335.281C442.548 335.497 442.625 335.712 442.663 335.859C442.702 336.005 442.694 336.09 442.686 336.09C442.655 336.097 442.625 335.751 442.286 335.35C442.116 335.158 441.869 334.965 441.546 334.873C441.237 334.781 440.806 334.757 440.513 334.95C440.374 335.05 440.428 335.212 440.582 335.304C440.729 335.397 440.906 335.451 441.068 335.512C441.399 335.62 441.7 335.697 441.962 335.743C442.486 335.836 442.817 335.836 442.817 335.859Z" fill="#253858"/>
<path d="M442.594 335.905C442.579 335.912 442.455 335.697 442.494 335.304C442.517 335.112 442.586 334.888 442.725 334.673C442.879 334.48 443.072 334.219 443.442 334.226C443.642 334.249 443.742 334.48 443.711 334.627C443.696 334.781 443.627 334.912 443.565 335.012C443.434 335.227 443.295 335.404 443.157 335.535C442.887 335.805 442.671 335.905 442.663 335.889C442.648 335.866 442.833 335.735 443.072 335.458C443.187 335.32 443.318 335.15 443.434 334.935C443.55 334.75 443.634 334.426 443.419 334.388C443.203 334.365 442.979 334.58 442.848 334.758C442.71 334.942 442.64 335.15 442.602 335.32C442.54 335.674 442.617 335.897 442.594 335.905Z" fill="#253858"/>
<path d="M457.167 334.942C457.167 334.973 456.782 334.904 456.173 334.981C455.572 335.05 454.732 335.296 454.007 335.882C453.283 336.467 452.851 337.229 452.659 337.799C452.458 338.377 452.435 338.762 452.404 338.762C452.397 338.762 452.389 338.661 452.404 338.492C452.42 338.315 452.458 338.068 452.551 337.768C452.728 337.168 453.152 336.367 453.907 335.758C454.662 335.15 455.541 334.912 456.165 334.865C456.481 334.842 456.736 334.858 456.905 334.881C457.075 334.912 457.167 334.935 457.167 334.942Z" fill="#253858"/>
<path d="M450.686 337.553C450.693 337.591 449.815 337.737 448.72 337.737C447.626 337.745 446.748 337.614 446.748 337.568C446.755 337.522 447.634 337.576 448.713 337.568C449.799 337.576 450.678 337.506 450.686 337.553Z" fill="#253858"/>
<path d="M453.321 337.529C453.352 337.56 453.252 337.714 453.16 337.915C453.067 338.115 453.021 338.292 452.975 338.292C452.928 338.292 452.905 338.076 453.013 337.845C453.113 337.614 453.291 337.491 453.321 337.529Z" fill="#253858"/>
<path d="M454.316 336.29C454.347 336.321 454.262 336.459 454.123 336.605C453.984 336.744 453.846 336.836 453.815 336.806C453.784 336.775 453.869 336.636 454.008 336.49C454.139 336.344 454.277 336.251 454.316 336.29Z" fill="#253858"/>
<path d="M455.734 335.712C455.726 335.758 455.549 335.758 455.348 335.828C455.148 335.897 455.009 336.005 454.971 335.974C454.932 335.951 455.048 335.758 455.294 335.674C455.541 335.589 455.749 335.674 455.734 335.712Z" fill="#253858"/>
<path d="M456.743 335.443C456.759 335.481 456.682 335.551 456.574 335.597C456.466 335.643 456.358 335.643 456.343 335.597C456.327 335.558 456.404 335.489 456.512 335.443C456.628 335.404 456.728 335.404 456.743 335.443Z" fill="#253858"/>
<path d="M475.417 334.457L474.901 333.325L487.008 327.242L489.142 331.893L488.403 332.286C485.104 334.003 471.494 340.794 468.92 341.133C466.053 341.518 475.417 334.457 475.417 334.457Z" fill="#424242"/>
<path d="M489.196 331.539C489.196 331.547 489.127 331.585 488.996 331.654C488.818 331.747 488.626 331.847 488.41 331.962C487.817 332.263 487.084 332.632 486.221 333.071C484.372 333.995 481.79 335.227 478.915 336.536C476.041 337.838 473.413 338.962 471.494 339.755C470.6 340.117 469.837 340.425 469.22 340.671C468.989 340.763 468.789 340.84 468.596 340.91C468.45 340.964 468.38 340.987 468.373 340.979C468.373 340.971 468.442 340.941 468.581 340.879C468.766 340.802 468.966 340.71 469.189 340.61C469.798 340.348 470.554 340.024 471.44 339.647C473.343 338.831 475.964 337.691 478.838 336.39C481.713 335.089 484.295 333.864 486.16 332.971C487.03 332.555 487.77 332.201 488.371 331.909C488.595 331.801 488.795 331.708 488.973 331.624C489.119 331.57 489.188 331.539 489.196 331.539Z" fill="#253858"/>
<path d="M472.82 339.37C472.773 339.393 472.504 338.877 471.918 338.492C471.348 338.099 470.762 338.03 470.77 337.984C470.762 337.945 471.394 337.938 472.01 338.361C472.627 338.769 472.858 339.354 472.82 339.37Z" fill="#253858"/>
<path d="M475.602 335.889C475.579 335.928 475.309 335.797 475.001 335.597C474.692 335.397 474.469 335.204 474.492 335.166C474.515 335.127 474.785 335.258 475.093 335.458C475.401 335.658 475.625 335.851 475.602 335.889Z" fill="#253858"/>
<path d="M476.357 334.919C476.341 334.965 476.087 334.919 475.794 334.827C475.494 334.734 475.27 334.619 475.278 334.58C475.293 334.534 475.54 334.58 475.841 334.673C476.141 334.765 476.372 334.873 476.357 334.919Z" fill="#253858"/>
<path d="M476.465 333.472C476.48 333.51 476.21 333.68 475.863 333.841C475.509 334.003 475.208 334.103 475.193 334.065C475.178 334.026 475.447 333.857 475.794 333.695C476.141 333.533 476.441 333.433 476.465 333.472Z" fill="#253858"/>
<path d="M476.31 332.563C476.341 332.594 476.095 332.879 475.694 333.094C475.293 333.318 474.923 333.372 474.916 333.333C474.9 333.287 475.239 333.164 475.617 332.956C475.995 332.74 476.28 332.525 476.31 332.563Z" fill="#253858"/>
<path d="M474.7 335.012C474.707 335.027 474.422 335.204 473.906 335.366C473.651 335.443 473.336 335.52 472.981 335.558C472.804 335.574 472.626 335.605 472.411 335.581C472.311 335.566 472.187 335.528 472.102 335.427C472.018 335.327 472.018 335.166 472.079 335.058C472.657 334.326 473.605 334.411 474.06 334.673C474.307 334.804 474.461 334.965 474.553 335.081C474.646 335.204 474.676 335.281 474.669 335.281C474.646 335.304 474.476 334.996 474.006 334.773C473.775 334.665 473.467 334.596 473.135 334.642C472.819 334.688 472.411 334.842 472.226 335.135C472.141 335.281 472.257 335.412 472.434 335.427C472.603 335.451 472.796 335.427 472.966 335.42C473.312 335.389 473.621 335.327 473.875 335.266C474.391 335.119 474.692 334.989 474.7 335.012Z" fill="#253858"/>
<path d="M474.515 335.143C474.507 335.158 474.299 335.004 474.176 334.634C474.114 334.45 474.083 334.219 474.13 333.964C474.191 333.726 474.261 333.402 474.608 333.264C474.8 333.202 475.255 333.595 475.286 333.741C475.332 333.887 475.055 333.81 475.047 333.934C475.016 334.18 474.962 334.403 474.893 334.58C474.754 334.935 474.6 335.112 474.584 335.104C474.561 335.089 474.677 334.888 474.785 334.542C474.839 334.365 474.885 334.157 474.9 333.918C474.931 333.703 474.87 333.372 474.654 333.425C474.446 333.495 474.338 333.78 474.284 333.995C474.238 334.219 474.253 334.434 474.292 334.611C474.376 334.95 474.538 335.127 474.515 335.143Z" fill="#253858"/>
<path d="M487.423 328.297C487.431 328.328 487.054 328.42 486.53 328.736C486.005 329.044 485.343 329.614 484.919 330.446C484.495 331.277 484.418 332.147 484.472 332.748C484.526 333.356 484.665 333.718 484.634 333.726C484.626 333.726 484.58 333.641 484.518 333.479C484.456 333.318 484.395 333.071 484.349 332.756C484.264 332.14 484.318 331.231 484.765 330.361C485.204 329.498 485.913 328.913 486.46 328.628C486.738 328.482 486.977 328.39 487.146 328.343C487.323 328.305 487.416 328.29 487.423 328.297Z" fill="#253858"/>
<path d="M482.576 333.333C482.599 333.372 481.851 333.857 480.857 334.311C479.863 334.765 479.008 335.004 478.992 334.965C478.977 334.919 479.802 334.611 480.788 334.165C481.774 333.718 482.553 333.295 482.576 333.333Z" fill="#253858"/>
<path d="M484.973 332.232C485.019 332.247 484.981 332.432 484.988 332.655C484.988 332.879 485.019 333.056 484.973 333.079C484.934 333.094 484.819 332.917 484.819 332.655C484.819 332.394 484.934 332.209 484.973 332.232Z" fill="#253858"/>
<path d="M485.366 330.692C485.404 330.707 485.389 330.869 485.32 331.054C485.25 331.239 485.158 331.377 485.119 331.362C485.081 331.346 485.096 331.185 485.165 331C485.235 330.815 485.32 330.677 485.366 330.692Z" fill="#253858"/>
<path d="M486.429 329.591C486.437 329.637 486.275 329.706 486.121 329.853C485.967 329.991 485.882 330.153 485.836 330.137C485.79 330.13 485.821 329.906 486.006 329.729C486.198 329.552 486.422 329.545 486.429 329.591Z" fill="#253858"/>
<path d="M487.238 328.929C487.269 328.959 487.231 329.052 487.146 329.144C487.061 329.229 486.969 329.275 486.938 329.244C486.907 329.214 486.945 329.121 487.03 329.029C487.115 328.936 487.207 328.898 487.238 328.929Z" fill="#253858"/>
<path d="M472.079 172.203L469.821 144.714L481.404 144.922C481.404 144.922 481.944 140.872 480.233 131.978C479.185 126.526 475.555 123.185 471.478 121.198V121.129L471.124 121.036C465.937 118.611 460.512 118.272 460.512 118.272L446.293 118.434C446.293 118.434 435.434 117.079 429.423 124.817C427.111 127.797 419.944 148.194 419.944 148.194L437.006 156.402L435.38 145.091C435.38 145.091 435.704 153.292 436.752 155.887C437.338 157.334 439.026 161.831 439.026 161.831L438.802 175.391L472.079 172.203Z" fill="#4CAF50"/>
<path d="M464.242 140.725L462.13 149.703H482.037L480.727 134.642L464.242 140.725Z" fill="#4CAF50"/>
<path d="M482.037 149.703C482.037 149.642 481.035 149.542 479.401 149.442C477.767 149.349 475.509 149.264 473.02 149.28C470.523 149.295 468.265 149.403 466.639 149.526C465.005 149.657 464.003 149.796 464.011 149.85C464.018 149.911 465.028 149.888 466.654 149.834C468.288 149.788 470.538 149.727 473.02 149.711C475.509 149.703 477.759 149.734 479.393 149.75C481.019 149.773 482.037 149.765 482.037 149.703Z" fill="#253858"/>
<path d="M463.379 134.573C463.317 134.573 463.294 135.451 463.309 136.86C463.325 138.269 463.379 140.217 463.456 142.365C463.541 144.514 463.641 146.462 463.733 147.863C463.826 149.272 463.918 150.135 463.98 150.135C464.041 150.135 464.065 149.257 464.049 147.848C464.034 146.439 463.98 144.491 463.903 142.342C463.818 140.194 463.718 138.254 463.625 136.844C463.533 135.435 463.44 134.573 463.379 134.573Z" fill="#253858"/>
<g opacity="0.3">
<path opacity="0.3" d="M445.268 142.35C445.268 142.35 449.692 175.129 462.13 174.259C462.13 174.259 467.733 174.189 469.529 170.47V169.007L445.268 142.35Z" fill="black"/>
</g>
<g opacity="0.3">
<path opacity="0.3" d="M463.378 136.506L460.997 152.576L462.538 155.394L465.082 149.881L464.003 149.85L463.378 136.506Z" fill="black"/>
</g>
<path d="M439.041 161.823C439.018 161.831 438.894 161.561 438.702 161.053C438.509 160.553 438.255 159.814 437.954 158.905C437.361 157.072 436.629 154.516 436.051 151.628C435.481 148.741 435.195 146.092 435.111 144.167C435.064 143.205 435.049 142.427 435.064 141.888C435.072 141.349 435.095 141.049 435.118 141.049C435.18 141.049 435.226 142.234 435.388 144.144C435.55 146.054 435.874 148.679 436.444 151.551C437.014 154.416 437.7 156.972 438.224 158.82C438.471 159.675 438.679 160.406 438.848 161.007C438.995 161.523 439.064 161.816 439.041 161.823Z" fill="#253858"/>
<path d="M444.066 171.24C443.958 171.271 443.649 170.563 443.38 169.662C443.102 168.761 442.971 167.999 443.079 167.968C443.187 167.937 443.495 168.645 443.765 169.546C444.035 170.455 444.174 171.21 444.066 171.24Z" fill="#253858"/>
<path d="M445.784 171.117C445.684 171.14 445.345 170.085 445.329 168.722C445.306 167.36 445.607 166.289 445.715 166.312C445.83 166.335 445.707 167.398 445.73 168.715C445.746 170.031 445.9 171.094 445.784 171.117Z" fill="#253858"/>
<path d="M437.369 156.772C437.322 156.872 433.346 154.986 428.498 152.568C423.651 150.15 419.759 148.102 419.805 148.002C419.851 147.902 423.828 149.788 428.675 152.206C433.523 154.624 437.415 156.672 437.369 156.772Z" fill="#253858"/>
<path d="M444.366 121.083C444.459 117.186 444.474 113.082 444.474 113.082C444.474 113.082 439.473 112.12 438.602 105.544C437.769 99.2762 440.097 84.5615 440.097 84.5615C447.403 81.8049 454.994 84.2997 459.995 90.2133L458.755 121.837C458.608 125.51 455.333 128.313 451.402 128.128C447.426 127.951 444.281 124.794 444.366 121.083Z" fill="#FFBE9D"/>
<path d="M439.711 96.327C439.681 96.7736 440.035 97.1586 440.497 97.1971C440.96 97.2356 441.353 96.9045 441.384 96.4656C441.415 96.019 441.06 95.634 440.598 95.5955C440.143 95.557 439.742 95.8804 439.711 96.327Z" fill="#253858"/>
<path d="M439.403 95.2259C439.503 95.3414 440.151 94.8871 441.06 94.9102C441.962 94.9256 442.617 95.403 442.717 95.2952C442.763 95.249 442.663 95.0488 442.386 94.8332C442.108 94.6176 441.63 94.402 441.06 94.3866C440.497 94.3789 440.02 94.5714 439.742 94.7716C439.449 94.9795 439.349 95.172 439.403 95.2259Z" fill="#253858"/>
<path d="M448.891 96.8969C448.86 97.3435 449.214 97.7285 449.677 97.767C450.139 97.8055 450.532 97.4744 450.563 97.0355C450.594 96.5889 450.239 96.2039 449.777 96.1654C449.314 96.1269 448.921 96.458 448.891 96.8969Z" fill="#253858"/>
<path d="M448.829 95.7958C448.929 95.9113 449.576 95.457 450.486 95.4801C451.387 95.4955 452.042 95.9729 452.143 95.8651C452.189 95.8189 452.089 95.6187 451.803 95.3954C451.526 95.1798 451.048 94.9642 450.478 94.9488C449.915 94.9411 449.438 95.1336 449.16 95.3338C448.883 95.5494 448.782 95.7419 448.829 95.7958Z" fill="#253858"/>
<path d="M445.376 102.41C445.383 102.356 444.821 102.248 443.911 102.11C443.68 102.079 443.464 102.025 443.426 101.871C443.372 101.702 443.48 101.455 443.595 101.193C443.827 100.639 444.065 100.062 444.32 99.4532C445.329 96.9738 446.069 94.941 445.969 94.8948C445.869 94.8563 444.967 96.8275 443.95 99.3069C443.703 99.9152 443.472 100.5 443.249 101.055C443.156 101.317 442.994 101.609 443.102 101.956C443.156 102.133 443.326 102.256 443.472 102.302C443.619 102.348 443.75 102.356 443.865 102.364C444.798 102.441 445.368 102.464 445.376 102.41Z" fill="#253858"/>
<path d="M444.474 113.09C444.474 113.09 448.875 113.49 453.314 110.98C453.314 110.98 451.071 115.423 444.528 114.638L444.474 113.09Z" fill="#EB996E"/>
<path d="M451.726 93.1854C451.541 93.4703 450.855 93.3394 450.084 93.2008C449.314 93.0468 448.628 92.9082 448.566 92.5771C448.489 92.2614 449.283 91.8225 450.316 92.015C451.333 92.2229 451.911 92.9236 451.726 93.1854Z" fill="#253858"/>
<path d="M442.732 91.8611C442.663 92.1922 441.923 92.3077 441.075 92.3539C440.228 92.3847 439.48 92.3385 439.38 92.0151C439.28 91.7071 439.996 91.1989 441.021 91.1527C442.046 91.1065 442.802 91.5454 442.732 91.8611Z" fill="#253858"/>
<path d="M445.391 104.574C445.198 104.52 444.983 104.628 444.89 104.805C444.775 105.013 444.829 105.29 445.006 105.444C445.183 105.598 445.476 105.598 445.661 105.452C445.846 105.305 445.907 105.02 445.8 104.812C445.692 104.605 445.43 104.489 445.198 104.558" fill="#A36957"/>
<path d="M445.599 104.666C445.638 104.628 445.453 104.404 445.06 104.497C444.875 104.535 444.636 104.697 444.567 104.982C444.497 105.244 444.559 105.582 444.836 105.798C445.129 105.998 445.476 105.96 445.7 105.806C445.946 105.644 446.016 105.351 445.977 105.167C445.9 104.759 445.599 104.697 445.592 104.751C445.561 104.805 445.7 104.943 445.669 105.182C445.653 105.298 445.599 105.405 445.484 105.467C445.368 105.529 445.191 105.529 445.091 105.452C444.983 105.375 444.929 105.205 444.952 105.082C444.967 104.951 445.052 104.859 445.16 104.797C445.384 104.658 445.576 104.72 445.599 104.666Z" fill="#253858"/>
<path d="M456.967 97.9518C456.188 99.7536 454.285 101.147 454.547 103.095C454.716 104.35 455.526 105.529 455.371 106.784C455.171 108.362 453.53 109.463 453.298 111.042C453.013 112.974 454.894 114.476 455.649 116.285C456.743 118.911 455.341 121.868 455.31 124.717C455.256 129.075 458.97 133.148 463.317 133.51C465.074 133.657 467.055 133.125 467.972 131.616C468.727 130.369 468.573 128.79 469.028 127.404C469.698 125.341 471.663 123.839 472.079 121.706C472.835 117.825 468.141 114.622 468.45 110.68C468.581 108.994 469.621 107.531 470.06 105.898C470.638 103.765 470.107 101.363 468.681 99.6689C467.525 98.2906 465.845 97.3897 464.858 95.8882C463.741 94.1865 463.702 92.0228 463.278 90.0285C462.253 85.1698 458.601 80.9502 453.938 79.2331C449.275 77.516 443.75 78.3553 439.812 81.3814C439.812 81.3814 438.694 86.4557 443.904 87.3027C449.121 88.1497 451.533 87.1718 452.119 89.2585C452.119 89.2585 451.526 91.6994 453.684 94.0248C455.842 96.3502 457.868 95.8574 456.967 97.9518Z" fill="#253858"/>
<path d="M465.29 133.148C465.29 133.164 465.128 133.148 464.812 133.102C464.504 133.056 464.049 132.948 463.486 132.748C462.377 132.34 460.797 131.454 459.456 129.76C458.785 128.921 458.161 127.905 457.737 126.711C457.306 125.525 457.059 124.178 457.036 122.761C457.005 121.344 457.205 119.851 457.591 118.364C457.783 117.618 458.038 116.878 458.331 116.139C458.616 115.4 458.97 114.684 459.178 113.929C459.394 113.175 459.371 112.405 459.171 111.673C458.97 110.942 458.623 110.249 458.292 109.563C457.953 108.878 457.614 108.2 457.39 107.477C457.167 106.761 457.082 105.983 457.229 105.267C457.537 103.819 458.415 102.741 458.939 101.64C459.487 100.547 459.664 99.3994 459.641 98.3599C459.548 96.2655 458.654 94.7101 457.922 93.8169C457.159 92.9237 456.581 92.5772 456.612 92.5464C456.612 92.5464 457.221 92.8313 458.038 93.7168C458.824 94.6023 459.787 96.1731 459.918 98.3445C459.964 99.4148 459.803 100.631 459.24 101.779C458.708 102.918 457.861 104.004 457.591 105.328C457.321 106.668 457.953 108.046 458.639 109.386C458.978 110.072 459.332 110.78 459.548 111.565C459.764 112.343 459.795 113.229 459.556 114.029C459.34 114.838 458.978 115.562 458.693 116.285C458.408 117.009 458.153 117.741 457.961 118.465C457.575 119.92 457.375 121.375 457.398 122.753C457.406 125.525 458.361 127.959 459.664 129.583C460.943 131.254 462.454 132.155 463.533 132.594C464.635 133.033 465.297 133.102 465.29 133.148Z" fill="#424242"/>
<path d="M464.519 94.2942C464.519 94.3173 464.118 94.3943 463.371 94.4636C462.631 94.5252 461.537 94.6099 460.196 94.3789C458.893 94.1402 457.236 93.5011 456.188 91.9534C455.672 91.1757 455.471 90.2363 455.14 89.3662C454.824 88.4884 454.215 87.7261 453.383 87.2025C451.695 86.1322 449.714 86.0013 447.98 85.7934C446.239 85.5932 444.597 85.2236 443.488 84.392C442.37 83.5989 441.8 82.5671 441.646 81.8202C441.561 81.4506 441.569 81.1503 441.584 80.9501C441.615 80.7499 441.63 80.6498 441.646 80.6498C441.692 80.6498 441.592 81.0733 441.792 81.774C441.977 82.467 442.555 83.4218 443.642 84.1533C444.713 84.9079 446.277 85.239 448.011 85.4161C449.73 85.6086 451.788 85.7164 453.591 86.856C454.485 87.4104 455.171 88.2805 455.494 89.2122C455.841 90.1285 456.026 91.0294 456.489 91.7378C457.429 93.17 458.986 93.8245 460.234 94.0863C461.521 94.3481 462.608 94.3096 463.348 94.2942C464.103 94.2865 464.519 94.2634 464.519 94.2942Z" fill="#424242"/>
<path d="M462.608 88.0265C462.616 88.0496 462.3 88.142 461.706 88.1574C461.121 88.1728 460.242 88.0727 459.271 87.6107C458.786 87.3797 458.292 87.0563 457.838 86.6174C457.375 86.1785 456.998 85.6164 456.643 85.0235C455.95 83.8531 455.279 82.4055 453.838 81.8126C452.428 81.2043 450.871 81.3429 449.522 81.4353C448.158 81.5662 446.879 81.6124 445.838 81.4045C444.79 81.2197 444.004 80.7885 443.565 80.3881C443.341 80.1879 443.195 80.0108 443.11 79.8799C443.025 79.749 442.987 79.6797 442.995 79.672C443.025 79.6489 443.21 79.9184 443.665 80.2649C444.112 80.6114 444.875 80.981 445.885 81.1273C446.902 81.289 448.12 81.2274 449.491 81.0734C450.848 80.9656 452.451 80.7962 454 81.4507C454.77 81.7741 455.395 82.3516 455.842 82.9753C456.296 83.599 456.62 84.2535 456.967 84.8387C457.306 85.4316 457.653 85.9706 458.077 86.3864C458.493 86.8099 458.947 87.1333 459.402 87.3643C460.304 87.834 461.144 87.9803 461.714 88.0111C462.284 88.0342 462.6 87.988 462.608 88.0265Z" fill="#424242"/>
<path d="M467.586 131.485C467.548 131.47 467.795 130.969 468.08 130.022C468.365 129.075 468.642 127.658 468.596 125.895C468.534 124.147 468.118 122.03 466.955 120.012C466.392 119.004 465.536 118.103 464.835 117.002C464.488 116.447 464.188 115.831 464.057 115.146C463.926 114.461 464.003 113.729 464.226 113.067C464.658 111.735 465.436 110.618 465.598 109.394C465.806 108.17 465.182 107.053 464.596 106.052C464.296 105.544 464.003 105.043 463.772 104.52C463.54 103.996 463.394 103.442 463.332 102.911C463.217 101.84 463.34 100.855 463.417 99.9768C463.641 98.2212 463.479 96.7736 463.055 95.8881C462.646 94.9872 462.107 94.7177 462.146 94.6792C462.153 94.6715 462.184 94.6869 462.238 94.7254C462.292 94.7639 462.384 94.8101 462.485 94.9025C462.693 95.0719 462.962 95.3645 463.194 95.8188C463.679 96.7197 463.887 98.2289 463.702 99.9999C463.641 100.885 463.533 101.856 463.664 102.872C463.764 103.896 464.296 104.859 464.912 105.86C465.213 106.368 465.529 106.899 465.752 107.5C465.983 108.093 466.084 108.778 465.984 109.44C465.799 110.788 465.005 111.927 464.604 113.175C464.396 113.798 464.334 114.445 464.442 115.061C464.558 115.677 464.827 116.255 465.159 116.786C465.822 117.849 466.685 118.765 467.263 119.82C468.45 121.906 468.843 124.086 468.874 125.88C468.889 127.681 468.558 129.121 468.226 130.061C468.057 130.53 467.91 130.892 467.779 131.123C467.664 131.37 467.602 131.493 467.586 131.485Z" fill="#424242"/>
<path d="M436.197 274.959C436.197 274.959 431.011 225.803 430.71 207.638C430.409 189.474 438.887 171.548 438.887 171.548L472.087 170.147C472.087 170.147 478.653 188.581 478.769 196.319C479 211.365 474.769 226.218 475.255 238.153L476.364 274.959" fill="#253858"/>
<path d="M477.474 214.522C477.482 214.537 477.289 214.676 476.935 214.93C476.842 214.999 476.742 215.069 476.634 215.146C476.534 215.23 476.426 215.346 476.31 215.454C476.079 215.677 475.802 215.931 475.57 216.278C474.499 217.587 473.713 219.935 472.973 222.861C472.565 224.316 472.149 225.941 471.293 227.535C471.062 227.928 470.854 228.336 470.553 228.698C470.407 228.883 470.276 229.083 470.122 229.26L469.613 229.768C468.92 230.453 468.041 230.962 467.116 231.37C465.259 232.186 463.163 232.571 461.244 233.533C459.317 234.473 457.868 236.29 456.982 238.384C456.049 240.471 455.479 242.658 454.701 244.706C453.938 246.739 452.89 248.71 451.233 249.958C449.591 251.251 447.557 251.544 445.8 251.659C444.012 251.767 442.355 251.713 440.875 251.936C439.395 252.144 438.085 252.606 437.16 253.338C436.228 254.069 435.688 254.986 435.434 255.771C435.172 256.564 435.218 257.234 435.303 257.658C435.388 258.089 435.511 258.297 435.48 258.304C435.48 258.304 435.334 258.112 435.218 257.673C435.103 257.242 435.026 256.549 435.28 255.717C435.519 254.893 436.058 253.938 437.014 253.161C437.97 252.383 439.318 251.883 440.829 251.652C442.339 251.405 444.012 251.444 445.776 251.32C447.518 251.197 449.46 250.889 451.009 249.657C452.574 248.471 453.583 246.569 454.331 244.56C455.094 242.535 455.664 240.348 456.612 238.215C457.506 236.082 459.04 234.149 461.059 233.179C463.055 232.194 465.151 231.816 466.962 231.031C467.864 230.638 468.704 230.153 469.367 229.514L469.86 229.029C470.014 228.859 470.137 228.667 470.276 228.498C470.569 228.151 470.769 227.751 470.993 227.381C471.84 225.841 472.264 224.232 472.696 222.784C473.474 219.874 474.307 217.494 475.447 216.185C475.694 215.839 475.987 215.585 476.226 215.369C476.349 215.261 476.457 215.153 476.565 215.069C476.68 214.999 476.788 214.93 476.881 214.869C477.266 214.63 477.466 214.514 477.474 214.522Z" fill="#FAFAFA"/>
<path d="M477.675 191.776C477.69 191.776 477.705 192 477.721 192.438C477.729 192.87 477.675 193.516 477.49 194.317C477.104 195.919 475.933 198.121 473.737 200.115C472.65 201.116 471.347 202.079 469.845 202.957C468.357 203.842 466.716 204.681 465.036 205.629C463.363 206.583 461.629 207.654 460.111 209.086C458.57 210.495 457.422 212.351 456.381 214.322C455.333 216.285 454.408 218.28 453.152 220.012C452.528 220.875 451.826 221.668 451.048 222.338C450.262 223.007 449.407 223.554 448.543 224.008C446.802 224.909 445.029 225.471 443.388 225.987C441.738 226.496 440.205 226.95 438.856 227.512C437.507 228.066 436.344 228.698 435.404 229.36C434.463 230.03 433.747 230.723 433.238 231.354C432.213 232.625 431.997 233.541 431.936 233.518C431.92 233.51 431.997 233.302 432.151 232.894C432.329 232.502 432.606 231.916 433.115 231.262C433.616 230.607 434.325 229.876 435.273 229.175C436.22 228.482 437.392 227.828 438.748 227.25C440.105 226.665 441.646 226.195 443.287 225.672C444.921 225.148 446.678 224.578 448.374 223.685C449.222 223.238 450.046 222.707 450.801 222.053C451.549 221.398 452.235 220.628 452.836 219.789C454.061 218.095 454.978 216.116 456.034 214.137C457.075 212.166 458.262 210.256 459.849 208.809C461.406 207.346 463.171 206.268 464.858 205.313C466.554 204.366 468.195 203.542 469.683 202.679C471.17 201.832 472.465 200.893 473.552 199.923C475.733 197.99 476.919 195.857 477.343 194.294C477.752 192.7 477.613 191.769 477.675 191.776Z" fill="#FAFAFA"/>
<path d="M430.872 210.241C430.864 210.241 430.841 210.195 430.803 210.095C430.772 209.994 430.702 209.84 430.656 209.633C430.564 209.224 430.502 208.57 430.733 207.785C431.165 206.214 432.868 204.266 435.612 203.288C436.976 202.818 438.532 202.533 440.143 202.11C441.738 201.678 443.48 201.078 444.782 199.746C445.43 199.084 445.977 198.306 446.424 197.443C446.863 196.573 447.233 195.642 447.572 194.679C448.266 192.762 448.844 190.675 450.015 188.773C451.179 186.864 453.075 185.532 455.04 184.869C456.998 184.153 458.978 183.83 460.805 183.406C462.647 183.006 464.365 182.49 465.822 181.697C467.263 180.881 468.403 179.795 469.213 178.64C470.877 176.33 471.309 173.966 471.37 172.403C471.409 170.817 471.155 169.947 471.209 169.939C471.209 169.939 471.517 170.786 471.532 172.403C471.517 173.989 471.124 176.415 469.452 178.802C468.635 179.995 467.471 181.127 465.991 181.982C464.496 182.806 462.739 183.345 460.897 183.761C459.055 184.192 457.09 184.523 455.186 185.231C453.268 185.893 451.487 187.149 450.362 188.981C449.229 190.806 448.651 192.87 447.95 194.802C447.603 195.773 447.225 196.72 446.771 197.613C446.301 198.498 445.73 199.315 445.044 200C443.665 201.401 441.846 202.002 440.228 202.425C438.586 202.841 437.045 203.103 435.704 203.55C433.03 204.458 431.334 206.329 430.88 207.823C430.633 208.57 430.664 209.201 430.733 209.609C430.826 210.018 430.895 210.233 430.872 210.241Z" fill="#FAFAFA"/>
<path d="M474.823 251.805C474.838 251.805 474.854 251.967 474.877 252.291C474.892 252.606 474.869 253.084 474.738 253.684C474.468 254.87 473.551 256.495 471.825 257.842C470.977 258.528 469.952 259.151 468.766 259.652C467.586 260.152 466.284 260.553 464.928 260.976C463.571 261.4 462.145 261.846 460.758 262.493C459.363 263.132 458.076 264.064 456.967 265.257C455.841 266.435 454.87 267.721 453.799 268.853C452.728 269.993 451.51 270.932 450.246 271.633C447.711 273.034 445.083 273.512 442.917 273.535C440.736 273.558 439.01 273.104 437.869 272.696C437.299 272.495 436.868 272.295 436.59 272.149C436.305 272.01 436.159 271.926 436.166 271.918C436.174 271.902 436.328 271.964 436.621 272.08C436.914 272.203 437.345 272.38 437.916 272.557C439.056 272.911 440.767 273.319 442.902 273.258C445.029 273.196 447.595 272.695 450.054 271.317C451.279 270.632 452.451 269.716 453.499 268.591C454.554 267.475 455.518 266.189 456.666 264.988C457.791 263.771 459.155 262.793 460.581 262.147C462.007 261.484 463.448 261.045 464.812 260.63C466.176 260.214 467.471 259.829 468.627 259.351C469.783 258.874 470.8 258.273 471.632 257.619C473.336 256.325 474.26 254.785 474.569 253.638C474.885 252.483 474.761 251.805 474.823 251.805Z" fill="#FAFAFA"/>
<path d="M471.039 149.734L464.62 149.888C464.196 152.052 463.171 153.53 463.171 153.53C457.799 144.221 453.638 131.747 452.605 126.734C452.759 126.234 452.936 125.679 453.16 125.063C453.414 124.347 453.198 122.992 453.075 122.245C452.898 121.129 452.582 119.627 452.489 118.934C452.204 116.817 451.865 116.486 451.125 116.724C450.116 117.048 451.541 122.676 450.717 122.792C450.278 122.861 449.73 120.928 449.576 119.35C449.422 117.771 448.705 112.905 448.181 112.582C447.418 112.104 446.748 112.859 446.941 114.43C447.133 116.024 447.38 120.774 446.548 120.836C445.723 120.898 445.029 112.836 445.029 112.836C445.029 112.836 445.16 111.08 444.189 111.126C442.44 111.203 443.804 119.704 443.958 120.505C444.066 121.067 443.157 121.167 443.08 120.559C442.995 119.935 442.579 112.497 440.798 112.559C439.434 112.605 441.854 119.566 441.091 121.175C440.328 122.784 439.796 115.7 438.486 115.793C438.001 115.831 437.646 115.923 438.533 119.935C439.01 122.091 440.421 126.057 441.646 129.337C443.711 140.463 452.775 176.06 466.978 169.539C474.923 165.896 478.153 149.734 478.153 149.734H471.039Z" fill="#FFBE9D"/>
<path d="M443.642 121.044C443.642 121.044 443.704 121.052 443.827 121.021C443.935 120.99 444.151 120.851 444.12 120.574C444.104 120.097 444.027 119.404 443.92 118.503C443.835 117.594 443.565 116.509 443.565 115.223C443.557 114.576 443.573 113.883 443.611 113.151C443.634 112.782 443.642 112.405 443.727 112.043C443.789 111.696 444.02 111.296 444.289 111.342L444.32 111.35H444.336C444.613 111.334 444.821 111.55 444.914 111.873C445.014 112.181 445.037 112.551 445.014 112.905V112.92V112.928C445.191 114.899 445.391 117.055 445.838 119.358C445.9 119.643 445.962 119.935 446.054 120.228C446.1 120.374 446.147 120.52 446.216 120.667C446.255 120.744 446.285 120.813 446.347 120.898C446.401 120.967 446.47 121.082 446.671 121.098C446.994 121.075 447.087 120.828 447.156 120.69C447.226 120.528 447.272 120.374 447.303 120.22C447.372 119.904 447.403 119.596 447.426 119.281C447.511 118.026 447.465 116.74 447.372 115.431C447.341 114.769 447.179 114.106 447.295 113.506C447.349 113.213 447.472 112.913 447.673 112.79C447.773 112.728 447.881 112.72 448.004 112.751C448.066 112.766 448.127 112.797 448.189 112.828C448.243 112.874 448.227 112.851 448.274 112.944C448.528 113.498 448.667 114.214 448.805 114.876C448.944 115.562 449.06 116.255 449.168 116.955C449.276 117.656 449.376 118.364 449.461 119.08C449.53 119.797 449.63 120.544 449.815 121.267C449.908 121.629 450.008 121.991 450.162 122.353C450.239 122.53 450.324 122.715 450.478 122.9C450.532 122.977 450.717 123.123 450.94 123.069C451.156 123 451.218 122.823 451.256 122.723C451.38 122.276 451.341 121.914 451.341 121.521C451.326 121.136 451.295 120.759 451.264 120.382C451.21 119.735 451.148 119.088 451.125 118.457C451.117 118.141 451.118 117.825 451.148 117.533C451.164 117.386 451.195 117.24 451.241 117.132C451.264 117.078 451.295 117.04 451.318 117.017C451.333 117.001 451.341 117.009 451.349 116.994L451.449 116.963C451.958 116.755 452.127 117.463 452.266 118.033C452.381 118.634 452.458 119.25 452.582 119.858C452.782 121.075 453.044 122.276 453.183 123.431C453.237 124.008 453.283 124.601 453.114 125.086C452.929 125.641 452.751 126.195 452.574 126.742L452.559 126.788L452.574 126.842C453.514 130.985 454.817 134.688 456.019 137.976C457.237 141.264 458.462 144.098 459.533 146.423C460.604 148.749 461.568 150.535 462.238 151.759C462.577 152.337 462.839 152.799 463.04 153.138C463.225 153.446 463.325 153.607 463.34 153.6C463.348 153.592 463.271 153.422 463.101 153.099C462.916 152.753 462.67 152.283 462.361 151.69C461.737 150.45 460.812 148.648 459.772 146.315C458.732 143.982 457.545 141.141 456.35 137.853C455.171 134.565 453.892 130.854 452.983 126.757L452.975 126.857C453.152 126.318 453.329 125.779 453.514 125.225C453.722 124.594 453.661 123.985 453.607 123.385C453.468 122.184 453.214 121.013 453.013 119.789C452.898 119.188 452.821 118.565 452.697 117.941C452.628 117.625 452.559 117.309 452.381 116.986C452.297 116.832 452.166 116.655 451.958 116.555C451.742 116.462 451.526 116.486 451.349 116.532L451.218 116.57C451.156 116.593 451.087 116.624 451.04 116.67C450.94 116.755 450.886 116.855 450.848 116.948C450.763 117.132 450.74 117.302 450.717 117.471C450.678 117.81 450.678 118.141 450.694 118.465C450.717 119.119 450.778 119.766 450.832 120.413C450.863 120.79 450.894 121.159 450.909 121.529C450.925 121.891 450.933 122.284 450.855 122.561C450.832 122.638 450.802 122.63 450.84 122.669C450.84 122.646 450.848 122.707 450.848 122.7V122.692C450.848 122.684 450.848 122.669 450.848 122.669C450.855 122.661 450.871 122.638 450.855 122.63C450.848 122.63 450.832 122.615 450.809 122.584C450.724 122.484 450.64 122.33 450.57 122.168C450.432 121.845 450.331 121.498 450.247 121.144C450.069 120.436 449.969 119.735 449.9 119.011C449.815 118.287 449.715 117.571 449.599 116.863C449.491 116.155 449.368 115.454 449.229 114.769C449.068 114.076 448.967 113.406 448.644 112.713C448.621 112.643 448.49 112.489 448.405 112.443C448.32 112.389 448.22 112.351 448.12 112.32C447.912 112.266 447.657 112.289 447.465 112.412C447.079 112.666 446.964 113.067 446.894 113.413C446.833 113.775 446.84 114.129 446.879 114.468C446.917 114.799 446.948 115.123 446.971 115.446C447.071 116.74 447.118 118.018 447.041 119.242C447.018 119.542 446.987 119.851 446.933 120.135C446.902 120.282 446.863 120.413 446.817 120.536C446.794 120.597 446.763 120.651 446.732 120.682C446.702 120.744 446.678 120.667 446.686 120.775C446.725 120.698 446.686 120.736 446.655 120.674C446.625 120.636 446.594 120.567 446.563 120.513C446.509 120.389 446.463 120.251 446.416 120.12C446.332 119.85 446.262 119.566 446.201 119.281C445.746 117.017 445.53 114.853 445.33 112.905V112.928C445.345 112.536 445.322 112.158 445.207 111.781C445.145 111.596 445.06 111.411 444.906 111.265C444.752 111.119 444.536 111.049 444.336 111.057L444.382 111.065C444.074 111.011 443.842 111.196 443.719 111.38C443.588 111.573 443.526 111.781 443.48 111.981C443.395 112.389 443.395 112.766 443.38 113.136C443.349 113.875 443.349 114.576 443.365 115.223C443.388 116.539 443.688 117.625 443.788 118.518C443.919 119.412 444.02 120.105 444.066 120.574C444.112 120.798 443.935 120.944 443.842 120.975C443.704 121.029 443.634 121.036 443.642 121.044Z" fill="#EB996E"/>
<path d="M393.448 160.337C393.448 160.337 391.314 160.237 388.986 160.845C385.01 161.893 378.135 166.051 377.85 171.194H382.836C382.836 171.194 380.039 177.139 380.863 176.584C382.99 175.16 387.237 170.848 387.237 170.848L393.448 160.337Z" fill="#FFBE9D"/>
<path d="M461.522 70.8708C461.414 70.8785 460.959 66.759 460.512 61.6616C460.065 56.5642 459.788 52.4293 459.903 52.4216C460.011 52.4139 460.466 56.5334 460.913 61.6308C461.36 66.7282 461.629 70.8631 461.522 70.8708Z" fill="#253858"/>
<path d="M483.416 52.6758C483.508 52.7374 480.133 57.6269 475.887 63.5944C471.64 69.5619 468.118 74.3436 468.026 74.282C467.933 74.2204 471.309 69.3309 475.555 63.3634C479.802 57.3959 483.323 52.6142 483.416 52.6758Z" fill="#253858"/>
<path d="M492.51 74.8363C492.533 74.9441 488.595 75.845 483.724 76.846C478.846 77.847 474.877 78.5708 474.854 78.463C474.831 78.3552 478.769 77.4543 483.64 76.4533C488.518 75.4523 492.487 74.7285 492.51 74.8363Z" fill="#253858"/>
<path d="M230.399 180.596L203.148 320.582L199.58 338.908L381.503 338.015C389.664 337.976 396.901 330.73 399.529 319.973L431.789 187.811C433.785 179.641 429.408 171.148 423.212 171.148L239.084 171.34C235.015 171.348 231.462 175.136 230.399 180.596Z" fill="#80BEFF"/>
<path d="M364.055 311.103L344.796 156.017C344.01 149.665 338.939 144.922 332.959 144.945L290.719 145.083C287.59 145.091 284.592 146.423 282.372 148.779L262.319 170.078L144.847 170.694C137.672 170.732 132.154 177.516 133.102 185.146L150.989 328.482C151.783 334.827 156.838 339.562 162.811 339.547L367.539 339.146C390.343 339.616 392.516 332.894 392.516 332.894C366.383 338.669 364.055 311.118 364.055 311.103Z" fill="#3397FF"/>
<g opacity="0.5">
<path d="M275.776 280.064L268.87 287.472L215.694 239.67L222.6 232.263L275.776 280.064Z" fill="#A7DFFF"/>
<path d="M265.98 230.623L273.61 237.483L225.489 289.112L217.86 282.259L265.98 230.623Z" fill="#A7DFFF"/>
</g>
<path d="M393.286 79.9106C392.793 79.7027 392.439 79.2176 392.416 78.6478L392.107 71.5022C392.084 71.0556 392.277 70.6167 392.624 70.3318C392.97 70.0469 393.433 69.9391 393.872 70.0392C395.02 70.3087 396.292 70.0623 397.348 69.3539C398.327 68.6994 398.982 67.7446 399.144 66.7205C399.313 65.7041 398.997 64.5722 398.28 63.6251C397.51 62.6087 396.377 61.9311 395.244 61.8002C392.924 61.5307 390.42 63.3094 389.772 65.681C389.564 66.4433 388.778 66.8976 388.007 66.6897C387.229 66.4741 386.79 65.6887 386.998 64.9264C388.007 61.1996 391.861 58.52 395.575 58.9435C397.502 59.1668 399.328 60.2371 400.577 61.8926C401.764 63.4634 402.28 65.3884 401.987 67.1825C401.694 68.9843 400.585 70.6475 398.943 71.7409C397.756 72.534 396.4 72.9652 395.044 73.0114L395.282 78.5246C395.313 79.3177 394.704 79.9876 393.911 80.0184C393.695 80.0338 393.479 79.9953 393.286 79.9106Z" fill="#3397FF"/>
<path d="M395.398 82.8366C395.444 83.4834 394.951 84.0455 394.304 84.0917C393.656 84.1379 393.094 83.6451 393.047 82.9983C393.001 82.3515 393.494 81.7894 394.142 81.7432C394.789 81.697 395.352 82.1898 395.398 82.8366Z" fill="#3397FF"/>
<path d="M368.525 69.8313C368.533 69.8313 368.556 69.6696 368.594 69.3616C368.633 69.0305 368.679 68.5685 368.748 67.9833C368.779 67.375 368.941 66.6358 369.118 65.7734C369.219 65.3422 369.273 64.8648 369.434 64.3797C369.588 63.8946 369.743 63.371 369.912 62.8243C370.66 60.6606 371.808 58.0657 373.742 55.4862C375.661 52.9144 378.366 50.3657 381.834 48.4407C383.545 47.4243 385.495 46.7159 387.545 46.0845C389.626 45.5917 391.83 45.1682 394.134 45.2221C395.283 45.1605 396.446 45.3299 397.633 45.43C398.226 45.4839 398.804 45.6456 399.398 45.7457C399.991 45.8535 400.592 45.969 401.17 46.1769C403.552 46.7852 405.864 47.9094 408.06 49.2954C412.484 52.0751 416.206 56.595 418.248 62.0774C419.273 64.8186 419.759 67.8216 419.759 70.8631C419.821 73.9046 419.227 76.9923 418.148 79.9029L417.801 80.7807L417.755 80.8962L417.801 81.004C419.736 85.4546 421.632 89.8128 423.466 94.0401L423.79 93.6705C419.813 92.1459 415.952 90.6598 412.245 89.243L412.098 89.1891L411.983 89.2969C408.777 92.4 404.954 94.4944 401.086 95.5801C397.201 96.6735 393.286 96.7274 389.734 96.096C386.166 95.4646 382.96 94.1017 380.278 92.3538C377.596 90.6059 375.438 88.473 373.781 86.3093C372.132 84.1225 371.045 81.8741 370.228 79.8721C369.504 77.8239 369.064 76.0067 368.849 74.4975C368.756 73.7429 368.679 73.0807 368.61 72.4955C368.594 71.918 368.579 71.4329 368.571 71.0248C368.556 70.6475 368.548 70.3472 368.54 70.1239C368.54 69.9391 368.533 69.8313 368.525 69.8313C368.517 69.8313 368.51 69.9314 368.51 70.1393C368.51 70.3626 368.502 70.6629 368.494 71.0402C368.494 71.4483 368.494 71.9411 368.494 72.5186C368.556 73.1038 368.625 73.7814 368.695 74.536C368.887 76.0529 369.303 77.8932 370.012 79.9722C370.814 82.005 371.893 84.2842 373.542 86.5172C375.207 88.7194 377.372 90.8985 380.085 92.6926C382.79 94.4867 386.042 95.8881 389.664 96.5426C393.279 97.1971 397.255 97.1586 401.209 96.0575C405.155 94.9564 409.054 92.8389 412.33 89.6819L412.075 89.7358C415.775 91.1603 419.636 92.6464 423.612 94.1864L424.19 94.4097L423.936 93.8168C422.102 89.5895 420.206 85.2236 418.279 80.773V80.9963L418.634 80.0954C419.743 77.1232 420.345 73.9585 420.283 70.8554C420.283 67.7523 419.782 64.68 418.734 61.8772C416.645 56.2793 412.831 51.6747 408.322 48.8565C406.072 47.4474 403.721 46.3155 401.294 45.6995C400.7 45.4993 400.091 45.3838 399.49 45.2683C398.889 45.1682 398.296 45.0065 397.695 44.9526C396.492 44.8525 395.313 44.6908 394.142 44.7601C391.799 44.7139 389.564 45.1528 387.453 45.661C385.372 46.3078 383.399 47.0393 381.673 48.0788C378.166 50.0577 375.446 52.6526 373.519 55.2783C371.585 57.904 370.444 60.5451 369.727 62.7319C369.565 63.2863 369.411 63.8099 369.265 64.3104C369.111 64.8032 369.064 65.2883 368.972 65.7195C368.802 66.5973 368.664 67.3365 368.648 67.9525C368.602 68.5454 368.571 68.9997 368.548 69.3385C368.517 69.6773 368.51 69.8313 368.525 69.8313Z" fill="#253858"/>
</svg>
